<svg width="31" height="33" viewBox="0 0 31 33" fill="none" xmlns="http://www.w3.org/2000/svg">
<path d="M5.67857 26.5C4.95747 26.5 4.5 25.9609 4.5 25.45V12.5H26.5V25.45C26.5 25.9612 26.0427 26.5 25.3214 26.5H5.67857Z" stroke="#0069DE" stroke-width="3"/>
<path d="M3.6875 5H27.3125C27.7052 5 28 5.30907 28 5.66667V8H3V5.66667C3 5.30927 3.29517 5 3.6875 5Z" fill="#0069DE" stroke="#0069DE" stroke-width="2"/>
<path d="M9.8125 17C9.36563 17 9 17.3375 9 17.75V18.25C9 18.6625 9.36563 19 9.8125 19H21.1875C21.6344 19 22 18.6625 22 18.25V17.75C22 17.3375 21.6344 17 21.1875 17H9.8125Z" fill="#0069DE"/>
</svg>
