<svg width="31" height="33" viewBox="0 0 31 33" fill="none" xmlns="http://www.w3.org/2000/svg">
<path d="M20.936 12.625L16.5326 11.1524C16.1461 11.0246 16.0813 10.4965 16.4371 10.2839L17.9327 9.3902C16.3022 6.74757 14.9544 5.99438 12.9284 8.26228C12.7036 8.51394 12.2897 8.30793 12.3204 7.97132C12.4179 6.89285 13.0561 5.58831 14.1129 4.95684C16.7281 3.39408 18.5895 5.25254 20.2711 7.99258L21.6454 7.17136C22.0006 6.95912 22.4353 7.26553 22.365 7.66688L21.5758 12.2425C21.5105 12.5406 21.2149 12.7172 20.936 12.625Z" fill="#0069DE"/>
<g clip-path="url(#clip0_2560_676)">
<path d="M8.70575 18.3621L8.61765 18.5078L8.52954 18.3621H8.70575ZM10.7903 22.9559L11.7582 19.0388C13.3464 19.5707 14.4853 21.0603 14.4853 22.8065C14.4853 22.8815 14.4193 22.9559 14.3283 22.9559H10.7903ZM8.61765 20.4722L9.29077 22.9559H7.94453L8.61765 20.4722ZM6.445 22.9559H2.90756C2.81498 22.9559 2.75 22.8819 2.75 22.8065C2.75 21.0602 3.8887 19.5707 5.4771 19.0388L6.445 22.9559ZM11.6492 12.4559C11.6492 14.107 10.2981 15.4559 8.61765 15.4559C6.93724 15.4559 5.58613 14.107 5.58613 12.4559C5.58613 10.805 6.93727 9.45587 8.61765 9.45587C10.298 9.45587 11.6492 10.805 11.6492 12.4559Z" fill="#0069DE" stroke="#0069DE" stroke-width="1.5"/>
</g>
<g clip-path="url(#clip1_2560_676)">
<path d="M29.2131 28.2491H29.2119H18.024C17.8671 28.2491 17.75 28.1243 17.75 27.9834C17.75 25.5998 19.7011 23.6563 22.1198 23.6563H25.1155C27.5345 23.6563 29.4853 25.5998 29.4853 27.9834C29.4853 28.1268 29.3683 28.2494 29.2131 28.2491ZM26.6492 17.75C26.6492 19.4009 25.298 20.75 23.6176 20.75C21.9373 20.75 20.5861 19.4009 20.5861 17.75C20.5861 16.0991 21.9373 14.75 23.6176 14.75C25.298 14.75 26.6492 16.0991 26.6492 17.75Z" fill="#0069DE" stroke="#0069DE" stroke-width="1.5"/>
</g>
<defs>
<clipPath id="clip0_2560_676">
<rect width="13.2353" height="15" fill="white" transform="translate(2 8.70587)"/>
</clipPath>
<clipPath id="clip1_2560_676">
<rect width="13.2353" height="15" fill="white" transform="translate(17 14)"/>
</clipPath>
</defs>
</svg>
