<svg width="31" height="33" viewBox="0 0 31 33" fill="none" xmlns="http://www.w3.org/2000/svg">
<path d="M4.625 9.25H7.04167H26.375" stroke="#0069DE" stroke-width="3" stroke-linecap="round" stroke-linejoin="round"/>
<path d="M10.6667 9.24996V6.83329C10.6667 6.19235 10.9214 5.57766 11.3746 5.12445C11.8278 4.67124 12.4425 4.41663 13.0834 4.41663H17.9167C18.5577 4.41663 19.1724 4.67124 19.6256 5.12445C20.0788 5.57766 20.3334 6.19235 20.3334 6.83329V9.24996M23.9584 9.24996V26.1666C23.9584 26.8076 23.7038 27.4223 23.2506 27.8755C22.7974 28.3287 22.1827 28.5833 21.5417 28.5833H9.45841C8.81747 28.5833 8.20279 28.3287 7.74957 27.8755C7.29636 27.4223 7.04175 26.8076 7.04175 26.1666V9.24996H23.9584Z" stroke="#0069DE" stroke-width="3" stroke-linecap="round" stroke-linejoin="round"/>
<path d="M10.6667 6.83329V9.24996H20.3334V6.83329C20.3334 6.19235 20.0788 5.57766 19.6256 5.12445C19.1724 4.67124 18.5577 4.41663 17.9167 4.41663H13.0834C12.4425 4.41663 11.8278 4.67124 11.3746 5.12445C10.9214 5.57766 10.6667 6.19235 10.6667 6.83329Z" stroke="#0069DE" stroke-width="3" stroke-linecap="round" stroke-linejoin="round"/>
<path d="M13.0833 15.2916V22.5416" stroke="#0069DE" stroke-width="3" stroke-linecap="round" stroke-linejoin="round"/>
<path d="M17.9167 15.2916V22.5416" stroke="#0069DE" stroke-width="3" stroke-linecap="round" stroke-linejoin="round"/>
</svg>
