<svg width="31" height="33" viewBox="0 0 31 33" fill="none" xmlns="http://www.w3.org/2000/svg">
<path d="M28.2778 19.9924C28.4154 20.1549 28.5 20.3674 28.5 20.6041V25.4791C28.5 26.0091 28.0775 26.4166 27.5833 26.4166H3.41667C2.9227 26.4166 2.5 26.0088 2.5 25.4791V20.6041C2.5 20.3672 2.58455 20.1547 2.72222 19.9922V23.8541C2.72222 25.1148 3.73974 26.1666 5.02778 26.1666H25.9722C27.2576 26.1666 28.2778 25.1191 28.2778 23.8541V19.9924ZM22.75 6.66663C23.2439 6.66663 23.6667 7.07438 23.6667 7.60413V21.5416H7.33333V7.60413C7.33333 7.07438 7.75614 6.66663 8.25 6.66663H22.75Z" stroke="#0069DE" stroke-width="3"/>
<path d="M18.9233 17.8652L18.2132 17.1611C18.2109 17.1634 18.2094 17.1645 18.2087 17.1649L18.207 17.1659C18.206 17.1663 18.2044 17.1667 18.2021 17.1667C18.1998 17.1667 18.198 17.1663 18.1969 17.1658L18.195 17.1648C18.1944 17.1643 18.1933 17.1635 18.1917 17.1621L16.2352 15.1508L15.5379 14.4339L14.8211 15.1313L12.785 17.1125L12.7785 17.1187L12.7722 17.1251C12.77 17.1274 12.7685 17.1284 12.7678 17.1289L12.766 17.1298C12.7651 17.1302 12.7634 17.1307 12.7611 17.1307C12.7588 17.1307 12.7571 17.1302 12.756 17.1298L12.754 17.1287C12.7533 17.1282 12.7518 17.1272 12.7496 17.125C12.7459 17.1212 12.7443 17.1183 12.7432 17.1156C12.7419 17.1122 12.7407 17.1074 12.7407 17.1016C12.7407 17.0957 12.7419 17.0909 12.7433 17.0874C12.7441 17.0852 12.7454 17.0828 12.7478 17.08L14.7742 15.1117L15.4927 14.4137L14.7935 13.6964L12.7914 11.6424L12.7914 11.6423L12.7855 11.6364C12.7817 11.6325 12.78 11.6295 12.7789 11.6268C12.7776 11.6234 12.7764 11.6186 12.7764 11.6127C12.7764 11.6069 12.7776 11.6021 12.779 11.5986C12.7801 11.5958 12.7818 11.5927 12.7857 11.5888C12.7879 11.5866 12.7893 11.5855 12.79 11.5851L12.7916 11.5842C12.7925 11.5838 12.7942 11.5834 12.7965 11.5834C12.7988 11.5834 12.8005 11.5838 12.8016 11.5843L12.8035 11.5853C12.8041 11.5857 12.8052 11.5865 12.8068 11.588L14.8017 13.6381L15.5118 14.3678L16.2286 13.6447L18.2278 11.628C18.2299 11.6258 18.2314 11.6247 18.2321 11.6243L18.2338 11.6233C18.2348 11.6229 18.2365 11.6225 18.2388 11.6225C18.2412 11.6225 18.2429 11.6229 18.244 11.6234L18.2458 11.6244C18.2465 11.6248 18.248 11.6259 18.2503 11.6282C18.2541 11.632 18.2557 11.635 18.2568 11.6376C18.2581 11.6409 18.2592 11.6457 18.2592 11.6515C18.2592 11.6573 18.2581 11.6622 18.2567 11.6657C18.2556 11.6685 18.2539 11.6715 18.25 11.6754C18.25 11.6755 18.2499 11.6755 18.2499 11.6756L16.2498 13.6898L15.5568 14.3878L16.2432 15.0923L18.2071 17.1077L18.2071 17.1077L18.2131 17.1138C18.2169 17.1177 18.2186 17.1206 18.2197 17.1234C18.221 17.1268 18.2222 17.1316 18.2222 17.1374C18.2222 17.1432 18.221 17.1481 18.2196 17.1516C18.2185 17.1544 18.2168 17.1574 18.2129 17.1614L18.9233 17.8652ZM18.9233 17.8652C19.3218 17.463 19.3218 16.8118 18.9233 16.4098L17.4806 17.8652C17.8793 18.267 18.5245 18.2674 18.9233 17.8652Z" fill="#0069DE" stroke="#0069DE" stroke-width="2"/>
</svg>
