<svg width="31" height="34" viewBox="0 0 31 34" fill="none" xmlns="http://www.w3.org/2000/svg">
<path d="M10.6128 13H6.85359C6.23096 13 5.72581 13.5016 5.72581 14.125C5.72581 14.7461 6.23096 15.25 6.85359 15.25H10.6128C11.2355 15.25 11.7406 14.7461 11.7406 14.125C11.7406 13.5016 11.2378 13 10.6128 13ZM22.2666 7H8.73322C4.99746 7 1.96655 10.0234 1.96655 13.75V23.4578C1.96655 24.2838 2.64228 24.9156 3.47026 24.9156H27.5295C28.3575 24.9156 29.0332 24.242 29.0332 23.4578V13.75C29.0332 10.0234 26.0023 7 22.2666 7ZM13.2443 22.75H4.22211V13.75C4.22211 11.2656 6.24271 9.25 8.73322 9.25C11.2237 9.25 13.2443 11.2656 13.2443 13.75V22.75ZM26.7777 22.75H15.4999V13.75C15.4999 12.0156 14.8232 10.4453 13.7424 9.25H22.2666C24.7571 9.25 26.7777 11.2656 26.7777 13.75V22.75ZM23.7703 13H18.8832C18.2629 13 17.7554 13.5063 17.7554 14.125C17.7554 14.7438 18.2629 15.25 18.8832 15.25H21.5147V16.75C21.5147 17.1625 21.853 17.5 22.2666 17.5L23.7703 17.5C24.1855 17.5 24.5221 17.1642 24.5221 16.7922V13.7922C24.5221 13.3375 24.1838 13 23.7703 13Z" fill="#0069DE"/>
</svg>
