<svg width="27" height="27" viewBox="0 0 27 27" fill="none" xmlns="http://www.w3.org/2000/svg">
<g clip-path="url(#clip0_2418_841)">
<path d="M26.994 13.497C26.994 20.952 20.952 26.994 13.497 26.994C6.04202 26.994 0 20.952 0 13.497C0 9.72206 1.55321 6.30563 4.05121 3.85613C4.71657 3.20448 5.78367 3.21503 6.43743 3.88039C7.0912 4.54627 7.08065 5.61496 6.41107 6.26872C4.53573 8.10347 3.37425 10.6658 3.37425 13.497C3.37425 19.0856 7.86095 23.6197 13.497 23.6197C19.0856 23.6197 23.6197 19.0856 23.6197 13.497C23.6197 8.48307 19.9713 4.31746 15.1841 3.51396V7.65501C15.1841 8.5882 14.4302 9.34214 13.497 9.34214C12.5638 9.34214 11.8099 8.5882 11.8099 7.65501V1.68712C11.8099 0.755515 12.5638 0 13.497 0C20.952 0 26.994 6.04202 26.994 13.497ZM14.3458 12.6007C14.8836 13.0963 14.8836 13.8977 14.3458 14.3458C13.8977 14.8836 13.0963 14.8836 12.6007 14.3458L7.05067 8.79579C6.56035 8.34765 6.56035 7.54626 7.05067 7.05067C7.54626 6.56035 8.34765 6.56035 8.79579 7.05067L14.3458 12.6007Z" fill="#0069DE"/>
</g>
<defs>
<clipPath id="clip0_2418_841">
<rect width="26.994" height="26.994" fill="white"/>
</clipPath>
</defs>
</svg>
