<svg width="31" height="33" viewBox="0 0 31 33" fill="none" xmlns="http://www.w3.org/2000/svg">
<path fill-rule="evenodd" clip-rule="evenodd" d="M5.64102 8.15736C5.27721 8.58649 4.94591 9.03229 4.64688 9.49175C1.11264 14.9222 2.08532 22.2622 7.15715 26.562C12.229 30.8618 19.6292 30.6202 24.408 26.2449C24.8124 25.8748 25.198 25.475 25.5618 25.0458C25.9256 24.6167 26.2569 24.1709 26.5559 23.7114C30.0901 18.281 29.1175 10.941 24.0456 6.64122C18.9738 2.34141 11.5736 2.583 6.79474 6.95826C6.3904 7.32845 6.00482 7.72823 5.64102 8.15736ZM7.20819 11.6632C4.84355 15.6712 5.63511 20.9172 9.30501 24.0285C12.9749 27.1398 18.2798 27.0622 21.8467 24.0735L7.20819 11.6632ZM23.9946 21.54L9.35604 9.12969C12.923 6.14104 18.2279 6.06344 21.8978 9.17472C25.5677 12.286 26.3592 17.532 23.9946 21.54Z" fill="#0069DE"/>
</svg>
