<svg width="31" height="33" viewBox="0 0 31 33" fill="none" xmlns="http://www.w3.org/2000/svg">
<path d="M14 28H4.90909C4.40701 28 4 27.5116 4 26.9091V5.09091C4 4.48842 4.40701 4 4.90909 4H23.0909C23.593 4 24 4.48842 24 5.09091V17" stroke="#0069DE" stroke-width="2" stroke-linecap="round" stroke-linejoin="round"/>
<path d="M8 7H15" stroke="#0069DE" stroke-width="2" stroke-linecap="round" stroke-linejoin="round"/>
<path d="M8 12H11" stroke="#0069DE" stroke-width="2" stroke-linecap="round" stroke-linejoin="round"/>
<path d="M8 16H20" stroke="#0069DE" stroke-width="2" stroke-linecap="round" stroke-linejoin="round"/>
<path d="M8 20.5H15.5" stroke="#0069DE" stroke-width="2" stroke-linecap="round" stroke-linejoin="round"/>
<path d="M8 25L13 25" stroke="#0069DE" stroke-width="2" stroke-linecap="round" stroke-linejoin="round"/>
<path d="M22.2813 22.2602C22.3542 22.2525 22.4271 22.25 22.5 22.25C23.8802 22.25 25 23.3189 25 24.6875C25 26.0332 23.8802 27.125 22.5 27.125C21.0964 27.125 20 26.0332 20 24.6875C20 24.6164 20.0026 24.5453 20.0104 24.4742C20.2526 24.5885 20.5339 24.6875 20.8333 24.6875C21.7526 24.6875 22.5 23.9588 22.5 23.0625C22.5 22.7705 22.3984 22.4963 22.2813 22.2602ZM27.5156 21.0465C28.7344 22.1484 29.5495 23.4459 29.9349 24.3752C30.0208 24.5758 30.0208 24.7992 29.9349 24.9998C29.5495 25.9062 28.7344 27.2037 27.5156 28.3285C26.2891 29.4406 24.6042 30.375 22.5 30.375C20.3958 30.375 18.7109 29.4406 17.4849 28.3285C16.2661 27.2037 15.4516 25.9062 15.0641 24.9998C14.9786 24.7992 14.9786 24.5758 15.0641 24.3752C15.4516 23.4459 16.2661 22.1484 17.4849 21.0465C18.7109 19.9354 20.3958 19 22.5 19C24.6042 19 26.2891 19.9354 27.5156 21.0465ZM22.5 21.0312C20.4297 21.0312 18.75 22.6689 18.75 24.6875C18.75 26.7061 20.4297 28.3438 22.5 28.3438C24.5703 28.3438 26.25 26.7061 26.25 24.6875C26.25 22.6689 24.5703 21.0312 22.5 21.0312Z" fill="#0069DE"/>
<g clip-path="url(#clip0_2560_677)">
<path d="M21.6919 7.06391C21.9422 7.30451 21.9478 7.699 21.7044 7.94664L16.7195 13.0181C16.4761 13.2658 16.0771 13.2715 15.8267 13.0309L13.2625 10.5671C13.0122 10.3265 13.0066 9.93203 13.2499 9.6844C13.4933 9.43676 13.8934 9.43107 14.1438 9.67167L16.2364 11.6987L20.7991 7.07663C21.0425 6.8286 21.4415 6.82292 21.6919 7.06391Z" fill="#0069DE" stroke="#0069DE"/>
</g>
<defs>
<clipPath id="clip0_2560_677">
<rect width="10.5135" height="10" fill="white" transform="translate(12.2424 5.13971) rotate(-0.815953)"/>
</clipPath>
</defs>
</svg>
