<svg width="31" height="33" viewBox="0 0 31 33" fill="none" xmlns="http://www.w3.org/2000/svg">
<path d="M24.9998 13.5896V4.09091C24.9998 3.48842 24.5927 3 24.0907 3H5.90885C5.40677 3 4.99976 3.48842 4.99976 4.09091V19.1199" stroke="#0069DE" stroke-width="2" stroke-linecap="round" stroke-linejoin="round"/>
<path d="M14.2892 24.5687C13.2781 24.5783 11.7665 25.6145 11.0152 25.9373C10.4305 26.189 9.92621 26.4062 9.50092 26.3775C9.06204 26.3479 9.0202 25.985 9.16477 25.2011C9.19808 25.0255 9.51022 23.4638 8.44917 23.4611C7.9595 23.4614 7.16348 23.9257 4.96947 26.0273L5.93019 23.7869C6.63385 22.1471 5.12325 20.3646 3.56496 21.3421L2.44374 22.0868C2.29302 22.1811 2.23552 22.3973 2.31559 22.5694L2.6093 23.1894C2.68937 23.3615 2.87834 23.4232 3.03115 23.3268L4.21555 22.542C4.59034 22.3072 4.99518 22.7546 4.81011 23.1845L2.53646 28.4908C2.37918 28.8558 2.52335 29.4658 3.04768 29.5012C3.20886 29.512 3.37288 29.452 3.50059 29.3227C4.3831 28.4442 6.72977 26.1906 7.8943 25.2666C7.80903 25.8944 7.76558 26.5672 8.16923 27.148C8.44127 27.5398 8.85581 27.7567 9.40344 27.7936C10.0948 27.8403 10.7458 27.5596 11.4348 27.2638C12.0978 26.9795 13.4508 26.0082 14.2207 25.989C14.3868 25.9847 14.5268 25.8474 14.5395 25.6593L14.5874 24.9489C14.6049 24.7478 14.4668 24.5673 14.2892 24.5687Z" fill="#0069DE" stroke="#0069DE"/>
<path d="M15.4551 25.8176L26.3924 14.2618C26.9042 13.7211 27.7574 13.6976 28.2982 14.2094C28.8389 14.7212 28.8624 15.5745 28.3506 16.1152L17.4133 27.671L14.8603 28.4072L15.4551 25.8176Z" fill="#0069DE"/>
<path d="M9.00024 6.125H16.0002" stroke="#0069DE" stroke-width="2" stroke-linecap="round" stroke-linejoin="round"/>
<path d="M9.00024 11.125H12.0002" stroke="#0069DE" stroke-width="2" stroke-linecap="round" stroke-linejoin="round"/>
<path d="M9.00024 15.125H21.0002" stroke="#0069DE" stroke-width="2" stroke-linecap="round" stroke-linejoin="round"/>
<path d="M9.00024 19.625H19.5002" stroke="#0069DE" stroke-width="2" stroke-linecap="round" stroke-linejoin="round"/>
<path d="M22.1968 6.19598C22.433 6.43678 22.4386 6.83127 22.2093 7.0787L17.5139 12.1461C17.2847 12.3935 16.9085 12.3989 16.6723 12.1581L14.2529 9.69227C14.0167 9.45147 14.0111 9.05698 14.2403 8.80955C14.4695 8.56212 14.8468 8.55674 15.083 8.79755L17.0575 10.8263L21.3552 6.20796C21.5844 5.96014 21.9605 5.95479 22.1968 6.19598Z" fill="#0069DE" stroke="#0069DE"/>
<path d="M25 22L24.9999 25.9091C24.9999 26.5116 24.5929 27 24.0908 27H20.5" stroke="#0069DE" stroke-width="2" stroke-linecap="round" stroke-linejoin="round"/>
</svg>
