<svg width="31" height="33" viewBox="0 0 31 33" fill="none" xmlns="http://www.w3.org/2000/svg">
<path fill-rule="evenodd" clip-rule="evenodd" d="M22.3517 30.5615C22.0611 30.8423 21.6672 31 21.2565 31L9.7043 31C9.29224 31 8.89714 30.8412 8.60628 30.5588C6.8652 28.868 4.83441 26.8814 3.23971 25.3182C2.44218 24.5365 1.75337 23.8603 1.26393 23.3796L0.63322 22.7598C0.24923 22.4868 -9.13121e-07 22.0466 -8.67542e-07 21.5502L1.56902e-07 10.3909C2.02589e-07 9.89323 0.250422 9.45216 0.635975 9.17926L8.64827 1.43849C8.93891 1.1577 9.3328 1 9.74347 1L21.2957 1C21.8504 1 22.337 1.2819 22.6109 1.70572L30.3604 9.23563C30.748 9.50832 31 9.95059 31 10.4498L31 21.6091C31 22.1068 30.7496 22.5478 30.364 22.8207L22.3517 30.5615ZM27.8997 20.9621L27.8997 11.0963L20.5967 4.00028L10.3848 4.00028L3.10029 11.0379L3.10029 20.9083L3.47238 21.2739C3.96124 21.7541 4.64929 22.4295 5.44592 23.2103C6.90245 24.638 8.72083 26.4171 10.3483 27.9997L20.6152 27.9997L27.8997 20.9621Z" fill="#0069DE"/>
<path d="M9.32182 16.7949C9.32182 17.0938 9.26615 17.356 9.15482 17.5815C9.0435 17.8071 8.89262 17.9961 8.70219 18.1484C8.51176 18.2979 8.2891 18.4106 8.03422 18.4868C7.77934 18.563 7.50688 18.6011 7.21684 18.6011C7.02055 18.6011 6.83744 18.585 6.66752 18.5527C6.50053 18.5205 6.35258 18.4824 6.22367 18.4385C6.09477 18.3916 5.98637 18.3433 5.89848 18.2935C5.81352 18.2437 5.75199 18.1997 5.71391 18.1616C5.67582 18.1235 5.64799 18.0693 5.63041 17.999C5.61576 17.9258 5.60844 17.8218 5.60844 17.687C5.60844 17.5962 5.61137 17.52 5.61723 17.4585C5.62309 17.397 5.63188 17.3472 5.64359 17.3091C5.65824 17.271 5.67582 17.2446 5.69633 17.23C5.71977 17.2124 5.74613 17.2036 5.77543 17.2036C5.81645 17.2036 5.87357 17.2285 5.94682 17.2783C6.02299 17.3252 6.11967 17.3779 6.23686 17.4365C6.35404 17.4951 6.4932 17.5493 6.65434 17.5991C6.8184 17.646 7.00736 17.6694 7.22123 17.6694C7.36186 17.6694 7.48783 17.6533 7.59916 17.6211C7.71049 17.5859 7.80424 17.5376 7.88041 17.4761C7.95951 17.4146 8.01957 17.3384 8.06059 17.2476C8.1016 17.1567 8.12211 17.0557 8.12211 16.9443C8.12211 16.8154 8.08695 16.7056 8.01664 16.6147C7.94633 16.521 7.85404 16.439 7.73979 16.3687C7.62846 16.2954 7.50102 16.228 7.35746 16.1665C7.21391 16.1021 7.06596 16.0347 6.91361 15.9644C6.76127 15.894 6.61332 15.8149 6.46977 15.7271C6.32621 15.6362 6.1973 15.5293 6.08305 15.4062C5.97172 15.2803 5.8809 15.1323 5.81059 14.9624C5.74027 14.7925 5.70512 14.5889 5.70512 14.3516C5.70512 14.0791 5.75492 13.8403 5.85453 13.6353C5.95707 13.4272 6.0933 13.2559 6.26322 13.1211C6.43607 12.9834 6.63822 12.8809 6.86967 12.8135C7.10404 12.7461 7.3516 12.7124 7.61234 12.7124C7.74711 12.7124 7.88188 12.7227 8.01664 12.7432C8.15141 12.7637 8.27738 12.7915 8.39457 12.8267C8.51176 12.8618 8.61576 12.9014 8.70658 12.9453C8.7974 12.9893 8.85746 13.0259 8.88676 13.0552C8.91605 13.0845 8.9351 13.1094 8.94389 13.1299C8.95561 13.1504 8.96439 13.1782 8.97025 13.2134C8.97904 13.2456 8.9849 13.2881 8.98783 13.3408C8.99076 13.3906 8.99223 13.4536 8.99223 13.5298C8.99223 13.6147 8.9893 13.6865 8.98344 13.7451C8.98051 13.8037 8.97318 13.8521 8.96146 13.8901C8.95268 13.9282 8.93803 13.9561 8.91752 13.9736C8.89994 13.9912 8.87504 14 8.84281 14C8.81059 14 8.75932 13.9795 8.689 13.9385C8.61869 13.8975 8.53227 13.8535 8.42973 13.8066C8.32719 13.7568 8.20854 13.7129 8.07377 13.6748C7.939 13.6338 7.79105 13.6133 7.62992 13.6133C7.50395 13.6133 7.39408 13.6294 7.30033 13.6616C7.20658 13.6909 7.12748 13.7334 7.06303 13.7891C7.0015 13.8418 6.95463 13.9062 6.9224 13.9824C6.89311 14.0586 6.87846 14.1392 6.87846 14.2241C6.87846 14.3501 6.91215 14.46 6.97953 14.5537C7.04984 14.6445 7.14213 14.7266 7.25639 14.7998C7.37357 14.8701 7.50541 14.9375 7.65189 15.002C7.79838 15.0635 7.94779 15.1294 8.10014 15.1997C8.25248 15.27 8.40189 15.3506 8.54838 15.4414C8.69486 15.5293 8.82523 15.6362 8.93949 15.7622C9.05375 15.8853 9.14604 16.0317 9.21635 16.2017C9.28666 16.3687 9.32182 16.5664 9.32182 16.7949ZM14.2609 13.2881C14.2609 13.373 14.2565 13.4463 14.2477 13.5078C14.2419 13.5664 14.2316 13.6147 14.217 13.6528C14.2023 13.688 14.1833 13.7144 14.1598 13.7319C14.1393 13.7495 14.1159 13.7583 14.0895 13.7583H12.6657V18.3418C12.6657 18.3711 12.6554 18.3975 12.6349 18.4209C12.6174 18.4443 12.5866 18.4634 12.5427 18.478C12.4987 18.4927 12.4387 18.5044 12.3625 18.5132C12.2892 18.522 12.197 18.5264 12.0856 18.5264C11.9743 18.5264 11.8805 18.522 11.8044 18.5132C11.7311 18.5044 11.6725 18.4927 11.6286 18.478C11.5846 18.4634 11.5524 18.4443 11.5319 18.4209C11.5143 18.3975 11.5055 18.3711 11.5055 18.3418V13.7583H10.0817C10.0524 13.7583 10.0275 13.7495 10.007 13.7319C9.9865 13.7144 9.96893 13.688 9.95428 13.6528C9.93963 13.6147 9.92791 13.5664 9.91912 13.5078C9.91326 13.4463 9.91033 13.373 9.91033 13.2881C9.91033 13.2002 9.91326 13.1255 9.91912 13.064C9.92791 13.0024 9.93963 12.9541 9.95428 12.9189C9.96893 12.8809 9.9865 12.8545 10.007 12.8398C10.0275 12.8223 10.0524 12.8135 10.0817 12.8135H14.0895C14.1159 12.8135 14.1393 12.8223 14.1598 12.8398C14.1833 12.8545 14.2023 12.8809 14.217 12.9189C14.2316 12.9541 14.2419 13.0024 14.2477 13.064C14.2565 13.1255 14.2609 13.2002 14.2609 13.2881ZM20.1624 15.5908C20.1624 16.0625 20.1038 16.4844 19.9866 16.8564C19.8695 17.2285 19.6951 17.5449 19.4637 17.8057C19.2322 18.0635 18.9451 18.2612 18.6024 18.3989C18.2625 18.5337 17.8685 18.6011 17.4202 18.6011C16.9779 18.6011 16.5911 18.5439 16.2601 18.4297C15.932 18.3125 15.658 18.1353 15.4383 17.8979C15.2186 17.6606 15.053 17.3589 14.9417 16.9927C14.8333 16.6265 14.7791 16.1929 14.7791 15.6919C14.7791 15.2319 14.8377 14.8188 14.9549 14.4526C15.0721 14.0835 15.2464 13.77 15.4779 13.5122C15.7093 13.2544 15.9949 13.0566 16.3348 12.9189C16.6776 12.7812 17.0745 12.7124 17.5257 12.7124C17.9564 12.7124 18.3358 12.7695 18.6639 12.8838C18.9949 12.998 19.2703 13.1738 19.4901 13.4111C19.7127 13.6484 19.8797 13.9487 19.991 14.312C20.1053 14.6724 20.1624 15.0986 20.1624 15.5908ZM18.9495 15.6523C18.9495 15.3535 18.9261 15.0825 18.8792 14.8394C18.8323 14.5933 18.7518 14.3838 18.6375 14.2109C18.5262 14.0352 18.3768 13.9004 18.1893 13.8066C18.0018 13.71 17.7674 13.6616 17.4862 13.6616C17.202 13.6616 16.9647 13.7158 16.7742 13.8242C16.5838 13.9297 16.43 14.0718 16.3128 14.2505C16.1956 14.4292 16.1121 14.6387 16.0623 14.8789C16.0154 15.1162 15.992 15.3682 15.992 15.6348C15.992 15.9453 16.0154 16.2251 16.0623 16.4741C16.1092 16.7202 16.1883 16.9312 16.2996 17.1069C16.411 17.2827 16.5604 17.4175 16.7479 17.5112C16.9354 17.6021 17.1712 17.6475 17.4554 17.6475C17.7396 17.6475 17.9769 17.5947 18.1673 17.4893C18.3577 17.3838 18.5115 17.2402 18.6287 17.0586C18.7459 16.877 18.8279 16.666 18.8748 16.4258C18.9246 16.1826 18.9495 15.9248 18.9495 15.6523ZM25.3916 14.5405C25.3916 14.8599 25.3418 15.1426 25.2421 15.3887C25.1425 15.6348 24.9975 15.8428 24.8071 16.0127C24.6167 16.1797 24.3823 16.3071 24.104 16.395C23.8286 16.4829 23.5034 16.5269 23.1284 16.5269H22.6538V18.3418C22.6538 18.3711 22.6435 18.3975 22.623 18.4209C22.6054 18.4443 22.5747 18.4634 22.5307 18.478C22.4868 18.4927 22.4282 18.5044 22.3549 18.5132C22.2817 18.522 22.188 18.5264 22.0737 18.5264C21.9624 18.5264 21.8686 18.522 21.7924 18.5132C21.7192 18.5044 21.6606 18.4927 21.6167 18.478C21.5727 18.4634 21.542 18.4443 21.5244 18.4209C21.5068 18.3975 21.498 18.3711 21.498 18.3418V13.2266C21.498 13.0889 21.5332 12.9863 21.6035 12.9189C21.6767 12.8486 21.7719 12.8135 21.8891 12.8135H23.2295C23.3642 12.8135 23.4917 12.8193 23.6118 12.8311C23.7348 12.8398 23.8813 12.8618 24.0512 12.897C24.2212 12.9292 24.3925 12.9907 24.5654 13.0815C24.7412 13.1724 24.8906 13.2881 25.0136 13.4287C25.1367 13.5664 25.2304 13.729 25.2949 13.9165C25.3593 14.1011 25.3916 14.3091 25.3916 14.5405ZM24.1831 14.624C24.1831 14.4248 24.1479 14.2607 24.0776 14.1318C24.0073 14.0029 23.9209 13.9077 23.8183 13.8462C23.7158 13.7847 23.6074 13.7466 23.4931 13.7319C23.3818 13.7144 23.2661 13.7056 23.146 13.7056H22.6538V15.6348H23.1723C23.3569 15.6348 23.5107 15.6099 23.6338 15.5601C23.7597 15.5103 23.8623 15.4414 23.9414 15.3535C24.0205 15.2627 24.0805 15.1558 24.1215 15.0327C24.1626 14.9067 24.1831 14.7705 24.1831 14.624Z" fill="#0069DE"/>
<path d="M8.70219 18.1484L8.85652 18.3451L8.85836 18.3437L8.70219 18.1484ZM6.66752 18.5527L6.62015 18.7982L6.62094 18.7984L6.66752 18.5527ZM6.22367 18.4385L6.13822 18.6735L6.143 18.6751L6.22367 18.4385ZM5.89848 18.2935L5.77203 18.5092L5.77522 18.511L5.89848 18.2935ZM5.63041 17.999L5.38499 18.0481L5.38787 18.0597L5.63041 17.999ZM5.64359 17.3091L5.41026 17.2193L5.40717 17.2274L5.40465 17.2356L5.64359 17.3091ZM5.69633 17.23L5.84168 17.4335L5.84633 17.43L5.69633 17.23ZM5.94682 17.2783L5.80609 17.4853L5.81579 17.4912L5.94682 17.2783ZM6.65434 17.5991L6.58049 17.838L6.58566 17.8395L6.65434 17.5991ZM7.59916 17.6211L7.66869 17.8613L7.67444 17.8595L7.59916 17.6211ZM7.88041 17.4761L7.7269 17.2787L7.72333 17.2816L7.88041 17.4761ZM8.01664 16.6147L7.81662 16.7648L7.81896 16.7678L8.01664 16.6147ZM7.73979 16.3687L7.60232 16.5776L7.60876 16.5816L7.73979 16.3687ZM7.35746 16.1665L7.25505 16.3946L7.25898 16.3963L7.35746 16.1665ZM6.46977 15.7271L6.33609 15.9383L6.33923 15.9403L6.46977 15.7271ZM6.08305 15.4062L5.89566 15.5718L5.89985 15.5764L6.08305 15.4062ZM5.85453 13.6353L5.63029 13.5247L5.62965 13.526L5.85453 13.6353ZM6.26322 13.1211L6.41857 13.317L6.41899 13.3166L6.26322 13.1211ZM6.86967 12.8135L6.80059 12.5732L6.79978 12.5734L6.86967 12.8135ZM8.94389 13.1299L8.7141 13.2284L8.71973 13.2415L8.72683 13.2539L8.94389 13.1299ZM8.97025 13.2134L8.72366 13.2545L8.72573 13.267L8.72906 13.2792L8.97025 13.2134ZM8.98783 13.3408L8.73822 13.3547L8.73826 13.3555L8.98783 13.3408ZM8.98344 13.7451L8.73437 13.7202L8.73375 13.7326L8.98344 13.7451ZM8.96146 13.8901L8.72252 13.8166L8.71988 13.8252L8.71787 13.8339L8.96146 13.8901ZM8.91752 13.9736L8.75482 13.7838L8.74753 13.7901L8.74074 13.7969L8.91752 13.9736ZM8.42973 13.8066L8.32047 14.0316L8.32579 14.034L8.42973 13.8066ZM8.07377 13.6748L8.00096 13.914L8.00578 13.9154L8.07377 13.6748ZM7.30033 13.6616L7.37493 13.9003L7.3816 13.898L7.30033 13.6616ZM7.06303 13.7891L7.22573 13.9789L7.22643 13.9783L7.06303 13.7891ZM6.9224 13.9824L6.69203 13.885L6.68907 13.8927L6.9224 13.9824ZM6.97953 14.5537L6.7764 14.6997L6.78185 14.7068L6.97953 14.5537ZM7.25639 14.7998L7.12141 15.0104L7.12776 15.0142L7.25639 14.7998ZM7.65189 15.002L7.5512 15.2308L7.55509 15.2324L7.65189 15.002ZM8.54838 15.4414L8.41663 15.6539L8.41976 15.6558L8.54838 15.4414ZM8.93949 15.7622L8.7543 15.9302L8.75629 15.9323L8.93949 15.7622ZM9.21635 16.2017L8.98534 16.2972L8.98594 16.2987L9.21635 16.2017ZM9.07182 16.7949C9.07182 17.0625 9.02208 17.2856 8.93064 17.4709L9.37901 17.6922C9.51022 17.4263 9.57182 17.125 9.57182 16.7949H9.07182ZM8.93064 17.4709C8.83499 17.6647 8.70694 17.8245 8.54601 17.9532L8.85836 18.3437C9.0783 18.1677 9.252 17.9495 9.37901 17.6922L8.93064 17.4709ZM8.54787 17.9518C8.38442 18.08 8.19047 18.1792 7.96263 18.2473L8.1058 18.7263C8.38773 18.6421 8.6391 18.5157 8.85651 18.3451L8.54787 17.9518ZM7.96263 18.2473C7.73297 18.3159 7.48481 18.3511 7.21684 18.3511V18.8511C7.52894 18.8511 7.8257 18.8101 8.1058 18.7263L7.96263 18.2473ZM7.21684 18.3511C7.03413 18.3511 6.86678 18.3361 6.7141 18.3071L6.62094 18.7984C6.80811 18.8339 7.00697 18.8511 7.21684 18.8511V18.3511ZM6.71489 18.3073C6.55654 18.2767 6.42008 18.2413 6.30434 18.2018L6.143 18.6751C6.28507 18.7235 6.44451 18.7643 6.62015 18.7982L6.71489 18.3073ZM6.30911 18.2035C6.18898 18.1598 6.09411 18.117 6.02173 18.076L5.77522 18.511C5.87862 18.5696 6.00055 18.6234 6.13824 18.6734L6.30911 18.2035ZM6.02491 18.0778C5.94584 18.0314 5.9061 18.0003 5.89068 17.9848L5.53713 18.3384C5.59789 18.3992 5.6812 18.4559 5.77205 18.5091L6.02491 18.0778ZM5.89068 17.9848C5.89388 17.988 5.88321 17.9794 5.87295 17.9384L5.38787 18.0597C5.41277 18.1592 5.45777 18.259 5.53713 18.3384L5.89068 17.9848ZM5.87556 17.95C5.86573 17.9009 5.85844 17.8162 5.85844 17.687H5.35844C5.35844 17.8274 5.36579 17.9507 5.38527 18.0481L5.87556 17.95ZM5.85844 17.687C5.85844 17.6008 5.86125 17.5331 5.8661 17.4822L5.36835 17.4348C5.36148 17.5069 5.35844 17.5916 5.35844 17.687H5.85844ZM5.8661 17.4822C5.87113 17.4294 5.87775 17.3982 5.88254 17.3826L5.40465 17.2356C5.386 17.2962 5.37505 17.3645 5.36835 17.4348L5.8661 17.4822ZM5.87693 17.3988C5.87943 17.3923 5.87964 17.3936 5.87578 17.3994C5.87191 17.4052 5.86147 17.4192 5.84164 17.4334L5.55102 17.0265C5.47299 17.0823 5.43259 17.1613 5.41026 17.2193L5.87693 17.3988ZM5.84633 17.43C5.83772 17.4364 5.8264 17.4428 5.81274 17.4474C5.79908 17.4519 5.78619 17.4536 5.77543 17.4536V16.9536C5.69204 16.9536 5.61304 16.9799 5.54633 17.03L5.84633 17.43ZM5.77543 17.4536C5.76078 17.4536 5.75107 17.4515 5.74773 17.4506C5.74426 17.4497 5.74457 17.4495 5.74914 17.4515C5.75893 17.4557 5.77757 17.4656 5.80624 17.4851L6.08739 17.0716C6.01098 17.0196 5.89857 16.9536 5.77543 16.9536V17.4536ZM5.81579 17.4912C5.90035 17.5433 6.00402 17.5996 6.12505 17.6601L6.34866 17.2129C6.23532 17.1562 6.14563 17.1071 6.07784 17.0654L5.81579 17.4912ZM6.12505 17.6601C6.25735 17.7263 6.40982 17.7852 6.58051 17.838L6.72816 17.3603C6.57658 17.3134 6.45073 17.264 6.34866 17.2129L6.12505 17.6601ZM6.58566 17.8395C6.77686 17.8941 6.98973 17.9194 7.22123 17.9194V17.4194C7.02499 17.4194 6.85993 17.3979 6.72302 17.3587L6.58566 17.8395ZM7.22123 17.9194C7.38055 17.9194 7.53055 17.9012 7.66867 17.8612L7.52965 17.381C7.44512 17.4054 7.34316 17.4194 7.22123 17.4194V17.9194ZM7.67444 17.8595C7.80994 17.8167 7.93285 17.7551 8.03749 17.6706L7.72333 17.2816C7.67562 17.3201 7.61103 17.3552 7.52388 17.3827L7.67444 17.8595ZM8.0339 17.6734C8.14491 17.5871 8.23058 17.4786 8.28843 17.3505L7.83274 17.1447C7.80856 17.1982 7.77412 17.242 7.72693 17.2787L8.0339 17.6734ZM8.28843 17.3505C8.34567 17.2237 8.37211 17.087 8.37211 16.9443H7.87211C7.87211 17.0244 7.85753 17.0898 7.83274 17.1447L8.28843 17.3505ZM8.37211 16.9443C8.37211 16.7672 8.32268 16.6017 8.21432 16.4617L7.81896 16.7678C7.85123 16.8095 7.87211 16.8637 7.87211 16.9443H8.37211ZM8.21664 16.4647C8.12497 16.3425 8.00797 16.2401 7.87081 16.1557L7.60876 16.5816C7.70011 16.6378 7.76769 16.6995 7.81664 16.7647L8.21664 16.4647ZM7.87719 16.1598C7.75164 16.0772 7.61082 16.0031 7.45594 15.9367L7.25898 16.3963C7.39122 16.453 7.50527 16.5136 7.60238 16.5775L7.87719 16.1598ZM7.45986 15.9384C7.31714 15.8744 7.16999 15.8073 7.01838 15.7374L6.80885 16.1913C6.96193 16.262 7.11067 16.3297 7.25506 16.3946L7.45986 15.9384ZM7.01838 15.7374C6.87492 15.6712 6.73557 15.5967 6.6003 15.5138L6.33923 15.9403C6.49107 16.0332 6.64762 16.1169 6.80885 16.1913L7.01838 15.7374ZM6.60343 15.5158C6.47788 15.4364 6.36566 15.3432 6.26625 15.2361L5.89985 15.5764C6.02895 15.7154 6.17455 15.8361 6.33611 15.9383L6.60343 15.5158ZM6.27038 15.2407C6.17902 15.1373 6.10231 15.0136 6.04159 14.8668L5.57958 15.058C5.65949 15.2511 5.76442 15.4232 5.89571 15.5718L6.27038 15.2407ZM6.04159 14.8668C5.98688 14.7346 5.95512 14.5652 5.95512 14.3516H5.45512C5.45512 14.6126 5.49366 14.8504 5.57958 15.058L6.04159 14.8668ZM5.95512 14.3516C5.95512 14.1096 5.99925 13.9095 6.07941 13.7445L5.62965 13.526C5.51059 13.7712 5.45512 14.0486 5.45512 14.3516H5.95512ZM6.07877 13.7458C6.1661 13.5686 6.27963 13.4272 6.41857 13.317L6.10787 12.9252C5.90698 13.0846 5.74804 13.2859 5.6303 13.5247L6.07877 13.7458ZM6.41899 13.3166C6.56416 13.201 6.7365 13.1126 6.93955 13.0535L6.79978 12.5734C6.53994 12.6491 6.30799 12.7658 6.10745 12.9256L6.41899 13.3166ZM6.93874 13.0537C7.14916 12.9932 7.37336 12.9624 7.61234 12.9624V12.4624C7.32985 12.4624 7.05892 12.4989 6.80059 12.5732L6.93874 13.0537ZM7.61234 12.9624C7.73437 12.9624 7.85657 12.9717 7.97903 12.9903L8.05425 12.496C7.90718 12.4736 7.75984 12.4624 7.61234 12.4624V12.9624ZM7.97903 12.9903C8.10351 13.0093 8.21794 13.0347 8.32273 13.0661L8.46641 12.5872C8.33682 12.5483 8.1993 12.5181 8.05425 12.496L7.97903 12.9903ZM8.32273 13.0661C8.42978 13.0982 8.52102 13.1333 8.59769 13.1704L8.81547 12.7203C8.71051 12.6695 8.59374 12.6254 8.46641 12.5872L8.32273 13.0661ZM8.59769 13.1704C8.63866 13.1902 8.6687 13.2064 8.68959 13.2192C8.71268 13.2333 8.71575 13.2377 8.70998 13.232L9.06353 12.8784C9.00115 12.816 8.90557 12.7639 8.81547 12.7203L8.59769 13.1704ZM8.70998 13.232C8.71914 13.2411 8.72335 13.2463 8.72442 13.2477C8.72485 13.2483 8.72393 13.2471 8.72222 13.2443C8.72055 13.2416 8.71747 13.2362 8.7141 13.2284L9.17367 13.0314C9.1458 12.9664 9.0994 12.9143 9.06353 12.8784L8.70998 13.232ZM8.72683 13.2539C8.72208 13.2456 8.72064 13.2407 8.72087 13.2414C8.72106 13.242 8.72225 13.246 8.72366 13.2545L9.21685 13.1723C9.20835 13.1213 9.19281 13.0616 9.16095 13.0058L8.72683 13.2539ZM8.72906 13.2792C8.73136 13.2876 8.73577 13.3106 8.73822 13.3547L9.23745 13.327C9.23403 13.2655 9.22672 13.2036 9.21144 13.1476L8.72906 13.2792ZM8.73826 13.3555C8.7408 13.3986 8.74223 13.4563 8.74223 13.5298H9.24223C9.24223 13.451 9.24073 13.3827 9.2374 13.3261L8.73826 13.3555ZM8.74223 13.5298C8.74223 13.6097 8.73944 13.6726 8.73468 13.7202L9.2322 13.77C9.23916 13.7004 9.24223 13.6198 9.24223 13.5298H8.74223ZM8.73375 13.7326C8.73142 13.7793 8.72601 13.8053 8.72252 13.8166L9.20041 13.9637C9.22036 13.8988 9.2296 13.8281 9.23313 13.7576L8.73375 13.7326ZM8.71787 13.8339C8.71592 13.8424 8.72027 13.8134 8.75482 13.7838L9.08022 14.1634C9.15579 14.0987 9.18943 14.0141 9.20506 13.9464L8.71787 13.8339ZM8.74074 13.7969C8.75998 13.7776 8.78194 13.7649 8.80245 13.7577C8.82188 13.7508 8.83662 13.75 8.84281 13.75V14.25C8.92084 14.25 9.01709 14.2276 9.0943 14.1504L8.74074 13.7969ZM8.84281 13.75C8.86025 13.75 8.87167 13.7526 8.8747 13.7534C8.87822 13.7542 8.87792 13.7545 8.87304 13.7525C8.8628 13.7484 8.84398 13.7395 8.81497 13.7225L8.56304 14.1544C8.60434 14.1785 8.64631 14.2003 8.68734 14.2167C8.72447 14.2316 8.77998 14.25 8.84281 14.25V13.75ZM8.81497 13.7225C8.73538 13.6761 8.6411 13.6284 8.53367 13.5793L8.32579 14.034C8.42343 14.0786 8.502 14.1188 8.56304 14.1544L8.81497 13.7225ZM8.53895 13.5818C8.42056 13.5243 8.28763 13.4755 8.14176 13.4342L8.00578 13.9154C8.12944 13.9503 8.23381 13.9894 8.3205 14.0315L8.53895 13.5818ZM8.14656 13.4356C7.98509 13.3865 7.81224 13.3633 7.62992 13.3633V13.8633C7.76987 13.8633 7.89292 13.8811 8.00098 13.914L8.14656 13.4356ZM7.62992 13.3633C7.48342 13.3633 7.34495 13.3819 7.21906 13.4252L7.3816 13.898C7.44321 13.8769 7.52447 13.8633 7.62992 13.8633V13.3633ZM7.22576 13.423C7.1043 13.461 6.99366 13.5186 6.89962 13.5999L7.22643 13.9783C7.2613 13.9482 7.30886 13.9209 7.3749 13.9002L7.22576 13.423ZM6.90033 13.5992C6.80883 13.6777 6.73913 13.774 6.69216 13.885L7.15264 14.0798C7.17013 14.0385 7.19418 14.0059 7.22573 13.9789L6.90033 13.5992ZM6.68907 13.8927C6.6483 13.9987 6.62846 14.1098 6.62846 14.2241H7.12846C7.12846 14.1686 7.13791 14.1185 7.15574 14.0722L6.68907 13.8927ZM6.62846 14.2241C6.62846 14.3974 6.67578 14.5594 6.77653 14.6996L7.18254 14.4078C7.14852 14.3605 7.12846 14.3028 7.12846 14.2241H6.62846ZM6.78185 14.7068C6.8725 14.8238 6.98743 14.9243 7.12147 15.0103L7.3913 14.5893C7.29683 14.5288 7.22719 14.4652 7.17721 14.4007L6.78185 14.7068ZM7.12776 15.0142C7.25532 15.0907 7.3967 15.1628 7.55121 15.2308L7.75258 14.7731C7.61412 14.7122 7.49183 14.6495 7.38501 14.5854L7.12776 15.0142ZM7.55509 15.2324C7.69875 15.2928 7.84551 15.3575 7.99537 15.4267L8.2049 14.9727C8.05007 14.9013 7.898 14.8342 7.7487 14.7715L7.55509 15.2324ZM7.99537 15.4267C8.13819 15.4926 8.27861 15.5683 8.41664 15.6539L8.68011 15.2289C8.52518 15.1329 8.36677 15.0474 8.2049 14.9727L7.99537 15.4267ZM8.41976 15.6558C8.54531 15.7311 8.6566 15.8224 8.75431 15.9302L9.12467 15.5943C8.99387 15.45 8.84442 15.3275 8.677 15.227L8.41976 15.6558ZM8.75629 15.9323C8.84847 16.0316 8.92532 16.1522 8.98534 16.2972L9.44735 16.1061C9.36675 15.9113 9.25903 15.7389 9.12269 15.5921L8.75629 15.9323ZM8.98594 16.2987C9.04042 16.4281 9.07182 16.5913 9.07182 16.7949H9.57182C9.57182 16.5415 9.5329 16.3092 9.44676 16.1046L8.98594 16.2987ZM14.2477 13.5078L14 13.4724L13.999 13.4829L14.2477 13.5078ZM14.217 13.6528L14.4478 13.749L14.4503 13.7426L14.217 13.6528ZM14.1598 13.7319L14.0098 13.5319L14.0033 13.5368L13.9971 13.5421L14.1598 13.7319ZM12.6657 13.7583V13.5083H12.4157V13.7583H12.6657ZM12.6349 18.4209L12.4468 18.2563L12.4406 18.2634L12.4349 18.2709L12.6349 18.4209ZM12.3625 18.5132L12.3338 18.2648L12.3327 18.265L12.3625 18.5132ZM11.8044 18.5132L11.7746 18.7614L11.7757 18.7615L11.8044 18.5132ZM11.5319 18.4209L11.3319 18.5709L11.3376 18.5784L11.3438 18.5855L11.5319 18.4209ZM11.5055 13.7583H11.7555V13.5083H11.5055V13.7583ZM9.95428 13.6528L9.72085 13.7426L9.72351 13.749L9.95428 13.6528ZM9.91912 13.5078L9.66988 13.5315L9.67189 13.5449L9.91912 13.5078ZM9.91912 13.064L9.67136 13.0286L9.67025 13.0403L9.91912 13.064ZM9.95428 12.9189L10.1851 13.0151L10.1876 13.0087L9.95428 12.9189ZM10.007 12.8398L10.1523 13.0433L10.1613 13.0369L10.1697 13.0297L10.007 12.8398ZM14.1598 12.8398L13.9971 13.0297L14.0114 13.0419L14.0273 13.0518L14.1598 12.8398ZM14.217 12.9189L13.9835 13.0087L13.9862 13.0151L14.217 12.9189ZM14.2477 13.064L13.9986 13.0877L14.0002 13.0993L14.2477 13.064ZM14.0109 13.2881C14.0109 13.3652 14.0069 13.426 14.0002 13.4725L14.4952 13.5432C14.5062 13.4666 14.5109 13.3809 14.5109 13.2881H14.0109ZM13.999 13.4829C13.9944 13.5282 13.9876 13.5528 13.9836 13.5631L14.4503 13.7426C14.4757 13.6767 14.4893 13.6046 14.4965 13.5327L13.999 13.4829ZM13.9862 13.5567C13.9837 13.5627 13.9884 13.548 14.0098 13.5319L14.3098 13.9319C14.3782 13.8807 14.421 13.8133 14.4477 13.749L13.9862 13.5567ZM13.9971 13.5421C14.0073 13.5334 14.0214 13.5243 14.0391 13.5176C14.0569 13.5109 14.0744 13.5083 14.0895 13.5083V14.0083C14.1772 14.0083 14.2579 13.9771 14.3225 13.9217L13.9971 13.5421ZM14.0895 13.5083H12.6657V14.0083H14.0895V13.5083ZM12.4157 13.7583V18.3418H12.9157V13.7583H12.4157ZM12.4157 18.3418C12.4157 18.3266 12.4185 18.3097 12.425 18.2929C12.4314 18.2764 12.4398 18.2642 12.4468 18.2563L12.8231 18.5855C12.8807 18.5196 12.9157 18.4357 12.9157 18.3418H12.4157ZM12.4349 18.2709C12.4487 18.2526 12.462 18.2434 12.4671 18.2402C12.4721 18.2371 12.472 18.2381 12.4636 18.2409L12.6217 18.7152C12.688 18.6931 12.7738 18.6524 12.8349 18.5709L12.4349 18.2709ZM12.4636 18.2409C12.4432 18.2477 12.4024 18.2569 12.3338 18.2648L12.3911 18.7615C12.4749 18.7519 12.5543 18.7377 12.6217 18.7152L12.4636 18.2409ZM12.3327 18.265C12.273 18.2721 12.1915 18.2764 12.0856 18.2764V18.7764C12.2024 18.7764 12.3055 18.7718 12.3923 18.7614L12.3327 18.265ZM12.0856 18.2764C11.98 18.2764 11.8965 18.2722 11.833 18.2648L11.7757 18.7615C11.8646 18.7718 11.9686 18.7764 12.0856 18.7764V18.2764ZM11.8342 18.265C11.7691 18.2572 11.7291 18.248 11.7077 18.2409L11.5495 18.7152C11.616 18.7374 11.6932 18.7516 11.7746 18.7614L11.8342 18.265ZM11.7077 18.2409C11.6987 18.2379 11.6965 18.2362 11.6986 18.2375C11.7009 18.2389 11.7097 18.2444 11.7201 18.2563L11.3438 18.5855C11.4044 18.6549 11.4825 18.6929 11.5495 18.7152L11.7077 18.2409ZM11.7319 18.2709C11.7384 18.2795 11.7448 18.2908 11.7493 18.3045C11.7539 18.3181 11.7555 18.331 11.7555 18.3418H11.2555C11.2555 18.4252 11.2819 18.5042 11.3319 18.5709L11.7319 18.2709ZM11.7555 18.3418V13.7583H11.2555V18.3418H11.7555ZM11.5055 13.5083H10.0817V14.0083H11.5055V13.5083ZM10.0817 13.5083C10.0923 13.5083 10.1072 13.5099 10.1243 13.516C10.1416 13.5221 10.1571 13.5313 10.1697 13.5421L9.84431 13.9217C9.9141 13.9816 9.99819 14.0083 10.0817 14.0083V13.5083ZM10.1697 13.5421C10.1795 13.5505 10.1847 13.5576 10.1865 13.5603C10.1882 13.5629 10.1874 13.5623 10.185 13.5567L9.72351 13.749C9.74742 13.8064 9.78447 13.8705 9.84431 13.9217L10.1697 13.5421ZM10.1876 13.5631C10.1817 13.5477 10.1735 13.5186 10.1664 13.4707L9.67189 13.5449C9.68228 13.6142 9.69755 13.6818 9.72094 13.7426L10.1876 13.5631ZM10.168 13.4841C10.1631 13.4328 10.1603 13.3678 10.1603 13.2881H9.66033C9.66033 13.3783 9.66342 13.4598 9.67025 13.5315L10.168 13.4841ZM10.1603 13.2881C10.1603 13.2051 10.1631 13.1388 10.168 13.0877L9.67025 13.0403C9.6634 13.1122 9.66033 13.1953 9.66033 13.2881H10.1603ZM10.1666 13.0993C10.174 13.0473 10.182 13.0225 10.185 13.0151L9.72351 12.8228C9.69727 12.8858 9.68178 12.9576 9.67163 13.0286L10.1666 13.0993ZM10.1876 13.0087C10.1901 13.0022 10.1903 13.0035 10.1865 13.0093C10.1826 13.0151 10.1722 13.0291 10.1523 13.0433L9.8617 12.6364C9.78367 12.6921 9.74328 12.7711 9.72094 12.8292L10.1876 13.0087ZM10.1697 13.0297C10.1571 13.0405 10.1416 13.0497 10.1243 13.0558C10.1072 13.0618 10.0923 13.0635 10.0817 13.0635V12.5635C9.99819 12.5635 9.9141 12.5902 9.84431 12.65L10.1697 13.0297ZM10.0817 13.0635H14.0895V12.5635H10.0817V13.0635ZM14.0895 13.0635C14.0744 13.0635 14.0569 13.0608 14.0391 13.0542C14.0214 13.0475 14.0073 13.0384 13.9971 13.0297L14.3225 12.65C14.2579 12.5947 14.1772 12.5635 14.0895 12.5635V13.0635ZM14.0273 13.0518C14.0073 13.0393 13.9951 13.0254 13.989 13.017C13.9832 13.0089 13.9822 13.0049 13.9836 13.0087L14.4503 12.8292C14.4251 12.7636 14.379 12.682 14.2923 12.6278L14.0273 13.0518ZM13.9862 13.0151C13.9861 13.0149 13.9883 13.0202 13.9911 13.0334C13.9938 13.0464 13.9966 13.0641 13.9989 13.0877L14.4966 13.0403C14.4897 12.9673 14.4761 12.8909 14.4477 12.8228L13.9862 13.0151ZM14.0002 13.0993C14.0068 13.1454 14.0109 13.2076 14.0109 13.2881H14.5109C14.5109 13.1928 14.5062 13.1055 14.4952 13.0286L14.0002 13.0993ZM19.4637 17.8057L19.6497 17.9727L19.6507 17.9716L19.4637 17.8057ZM18.6024 18.3989L18.6945 18.6313L18.6956 18.6309L18.6024 18.3989ZM16.2601 18.4297L16.176 18.6651L16.1785 18.666L16.2601 18.4297ZM14.9417 16.9927L14.702 17.0636L14.7025 17.0654L14.9417 16.9927ZM14.9549 14.4526L15.193 14.5288L15.1932 14.5283L14.9549 14.4526ZM16.3348 12.9189L16.2416 12.687L16.2409 12.6872L16.3348 12.9189ZM18.6639 12.8838L18.5817 13.1199L18.5823 13.1201L18.6639 12.8838ZM19.4901 13.4111L19.3066 13.581L19.3077 13.5822L19.4901 13.4111ZM19.991 14.312L19.752 14.3853L19.7527 14.3876L19.991 14.312ZM18.8792 14.8394L18.6336 14.8861L18.6337 14.8867L18.8792 14.8394ZM18.6375 14.2109L18.4263 14.3447L18.429 14.3488L18.6375 14.2109ZM18.1893 13.8066L18.0747 14.0289L18.0775 14.0302L18.1893 13.8066ZM16.7742 13.8242L16.8954 14.0429L16.8979 14.0415L16.7742 13.8242ZM16.0623 14.8789L15.8175 14.8282L15.8171 14.8305L16.0623 14.8789ZM16.0623 16.4741L15.8166 16.5204L15.8167 16.5209L16.0623 16.4741ZM16.7479 17.5112L16.6361 17.7349L16.6389 17.7362L16.7479 17.5112ZM18.8748 16.4258L18.6299 16.3756L18.6295 16.3779L18.8748 16.4258ZM19.9124 15.5908C19.9124 16.0422 19.8563 16.438 19.7482 16.7813L20.2251 16.9315C20.3513 16.5307 20.4124 16.0828 20.4124 15.5908H19.9124ZM19.7482 16.7813C19.6403 17.1238 19.4822 17.4083 19.2767 17.6397L19.6507 17.9716C19.9081 17.6816 20.0986 17.3332 20.2251 16.9315L19.7482 16.7813ZM19.2777 17.6387C19.0735 17.8661 18.8188 18.0425 18.5092 18.1669L18.6956 18.6309C19.0714 18.4799 19.391 18.2608 19.6497 17.9727L19.2777 17.6387ZM18.5102 18.1665C18.2055 18.2874 17.8438 18.3511 17.4202 18.3511V18.8511C17.8931 18.8511 18.3195 18.78 18.6945 18.6313L18.5102 18.1665ZM17.4202 18.3511C16.9986 18.3511 16.6406 18.2965 16.3416 18.1934L16.1785 18.666C16.5417 18.7913 16.9571 18.8511 17.4202 18.8511V18.3511ZM16.3442 18.1943C16.0509 18.0895 15.812 17.9336 15.6217 17.7281L15.2549 18.0678C15.504 18.3369 15.813 18.5355 16.176 18.6651L16.3442 18.1943ZM15.6217 17.7281C15.432 17.5232 15.2832 17.2566 15.1809 16.92L14.7025 17.0654C14.8229 17.4612 15.0051 17.7981 15.2549 18.0678L15.6217 17.7281ZM15.1814 16.9217C15.0816 16.5844 15.0291 16.1759 15.0291 15.6919H14.5291C14.5291 16.2099 14.585 16.6685 14.702 17.0636L15.1814 16.9217ZM15.0291 15.6919C15.0291 15.2529 15.0851 14.8661 15.193 14.5288L14.7168 14.3764C14.5904 14.7716 14.5291 15.211 14.5291 15.6919H15.0291ZM15.1932 14.5283C15.3009 14.189 15.4588 13.9077 15.6639 13.6792L15.2918 13.3452C15.034 13.6324 14.8433 13.978 14.7166 14.377L15.1932 14.5283ZM15.6639 13.6792C15.8685 13.4513 16.122 13.2749 16.4287 13.1506L16.2409 12.6872C15.8679 12.8384 15.5501 13.0575 15.2918 13.3452L15.6639 13.6792ZM16.428 13.1509C16.7354 13.0275 17.0996 12.9624 17.5257 12.9624V12.4624C17.0495 12.4624 16.6198 12.535 16.2416 12.687L16.428 13.1509ZM17.5257 12.9624C17.9348 12.9624 18.2854 13.0167 18.5817 13.1199L18.7461 12.6477C18.3861 12.5223 17.9779 12.4624 17.5257 12.4624V12.9624ZM18.5823 13.1201C18.8778 13.2221 19.1171 13.3764 19.3066 13.581L19.6735 13.2413C19.4235 12.9713 19.1121 12.774 18.7454 12.6475L18.5823 13.1201ZM19.3077 13.5822C19.5002 13.7873 19.65 14.0524 19.752 14.3853L20.2301 14.2388C20.1094 13.8451 19.9252 13.5095 19.6724 13.2401L19.3077 13.5822ZM19.7527 14.3876C19.8573 14.7174 19.9124 15.117 19.9124 15.5908H20.4124C20.4124 15.0803 20.3533 14.6273 20.2293 14.2365L19.7527 14.3876ZM19.1995 15.6523C19.1995 15.3408 19.1751 15.0536 19.1247 14.792L18.6337 14.8867C18.6771 15.1114 18.6995 15.3663 18.6995 15.6523H19.1995ZM19.1248 14.7926C19.073 14.5206 18.982 14.2787 18.8461 14.0731L18.429 14.3488C18.5216 14.4889 18.5917 14.6659 18.6336 14.8861L19.1248 14.7926ZM18.8487 14.0772C18.7129 13.8627 18.5289 13.697 18.3011 13.583L18.0775 14.0302C18.2246 14.1038 18.3395 14.2077 18.4263 14.3447L18.8487 14.0772ZM18.3038 13.5844C18.0711 13.4644 17.7945 13.4116 17.4862 13.4116V13.9116C17.7403 13.9116 17.9324 13.9555 18.0747 14.0288L18.3038 13.5844ZM17.4862 13.4116C17.1712 13.4116 16.8883 13.4716 16.6506 13.607L16.8979 14.0415C17.0411 13.96 17.2328 13.9116 17.4862 13.9116V13.4116ZM16.6531 13.6055C16.4279 13.7303 16.2436 13.9001 16.1038 14.1134L16.5219 14.3876C16.6164 14.2435 16.7397 14.1291 16.8954 14.0429L16.6531 13.6055ZM16.1038 14.1134C15.967 14.322 15.8728 14.5617 15.8175 14.8282L16.3071 14.9297C16.3515 14.7157 16.4243 14.5364 16.5219 14.3876L16.1038 14.1134ZM15.8171 14.8305C15.7667 15.0852 15.742 15.3535 15.742 15.6348H16.242C16.242 15.3828 16.2642 15.1472 16.3076 14.9274L15.8171 14.8305ZM15.742 15.6348C15.742 15.9575 15.7663 16.2531 15.8166 16.5204L16.308 16.4279C16.2646 16.1971 16.242 15.9331 16.242 15.6348H15.742ZM15.8167 16.5209C15.8683 16.7917 15.9572 17.0335 16.0884 17.2407L16.5108 16.9732C16.4194 16.8288 16.3501 16.6487 16.3079 16.4273L15.8167 16.5209ZM16.0884 17.2407C16.2243 17.4552 16.4082 17.6209 16.6361 17.7348L16.8597 17.2876C16.7125 17.2141 16.5976 17.1102 16.5108 16.9732L16.0884 17.2407ZM16.6389 17.7362C16.8704 17.8484 17.1465 17.8975 17.4554 17.8975V17.3975C17.196 17.3975 17.0003 17.3557 16.8569 17.2862L16.6389 17.7362ZM17.4554 17.8975C17.7694 17.8975 18.0513 17.8393 18.2884 17.708L18.0462 17.2706C17.9024 17.3502 17.7098 17.3975 17.4554 17.3975V17.8975ZM18.2884 17.708C18.5146 17.5827 18.6991 17.4106 18.8388 17.1941L18.4187 16.9231C18.324 17.0698 18.2008 17.1849 18.0462 17.2706L18.2884 17.708ZM18.8388 17.1941C18.9754 16.9825 19.068 16.741 19.1202 16.4737L18.6295 16.3779C18.5879 16.591 18.5165 16.7714 18.4187 16.9231L18.8388 17.1941ZM19.1197 16.4759C19.1732 16.2148 19.1995 15.94 19.1995 15.6523H18.6995C18.6995 15.9096 18.676 16.1505 18.6299 16.3756L19.1197 16.4759ZM24.8071 16.0127L24.9719 16.2007L24.9735 16.1992L24.8071 16.0127ZM24.104 16.395L24.0287 16.1566L24.028 16.1569L24.104 16.395ZM22.6538 16.5269V16.2769H22.4038V16.5269H22.6538ZM22.623 18.4209L22.4349 18.2563L22.4287 18.2634L22.423 18.2709L22.623 18.4209ZM21.7924 18.5132L21.7627 18.7614L21.7638 18.7615L21.7924 18.5132ZM21.6035 12.9189L21.7765 13.0994L21.7766 13.0993L21.6035 12.9189ZM23.6118 12.8311L23.5875 13.08L23.594 13.0804L23.6118 12.8311ZM24.0512 12.897L24.0006 13.1418L24.0046 13.1426L24.0512 12.897ZM24.5654 13.0815L24.4491 13.3029L24.4506 13.3036L24.5654 13.0815ZM25.0136 13.4287L24.8255 13.5933L24.8272 13.5953L25.0136 13.4287ZM25.2949 13.9165L25.0585 13.9978L25.0589 13.9989L25.2949 13.9165ZM23.4931 13.7319L23.4541 13.979L23.4613 13.9799L23.4931 13.7319ZM22.6538 13.7056V13.4556H22.4038V13.7056H22.6538ZM22.6538 15.6348H22.4038V15.8848H22.6538V15.6348ZM23.6338 15.5601L23.5418 15.3276L23.54 15.3283L23.6338 15.5601ZM23.9414 15.3535L24.1272 15.5208L24.1299 15.5177L23.9414 15.3535ZM24.1215 15.0327L24.3587 15.1118L24.3593 15.1101L24.1215 15.0327ZM25.1416 14.5405C25.1416 14.8341 25.0958 15.084 25.0104 15.2949L25.4739 15.4825C25.5877 15.2012 25.6416 14.8856 25.6416 14.5405H25.1416ZM25.0104 15.2949C24.9246 15.5069 24.8013 15.6828 24.6406 15.8262L24.9735 16.1992C25.1937 16.0028 25.3605 15.7626 25.4739 15.4825L25.0104 15.2949ZM24.6423 15.8247C24.4815 15.9657 24.279 16.0776 24.0287 16.1566L24.1792 16.6334C24.4856 16.5367 24.7518 16.3937 24.9719 16.2007L24.6423 15.8247ZM24.028 16.1569C23.7832 16.235 23.4848 16.2769 23.1284 16.2769V16.7769C23.5219 16.7769 23.874 16.7309 24.18 16.6332L24.028 16.1569ZM23.1284 16.2769H22.6538V16.7769H23.1284V16.2769ZM22.4038 16.5269V18.3418H22.9038V16.5269H22.4038ZM22.4038 18.3418C22.4038 18.3266 22.4066 18.3097 22.4131 18.2929C22.4195 18.2764 22.4279 18.2642 22.4349 18.2563L22.8112 18.5855C22.8688 18.5196 22.9038 18.4357 22.9038 18.3418H22.4038ZM22.423 18.2709C22.4367 18.2526 22.4501 18.2434 22.4552 18.2402C22.4601 18.2371 22.4601 18.2381 22.4517 18.2409L22.6098 18.7152C22.6761 18.6931 22.7619 18.6524 22.823 18.5709L22.423 18.2709ZM22.4517 18.2409C22.4303 18.248 22.3902 18.2572 22.3252 18.265L22.3847 18.7614C22.4661 18.7516 22.5433 18.7374 22.6098 18.7152L22.4517 18.2409ZM22.3252 18.265C22.2656 18.2721 22.1828 18.2764 22.0737 18.2764V18.7764C22.1931 18.7764 22.2978 18.7718 22.3847 18.7614L22.3252 18.265ZM22.0737 18.2764C21.9681 18.2764 21.8846 18.2722 21.8211 18.2648L21.7638 18.7615C21.8527 18.7718 21.9567 18.7764 22.0737 18.7764V18.2764ZM21.8222 18.265C21.7571 18.2572 21.7171 18.248 21.6957 18.2409L21.5376 18.7152C21.6041 18.7374 21.6813 18.7516 21.7627 18.7614L21.8222 18.265ZM21.6957 18.2409C21.6873 18.2381 21.6873 18.2371 21.6922 18.2402C21.6973 18.2434 21.7106 18.2526 21.7244 18.2709L21.3244 18.5709C21.3855 18.6524 21.4713 18.6931 21.5376 18.7152L21.6957 18.2409ZM21.7244 18.2709C21.7308 18.2795 21.7372 18.2908 21.7418 18.3045C21.7463 18.3181 21.748 18.331 21.748 18.3418H21.248C21.248 18.4252 21.2743 18.5042 21.3244 18.5709L21.7244 18.2709ZM21.748 18.3418V13.2266H21.248V18.3418H21.748ZM21.748 13.2266C21.748 13.1283 21.7728 13.1029 21.7765 13.0994L21.4305 12.7384C21.2935 12.8697 21.248 13.0494 21.248 13.2266H21.748ZM21.7766 13.0993C21.7961 13.0806 21.8258 13.0635 21.8891 13.0635V12.5635C21.7181 12.5635 21.5573 12.6167 21.4303 12.7386L21.7766 13.0993ZM21.8891 13.0635H23.2295V12.5635H21.8891V13.0635ZM23.2295 13.0635C23.357 13.0635 23.4763 13.069 23.5875 13.0799L23.6361 12.5822C23.507 12.5696 23.3714 12.5635 23.2295 12.5635V13.0635ZM23.594 13.0804C23.7026 13.0882 23.8375 13.108 24.0006 13.1418L24.1019 12.6522C23.9251 12.6156 23.7671 12.5915 23.6296 12.5817L23.594 13.0804ZM24.0046 13.1426C24.1474 13.1697 24.2954 13.2221 24.4491 13.3029L24.6817 12.8602C24.4897 12.7594 24.2949 12.6887 24.0978 12.6514L24.0046 13.1426ZM24.4506 13.3036C24.6002 13.3809 24.7243 13.4777 24.8255 13.5933L25.2018 13.2641C25.0569 13.0985 24.8821 12.9638 24.6801 12.8594L24.4506 13.3036ZM24.8272 13.5953C24.9265 13.7064 25.004 13.8394 25.0585 13.9978L25.5313 13.8352C25.4568 13.6186 25.3469 13.4264 25.2 13.2621L24.8272 13.5953ZM25.0589 13.9989C25.1125 14.1526 25.1416 14.3321 25.1416 14.5405H25.6416C25.6416 14.286 25.6061 14.0495 25.5309 13.8341L25.0589 13.9989ZM24.4331 14.624C24.4331 14.3972 24.3933 14.1885 24.2971 14.0121L23.8581 14.2515C23.9025 14.333 23.9331 14.4524 23.9331 14.624H24.4331ZM24.2971 14.0121C24.2103 13.853 24.0955 13.7209 23.9469 13.6318L23.6897 14.0606C23.7462 14.0945 23.8043 14.1529 23.8581 14.2515L24.2971 14.0121ZM23.9469 13.6318C23.8159 13.5532 23.6747 13.5032 23.5249 13.484L23.4613 13.9799C23.54 13.99 23.6156 14.0161 23.6897 14.0606L23.9469 13.6318ZM23.5321 13.485C23.4071 13.4653 23.2783 13.4556 23.146 13.4556V13.9556C23.2539 13.9556 23.3565 13.9635 23.4541 13.9789L23.5321 13.485ZM23.146 13.4556H22.6538V13.9556H23.146V13.4556ZM22.4038 13.7056V15.6348H22.9038V13.7056H22.4038ZM22.6538 15.8848H23.1723V15.3848H22.6538V15.8848ZM23.1723 15.8848C23.3774 15.8848 23.5655 15.8574 23.7275 15.7918L23.54 15.3283C23.4559 15.3623 23.3364 15.3848 23.1723 15.3848V15.8848ZM23.7257 15.7925C23.8823 15.7306 24.0187 15.6413 24.1272 15.5208L23.7555 15.1863C23.7058 15.2415 23.6371 15.2899 23.5418 15.3276L23.7257 15.7925ZM24.1299 15.5177C24.2323 15.4001 24.3081 15.2637 24.3587 15.1118L23.8844 14.9537C23.853 15.0478 23.8086 15.1253 23.7528 15.1893L24.1299 15.5177ZM24.3593 15.1101C24.4092 14.9567 24.4331 14.794 24.4331 14.624H23.9331C23.9331 14.747 23.9159 14.8568 23.8838 14.9553L24.3593 15.1101Z" fill="#0069DE"/>
</svg>
