<svg width="25" height="25" viewBox="0 0 25 25" fill="none" xmlns="http://www.w3.org/2000/svg">
<path d="M15.5238 12.4991C14.1875 12.4991 13.1045 11.4003 13.1045 10.0446C13.1045 8.68881 14.1875 7.59002 15.5238 7.59002C16.8601 7.59002 17.9432 8.68881 17.9432 10.0446C17.9432 11.3984 16.8582 12.4991 15.5238 12.4991ZM5.8464 11.5787H9.47543C9.97631 11.5787 10.3827 11.9909 10.3827 12.4991C10.3827 13.0073 9.97631 13.4196 9.47543 13.4196H5.8464C5.34552 13.4196 4.93914 13.0073 4.93914 12.4991C4.93914 11.9909 5.34363 11.5787 5.8464 11.5787ZM14.3141 13.7264H16.7335C18.4044 13.7264 19.7577 15.0994 19.7577 16.7946C19.7577 17.1321 19.4855 17.4082 19.1528 17.4082H11.8948C11.5608 17.4082 11.2899 17.1334 11.2899 16.7946C11.2899 15.0994 12.6433 13.7264 14.3141 13.7264ZM5.8464 8.51048H9.47543C9.97631 8.51048 10.3827 8.92276 10.3827 9.43093C10.3827 9.9391 9.97631 10.3514 9.47543 10.3514H5.8464C5.34552 10.3514 4.93914 9.9391 4.93914 9.43093C4.93914 8.92276 5.34363 8.51048 5.8464 8.51048ZM4.03188 3.9082H20.9674C22.3037 3.9082 23.3867 5.007 23.3867 6.36275V18.6355C23.3867 19.9912 22.3037 21.09 20.9674 21.09H4.03188C2.69557 21.09 1.61253 19.9912 1.61253 18.6355V6.36275C1.61253 5.007 2.69746 3.9082 4.03188 3.9082ZM3.42704 18.6355C3.42704 18.9738 3.69839 19.2491 4.03188 19.2491H20.9674C21.3009 19.2491 21.5722 18.9738 21.5722 18.6355V6.36275C21.5722 6.02441 21.3009 5.74911 20.9674 5.74911H4.03188C3.69839 5.74911 3.42704 6.02441 3.42704 6.36275V18.6355Z" fill="#0069DE"/>
</svg>
