<svg width="31" height="33" viewBox="0 0 31 33" fill="none" xmlns="http://www.w3.org/2000/svg">
<path d="M29.1787 8.50002C29.1787 8.76267 28.9637 8.97398 28.6965 8.97398H25.4822V12.1337C25.4822 12.3954 25.2663 12.6079 25.0001 12.6079C24.7339 12.6079 24.518 12.3964 24.518 12.1337V8.97398H21.3037C21.0375 8.97398 20.8215 8.76188 20.8215 8.50022C20.8215 8.23934 21.0375 8.02606 21.3037 8.02606H24.518V4.86634C24.518 4.60467 24.7339 4.39258 25.0001 4.39258C25.2663 4.39258 25.4822 4.60467 25.4822 4.86634V8.02606H28.6965C28.9637 8.02606 29.1787 8.23934 29.1787 8.50002Z" fill="black" stroke="black"/>
<path d="M16.3902 12.1768C16.0578 12.8686 15.7344 13.5873 15.7344 14.315C15.7344 16.0939 17.1449 17.5 18.8789 17.5H19.6875C22.0684 17.5 24 19.3912 24 21.8125V22.1719C24 23.56 22.8725 24.6875 21.4844 24.6875H3.51562C2.12619 24.6875 1 23.56 1 22.1719V21.8125C1 19.3912 2.93074 17.5 5.3125 17.5H6.08066C7.85957 17.5 9.26562 16.0939 9.26562 14.315C9.26562 13.5873 8.94219 12.8686 8.60977 12.1768C8.34023 11.6107 8.1875 10.9818 8.1875 10.3125C8.1875 7.93074 10.0787 6 12.5 6C14.8809 6 16.8125 7.93074 16.8125 10.3125C16.8125 10.9818 16.6598 11.6107 16.3902 12.1768ZM14.6562 10.3125C14.6562 9.12162 13.6904 8.15625 12.5 8.15625C11.3096 8.15625 10.3438 9.12162 10.3438 10.3125C10.3438 10.6494 10.4201 10.9639 10.5549 11.2424L10.5279 11.2693C10.8424 11.9252 11.4219 13.0482 11.4219 14.315C11.4219 17.2844 9.05 19.6562 6.08066 19.6562H5.3125C4.12162 19.6562 3.15625 20.6221 3.15625 21.8125V22.1719C3.15625 22.3695 3.31707 22.5312 3.51562 22.5312H21.4844C21.682 22.5312 21.8438 22.3695 21.8438 22.1719V21.8125C21.8438 20.6221 20.8779 19.6562 19.6875 19.6562H18.8789C15.95 19.6562 13.5781 17.2844 13.5781 14.315C13.5781 13.0482 14.1172 11.9252 14.4316 11.2693L14.4451 11.2424C14.5799 10.9639 14.6562 10.6494 14.6562 10.3125ZM2.4375 27.5625C2.4375 26.7674 3.08123 26.125 3.875 26.125H21.125C21.9201 26.125 22.5625 26.7674 22.5625 27.5625C22.5625 28.3576 21.9201 29 21.125 29H3.875C3.08123 29 2.4375 28.3576 2.4375 27.5625Z" fill="black"/>
</svg>
