<svg width="21" height="22" viewBox="0 0 21 22" fill="none" xmlns="http://www.w3.org/2000/svg">
<path d="M19.8804 10.5897L10.9484 19.3968C9.85419 20.4757 8.37008 21.0819 6.8226 21.0819C5.27511 21.0819 3.79101 20.4757 2.69677 19.3968C1.60253 18.3179 0.987793 16.8545 0.987793 15.3287C0.987793 13.8028 1.60253 12.3395 2.69677 11.2605L11.6288 2.45346C12.3583 1.73417 13.3477 1.33008 14.3793 1.33008C15.411 1.33008 16.4004 1.73417 17.1299 2.45346C17.8594 3.17275 18.2692 4.14831 18.2692 5.16554C18.2692 6.18277 17.8594 7.15834 17.1299 7.87763L8.18815 16.6847C7.82341 17.0444 7.32871 17.2464 6.81288 17.2464C6.29705 17.2464 5.80235 17.0444 5.4376 16.6847C5.07285 16.3251 4.86794 15.8373 4.86794 15.3287C4.86794 14.8201 5.07285 14.3323 5.4376 13.9726L13.6893 5.84596" stroke="#005DC5" stroke-width="1.25" stroke-linecap="round" stroke-linejoin="round"/>
</svg>
