<svg width="60" height="60" viewBox="0 0 60 60" fill="none" xmlns="http://www.w3.org/2000/svg">
<g clip-path="url(#clip0_3776_1171)">
<path d="M16.3242 46.793C15.3281 46.4883 14.7773 45.4336 15.082 44.4492C17.0156 38.2148 23.0039 33.75 30 33.75C37.0078 33.75 42.9844 38.2148 44.918 44.4492C45.2227 45.4336 44.6719 46.4883 43.6758 46.793C42.6914 47.0977 41.6367 46.5469 41.332 45.5508C39.9023 40.9453 35.4023 37.5 30 37.5C24.5977 37.5 20.0977 40.9453 18.668 45.5508C18.3633 46.5469 17.3086 47.0977 16.3242 46.793ZM23.4844 24.375C23.4844 25.9336 22.2188 27.1875 20.6719 27.1875C19.1133 27.1875 17.8594 25.9336 17.8594 24.375C17.8594 22.8164 19.1133 21.5625 20.6719 21.5625C22.2188 21.5625 23.4844 22.8164 23.4844 24.375ZM36.6094 24.375C36.6094 22.8164 37.8633 21.5625 39.4219 21.5625C40.9688 21.5625 42.2344 22.8164 42.2344 24.375C42.2344 25.9336 40.9688 27.1875 39.4219 27.1875C37.8633 27.1875 36.6094 25.9336 36.6094 24.375ZM60 30C60 46.5703 46.5703 60 30 60C13.4297 60 0 46.5703 0 30C0 13.4297 13.4297 0 30 0C46.5703 0 60 13.4297 60 30ZM30 3.75C15.5039 3.75 3.75 15.5039 3.75 30C3.75 44.4961 15.5039 56.25 30 56.25C44.4961 56.25 56.25 44.4961 56.25 30C56.25 15.5039 44.4961 3.75 30 3.75Z" fill="#CBCFDC"/>
</g>
<defs>
<clipPath id="clip0_3776_1171">
<rect width="60" height="60" fill="white"/>
</clipPath>
</defs>
</svg>
