<svg width="21" height="24" viewBox="0 0 21 24" fill="none" xmlns="http://www.w3.org/2000/svg">
<path d="M11.9311 2.07458V2.88126C15.173 3.40055 17.6546 6.23431 17.6546 9.65413V11.161C17.6546 13.2093 18.3477 15.1989 19.6132 16.8006L20.2794 17.6397C20.5388 17.9646 20.5879 18.4112 20.4091 18.7857C20.2302 19.1601 19.8546 19.3993 19.4432 19.3993H1.5573C1.14458 19.3993 0.768749 19.1601 0.590069 18.7857C0.411343 18.4112 0.461603 17.9646 0.719339 17.6397L1.38604 16.8006C2.6546 15.1989 3.34589 13.2093 3.34589 11.161V9.65413C3.34589 6.23431 5.82756 3.40055 9.06939 2.88126V2.07458C9.06939 1.27738 9.70881 0.630859 10.5003 0.630859C11.2917 0.630859 11.9311 1.27738 11.9311 2.07458ZM10.1425 4.96203C7.57591 4.96203 5.4922 7.06445 5.4922 9.65413V11.161C5.4922 13.3221 4.87156 15.429 3.71747 17.2337H17.2835C16.1299 15.429 15.5083 13.3221 15.5083 11.161V9.65413C15.5083 7.06445 13.4246 4.96203 10.858 4.96203H10.1425ZM13.362 20.843C13.362 21.5694 13.0624 22.3454 12.5258 22.8867C11.9893 23.4281 11.2202 23.7304 10.5003 23.7304C9.74011 23.7304 9.01126 23.4281 8.47468 22.8867C7.93811 22.3454 7.63852 21.5694 7.63852 20.843H13.362Z" fill="#212D50"/>
</svg>
