<svg width="25" height="32" viewBox="0 0 25 32" fill="none" xmlns="http://www.w3.org/2000/svg">
<path d="M23.8198 2.34009C24.234 1.62265 23.9882 0.705263 23.2708 0.29105C22.5533 -0.123164 21.6359 0.122649 21.2217 0.840088L23.8198 2.34009ZM16.4345 9.13182L15.6845 10.4309L18.2826 11.9309L19.0326 10.6318L16.4345 9.13182ZM21.2217 0.840088C21.2181 0.846412 21.2144 0.852744 21.2107 0.859082C21.2071 0.86542 21.2034 0.871765 21.1998 0.878117C21.1961 0.884469 21.1924 0.890828 21.1887 0.897194C21.1851 0.903559 21.1814 0.909932 21.1777 0.916311C21.174 0.92269 21.1703 0.929075 21.1666 0.935468C21.163 0.94186 21.1593 0.948259 21.1556 0.954665C21.1519 0.961071 21.1482 0.967483 21.1445 0.973902C21.1408 0.980321 21.137 0.986746 21.1333 0.993178C21.1296 0.99961 21.1259 1.00605 21.1222 1.01249C21.1185 1.01894 21.1147 1.02539 21.111 1.03185C21.1073 1.03831 21.1035 1.04477 21.0998 1.05124C21.0961 1.05771 21.0923 1.06419 21.0886 1.07067C21.0848 1.07716 21.0811 1.08364 21.0773 1.09014C21.0736 1.09664 21.0698 1.10314 21.0661 1.10965C21.0623 1.11616 21.0586 1.12267 21.0548 1.12919C21.051 1.13571 21.0473 1.14224 21.0435 1.14877C21.0397 1.1553 21.0359 1.16184 21.0322 1.16839C21.0284 1.17493 21.0246 1.18148 21.0208 1.18804C21.017 1.1946 21.0132 1.20116 21.0095 1.20773C21.0057 1.2143 21.0019 1.22088 20.9981 1.22746C20.9943 1.23404 20.9905 1.24062 20.9867 1.24722C20.9829 1.25381 20.979 1.26041 20.9752 1.26701C20.9714 1.27362 20.9676 1.28023 20.9638 1.28684C20.96 1.29346 20.9561 1.30008 20.9523 1.30671C20.9485 1.31334 20.9447 1.31997 20.9408 1.32661C20.937 1.33325 20.9332 1.33989 20.9293 1.34654C20.9255 1.35319 20.9216 1.35985 20.9178 1.36651C20.9139 1.37317 20.9101 1.37984 20.9062 1.38651C20.9024 1.39318 20.8985 1.39986 20.8947 1.40654C20.8908 1.41322 20.887 1.41991 20.8831 1.42661C20.8792 1.4333 20.8754 1.44 20.8715 1.4467C20.8676 1.45341 20.8637 1.46012 20.8599 1.46683C20.856 1.47355 20.8521 1.48027 20.8482 1.487C20.8443 1.49372 20.8405 1.50045 20.8366 1.50719C20.8327 1.51393 20.8288 1.52067 20.8249 1.52741C20.821 1.53416 20.8171 1.54091 20.8132 1.54767C20.8093 1.55442 20.8054 1.56119 20.8015 1.56795C20.7976 1.57472 20.7937 1.58149 20.7898 1.58827C20.7858 1.59505 20.7819 1.60183 20.778 1.60861C20.7741 1.6154 20.7702 1.62219 20.7662 1.62899C20.7623 1.63579 20.7584 1.64259 20.7545 1.64939C20.7505 1.6562 20.7466 1.66301 20.7427 1.66983C20.7387 1.67664 20.7348 1.68346 20.7308 1.69029C20.7269 1.69712 20.723 1.70395 20.719 1.71078C20.7151 1.71762 20.7111 1.72445 20.7072 1.7313C20.7032 1.73814 20.6993 1.74499 20.6953 1.75184C20.6914 1.7587 20.6874 1.76556 20.6834 1.77242C20.6795 1.77928 20.6755 1.78615 20.6715 1.79302C20.6676 1.79989 20.6636 1.80677 20.6596 1.81365C20.6557 1.82053 20.6517 1.82741 20.6477 1.8343C20.6437 1.84119 20.6397 1.84808 20.6358 1.85498C20.6318 1.86188 20.6278 1.86878 20.6238 1.87569C20.6198 1.88259 20.6158 1.8895 20.6118 1.89642C20.6078 1.90333 20.6039 1.91025 20.5999 1.91718C20.5959 1.9241 20.5919 1.93103 20.5879 1.93796C20.5839 1.94489 20.5799 1.95182 20.5758 1.95876C20.5718 1.9657 20.5678 1.97265 20.5638 1.9796C20.5598 1.98654 20.5558 1.99349 20.5518 2.00045C20.5478 2.00741 20.5437 2.01437 20.5397 2.02133C20.5357 2.02829 20.5317 2.03526 20.5277 2.04223C20.5236 2.0492 20.5196 2.05618 20.5156 2.06316C20.5115 2.07014 20.5075 2.07712 20.5035 2.08411C20.4994 2.09109 20.4954 2.09808 20.4914 2.10508C20.4873 2.11207 20.4833 2.11907 20.4793 2.12607C20.4752 2.13307 20.4712 2.14007 20.4671 2.14708C20.4631 2.15409 20.459 2.1611 20.455 2.16812C20.4509 2.17514 20.4469 2.18215 20.4428 2.18918C20.4388 2.1962 20.4347 2.20323 20.4306 2.21026C20.4266 2.21729 20.4225 2.22432 20.4185 2.23136C20.4144 2.23839 20.4103 2.24543 20.4063 2.25248C20.4022 2.25952 20.3981 2.26656 20.3941 2.27361C20.39 2.28066 20.3859 2.28772 20.3819 2.29477C20.3778 2.30183 20.3737 2.30889 20.3696 2.31595C20.3655 2.32302 20.3615 2.33008 20.3574 2.33715C20.3533 2.34422 20.3492 2.35129 20.3451 2.35837C20.341 2.36544 20.337 2.37252 20.3329 2.3796C20.3288 2.38669 20.3247 2.39377 20.3206 2.40086C20.3165 2.40794 20.3124 2.41504 20.3083 2.42213C20.3042 2.42922 20.3001 2.43632 20.296 2.44342C20.2919 2.45052 20.2878 2.45762 20.2837 2.46472C20.2796 2.47183 20.2755 2.47894 20.2714 2.48605C20.2673 2.49316 20.2632 2.50027 20.2591 2.50739C20.255 2.5145 20.2509 2.52162 20.2468 2.52874C20.2427 2.53587 20.2385 2.54299 20.2344 2.55012C20.2303 2.55724 20.2262 2.56437 20.2221 2.57151C20.218 2.57864 20.2138 2.58577 20.2097 2.59291C20.2056 2.60005 20.2015 2.60719 20.1974 2.61433C20.1932 2.62147 20.1891 2.62862 20.185 2.63576C20.1809 2.64291 20.1767 2.65006 20.1726 2.65721C20.1685 2.66436 20.1643 2.67152 20.1602 2.67867C20.1561 2.68583 20.1519 2.69299 20.1478 2.70015C20.1437 2.70731 20.1395 2.71447 20.1354 2.72164C20.1313 2.7288 20.1271 2.73597 20.123 2.74314C20.1188 2.75031 20.1147 2.75748 20.1106 2.76466C20.1064 2.77183 20.1023 2.77901 20.0981 2.78619C20.094 2.79337 20.0898 2.80055 20.0857 2.80773C20.0815 2.81491 20.0774 2.8221 20.0733 2.82928C20.0691 2.83647 20.065 2.84366 20.0608 2.85085C20.0566 2.85804 20.0525 2.86523 20.0483 2.87242C20.0442 2.87962 20.04 2.88681 20.0359 2.89401C20.0317 2.90121 20.0276 2.90841 20.0234 2.91561C20.0193 2.92281 20.0151 2.93002 20.0109 2.93722C20.0068 2.94443 20.0026 2.95163 19.9985 2.95884C19.9943 2.96605 19.9901 2.97326 19.986 2.98047C19.9818 2.98768 19.9776 2.99489 19.9735 3.00211C19.9693 3.00932 19.9651 3.01654 19.961 3.02376C19.9568 3.03097 19.9526 3.03819 19.9485 3.04541C19.9443 3.05263 19.9401 3.05986 19.936 3.06708C19.9318 3.0743 19.9276 3.08153 19.9234 3.08875C19.9193 3.09598 19.9151 3.10321 19.9109 3.11044C19.9068 3.11767 19.9026 3.1249 19.8984 3.13213C19.8942 3.13936 19.8901 3.14659 19.8859 3.15383C19.8817 3.16106 19.8775 3.16829 19.8733 3.17553C19.8692 3.18277 19.865 3.19 19.8608 3.19724C19.8566 3.20448 19.8525 3.21172 19.8483 3.21896C19.8441 3.2262 19.8399 3.23344 19.8357 3.24068C19.8315 3.24793 19.8274 3.25517 19.8232 3.26241C19.819 3.26966 19.8148 3.2769 19.8106 3.28415C19.8064 3.2914 19.8023 3.29864 19.7981 3.30589C19.7939 3.31314 19.7897 3.32039 19.7855 3.32764C19.7813 3.33489 19.7772 3.34214 19.773 3.34939C19.7688 3.35664 19.7646 3.36389 19.7604 3.37115C19.7562 3.3784 19.752 3.38565 19.7478 3.39291C19.7437 3.40016 19.7395 3.40741 19.7353 3.41467C19.7311 3.42192 19.7269 3.42918 19.7227 3.43644C19.7185 3.44369 19.7143 3.45095 19.7101 3.45821C19.706 3.46546 19.7018 3.47272 19.6976 3.47998C19.6934 3.48724 19.6892 3.4945 19.685 3.50175C19.6808 3.50901 19.6766 3.51627 19.6724 3.52353C19.6682 3.53079 19.664 3.53805 19.6599 3.54531C19.6557 3.55257 19.6515 3.55983 19.6473 3.56709C19.6431 3.57435 19.6389 3.58161 19.6347 3.58888C19.6305 3.59614 19.6263 3.6034 19.6221 3.61066C19.6179 3.61792 19.6137 3.62518 19.6095 3.63244C19.6054 3.6397 19.6012 3.64697 19.597 3.65423C19.5928 3.66149 19.5886 3.66875 19.5844 3.67601C19.5802 3.68327 19.576 3.69054 19.5718 3.6978C19.5676 3.70506 19.5634 3.71232 19.5592 3.71958C19.555 3.72684 19.5509 3.7341 19.5467 3.74136C19.5425 3.74863 19.5383 3.75589 19.5341 3.76315C19.5299 3.77041 19.5257 3.77767 19.5215 3.78493C19.5173 3.79219 19.5131 3.79945 19.5089 3.80671C19.5047 3.81397 19.5006 3.82123 19.4964 3.82848C19.4922 3.83574 19.488 3.843 19.4838 3.85026C19.4796 3.85752 19.4754 3.86477 19.4712 3.87203C19.467 3.87929 19.4628 3.88654 19.4587 3.8938C19.4545 3.90106 19.4503 3.90831 19.4461 3.91556C19.4419 3.92282 19.4377 3.93007 19.4335 3.93733C19.4293 3.94458 19.4251 3.95183 19.421 3.95909C19.4168 3.96634 19.4126 3.97359 19.4084 3.98084C19.4042 3.98809 19.4 3.99534 19.3958 4.00259C19.3917 4.00984 19.3875 4.01709 19.3833 4.02433C19.3791 4.03158 19.3749 4.03883 19.3707 4.04607C19.3666 4.05332 19.3624 4.06056 19.3582 4.06781C19.354 4.07505 19.3498 4.08229 19.3456 4.08954C19.3415 4.09678 19.3373 4.10402 19.3331 4.11126C19.3289 4.1185 19.3247 4.12574 19.3206 4.13297C19.3164 4.14021 19.3122 4.14745 19.308 4.15468C19.3039 4.16192 19.2997 4.16915 19.2955 4.17639C19.2913 4.18362 19.2872 4.19085 19.283 4.19808C19.2788 4.20531 19.2746 4.21254 19.2705 4.21977C19.2663 4.227 19.2621 4.23422 19.2579 4.24145C19.2538 4.24867 19.2496 4.2559 19.2454 4.26312C19.2413 4.27034 19.2371 4.27756 19.2329 4.28478C19.2288 4.292 19.2246 4.29922 19.2204 4.30644C19.2163 4.31365 19.2121 4.32087 19.2079 4.32808C19.2038 4.33529 19.1996 4.34251 19.1954 4.34972C19.1913 4.35693 19.1871 4.36414 19.1829 4.37134C19.1788 4.37855 19.1746 4.38576 19.1705 4.39296C19.1663 4.40016 19.1621 4.40736 19.158 4.41456C19.1538 4.42176 19.1497 4.42896 19.1455 4.43616C19.1414 4.44336 19.1372 4.45055 19.1331 4.45774C19.1289 4.46494 19.1248 4.47213 19.1206 4.47932C19.1165 4.4865 19.1123 4.49369 19.1082 4.50088C19.104 4.50806 19.0999 4.51524 19.0957 4.52243C19.0916 4.52961 19.0874 4.53679 19.0833 4.54396C19.0791 4.55114 19.075 4.55831 19.0709 4.56549C19.0667 4.57266 19.0626 4.57983 19.0584 4.587C19.0543 4.59417 19.0502 4.60133 19.046 4.6085C19.0419 4.61566 19.0378 4.62282 19.0336 4.62998C19.0295 4.63714 19.0254 4.6443 19.0212 4.65145C19.0171 4.65861 19.013 4.66576 19.0088 4.67291C19.0047 4.68006 19.0006 4.68721 18.9965 4.69435C18.9923 4.7015 18.9882 4.70864 18.9841 4.71578C18.98 4.72292 18.9758 4.73006 18.9717 4.7372C18.9676 4.74433 18.9635 4.75146 18.9594 4.75859C18.9552 4.76572 18.9511 4.77285 18.947 4.77998C18.9429 4.7871 18.9388 4.79422 18.9347 4.80134C18.9306 4.80846 18.9265 4.81558 18.9224 4.8227C18.9182 4.82981 18.9141 4.83692 18.91 4.84403C18.9059 4.85114 18.9018 4.85824 18.8977 4.86535C18.8936 4.87245 18.8895 4.87955 18.8854 4.88665C18.8813 4.89374 18.8772 4.90084 18.8731 4.90793C18.8691 4.91502 18.865 4.92211 18.8609 4.92919C18.8568 4.93628 18.8527 4.94336 18.8486 4.95044C18.8445 4.95752 18.8404 4.9646 18.8363 4.97167C18.8323 4.97874 18.8282 4.98581 18.8241 4.99288C18.82 4.99995 18.8159 5.00701 18.8119 5.01407C18.8078 5.02113 18.8037 5.02819 18.7996 5.03524C18.7956 5.0423 18.7915 5.04935 18.7874 5.0564C18.7834 5.06344 18.7793 5.07049 18.7752 5.07753C18.7712 5.08457 18.7671 5.09161 18.763 5.09864C18.759 5.10568 18.7549 5.11271 18.7509 5.11973C18.7468 5.12676 18.7427 5.13378 18.7387 5.1408C18.7346 5.14782 18.7306 5.15484 18.7265 5.16185C18.7225 5.16887 18.7184 5.17588 18.7144 5.18288C18.7104 5.18989 18.7063 5.19689 18.7023 5.20389C18.6982 5.21089 18.6942 5.21788 18.6902 5.22488C18.6861 5.23187 18.6821 5.23885 18.6781 5.24584C18.674 5.25282 18.67 5.2598 18.666 5.26678C18.6619 5.27375 18.6579 5.28073 18.6539 5.2877C18.6499 5.29466 18.6458 5.30163 18.6418 5.30859C18.6378 5.31555 18.6338 5.32251 18.6298 5.32946C18.6258 5.33641 18.6217 5.34336 18.6177 5.35031C18.6137 5.35725 18.6097 5.36419 18.6057 5.37113C18.6017 5.37806 18.5977 5.385 18.5937 5.39193C18.5897 5.39885 18.5857 5.40578 18.5817 5.4127C18.5777 5.41962 18.5737 5.42653 18.5697 5.43345C18.5657 5.44036 18.5618 5.44727 18.5578 5.45417C18.5538 5.46107 18.5498 5.46797 18.5458 5.47487C18.5418 5.48176 18.5379 5.48865 18.5339 5.49554C18.5299 5.50242 18.5259 5.5093 18.522 5.51618C18.518 5.52306 18.514 5.52993 18.5101 5.5368C18.5061 5.54367 18.5021 5.55053 18.4982 5.55739C18.4942 5.56425 18.4903 5.5711 18.4863 5.57795C18.4824 5.5848 18.4784 5.59165 18.4744 5.59849C18.4705 5.60533 18.4666 5.61217 18.4626 5.619C18.4587 5.62583 18.4547 5.63266 18.4508 5.63948C18.4468 5.6463 18.4429 5.65312 18.439 5.65993C18.435 5.66674 18.4311 5.67355 18.4272 5.68035C18.4233 5.68716 18.4193 5.69396 18.4154 5.70075C18.4115 5.70754 18.4076 5.71433 18.4037 5.72111C18.3997 5.7279 18.3958 5.73467 18.3919 5.74145C18.388 5.74822 18.3841 5.75499 18.3802 5.76175C18.3763 5.76852 18.3724 5.77527 18.3685 5.78203C18.3646 5.78878 18.3607 5.79553 18.3568 5.80227C18.3529 5.80901 18.349 5.81575 18.3451 5.82248C18.3412 5.82922 18.3374 5.83594 18.3335 5.84267C18.3296 5.84939 18.3257 5.8561 18.3218 5.86282C18.318 5.86953 18.3141 5.87623 18.3102 5.88293C18.3064 5.88964 18.3025 5.89633 18.2986 5.90302C18.2948 5.90971 18.2909 5.9164 18.2871 5.92308C18.2832 5.92975 18.2793 5.93643 18.2755 5.9431C18.2716 5.94976 18.2678 5.95643 18.264 5.96308C18.2601 5.96974 18.2563 5.97639 18.2524 5.98304C18.2486 5.98968 18.2448 5.99633 18.2409 6.00296C18.2371 6.00959 18.2333 6.01622 18.2294 6.02285C18.2256 6.02947 18.2218 6.03609 18.218 6.0427C18.2142 6.04931 18.2104 6.05592 18.2065 6.06252C18.2027 6.06912 18.1989 6.07571 18.1951 6.0823C18.1913 6.08889 18.1875 6.09547 18.1837 6.10205C18.1799 6.10863 18.1761 6.1152 18.1723 6.12176C18.1685 6.12833 18.1648 6.13488 18.161 6.14144C18.1572 6.14799 18.1534 6.15454 18.1496 6.16108C18.1459 6.16762 18.1421 6.17415 18.1383 6.18068C18.1346 6.18721 18.1308 6.19373 18.127 6.20025C18.1233 6.20677 18.1195 6.21328 18.1157 6.21978C18.112 6.22628 18.1082 6.23278 18.1045 6.23927C18.1007 6.24576 18.097 6.25225 18.0933 6.25873C18.0895 6.26521 18.0858 6.27168 18.0821 6.27815C18.0783 6.28461 18.0746 6.29107 18.0709 6.29752C18.0671 6.30398 18.0634 6.31042 18.0597 6.31686C18.056 6.32331 18.0523 6.32974 18.0486 6.33617C18.0448 6.34259 18.0411 6.34901 18.0374 6.35543C18.0337 6.36184 18.03 6.36825 18.0263 6.37465C18.0226 6.38105 18.0189 6.38745 18.0153 6.39383C18.0116 6.40022 18.0079 6.4066 18.0042 6.41298C18.0005 6.41935 17.9968 6.42572 17.9932 6.43208C17.9895 6.43844 17.9858 6.44479 17.9822 6.45114C17.9785 6.45749 17.9748 6.46383 17.9712 6.47016C17.9675 6.47649 17.9639 6.48282 17.9602 6.48914C17.9566 6.49546 17.9529 6.50177 17.9493 6.50808C17.9457 6.51438 17.942 6.52068 17.9384 6.52697C17.9348 6.53327 17.9311 6.53955 17.9275 6.54583C17.9239 6.5521 17.9203 6.55837 17.9166 6.56464C17.913 6.5709 17.9094 6.57716 17.9058 6.58341C17.9022 6.58965 17.8986 6.5959 17.895 6.60213C17.8914 6.60836 17.8878 6.61459 17.8842 6.62081C17.8806 6.62703 17.877 6.63324 17.8735 6.63945C17.8699 6.64565 17.8663 6.65185 17.8627 6.65804C17.8591 6.66423 17.8556 6.67042 17.852 6.67659C17.8484 6.68277 17.8449 6.68893 17.8413 6.69509C17.8378 6.70126 17.8342 6.70741 17.8307 6.71355C17.8271 6.7197 17.8236 6.72584 17.82 6.73197C17.8165 6.7381 17.813 6.74422 17.8094 6.75034C17.8059 6.75645 17.8024 6.76256 17.7989 6.76866C17.7953 6.77476 17.7918 6.78085 17.7883 6.78693C17.7848 6.79302 17.7813 6.79909 17.7778 6.80516C17.7743 6.81123 17.7708 6.81729 17.7673 6.82334C17.7638 6.8294 17.7603 6.83544 17.7568 6.84148C17.7533 6.84752 17.7498 6.85355 17.7464 6.85957C17.7429 6.86559 17.7394 6.8716 17.736 6.87761C17.7325 6.88361 17.729 6.88961 17.7256 6.8956C17.7221 6.90159 17.7187 6.90757 17.7152 6.91354C17.7118 6.91952 17.7083 6.92548 17.7049 6.93144C17.7014 6.93739 17.698 6.94334 17.6946 6.94928C17.6911 6.95522 17.6877 6.96115 17.6843 6.96708C17.6809 6.973 17.6775 6.97892 17.674 6.98482C17.6706 6.99073 17.6672 6.99663 17.6638 7.00252C17.6604 7.00841 17.657 7.01429 17.6536 7.02017C17.6503 7.02604 17.6469 7.03191 17.6435 7.03776C17.6401 7.04362 17.6367 7.04947 17.6334 7.05531C17.63 7.06115 17.6266 7.06698 17.6233 7.0728C17.6199 7.07862 17.6165 7.08444 17.6132 7.09024C17.6098 7.09605 17.6065 7.10185 17.6031 7.10763C17.5998 7.11342 17.5965 7.1192 17.5931 7.12497C17.5898 7.13074 17.5865 7.13651 17.5832 7.14226C17.5798 7.14801 17.5765 7.15376 17.5732 7.15949C17.5699 7.16523 17.5666 7.17095 17.5633 7.17667C17.56 7.18239 17.5567 7.1881 17.5534 7.1938C17.5501 7.1995 17.5468 7.20519 17.5435 7.21087C17.5403 7.21655 17.537 7.22223 17.5337 7.22789C17.5304 7.23356 17.5272 7.23921 17.5239 7.24486C17.5207 7.2505 17.5174 7.25614 17.5142 7.26177C17.5109 7.26739 17.5077 7.27301 17.5044 7.27862C17.5012 7.28423 17.498 7.28983 17.4947 7.29542C17.4915 7.30101 17.4883 7.30659 17.4851 7.31217C17.4818 7.31774 17.4786 7.3233 17.4754 7.32886C17.4722 7.33441 17.469 7.33995 17.4658 7.34549C17.4626 7.35102 17.4594 7.35655 17.4562 7.36207C17.4531 7.36758 17.4499 7.37309 17.4467 7.37859C17.4435 7.38408 17.4404 7.38957 17.4372 7.39505C17.434 7.40053 17.4309 7.406 17.4277 7.41145C17.4246 7.41691 17.4214 7.42236 17.4183 7.4278C17.4152 7.43324 17.412 7.43867 17.4089 7.44409C17.4058 7.44951 17.4026 7.45492 17.3995 7.46032C17.3964 7.46572 17.3933 7.47112 17.3902 7.4765C17.3871 7.48188 17.384 7.48725 17.3809 7.49261C17.3778 7.49797 17.3747 7.50332 17.3716 7.50867C17.3685 7.51401 17.3654 7.51934 17.3624 7.52466C17.3593 7.52998 17.3562 7.5353 17.3532 7.5406C17.3501 7.5459 17.3471 7.55119 17.344 7.55647C17.341 7.56176 17.3379 7.56703 17.3349 7.57229C17.3318 7.57755 17.3288 7.5828 17.3258 7.58804C17.3228 7.59329 17.3197 7.59852 17.3167 7.60374C17.3137 7.60896 17.3107 7.61417 17.3077 7.61937C17.3047 7.62457 17.3017 7.62976 17.2987 7.63494C17.2957 7.64012 17.2927 7.64529 17.2897 7.65045C17.2868 7.65561 17.2838 7.66076 17.2808 7.6659C17.2779 7.67103 17.2749 7.67616 17.2719 7.68128C17.269 7.6864 17.266 7.6915 17.2631 7.6966C17.2602 7.7017 17.2572 7.70678 17.2543 7.71186C17.2514 7.71693 17.2484 7.722 17.2455 7.72705C17.2426 7.73211 17.2397 7.73715 17.2368 7.74218C17.2339 7.74722 17.231 7.75224 17.2281 7.75725C17.2252 7.76226 17.2223 7.76726 17.2194 7.77225C17.2165 7.77724 17.2137 7.78222 17.2108 7.78719C17.2079 7.79216 17.2051 7.79712 17.2022 7.80206C17.1994 7.80701 17.1965 7.81195 17.1937 7.81687C17.1908 7.8218 17.188 7.82671 17.1852 7.83161C17.1823 7.83652 17.1795 7.84141 17.1767 7.84629C17.1739 7.85117 17.1711 7.85604 17.1682 7.8609C17.1654 7.86576 17.1626 7.87061 17.1599 7.87544C17.1571 7.88028 17.1543 7.8851 17.1515 7.88992C17.1487 7.89473 17.1459 7.89953 17.1432 7.90433C17.1404 7.90912 17.1376 7.9139 17.1349 7.91867C17.1321 7.92344 17.1294 7.9282 17.1267 7.93294C17.1239 7.93769 17.1212 7.94242 17.1185 7.94715C17.1157 7.95187 17.113 7.95658 17.1103 7.96128C17.1076 7.96599 17.1049 7.97068 17.1022 7.97535C17.0995 7.98003 17.0968 7.9847 17.0941 7.98935C17.0914 7.99401 17.0887 7.99865 17.086 8.00328C17.0834 8.00792 17.0807 8.01254 17.078 8.01714C17.0754 8.02175 17.0727 8.02635 17.0701 8.03093C17.0674 8.03552 17.0648 8.04009 17.0622 8.04466C17.0595 8.04922 17.0569 8.05377 17.0543 8.05831C17.0517 8.06284 17.049 8.06737 17.0464 8.07189C17.0438 8.0764 17.0412 8.0809 17.0386 8.08539C17.036 8.08988 17.0335 8.09436 17.0309 8.09883C17.0283 8.1033 17.0257 8.10775 17.0232 8.1122C17.0206 8.11664 17.018 8.12107 17.0155 8.12549C17.0129 8.12991 17.0104 8.13431 17.0079 8.13871C17.0053 8.1431 17.0028 8.14749 17.0003 8.15186C16.9977 8.15623 16.9952 8.16058 16.9927 8.16493C16.9902 8.16928 16.9877 8.17361 16.9852 8.17793C16.9827 8.18225 16.9802 8.18656 16.9777 8.19086C16.9753 8.19516 16.9728 8.19944 16.9703 8.20371C16.9679 8.20799 16.9654 8.21225 16.9629 8.21649C16.9605 8.22074 16.958 8.22498 16.9556 8.2292C16.9532 8.23342 16.9507 8.23763 16.9483 8.24183C16.9459 8.24603 16.9435 8.25021 16.9411 8.25439C16.9387 8.25856 16.9363 8.26272 16.9339 8.26686C16.9315 8.27101 16.9291 8.27515 16.9267 8.27927C16.9243 8.28339 16.9219 8.2875 16.9196 8.2916C16.9172 8.29569 16.9149 8.29978 16.9125 8.30385C16.9102 8.30792 16.9078 8.31198 16.9055 8.31602C16.9031 8.32007 16.9008 8.3241 16.8985 8.32812C16.8962 8.33214 16.8939 8.33615 16.8916 8.34014C16.8892 8.34414 16.887 8.34812 16.8847 8.35209C16.8824 8.35605 16.8801 8.36001 16.8778 8.36395C16.8755 8.36789 16.8733 8.37182 16.871 8.37574C16.8687 8.37965 16.8665 8.38356 16.8642 8.38745C16.862 8.39134 16.8598 8.39521 16.8575 8.39908C16.8553 8.40294 16.8531 8.40679 16.8509 8.41063C16.8486 8.41447 16.8464 8.41829 16.8442 8.4221C16.842 8.42591 16.8398 8.42971 16.8377 8.43349C16.8355 8.43727 16.8333 8.44104 16.8311 8.4448C16.829 8.44856 16.8268 8.4523 16.8246 8.45603C16.8225 8.45976 16.8203 8.46348 16.8182 8.46718C16.8161 8.47089 16.8139 8.47458 16.8118 8.47825C16.8097 8.48193 16.8076 8.48559 16.8055 8.48924C16.8034 8.49289 16.8013 8.49653 16.7992 8.50015C16.7971 8.50377 16.795 8.50738 16.7929 8.51097C16.7909 8.51457 16.7888 8.51815 16.7867 8.52171C16.7847 8.52528 16.7826 8.52883 16.7806 8.53237C16.7785 8.53591 16.7765 8.53944 16.7745 8.54295C16.7724 8.54646 16.7704 8.54996 16.7684 8.55345C16.7664 8.55693 16.7644 8.5604 16.7624 8.56386C16.7604 8.56731 16.7584 8.57076 16.7564 8.57418C16.7545 8.57761 16.7525 8.58103 16.7505 8.58443C16.7486 8.58783 16.7466 8.59121 16.7447 8.59458C16.7427 8.59796 16.7408 8.60131 16.7388 8.60466C16.7369 8.608 16.735 8.61133 16.7331 8.61465C16.7312 8.61796 16.7292 8.62126 16.7274 8.62455C16.7255 8.62784 16.7236 8.63111 16.7217 8.63437C16.7198 8.63763 16.7179 8.64087 16.7161 8.6441C16.7142 8.64733 16.7123 8.65055 16.7105 8.65375C16.7086 8.65695 16.7068 8.66014 16.705 8.66331C16.7031 8.66648 16.7013 8.66964 16.6995 8.67278C16.6977 8.67592 16.6959 8.67905 16.6941 8.68217C16.6923 8.68528 16.6905 8.68838 16.6887 8.69146C16.6869 8.69455 16.6852 8.69762 16.6834 8.70067C16.6816 8.70373 16.6799 8.70677 16.6781 8.7098C16.6764 8.71282 16.6747 8.71583 16.6729 8.71883C16.6712 8.72183 16.6695 8.72481 16.6678 8.72778C16.666 8.73074 16.6643 8.7337 16.6626 8.73663C16.6609 8.73957 16.6593 8.74249 16.6576 8.7454C16.6559 8.74831 16.6542 8.7512 16.6526 8.75408C16.6509 8.75695 16.6493 8.75982 16.6476 8.76266C16.646 8.76551 16.6443 8.76835 16.6427 8.77116C16.6411 8.77398 16.6395 8.77678 16.6379 8.77957C16.6362 8.78236 16.6346 8.78513 16.6331 8.78789C16.6315 8.79064 16.6299 8.79338 16.6283 8.79611C16.6267 8.79884 16.6252 8.80155 16.6236 8.80424C16.622 8.80694 16.6205 8.80962 16.619 8.81229C16.6174 8.81495 16.6159 8.8176 16.6144 8.82024C16.6129 8.82287 16.6113 8.82549 16.6098 8.82809C16.6083 8.8307 16.6068 8.83329 16.6054 8.83586C16.6039 8.83843 16.6024 8.84099 16.6009 8.84353C16.5995 8.84607 16.598 8.8486 16.5965 8.85111C16.5951 8.85362 16.5937 8.85612 16.5922 8.8586C16.5908 8.86108 16.5894 8.86354 16.588 8.86599C16.5865 8.86844 16.5851 8.87087 16.5837 8.87328C16.5824 8.8757 16.581 8.8781 16.5796 8.88049C16.5782 8.88287 16.5768 8.88524 16.5755 8.8876C16.5741 8.88995 16.5728 8.89229 16.5714 8.89461C16.5701 8.89693 16.5688 8.89924 16.5674 8.90153C16.5661 8.90382 16.5648 8.90609 16.5635 8.90835C16.5622 8.91061 16.5609 8.91285 16.5596 8.91507C16.5583 8.9173 16.5571 8.91951 16.5558 8.9217C16.5545 8.9239 16.5533 8.92607 16.552 8.92824C16.5508 8.9304 16.5495 8.93254 16.5483 8.93467C16.5471 8.9368 16.5459 8.93891 16.5446 8.94101C16.5434 8.94311 16.5422 8.94519 16.541 8.94725C16.5398 8.94932 16.5387 8.95136 16.5375 8.9534C16.5363 8.95543 16.5352 8.95744 16.534 8.95944C16.5328 8.96144 16.5317 8.96342 16.5306 8.96539C16.5294 8.96735 16.5283 8.9693 16.5272 8.97123C16.5261 8.97317 16.525 8.97508 16.5239 8.97698C16.5228 8.97888 16.5217 8.98077 16.5206 8.98263C16.5195 8.9845 16.5185 8.98635 16.5174 8.98818C16.5164 8.99002 16.5153 8.99183 16.5143 8.99363C16.5132 8.99543 16.5122 8.99722 16.5112 8.99898C16.5102 9.00075 16.5091 9.0025 16.5081 9.00423C16.5071 9.00596 16.5062 9.00768 16.5052 9.00938C16.5042 9.01108 16.5032 9.01276 16.5023 9.01442C16.5013 9.01609 16.5003 9.01774 16.4994 9.01937C16.4985 9.021 16.4975 9.02262 16.4966 9.02421C16.4957 9.02581 16.4948 9.02739 16.4939 9.02895C16.493 9.03052 16.4921 9.03206 16.4912 9.03359C16.4903 9.03512 16.4894 9.03663 16.4886 9.03813C16.4877 9.03962 16.4869 9.0411 16.486 9.04256C16.4852 9.04402 16.4843 9.04546 16.4835 9.04689C16.4827 9.04832 16.4819 9.04972 16.4811 9.05112C16.4803 9.05251 16.4795 9.05388 16.4787 9.05524C16.4779 9.05659 16.4771 9.05793 16.4764 9.05926C16.4756 9.06058 16.4749 9.06188 16.4741 9.06317C16.4734 9.06445 16.4726 9.06572 16.4719 9.06697C16.4712 9.06823 16.4705 9.06946 16.4698 9.07068C16.4691 9.07189 16.4684 9.07309 16.4677 9.07427C16.467 9.07546 16.4664 9.07662 16.4657 9.07777C16.465 9.07891 16.4644 9.08004 16.4637 9.08115C16.4631 9.08226 16.4625 9.08335 16.4618 9.08443C16.4612 9.0855 16.4606 9.08656 16.46 9.0876C16.4594 9.08864 16.4588 9.08966 16.4582 9.09067C16.4577 9.09167 16.4571 9.09266 16.4565 9.09362C16.456 9.09459 16.4554 9.09554 16.4549 9.09647C16.4543 9.09741 16.4538 9.09832 16.4533 9.09921C16.4528 9.10011 16.4523 9.10099 16.4518 9.10185C16.4513 9.10271 16.4508 9.10355 16.4503 9.10437C16.4499 9.1052 16.4494 9.106 16.4489 9.10679C16.4485 9.10758 16.448 9.10835 16.4476 9.1091C16.4472 9.10985 16.4467 9.11058 16.4463 9.11129C16.4459 9.11201 16.4455 9.1127 16.4451 9.11338C16.4447 9.11406 16.4444 9.11472 16.444 9.11536C16.4436 9.116 16.4433 9.11662 16.4429 9.11722C16.4426 9.11783 16.4422 9.11841 16.4419 9.11898C16.4416 9.11955 16.4412 9.12009 16.4409 9.12062C16.4406 9.12115 16.4403 9.12167 16.4401 9.12216C16.4398 9.12265 16.4395 9.12312 16.4392 9.12358C16.439 9.12404 16.4387 9.12447 16.4385 9.12489C16.4382 9.12531 16.438 9.12571 16.4378 9.12609C16.4376 9.12647 16.4374 9.12683 16.4372 9.12717C16.437 9.12752 16.4368 9.12784 16.4366 9.12814C16.4364 9.12845 16.4363 9.12874 16.4361 9.129C16.436 9.12927 16.4358 9.12952 16.4357 9.12975C16.4355 9.12998 16.4354 9.13019 16.4353 9.13038C16.4352 9.13057 16.4351 9.13074 16.435 9.1309C16.4349 9.13105 16.4348 9.13119 16.4348 9.1313C16.4347 9.13142 16.4347 9.13151 16.4346 9.13159C16.4346 9.13167 16.4345 9.13172 16.4345 9.13176C16.4345 9.1318 16.4345 9.13182 17.7335 9.88182C19.0326 10.6318 19.0326 10.6318 19.0326 10.6318C19.0326 10.6317 19.0326 10.6317 19.0327 10.6316C19.0327 10.6315 19.0328 10.6314 19.0329 10.6313C19.0329 10.6312 19.033 10.6311 19.0331 10.6309C19.0332 10.6307 19.0333 10.6306 19.0334 10.6304C19.0335 10.6302 19.0336 10.63 19.0338 10.6297C19.0339 10.6295 19.034 10.6293 19.0342 10.629C19.0343 10.6287 19.0345 10.6284 19.0347 10.6281C19.0349 10.6278 19.035 10.6275 19.0352 10.6272C19.0354 10.6268 19.0356 10.6265 19.0359 10.6261C19.0361 10.6257 19.0363 10.6253 19.0366 10.6249C19.0368 10.6245 19.0371 10.624 19.0373 10.6236C19.0376 10.6231 19.0379 10.6227 19.0381 10.6222C19.0384 10.6217 19.0387 10.6212 19.039 10.6206C19.0393 10.6201 19.0396 10.6195 19.04 10.619C19.0403 10.6184 19.0406 10.6178 19.041 10.6172C19.0413 10.6166 19.0417 10.616 19.0421 10.6154C19.0424 10.6147 19.0428 10.6141 19.0432 10.6134C19.0436 10.6127 19.044 10.612 19.0444 10.6113C19.0448 10.6106 19.0452 10.6098 19.0457 10.6091C19.0461 10.6083 19.0466 10.6076 19.047 10.6068C19.0475 10.606 19.0479 10.6052 19.0484 10.6044C19.0489 10.6035 19.0494 10.6027 19.0499 10.6018C19.0504 10.601 19.0509 10.6001 19.0514 10.5992C19.0519 10.5983 19.0524 10.5974 19.053 10.5965C19.0535 10.5955 19.0541 10.5946 19.0546 10.5936C19.0552 10.5927 19.0557 10.5917 19.0563 10.5907C19.0569 10.5897 19.0575 10.5886 19.0581 10.5876C19.0587 10.5866 19.0593 10.5855 19.0599 10.5844C19.0605 10.5834 19.0612 10.5823 19.0618 10.5812C19.0625 10.58 19.0631 10.5789 19.0638 10.5778C19.0644 10.5766 19.0651 10.5755 19.0658 10.5743C19.0665 10.5731 19.0672 10.5719 19.0679 10.5707C19.0686 10.5695 19.0693 10.5682 19.07 10.567C19.0707 10.5657 19.0715 10.5645 19.0722 10.5632C19.0729 10.5619 19.0737 10.5606 19.0745 10.5593C19.0752 10.5579 19.076 10.5566 19.0768 10.5552C19.0776 10.5539 19.0783 10.5525 19.0792 10.5511C19.08 10.5497 19.0808 10.5483 19.0816 10.5469C19.0824 10.5455 19.0832 10.544 19.0841 10.5426C19.0849 10.5411 19.0858 10.5396 19.0866 10.5381C19.0875 10.5366 19.0884 10.5351 19.0893 10.5336C19.0902 10.5321 19.091 10.5305 19.0919 10.529C19.0928 10.5274 19.0938 10.5258 19.0947 10.5242C19.0956 10.5226 19.0965 10.521 19.0975 10.5194C19.0984 10.5177 19.0994 10.5161 19.1003 10.5144C19.1013 10.5128 19.1023 10.5111 19.1032 10.5094C19.1042 10.5077 19.1052 10.506 19.1062 10.5042C19.1072 10.5025 19.1082 10.5007 19.1093 10.499C19.1103 10.4972 19.1113 10.4954 19.1123 10.4936C19.1134 10.4918 19.1144 10.49 19.1155 10.4882C19.1165 10.4863 19.1176 10.4845 19.1187 10.4826C19.1198 10.4808 19.1209 10.4789 19.122 10.477C19.123 10.4751 19.1242 10.4732 19.1253 10.4712C19.1264 10.4693 19.1275 10.4674 19.1286 10.4654C19.1298 10.4634 19.1309 10.4614 19.1321 10.4594C19.1332 10.4574 19.1344 10.4554 19.1356 10.4534C19.1367 10.4514 19.1379 10.4493 19.1391 10.4473C19.1403 10.4452 19.1415 10.4431 19.1427 10.441C19.1439 10.4389 19.1452 10.4368 19.1464 10.4347C19.1476 10.4325 19.1488 10.4304 19.1501 10.4282C19.1513 10.4261 19.1526 10.4239 19.1539 10.4217C19.1551 10.4195 19.1564 10.4173 19.1577 10.4151C19.159 10.4128 19.1603 10.4106 19.1616 10.4083C19.1629 10.4061 19.1642 10.4038 19.1655 10.4015C19.1668 10.3992 19.1682 10.3969 19.1695 10.3946C19.1709 10.3923 19.1722 10.3899 19.1736 10.3876C19.1749 10.3852 19.1763 10.3829 19.1777 10.3805C19.179 10.3781 19.1804 10.3757 19.1818 10.3733C19.1832 10.3709 19.1846 10.3684 19.186 10.366C19.1874 10.3635 19.1889 10.3611 19.1903 10.3586C19.1917 10.3561 19.1932 10.3536 19.1946 10.3511C19.1961 10.3486 19.1975 10.3461 19.199 10.3435C19.2005 10.341 19.2019 10.3384 19.2034 10.3359C19.2049 10.3333 19.2064 10.3307 19.2079 10.3281C19.2094 10.3255 19.2109 10.3229 19.2124 10.3202C19.214 10.3176 19.2155 10.315 19.217 10.3123C19.2186 10.3096 19.2201 10.3069 19.2217 10.3042C19.2232 10.3015 19.2248 10.2988 19.2264 10.2961C19.228 10.2934 19.2295 10.2906 19.2311 10.2879C19.2327 10.2851 19.2343 10.2824 19.2359 10.2796C19.2375 10.2768 19.2392 10.274 19.2408 10.2712C19.2424 10.2683 19.244 10.2655 19.2457 10.2627C19.2473 10.2598 19.249 10.257 19.2506 10.2541C19.2523 10.2512 19.254 10.2483 19.2557 10.2454C19.2573 10.2425 19.259 10.2396 19.2607 10.2366C19.2624 10.2337 19.2641 10.2307 19.2658 10.2278C19.2675 10.2248 19.2693 10.2218 19.271 10.2188C19.2727 10.2158 19.2745 10.2128 19.2762 10.2098C19.278 10.2068 19.2797 10.2037 19.2815 10.2007C19.2832 10.1976 19.285 10.1945 19.2868 10.1915C19.2886 10.1884 19.2904 10.1853 19.2922 10.1822C19.294 10.1791 19.2958 10.1759 19.2976 10.1728C19.2994 10.1696 19.3012 10.1665 19.3031 10.1633C19.3049 10.1601 19.3067 10.1569 19.3086 10.1537C19.3104 10.1505 19.3123 10.1473 19.3141 10.1441C19.316 10.1409 19.3179 10.1376 19.3198 10.1344C19.3216 10.1311 19.3235 10.1278 19.3254 10.1246C19.3273 10.1213 19.3292 10.118 19.3311 10.1146C19.3331 10.1113 19.335 10.108 19.3369 10.1047C19.3388 10.1013 19.3408 10.098 19.3427 10.0946C19.3447 10.0912 19.3466 10.0878 19.3486 10.0844C19.3506 10.081 19.3525 10.0776 19.3545 10.0742C19.3565 10.0708 19.3585 10.0673 19.3605 10.0639C19.3625 10.0604 19.3645 10.0569 19.3665 10.0534C19.3685 10.05 19.3705 10.0465 19.3725 10.043C19.3746 10.0394 19.3766 10.0359 19.3786 10.0324C19.3807 10.0288 19.3827 10.0253 19.3848 10.0217C19.3869 10.0181 19.3889 10.0146 19.391 10.011C19.3931 10.0074 19.3952 10.0038 19.3973 10.0001C19.3993 9.99653 19.4014 9.99289 19.4035 9.98924C19.4057 9.98559 19.4078 9.98193 19.4099 9.97825C19.412 9.97458 19.4141 9.97089 19.4163 9.96718C19.4184 9.96348 19.4206 9.95976 19.4227 9.95603C19.4249 9.9523 19.427 9.94856 19.4292 9.9448C19.4314 9.94104 19.4336 9.93727 19.4357 9.93349C19.4379 9.92971 19.4401 9.92591 19.4423 9.9221C19.4445 9.91829 19.4467 9.91447 19.4489 9.91063C19.4512 9.90679 19.4534 9.90294 19.4556 9.89908C19.4578 9.89521 19.4601 9.89134 19.4623 9.88745C19.4646 9.88356 19.4668 9.87965 19.4691 9.87574C19.4713 9.87182 19.4736 9.86789 19.4759 9.86395C19.4782 9.86001 19.4804 9.85605 19.4827 9.85209C19.485 9.84812 19.4873 9.84414 19.4896 9.84014C19.4919 9.83615 19.4943 9.83214 19.4966 9.82812C19.4989 9.8241 19.5012 9.82007 19.5036 9.81602C19.5059 9.81198 19.5082 9.80792 19.5106 9.80385C19.5129 9.79978 19.5153 9.79569 19.5177 9.7916C19.52 9.7875 19.5224 9.78339 19.5248 9.77927C19.5272 9.77515 19.5295 9.77101 19.5319 9.76686C19.5343 9.76272 19.5367 9.75856 19.5391 9.75439C19.5416 9.75021 19.544 9.74603 19.5464 9.74183C19.5488 9.73763 19.5512 9.73342 19.5537 9.7292C19.5561 9.72498 19.5586 9.72074 19.561 9.71649C19.5635 9.71225 19.5659 9.70799 19.5684 9.70371C19.5709 9.69944 19.5733 9.69516 19.5758 9.69086C19.5783 9.68656 19.5808 9.68225 19.5833 9.67793C19.5858 9.67361 19.5883 9.66928 19.5908 9.66493C19.5933 9.66058 19.5958 9.65623 19.5983 9.65186C19.6009 9.64749 19.6034 9.6431 19.6059 9.63871C19.6085 9.63431 19.611 9.62991 19.6136 9.62549C19.6161 9.62107 19.6187 9.61664 19.6212 9.61219C19.6238 9.60775 19.6264 9.6033 19.629 9.59883C19.6315 9.59436 19.6341 9.58988 19.6367 9.58539C19.6393 9.5809 19.6419 9.5764 19.6445 9.57188C19.6471 9.56737 19.6497 9.56284 19.6523 9.55831C19.655 9.55377 19.6576 9.54922 19.6602 9.54466C19.6629 9.54009 19.6655 9.53552 19.6682 9.53093C19.6708 9.52635 19.6735 9.52175 19.6761 9.51714C19.6788 9.51254 19.6814 9.50792 19.6841 9.50328C19.6868 9.49865 19.6895 9.49401 19.6922 9.48935C19.6948 9.4847 19.6975 9.48003 19.7002 9.47535C19.7029 9.47068 19.7057 9.46599 19.7084 9.46128C19.7111 9.45658 19.7138 9.45187 19.7165 9.44715C19.7193 9.44242 19.722 9.43769 19.7247 9.43294C19.7275 9.4282 19.7302 9.42344 19.733 9.41867C19.7357 9.4139 19.7385 9.40912 19.7412 9.40433C19.744 9.39953 19.7468 9.39473 19.7496 9.38992C19.7523 9.3851 19.7551 9.38028 19.7579 9.37544C19.7607 9.37061 19.7635 9.36576 19.7663 9.3609C19.7691 9.35604 19.7719 9.35117 19.7748 9.34629C19.7776 9.34141 19.7804 9.33652 19.7832 9.33161C19.7861 9.32671 19.7889 9.3218 19.7917 9.31687C19.7946 9.31195 19.7974 9.30701 19.8003 9.30206C19.8031 9.29712 19.806 9.29216 19.8089 9.28719C19.8117 9.28222 19.8146 9.27724 19.8175 9.27225C19.8204 9.26726 19.8233 9.26226 19.8262 9.25725C19.8291 9.25224 19.832 9.24722 19.8349 9.24218C19.8378 9.23715 19.8407 9.23211 19.8436 9.22705C19.8465 9.222 19.8494 9.21693 19.8524 9.21186C19.8553 9.20678 19.8582 9.2017 19.8612 9.1966C19.8641 9.1915 19.8671 9.1864 19.87 9.18128C19.873 9.17616 19.8759 9.17103 19.8789 9.1659C19.8819 9.16076 19.8848 9.15561 19.8878 9.15045C19.8908 9.14529 19.8938 9.14012 19.8968 9.13494C19.8998 9.12976 19.9028 9.12457 19.9058 9.11937C19.9088 9.11417 19.9118 9.10896 19.9148 9.10374C19.9178 9.09852 19.9208 9.09329 19.9239 9.08804C19.9269 9.0828 19.9299 9.07755 19.933 9.07229C19.936 9.06703 19.939 9.06176 19.9421 9.05647C19.9451 9.05119 19.9482 9.0459 19.9512 9.0406C19.9543 9.0353 19.9574 9.02998 19.9604 9.02466C19.9635 9.01934 19.9666 9.01401 19.9697 9.00867C19.9728 9.00332 19.9759 8.99797 19.979 8.99261C19.982 8.98725 19.9852 8.98188 19.9883 8.9765C19.9914 8.97112 19.9945 8.96572 19.9976 8.96032C20.0007 8.95492 20.0038 8.94951 20.007 8.94409C20.0101 8.93867 20.0132 8.93324 20.0164 8.9278C20.0195 8.92236 20.0227 8.91691 20.0258 8.91145C20.029 8.906 20.0321 8.90053 20.0353 8.89505C20.0384 8.88957 20.0416 8.88408 20.0448 8.87859C20.048 8.87309 20.0511 8.86758 20.0543 8.86207C20.0575 8.85655 20.0607 8.85102 20.0639 8.84549C20.0671 8.83995 20.0703 8.83441 20.0735 8.82886C20.0767 8.8233 20.0799 8.81774 20.0831 8.81217C20.0864 8.80659 20.0896 8.80101 20.0928 8.79542C20.096 8.78983 20.0993 8.78423 20.1025 8.77862C20.1057 8.77301 20.109 8.76739 20.1122 8.76177C20.1155 8.75614 20.1187 8.7505 20.122 8.74486C20.1253 8.73921 20.1285 8.73356 20.1318 8.72789C20.1351 8.72223 20.1383 8.71655 20.1416 8.71087C20.1449 8.70519 20.1482 8.6995 20.1515 8.6938C20.1548 8.6881 20.1581 8.68239 20.1614 8.67667C20.1647 8.67095 20.168 8.66523 20.1713 8.65949C20.1746 8.65376 20.1779 8.64801 20.1812 8.64226C20.1846 8.63651 20.1879 8.63074 20.1912 8.62497C20.1945 8.6192 20.1979 8.61342 20.2012 8.60763C20.2046 8.60185 20.2079 8.59605 20.2113 8.59024C20.2146 8.58444 20.218 8.57862 20.2213 8.5728C20.2247 8.56698 20.2281 8.56115 20.2314 8.55531C20.2348 8.54947 20.2382 8.54362 20.2416 8.53776C20.2449 8.53191 20.2483 8.52604 20.2517 8.52017C20.2551 8.51429 20.2585 8.50841 20.2619 8.50252C20.2653 8.49663 20.2687 8.49073 20.2721 8.48482C20.2755 8.47892 20.279 8.473 20.2824 8.46708C20.2858 8.46115 20.2892 8.45522 20.2926 8.44928C20.2961 8.44334 20.2995 8.43739 20.3029 8.43144C20.3064 8.42548 20.3098 8.41952 20.3133 8.41354C20.3167 8.40757 20.3202 8.40159 20.3236 8.3956C20.3271 8.38961 20.3306 8.38361 20.334 8.37761C20.3375 8.3716 20.341 8.36559 20.3444 8.35957C20.3479 8.35355 20.3514 8.34752 20.3549 8.34148C20.3584 8.33544 20.3619 8.3294 20.3654 8.32334C20.3689 8.31729 20.3723 8.31123 20.3759 8.30516C20.3794 8.29909 20.3829 8.29302 20.3864 8.28693C20.3899 8.28085 20.3934 8.27476 20.3969 8.26866C20.4005 8.26256 20.404 8.25645 20.4075 8.25034C20.411 8.24422 20.4146 8.2381 20.4181 8.23197C20.4217 8.22584 20.4252 8.2197 20.4287 8.21355C20.4323 8.20741 20.4358 8.20126 20.4394 8.19509C20.443 8.18893 20.4465 8.18277 20.4501 8.17659C20.4536 8.17042 20.4572 8.16423 20.4608 8.15804C20.4644 8.15185 20.4679 8.14565 20.4715 8.13945C20.4751 8.13324 20.4787 8.12703 20.4823 8.12081C20.4859 8.11459 20.4895 8.10836 20.4931 8.10213C20.4967 8.0959 20.5003 8.08965 20.5039 8.08341C20.5075 8.07716 20.5111 8.0709 20.5147 8.06464C20.5183 8.05837 20.522 8.0521 20.5256 8.04583C20.5292 8.03955 20.5328 8.03327 20.5365 8.02697C20.5401 8.02068 20.5437 8.01438 20.5474 8.00808C20.551 8.00177 20.5547 7.99546 20.5583 7.98914C20.562 7.98282 20.5656 7.97649 20.5693 7.97016C20.5729 7.96383 20.5766 7.95749 20.5802 7.95114C20.5839 7.94479 20.5876 7.93844 20.5913 7.93208C20.5949 7.92572 20.5986 7.91935 20.6023 7.91298C20.606 7.9066 20.6096 7.90022 20.6133 7.89383C20.617 7.88745 20.6207 7.88105 20.6244 7.87465C20.6281 7.86825 20.6318 7.86184 20.6355 7.85543C20.6392 7.84901 20.6429 7.84259 20.6466 7.83617C20.6503 7.82974 20.6541 7.8233 20.6578 7.81686C20.6615 7.81042 20.6652 7.80398 20.6689 7.79752C20.6727 7.79107 20.6764 7.78461 20.6801 7.77815C20.6839 7.77168 20.6876 7.76521 20.6913 7.75873C20.6951 7.75225 20.6988 7.74576 20.7026 7.73927C20.7063 7.73278 20.7101 7.72628 20.7138 7.71978C20.7176 7.71328 20.7213 7.70677 20.7251 7.70025C20.7289 7.69373 20.7326 7.68721 20.7364 7.68068C20.7402 7.67415 20.7439 7.66762 20.7477 7.66108C20.7515 7.65454 20.7553 7.64799 20.7591 7.64144C20.7628 7.63488 20.7666 7.62833 20.7704 7.62176C20.7742 7.6152 20.778 7.60863 20.7818 7.60205C20.7856 7.59547 20.7894 7.58889 20.7932 7.5823C20.797 7.57571 20.8008 7.56912 20.8046 7.56252C20.8084 7.55592 20.8122 7.54931 20.8161 7.5427C20.8199 7.53609 20.8237 7.52947 20.8275 7.52285C20.8313 7.51622 20.8352 7.50959 20.839 7.50296C20.8428 7.49632 20.8467 7.48968 20.8505 7.48304C20.8543 7.47639 20.8582 7.46974 20.862 7.46308C20.8659 7.45643 20.8697 7.44976 20.8736 7.4431C20.8774 7.43643 20.8813 7.42975 20.8851 7.42307C20.889 7.4164 20.8928 7.40971 20.8967 7.40302C20.9006 7.39633 20.9044 7.38964 20.9083 7.38293C20.9122 7.37623 20.916 7.36953 20.9199 7.36282C20.9238 7.3561 20.9277 7.34939 20.9316 7.34267C20.9354 7.33594 20.9393 7.32922 20.9432 7.32248C20.9471 7.31575 20.951 7.30901 20.9549 7.30227C20.9588 7.29553 20.9627 7.28878 20.9666 7.28203C20.9705 7.27527 20.9744 7.26852 20.9783 7.26175C20.9822 7.25499 20.9861 7.24822 20.99 7.24145C20.9939 7.23467 20.9978 7.2279 21.0017 7.22111C21.0056 7.21433 21.0096 7.20754 21.0135 7.20075C21.0174 7.19395 21.0213 7.18716 21.0253 7.18035C21.0292 7.17355 21.0331 7.16674 21.0371 7.15993C21.041 7.15312 21.0449 7.1463 21.0489 7.13948C21.0528 7.13266 21.0567 7.12583 21.0607 7.119C21.0646 7.11217 21.0686 7.10533 21.0725 7.09849C21.0765 7.09165 21.0804 7.0848 21.0844 7.07795C21.0883 7.0711 21.0923 7.06425 21.0963 7.05739C21.1002 7.05053 21.1042 7.04367 21.1081 7.0368C21.1121 7.02993 21.1161 7.02306 21.12 7.01618C21.124 7.0093 21.128 7.00242 21.132 6.99554C21.1359 6.98865 21.1399 6.98176 21.1439 6.97487C21.1479 6.96797 21.1519 6.96107 21.1558 6.95417C21.1598 6.94727 21.1638 6.94036 21.1678 6.93345C21.1718 6.92653 21.1758 6.91962 21.1798 6.9127C21.1838 6.90578 21.1878 6.89885 21.1918 6.89193C21.1958 6.885 21.1998 6.87806 21.2038 6.87113C21.2078 6.86419 21.2118 6.85725 21.2158 6.85031C21.2198 6.84336 21.2238 6.83641 21.2279 6.82946C21.2319 6.82251 21.2359 6.81555 21.2399 6.80859C21.2439 6.80163 21.2479 6.79466 21.252 6.78769C21.256 6.78073 21.26 6.77375 21.264 6.76678C21.2681 6.7598 21.2721 6.75282 21.2761 6.74584C21.2802 6.73885 21.2842 6.73187 21.2882 6.72488C21.2923 6.71788 21.2963 6.71089 21.3003 6.70389C21.3044 6.69689 21.3084 6.68989 21.3125 6.68288C21.3165 6.67588 21.3206 6.66887 21.3246 6.66185C21.3287 6.65484 21.3327 6.64782 21.3368 6.6408C21.3408 6.63378 21.3449 6.62676 21.3489 6.61973C21.353 6.61271 21.3571 6.60568 21.3611 6.59864C21.3652 6.59161 21.3692 6.58457 21.3733 6.57753C21.3774 6.57049 21.3814 6.56344 21.3855 6.5564C21.3896 6.54935 21.3936 6.5423 21.3977 6.53524C21.4018 6.52819 21.4059 6.52113 21.4099 6.51407C21.414 6.50701 21.4181 6.49995 21.4222 6.49288C21.4263 6.48581 21.4303 6.47874 21.4344 6.47167C21.4385 6.4646 21.4426 6.45752 21.4467 6.45044C21.4508 6.44336 21.4549 6.43628 21.4589 6.42919C21.463 6.42211 21.4671 6.41502 21.4712 6.40793C21.4753 6.40084 21.4794 6.39374 21.4835 6.38665C21.4876 6.37955 21.4917 6.37245 21.4958 6.36535C21.4999 6.35824 21.504 6.35114 21.5081 6.34403C21.5122 6.33692 21.5163 6.32981 21.5204 6.32269C21.5245 6.31558 21.5286 6.30846 21.5328 6.30134C21.5369 6.29422 21.541 6.2871 21.5451 6.27998C21.5492 6.27285 21.5533 6.26572 21.5574 6.25859C21.5616 6.25146 21.5657 6.24433 21.5698 6.2372C21.5739 6.23006 21.578 6.22292 21.5822 6.21578C21.5863 6.20864 21.5904 6.2015 21.5945 6.19435C21.5987 6.18721 21.6028 6.18006 21.6069 6.17291C21.611 6.16576 21.6152 6.15861 21.6193 6.15145C21.6234 6.1443 21.6276 6.13714 21.6317 6.12998C21.6358 6.12282 21.64 6.11566 21.6441 6.1085C21.6482 6.10133 21.6524 6.09417 21.6565 6.087C21.6606 6.07983 21.6648 6.07266 21.6689 6.06549C21.6731 6.05831 21.6772 6.05114 21.6814 6.04396C21.6855 6.03679 21.6896 6.02961 21.6938 6.02243C21.6979 6.01524 21.7021 6.00806 21.7062 6.00088C21.7104 5.99369 21.7145 5.9865 21.7187 5.97932C21.7228 5.97213 21.727 5.96494 21.7311 5.95774C21.7353 5.95055 21.7394 5.94336 21.7436 5.93616C21.7478 5.92896 21.7519 5.92176 21.7561 5.91456C21.7602 5.90736 21.7644 5.90016 21.7685 5.89296C21.7727 5.88576 21.7769 5.87855 21.781 5.87134C21.7852 5.86414 21.7893 5.85693 21.7935 5.84972C21.7977 5.84251 21.8018 5.83529 21.806 5.82808C21.8102 5.82087 21.8143 5.81365 21.8185 5.80644C21.8227 5.79922 21.8268 5.792 21.831 5.78478C21.8352 5.77756 21.8393 5.77034 21.8435 5.76312C21.8477 5.7559 21.8518 5.74867 21.856 5.74145C21.8602 5.73422 21.8644 5.727 21.8685 5.71977C21.8727 5.71254 21.8769 5.70531 21.8811 5.69808C21.8852 5.69085 21.8894 5.68362 21.8936 5.67639C21.8978 5.66915 21.9019 5.66192 21.9061 5.65468C21.9103 5.64745 21.9145 5.64021 21.9186 5.63297C21.9228 5.62574 21.927 5.6185 21.9312 5.61126C21.9354 5.60402 21.9395 5.59678 21.9437 5.58954C21.9479 5.58229 21.9521 5.57505 21.9563 5.56781C21.9604 5.56056 21.9646 5.55332 21.9688 5.54607C21.973 5.53883 21.9772 5.53158 21.9814 5.52433C21.9855 5.51709 21.9897 5.50984 21.9939 5.50259C21.9981 5.49534 22.0023 5.48809 22.0065 5.48084C22.0107 5.47359 22.0148 5.46634 22.019 5.45909C22.0232 5.45183 22.0274 5.44458 22.0316 5.43733C22.0358 5.43007 22.04 5.42282 22.0442 5.41556C22.0484 5.40831 22.0525 5.40106 22.0567 5.3938C22.0609 5.38654 22.0651 5.37929 22.0693 5.37203C22.0735 5.36477 22.0777 5.35752 22.0819 5.35026C22.0861 5.343 22.0902 5.33574 22.0944 5.32848C22.0986 5.32123 22.1028 5.31397 22.107 5.30671C22.1112 5.29945 22.1154 5.29219 22.1196 5.28493C22.1238 5.27767 22.128 5.27041 22.1322 5.26315C22.1364 5.25589 22.1405 5.24863 22.1447 5.24136C22.1489 5.2341 22.1531 5.22684 22.1573 5.21958C22.1615 5.21232 22.1657 5.20506 22.1699 5.1978C22.1741 5.19054 22.1783 5.18327 22.1825 5.17601C22.1867 5.16875 22.1909 5.16149 22.195 5.15423C22.1992 5.14697 22.2034 5.1397 22.2076 5.13244C22.2118 5.12518 22.216 5.11792 22.2202 5.11066C22.2244 5.1034 22.2286 5.09614 22.2328 5.08888C22.237 5.08161 22.2412 5.07435 22.2454 5.06709C22.2495 5.05983 22.2537 5.05257 22.2579 5.04531C22.2621 5.03805 22.2663 5.03079 22.2705 5.02353C22.2747 5.01627 22.2789 5.00901 22.2831 5.00175C22.2873 4.99449 22.2915 4.98724 22.2956 4.97998C22.2998 4.97272 22.304 4.96546 22.3082 4.95821C22.3124 4.95095 22.3166 4.94369 22.3208 4.93644C22.325 4.92918 22.3292 4.92192 22.3334 4.91467C22.3375 4.90741 22.3417 4.90016 22.3459 4.89291C22.3501 4.88565 22.3543 4.8784 22.3585 4.87115C22.3627 4.86389 22.3669 4.85664 22.371 4.84939C22.3752 4.84214 22.3794 4.83489 22.3836 4.82764C22.3878 4.82039 22.392 4.81314 22.3962 4.80589C22.4003 4.79864 22.4045 4.7914 22.4087 4.78415C22.4129 4.7769 22.4171 4.76966 22.4213 4.76241C22.4254 4.75517 22.4296 4.74793 22.4338 4.74068C22.438 4.73344 22.4422 4.7262 22.4463 4.71896C22.4505 4.71172 22.4547 4.70448 22.4589 4.69724C22.4631 4.69 22.4672 4.68277 22.4714 4.67553C22.4756 4.66829 22.4798 4.66106 22.484 4.65382C22.4881 4.64659 22.4923 4.63936 22.4965 4.63213C22.5007 4.6249 22.5048 4.61767 22.509 4.61044C22.5132 4.60321 22.5173 4.59598 22.5215 4.58875C22.5257 4.58153 22.5299 4.5743 22.534 4.56708C22.5382 4.55986 22.5424 4.55263 22.5465 4.54541C22.5507 4.53819 22.5549 4.53097 22.559 4.52376C22.5632 4.51654 22.5674 4.50932 22.5715 4.50211C22.5757 4.49489 22.5799 4.48768 22.584 4.48047C22.5882 4.47326 22.5924 4.46605 22.5965 4.45884C22.6007 4.45163 22.6049 4.44443 22.609 4.43722C22.6132 4.43002 22.6173 4.42281 22.6215 4.41561C22.6256 4.40841 22.6298 4.40121 22.634 4.39401C22.6381 4.38681 22.6423 4.37962 22.6464 4.37242C22.6506 4.36523 22.6547 4.35804 22.6589 4.35085C22.663 4.34366 22.6672 4.33647 22.6713 4.32928C22.6755 4.3221 22.6796 4.31491 22.6838 4.30773C22.6879 4.30055 22.6921 4.29337 22.6962 4.28619C22.7004 4.27901 22.7045 4.27183 22.7086 4.26466C22.7128 4.25748 22.7169 4.25031 22.7211 4.24314C22.7252 4.23597 22.7293 4.2288 22.7335 4.22164C22.7376 4.21447 22.7417 4.20731 22.7459 4.20015C22.75 4.19299 22.7542 4.18583 22.7583 4.17867C22.7624 4.17152 22.7665 4.16436 22.7707 4.15721C22.7748 4.15006 22.7789 4.14291 22.7831 4.13576C22.7872 4.12861 22.7913 4.12147 22.7954 4.11433C22.7996 4.10719 22.8037 4.10005 22.8078 4.09291C22.8119 4.08577 22.816 4.07864 22.8202 4.07151C22.8243 4.06437 22.8284 4.05724 22.8325 4.05012C22.8366 4.04299 22.8407 4.03587 22.8448 4.02874C22.849 4.02162 22.8531 4.0145 22.8572 4.00739C22.8613 4.00027 22.8654 3.99316 22.8695 3.98605C22.8736 3.97894 22.8777 3.97183 22.8818 3.96472C22.8859 3.95762 22.89 3.95052 22.8941 3.94342C22.8982 3.93632 22.9023 3.92922 22.9064 3.92213C22.9105 3.91504 22.9146 3.90794 22.9187 3.90086C22.9228 3.89377 22.9269 3.88669 22.931 3.8796C22.935 3.87252 22.9391 3.86544 22.9432 3.85837C22.9473 3.85129 22.9514 3.84422 22.9555 3.83715C22.9595 3.83008 22.9636 3.82302 22.9677 3.81595C22.9718 3.80889 22.9759 3.80183 22.9799 3.79477C22.984 3.78772 22.9881 3.78066 22.9921 3.77361C22.9962 3.76656 23.0003 3.75952 23.0043 3.75248C23.0084 3.74543 23.0125 3.73839 23.0165 3.73136C23.0206 3.72432 23.0247 3.71729 23.0287 3.71026C23.0328 3.70323 23.0368 3.6962 23.0409 3.68918C23.0449 3.68215 23.049 3.67514 23.0531 3.66812C23.0571 3.6611 23.0611 3.65409 23.0652 3.64708C23.0692 3.64007 23.0733 3.63307 23.0773 3.62607C23.0814 3.61907 23.0854 3.61207 23.0894 3.60508C23.0935 3.59808 23.0975 3.59109 23.1016 3.5841C23.1056 3.57712 23.1096 3.57014 23.1137 3.56316C23.1177 3.55618 23.1217 3.5492 23.1257 3.54223C23.1298 3.53526 23.1338 3.52829 23.1378 3.52133C23.1418 3.51437 23.1458 3.50741 23.1499 3.50045C23.1539 3.49349 23.1579 3.48654 23.1619 3.4796C23.1659 3.47265 23.1699 3.4657 23.1739 3.45876C23.1779 3.45182 23.1819 3.44489 23.1859 3.43796C23.1899 3.43103 23.1939 3.4241 23.1979 3.41718C23.2019 3.41025 23.2059 3.40333 23.2099 3.39642C23.2139 3.3895 23.2179 3.38259 23.2219 3.37569C23.2259 3.36878 23.2299 3.36188 23.2338 3.35498C23.2378 3.34808 23.2418 3.34119 23.2458 3.3343C23.2498 3.32741 23.2537 3.32053 23.2577 3.31365C23.2617 3.30677 23.2656 3.29989 23.2696 3.29302C23.2736 3.28615 23.2775 3.27928 23.2815 3.27242C23.2855 3.26556 23.2894 3.2587 23.2934 3.25184C23.2973 3.24499 23.3013 3.23814 23.3052 3.2313C23.3092 3.22445 23.3131 3.21762 23.3171 3.21078C23.321 3.20395 23.325 3.19712 23.3289 3.19029C23.3329 3.18346 23.3368 3.17664 23.3407 3.16983C23.3447 3.16301 23.3486 3.1562 23.3525 3.14939C23.3565 3.14259 23.3604 3.13579 23.3643 3.12899C23.3682 3.12219 23.3722 3.1154 23.3761 3.10861C23.38 3.10183 23.3839 3.09505 23.3878 3.08827C23.3917 3.08149 23.3956 3.07472 23.3996 3.06795C23.4035 3.06119 23.4074 3.05442 23.4113 3.04767C23.4152 3.04091 23.4191 3.03416 23.423 3.02741C23.4269 3.02067 23.4307 3.01393 23.4346 3.00719C23.4385 3.00045 23.4424 2.99372 23.4463 2.987C23.4502 2.98027 23.4541 2.97355 23.4579 2.96683C23.4618 2.96012 23.4657 2.95341 23.4696 2.9467C23.4734 2.94 23.4773 2.9333 23.4812 2.92661C23.485 2.91991 23.4889 2.91322 23.4927 2.90654C23.4966 2.89986 23.5005 2.89318 23.5043 2.88651C23.5082 2.87984 23.512 2.87317 23.5159 2.86651C23.5197 2.85985 23.5235 2.85319 23.5274 2.84654C23.5312 2.83989 23.5351 2.83325 23.5389 2.82661C23.5427 2.81997 23.5466 2.81334 23.5504 2.80671C23.5542 2.80008 23.558 2.79346 23.5619 2.78684C23.5657 2.78023 23.5695 2.77362 23.5733 2.76701C23.5771 2.76041 23.5809 2.75381 23.5847 2.74722C23.5885 2.74062 23.5923 2.73404 23.5961 2.72746C23.5999 2.72088 23.6037 2.7143 23.6075 2.70773C23.6113 2.70116 23.6151 2.6946 23.6189 2.68804C23.6227 2.68148 23.6265 2.67493 23.6302 2.66839C23.634 2.66184 23.6378 2.6553 23.6416 2.64877C23.6453 2.64224 23.6491 2.63571 23.6529 2.62919C23.6566 2.62267 23.6604 2.61616 23.6642 2.60965C23.6679 2.60314 23.6717 2.59664 23.6754 2.59014C23.6792 2.58364 23.6829 2.57716 23.6867 2.57067C23.6904 2.56419 23.6941 2.55771 23.6979 2.55124C23.7016 2.54477 23.7053 2.53831 23.7091 2.53185C23.7128 2.52539 23.7165 2.51894 23.7203 2.51249C23.724 2.50605 23.7277 2.49961 23.7314 2.49318C23.7351 2.48675 23.7388 2.48032 23.7425 2.4739C23.7462 2.46748 23.7499 2.46107 23.7536 2.45466C23.7573 2.44826 23.761 2.44186 23.7647 2.43547C23.7684 2.42908 23.7721 2.42269 23.7758 2.41631C23.7795 2.40993 23.7831 2.40356 23.7868 2.39719C23.7905 2.39083 23.7942 2.38447 23.7978 2.37812C23.8015 2.37177 23.8052 2.36542 23.8088 2.35908C23.8125 2.35274 23.8161 2.34641 23.8198 2.34009L21.2217 0.840088Z" fill="black"/>
<path d="M10.1954 8.84648L16.4536 12.4597L22.7118 16.0728M8.73643 11.3735L1.19721 21.29L4.95213 23.4579L7.86138 20.535L6.91656 24.6425L16.9297 30.4236L21.2528 18.5998L8.73643 11.3735Z" stroke="black" stroke-width="1.5" stroke-linecap="round" stroke-linejoin="round"/>
</svg>
