<svg width="24" height="32" viewBox="0 0 24 32" fill="none" xmlns="http://www.w3.org/2000/svg">
<path d="M23.6447 2.75C24.059 2.03256 23.8131 1.11518 23.0957 0.700962C22.3783 0.286748 21.4609 0.532561 21.0467 1.25L23.6447 2.75ZM16.2594 9.54173L15.5094 10.8408L18.1075 12.3408L18.8575 11.0417L16.2594 9.54173ZM21.0467 1.25C21.043 1.25632 21.0394 1.26266 21.0357 1.26899C21.032 1.27533 21.0284 1.28168 21.0247 1.28803C21.021 1.29438 21.0174 1.30074 21.0137 1.30711C21.01 1.31347 21.0063 1.31984 21.0027 1.32622C20.999 1.3326 20.9953 1.33899 20.9916 1.34538C20.9879 1.35177 20.9842 1.35817 20.9805 1.36458C20.9768 1.37098 20.9731 1.3774 20.9694 1.38381C20.9657 1.39023 20.962 1.39666 20.9583 1.40309C20.9546 1.40952 20.9508 1.41596 20.9471 1.42241C20.9434 1.42885 20.9397 1.4353 20.936 1.44176C20.9322 1.44822 20.9285 1.45468 20.9248 1.46115C20.921 1.46762 20.9173 1.4741 20.9135 1.48058C20.9098 1.48707 20.906 1.49356 20.9023 1.50005C20.8985 1.50655 20.8948 1.51305 20.891 1.51956C20.8873 1.52607 20.8835 1.53258 20.8798 1.5391C20.876 1.54562 20.8722 1.55215 20.8684 1.55868C20.8647 1.56522 20.8609 1.57176 20.8571 1.5783C20.8533 1.58485 20.8496 1.5914 20.8458 1.59795C20.842 1.60451 20.8382 1.61107 20.8344 1.61764C20.8306 1.62421 20.8268 1.63079 20.823 1.63737C20.8192 1.64395 20.8154 1.65054 20.8116 1.65713C20.8078 1.66372 20.804 1.67032 20.8002 1.67693C20.7964 1.68353 20.7926 1.69014 20.7887 1.69676C20.7849 1.70337 20.7811 1.70999 20.7773 1.71662C20.7734 1.72325 20.7696 1.72988 20.7658 1.73652C20.7619 1.74316 20.7581 1.7498 20.7543 1.75645C20.7504 1.7631 20.7466 1.76976 20.7427 1.77642C20.7389 1.78308 20.735 1.78975 20.7312 1.79642C20.7273 1.80309 20.7235 1.80977 20.7196 1.81645C20.7158 1.82314 20.7119 1.82982 20.708 1.83652C20.7042 1.84321 20.7003 1.84991 20.6964 1.85662C20.6926 1.86332 20.6887 1.87003 20.6848 1.87675C20.6809 1.88346 20.6771 1.89018 20.6732 1.89691C20.6693 1.90363 20.6654 1.91036 20.6615 1.9171C20.6576 1.92384 20.6537 1.93058 20.6498 1.93733C20.6459 1.94407 20.642 1.95082 20.6381 1.95758C20.6342 1.96434 20.6303 1.9711 20.6264 1.97787C20.6225 1.98463 20.6186 1.9914 20.6147 1.99818C20.6108 2.00496 20.6069 2.01174 20.603 2.01853C20.599 2.02531 20.5951 2.03211 20.5912 2.0389C20.5873 2.0457 20.5833 2.0525 20.5794 2.05931C20.5755 2.06611 20.5715 2.07292 20.5676 2.07974C20.5637 2.08656 20.5597 2.09338 20.5558 2.1002C20.5519 2.10703 20.5479 2.11386 20.544 2.12069C20.54 2.12753 20.5361 2.13437 20.5321 2.14121C20.5282 2.14806 20.5242 2.1549 20.5203 2.16176C20.5163 2.16861 20.5123 2.17547 20.5084 2.18233C20.5044 2.18919 20.5005 2.19606 20.4965 2.20293C20.4925 2.2098 20.4886 2.21668 20.4846 2.22356C20.4806 2.23044 20.4766 2.23732 20.4727 2.24421C20.4687 2.2511 20.4647 2.258 20.4607 2.26489C20.4567 2.27179 20.4527 2.27869 20.4488 2.2856C20.4448 2.29251 20.4408 2.29942 20.4368 2.30633C20.4328 2.31325 20.4288 2.32016 20.4248 2.32709C20.4208 2.33401 20.4168 2.34094 20.4128 2.34787C20.4088 2.3548 20.4048 2.36174 20.4008 2.36868C20.3968 2.37562 20.3928 2.38256 20.3888 2.38951C20.3848 2.39646 20.3807 2.40341 20.3767 2.41036C20.3727 2.41732 20.3687 2.42428 20.3647 2.43124C20.3607 2.4382 20.3566 2.44517 20.3526 2.45214C20.3486 2.45911 20.3446 2.46609 20.3405 2.47307C20.3365 2.48005 20.3325 2.48703 20.3284 2.49402C20.3244 2.501 20.3204 2.50799 20.3163 2.51499C20.3123 2.52198 20.3082 2.52898 20.3042 2.53598C20.3002 2.54298 20.2961 2.54999 20.2921 2.557C20.288 2.564 20.284 2.57102 20.2799 2.57803C20.2759 2.58505 20.2718 2.59207 20.2678 2.59909C20.2637 2.60611 20.2597 2.61314 20.2556 2.62017C20.2515 2.6272 20.2475 2.63423 20.2434 2.64127C20.2394 2.6483 20.2353 2.65534 20.2312 2.66239C20.2272 2.66943 20.2231 2.67648 20.219 2.68353C20.2149 2.69058 20.2109 2.69763 20.2068 2.70469C20.2027 2.71174 20.1987 2.7188 20.1946 2.72587C20.1905 2.73293 20.1864 2.73999 20.1823 2.74706C20.1783 2.75413 20.1742 2.76121 20.1701 2.76828C20.166 2.77536 20.1619 2.78243 20.1578 2.78952C20.1537 2.7966 20.1496 2.80368 20.1456 2.81077C20.1415 2.81786 20.1374 2.82495 20.1333 2.83204C20.1292 2.83913 20.1251 2.84623 20.121 2.85333C20.1169 2.86043 20.1128 2.86753 20.1087 2.87464C20.1046 2.88174 20.1005 2.88885 20.0964 2.89596C20.0923 2.90307 20.0882 2.91018 20.084 2.9173C20.0799 2.92442 20.0758 2.93154 20.0717 2.93866C20.0676 2.94578 20.0635 2.9529 20.0594 2.96003C20.0553 2.96716 20.0511 2.97429 20.047 2.98142C20.0429 2.98855 20.0388 2.99568 20.0347 3.00282C20.0306 3.00996 20.0264 3.0171 20.0223 3.02424C20.0182 3.03138 20.0141 3.03853 20.0099 3.04567C20.0058 3.05282 20.0017 3.05997 19.9975 3.06712C19.9934 3.07427 19.9893 3.08143 19.9852 3.08858C19.981 3.09574 19.9769 3.1029 19.9728 3.11006C19.9686 3.11722 19.9645 3.12439 19.9604 3.13155C19.9562 3.13872 19.9521 3.14588 19.9479 3.15305C19.9438 3.16022 19.9397 3.1674 19.9355 3.17457C19.9314 3.18175 19.9272 3.18892 19.9231 3.1961C19.9189 3.20328 19.9148 3.21046 19.9106 3.21764C19.9065 3.22482 19.9024 3.23201 19.8982 3.23919C19.8941 3.24638 19.8899 3.25357 19.8858 3.26076C19.8816 3.26795 19.8774 3.27514 19.8733 3.28234C19.8691 3.28953 19.865 3.29673 19.8608 3.30392C19.8567 3.31112 19.8525 3.31832 19.8484 3.32552C19.8442 3.33272 19.84 3.33993 19.8359 3.34713C19.8317 3.35434 19.8276 3.36154 19.8234 3.36875C19.8192 3.37596 19.8151 3.38317 19.8109 3.39038C19.8068 3.39759 19.8026 3.40481 19.7984 3.41202C19.7943 3.41924 19.7901 3.42645 19.7859 3.43367C19.7818 3.44089 19.7776 3.44811 19.7734 3.45533C19.7693 3.46255 19.7651 3.46977 19.7609 3.47699C19.7567 3.48422 19.7526 3.49144 19.7484 3.49867C19.7442 3.50589 19.7401 3.51312 19.7359 3.52035C19.7317 3.52758 19.7275 3.53481 19.7234 3.54204C19.7192 3.54927 19.715 3.5565 19.7108 3.56374C19.7067 3.57097 19.7025 3.57821 19.6983 3.58544C19.6941 3.59268 19.6899 3.59992 19.6858 3.60715C19.6816 3.61439 19.6774 3.62163 19.6732 3.62887C19.669 3.63611 19.6649 3.64335 19.6607 3.6506C19.6565 3.65784 19.6523 3.66508 19.6481 3.67233C19.644 3.67957 19.6398 3.68682 19.6356 3.69406C19.6314 3.70131 19.6272 3.70856 19.623 3.7158C19.6188 3.72305 19.6147 3.7303 19.6105 3.73755C19.6063 3.7448 19.6021 3.75205 19.5979 3.7593C19.5937 3.76655 19.5895 3.77381 19.5854 3.78106C19.5812 3.78831 19.577 3.79556 19.5728 3.80282C19.5686 3.81007 19.5644 3.81733 19.5602 3.82458C19.556 3.83184 19.5519 3.83909 19.5477 3.84635C19.5435 3.8536 19.5393 3.86086 19.5351 3.86812C19.5309 3.87537 19.5267 3.88263 19.5225 3.88989C19.5183 3.89715 19.5141 3.90441 19.51 3.91167C19.5058 3.91892 19.5016 3.92618 19.4974 3.93344C19.4932 3.9407 19.489 3.94796 19.4848 3.95522C19.4806 3.96248 19.4764 3.96974 19.4722 3.977C19.468 3.98427 19.4638 3.99153 19.4597 3.99879C19.4555 4.00605 19.4513 4.01331 19.4471 4.02057C19.4429 4.02783 19.4387 4.03509 19.4345 4.04236C19.4303 4.04962 19.4261 4.05688 19.4219 4.06414C19.4177 4.0714 19.4135 4.07866 19.4093 4.08593C19.4052 4.09319 19.401 4.10045 19.3968 4.10771C19.3926 4.11497 19.3884 4.12223 19.3842 4.12949C19.38 4.13675 19.3758 4.14402 19.3716 4.15128C19.3674 4.15854 19.3632 4.1658 19.359 4.17306C19.3548 4.18032 19.3507 4.18758 19.3465 4.19484C19.3423 4.2021 19.3381 4.20936 19.3339 4.21662C19.3297 4.22388 19.3255 4.23114 19.3213 4.2384C19.3171 4.24565 19.3129 4.25291 19.3087 4.26017C19.3046 4.26743 19.3004 4.27469 19.2962 4.28194C19.292 4.2892 19.2878 4.29646 19.2836 4.30371C19.2794 4.31097 19.2752 4.31822 19.271 4.32548C19.2668 4.33273 19.2627 4.33999 19.2585 4.34724C19.2543 4.35449 19.2501 4.36175 19.2459 4.369C19.2417 4.37625 19.2375 4.3835 19.2334 4.39075C19.2292 4.398 19.225 4.40525 19.2208 4.4125C19.2166 4.41975 19.2124 4.427 19.2082 4.43425C19.2041 4.44149 19.1999 4.44874 19.1957 4.45599C19.1915 4.46323 19.1873 4.47048 19.1831 4.47772C19.179 4.48496 19.1748 4.49221 19.1706 4.49945C19.1664 4.50669 19.1622 4.51393 19.1581 4.52117C19.1539 4.52841 19.1497 4.53565 19.1455 4.54289C19.1413 4.55012 19.1372 4.55736 19.133 4.5646C19.1288 4.57183 19.1246 4.57906 19.1205 4.5863C19.1163 4.59353 19.1121 4.60076 19.1079 4.60799C19.1038 4.61522 19.0996 4.62245 19.0954 4.62968C19.0912 4.63691 19.0871 4.64413 19.0829 4.65136C19.0787 4.65859 19.0745 4.66581 19.0704 4.67303C19.0662 4.68025 19.062 4.68747 19.0579 4.69469C19.0537 4.70191 19.0495 4.70913 19.0454 4.71635C19.0412 4.72356 19.037 4.73078 19.0329 4.73799C19.0287 4.74521 19.0245 4.75242 19.0204 4.75963C19.0162 4.76684 19.0121 4.77405 19.0079 4.78125C19.0037 4.78846 18.9996 4.79567 18.9954 4.80287C18.9913 4.81007 18.9871 4.81728 18.9829 4.82448C18.9788 4.83168 18.9746 4.83887 18.9705 4.84607C18.9663 4.85327 18.9622 4.86046 18.958 4.86765C18.9539 4.87485 18.9497 4.88204 18.9456 4.88923C18.9414 4.89642 18.9373 4.9036 18.9331 4.91079C18.929 4.91797 18.9248 4.92516 18.9207 4.93234C18.9165 4.93952 18.9124 4.9467 18.9082 4.95387C18.9041 4.96105 18.8999 4.96823 18.8958 4.9754C18.8917 4.98257 18.8875 4.98974 18.8834 4.99691C18.8792 5.00408 18.8751 5.01125 18.871 5.01841C18.8668 5.02557 18.8627 5.03274 18.8586 5.03989C18.8544 5.04705 18.8503 5.05421 18.8462 5.06137C18.842 5.06852 18.8379 5.07567 18.8338 5.08282C18.8297 5.08997 18.8255 5.09712 18.8214 5.10427C18.8173 5.11141 18.8132 5.11855 18.809 5.1257C18.8049 5.13284 18.8008 5.13997 18.7967 5.14711C18.7925 5.15424 18.7884 5.16138 18.7843 5.16851C18.7802 5.17564 18.7761 5.18276 18.772 5.18989C18.7679 5.19701 18.7637 5.20414 18.7596 5.21126C18.7555 5.21838 18.7514 5.22549 18.7473 5.23261C18.7432 5.23972 18.7391 5.24683 18.735 5.25394C18.7309 5.26105 18.7268 5.26816 18.7227 5.27526C18.7186 5.28236 18.7145 5.28946 18.7104 5.29656C18.7063 5.30366 18.7022 5.31075 18.6981 5.31784C18.694 5.32493 18.6899 5.33202 18.6858 5.33911C18.6817 5.34619 18.6776 5.35327 18.6736 5.36035C18.6695 5.36743 18.6654 5.37451 18.6613 5.38158C18.6572 5.38866 18.6531 5.39573 18.649 5.40279C18.645 5.40986 18.6409 5.41692 18.6368 5.42398C18.6327 5.43104 18.6287 5.4381 18.6246 5.44516C18.6205 5.45221 18.6164 5.45926 18.6124 5.46631C18.6083 5.47336 18.6042 5.4804 18.6002 5.48744C18.5961 5.49448 18.592 5.50152 18.588 5.50855C18.5839 5.51559 18.5799 5.52262 18.5758 5.52965C18.5718 5.53667 18.5677 5.5437 18.5636 5.55072C18.5596 5.55774 18.5555 5.56475 18.5515 5.57177C18.5474 5.57878 18.5434 5.58579 18.5394 5.5928C18.5353 5.5998 18.5313 5.6068 18.5272 5.6138C18.5232 5.6208 18.5191 5.6278 18.5151 5.63479C18.5111 5.64178 18.507 5.64877 18.503 5.65575C18.499 5.66273 18.4949 5.66971 18.4909 5.67669C18.4869 5.68367 18.4829 5.69064 18.4788 5.69761C18.4748 5.70458 18.4708 5.71154 18.4668 5.7185C18.4628 5.72546 18.4587 5.73242 18.4547 5.73937C18.4507 5.74632 18.4467 5.75327 18.4427 5.76022C18.4387 5.76716 18.4347 5.7741 18.4307 5.78104C18.4267 5.78798 18.4227 5.79491 18.4187 5.80184C18.4147 5.80877 18.4107 5.81569 18.4067 5.82261C18.4027 5.82953 18.3987 5.83645 18.3947 5.84336C18.3907 5.85027 18.3867 5.85718 18.3827 5.86408C18.3787 5.87098 18.3748 5.87788 18.3708 5.88478C18.3668 5.89167 18.3628 5.89856 18.3588 5.90545C18.3549 5.91233 18.3509 5.91922 18.3469 5.92609C18.343 5.93297 18.339 5.93984 18.335 5.94671C18.3311 5.95358 18.3271 5.96044 18.3231 5.9673C18.3192 5.97416 18.3152 5.98102 18.3113 5.98787C18.3073 5.99472 18.3033 6.00156 18.2994 6.0084C18.2955 6.01524 18.2915 6.02208 18.2876 6.02891C18.2836 6.03574 18.2797 6.04257 18.2757 6.04939C18.2718 6.05621 18.2679 6.06303 18.2639 6.06984C18.26 6.07666 18.2561 6.08346 18.2521 6.09027C18.2482 6.09707 18.2443 6.10387 18.2404 6.11066C18.2364 6.11745 18.2325 6.12424 18.2286 6.13102C18.2247 6.13781 18.2208 6.14459 18.2169 6.15136C18.213 6.15813 18.209 6.1649 18.2051 6.17166C18.2012 6.17843 18.1973 6.18519 18.1934 6.19194C18.1895 6.19869 18.1856 6.20544 18.1817 6.21218C18.1779 6.21893 18.174 6.22566 18.1701 6.2324C18.1662 6.23913 18.1623 6.24586 18.1584 6.25258C18.1545 6.2593 18.1507 6.26602 18.1468 6.27273C18.1429 6.27944 18.139 6.28615 18.1352 6.29285C18.1313 6.29955 18.1274 6.30624 18.1236 6.31293C18.1197 6.31962 18.1159 6.32631 18.112 6.33299C18.1081 6.33967 18.1043 6.34634 18.1004 6.35301C18.0966 6.35968 18.0927 6.36634 18.0889 6.373C18.0851 6.37965 18.0812 6.3863 18.0774 6.39295C18.0735 6.3996 18.0697 6.40624 18.0659 6.41287C18.062 6.41951 18.0582 6.42614 18.0544 6.43276C18.0506 6.43938 18.0468 6.446 18.0429 6.45261C18.0391 6.45922 18.0353 6.46583 18.0315 6.47243C18.0277 6.47903 18.0239 6.48562 18.0201 6.49221C18.0163 6.4988 18.0125 6.50538 18.0087 6.51196C18.0049 6.51854 18.0011 6.52511 17.9973 6.53167C17.9935 6.53824 17.9897 6.5448 17.9859 6.55135C17.9821 6.5579 17.9784 6.56445 17.9746 6.57099C17.9708 6.57753 17.967 6.58407 17.9633 6.59059C17.9595 6.59712 17.9557 6.60365 17.952 6.61016C17.9482 6.61668 17.9445 6.62319 17.9407 6.62969C17.9369 6.6362 17.9332 6.64269 17.9294 6.64918C17.9257 6.65568 17.922 6.66216 17.9182 6.66864C17.9145 6.67512 17.9107 6.68159 17.907 6.68806C17.9033 6.69452 17.8995 6.70098 17.8958 6.70744C17.8921 6.71389 17.8884 6.72034 17.8846 6.72678C17.8809 6.73322 17.8772 6.73965 17.8735 6.74608C17.8698 6.75251 17.8661 6.75893 17.8624 6.76534C17.8587 6.77175 17.855 6.77816 17.8513 6.78456C17.8476 6.79096 17.8439 6.79736 17.8402 6.80375C17.8365 6.81013 17.8328 6.81651 17.8292 6.82289C17.8255 6.82926 17.8218 6.83563 17.8181 6.84199C17.8145 6.84835 17.8108 6.85471 17.8071 6.86105C17.8035 6.8674 17.7998 6.87374 17.7961 6.88007C17.7925 6.88641 17.7888 6.89273 17.7852 6.89905C17.7815 6.90537 17.7779 6.91168 17.7742 6.91799C17.7706 6.9243 17.767 6.93059 17.7633 6.93689C17.7597 6.94318 17.7561 6.94946 17.7525 6.95574C17.7488 6.96202 17.7452 6.96829 17.7416 6.97455C17.738 6.98081 17.7344 6.98707 17.7308 6.99332C17.7272 6.99957 17.7235 7.00581 17.7199 7.01204C17.7163 7.01828 17.7128 7.0245 17.7092 7.03072C17.7056 7.03694 17.702 7.04316 17.6984 7.04936C17.6948 7.05557 17.6912 7.06176 17.6877 7.06795C17.6841 7.07414 17.6805 7.08033 17.677 7.0865C17.6734 7.09268 17.6698 7.09885 17.6663 7.10501C17.6627 7.11117 17.6592 7.11732 17.6556 7.12347C17.6521 7.12961 17.6485 7.13575 17.645 7.14188C17.6414 7.14801 17.6379 7.15413 17.6344 7.16025C17.6309 7.16636 17.6273 7.17247 17.6238 7.17857C17.6203 7.18467 17.6168 7.19076 17.6133 7.19685C17.6097 7.20293 17.6062 7.20901 17.6027 7.21507C17.5992 7.22114 17.5957 7.2272 17.5922 7.23326C17.5887 7.23931 17.5852 7.24535 17.5818 7.25139C17.5783 7.25743 17.5748 7.26346 17.5713 7.26948C17.5678 7.2755 17.5644 7.28151 17.5609 7.28752C17.5574 7.29352 17.554 7.29952 17.5505 7.30551C17.5471 7.3115 17.5436 7.31748 17.5402 7.32345C17.5367 7.32943 17.5333 7.33539 17.5298 7.34135C17.5264 7.34731 17.5229 7.35325 17.5195 7.35919C17.5161 7.36513 17.5127 7.37107 17.5092 7.37699C17.5058 7.38291 17.5024 7.38883 17.499 7.39474C17.4956 7.40064 17.4922 7.40654 17.4888 7.41243C17.4854 7.41832 17.482 7.42421 17.4786 7.43008C17.4752 7.43595 17.4718 7.44182 17.4684 7.44768C17.4651 7.45353 17.4617 7.45938 17.4583 7.46522C17.4549 7.47106 17.4516 7.47689 17.4482 7.48271C17.4448 7.48854 17.4415 7.49435 17.4381 7.50016C17.4348 7.50596 17.4314 7.51176 17.4281 7.51755C17.4248 7.52333 17.4214 7.52911 17.4181 7.53489C17.4148 7.54066 17.4114 7.54642 17.4081 7.55217C17.4048 7.55792 17.4015 7.56367 17.3982 7.5694C17.3948 7.57514 17.3915 7.58087 17.3882 7.58658C17.3849 7.5923 17.3816 7.59801 17.3783 7.60371C17.3751 7.60941 17.3718 7.6151 17.3685 7.62078C17.3652 7.62647 17.3619 7.63214 17.3587 7.6378C17.3554 7.64347 17.3521 7.64912 17.3489 7.65477C17.3456 7.66041 17.3424 7.66605 17.3391 7.67168C17.3359 7.67731 17.3326 7.68292 17.3294 7.68853C17.3261 7.69414 17.3229 7.69974 17.3197 7.70533C17.3164 7.71093 17.3132 7.71651 17.31 7.72208C17.3068 7.72765 17.3036 7.73321 17.3004 7.73877C17.2972 7.74432 17.294 7.74987 17.2908 7.7554C17.2876 7.76094 17.2844 7.76646 17.2812 7.77198C17.278 7.77749 17.2748 7.783 17.2717 7.7885C17.2685 7.79399 17.2653 7.79948 17.2622 7.80496C17.259 7.81044 17.2558 7.81591 17.2527 7.82137C17.2495 7.82683 17.2464 7.83227 17.2432 7.83771C17.2401 7.84315 17.237 7.84858 17.2338 7.854C17.2307 7.85942 17.2276 7.86483 17.2245 7.87024C17.2214 7.87564 17.2182 7.88103 17.2151 7.88641C17.212 7.89179 17.2089 7.89716 17.2058 7.90252C17.2027 7.90788 17.1996 7.91324 17.1966 7.91858C17.1935 7.92392 17.1904 7.92925 17.1873 7.93457C17.1843 7.9399 17.1812 7.94521 17.1781 7.95051C17.1751 7.95581 17.172 7.9611 17.169 7.96639C17.1659 7.97167 17.1629 7.97694 17.1598 7.9822C17.1568 7.98746 17.1538 7.99271 17.1507 7.99796C17.1477 8.0032 17.1447 8.00843 17.1417 8.01365C17.1387 8.01887 17.1356 8.02408 17.1326 8.02928C17.1296 8.03448 17.1266 8.03967 17.1237 8.04485C17.1207 8.05003 17.1177 8.0552 17.1147 8.06036C17.1117 8.06552 17.1087 8.07067 17.1058 8.07581C17.1028 8.08095 17.0999 8.08607 17.0969 8.09119C17.0939 8.09631 17.091 8.10142 17.0881 8.10651C17.0851 8.11161 17.0822 8.1167 17.0792 8.12177C17.0763 8.12685 17.0734 8.13191 17.0705 8.13697C17.0676 8.14202 17.0646 8.14706 17.0617 8.1521C17.0588 8.15713 17.0559 8.16215 17.053 8.16716C17.0501 8.17217 17.0473 8.17718 17.0444 8.18217C17.0415 8.18716 17.0386 8.19214 17.0358 8.1971C17.0329 8.20207 17.03 8.20703 17.0272 8.21198C17.0243 8.21692 17.0215 8.22186 17.0186 8.22678C17.0158 8.23171 17.0129 8.23662 17.0101 8.24153C17.0073 8.24643 17.0045 8.25132 17.0016 8.2562C16.9988 8.26108 16.996 8.26595 16.9932 8.27081C16.9904 8.27567 16.9876 8.28052 16.9848 8.28535C16.982 8.29019 16.9792 8.29502 16.9764 8.29983C16.9737 8.30464 16.9709 8.30945 16.9681 8.31424C16.9654 8.31903 16.9626 8.32381 16.9598 8.32858C16.9571 8.33335 16.9543 8.33811 16.9516 8.34285C16.9489 8.3476 16.9461 8.35234 16.9434 8.35706C16.9407 8.36178 16.938 8.3665 16.9352 8.3712C16.9325 8.3759 16.9298 8.38059 16.9271 8.38527C16.9244 8.38994 16.9217 8.39461 16.919 8.39927C16.9163 8.40392 16.9137 8.40856 16.911 8.4132C16.9083 8.41783 16.9057 8.42245 16.903 8.42706C16.9003 8.43167 16.8977 8.43626 16.895 8.44085C16.8924 8.44543 16.8897 8.45001 16.8871 8.45457C16.8845 8.45913 16.8818 8.46368 16.8792 8.46822C16.8766 8.47276 16.874 8.47728 16.8714 8.4818C16.8688 8.48631 16.8662 8.49081 16.8636 8.49531C16.861 8.4998 16.8584 8.50428 16.8558 8.50874C16.8532 8.51321 16.8507 8.51766 16.8481 8.52211C16.8455 8.52655 16.843 8.53098 16.8404 8.5354C16.8379 8.53982 16.8353 8.54423 16.8328 8.54862C16.8303 8.55302 16.8277 8.5574 16.8252 8.56177C16.8227 8.56614 16.8202 8.5705 16.8177 8.57484C16.8152 8.57919 16.8127 8.58352 16.8102 8.58784C16.8077 8.59217 16.8052 8.59648 16.8027 8.60077C16.8002 8.60507 16.7977 8.60935 16.7953 8.61363C16.7928 8.6179 16.7903 8.62216 16.7879 8.62641C16.7854 8.63065 16.783 8.63489 16.7806 8.63911C16.7781 8.64333 16.7757 8.64754 16.7733 8.65174C16.7708 8.65594 16.7684 8.66013 16.766 8.6643C16.7636 8.66847 16.7612 8.67263 16.7588 8.67678C16.7564 8.68092 16.754 8.68506 16.7517 8.68918C16.7493 8.6933 16.7469 8.69741 16.7445 8.70151C16.7422 8.70561 16.7398 8.70969 16.7375 8.71376C16.7351 8.71783 16.7328 8.72189 16.7304 8.72594C16.7281 8.72998 16.7258 8.73401 16.7234 8.73803C16.7211 8.74205 16.7188 8.74606 16.7165 8.75006C16.7142 8.75405 16.7119 8.75803 16.7096 8.762C16.7073 8.76597 16.705 8.76992 16.7028 8.77386C16.7005 8.77781 16.6982 8.78173 16.696 8.78565C16.6937 8.78957 16.6914 8.79347 16.6892 8.79736C16.6869 8.80125 16.6847 8.80513 16.6825 8.80899C16.6803 8.81285 16.678 8.8167 16.6758 8.82054C16.6736 8.82438 16.6714 8.8282 16.6692 8.83201C16.667 8.83582 16.6648 8.83962 16.6626 8.8434C16.6604 8.84719 16.6583 8.85096 16.6561 8.85471C16.6539 8.85847 16.6518 8.86221 16.6496 8.86595C16.6474 8.86968 16.6453 8.87339 16.6432 8.8771C16.641 8.8808 16.6389 8.88449 16.6368 8.88817C16.6346 8.89184 16.6325 8.8955 16.6304 8.89915C16.6283 8.9028 16.6262 8.90644 16.6241 8.91006C16.622 8.91368 16.62 8.91729 16.6179 8.92088C16.6158 8.92448 16.6137 8.92806 16.6117 8.93163C16.6096 8.93519 16.6076 8.93875 16.6055 8.94229C16.6035 8.94583 16.6014 8.94935 16.5994 8.95286C16.5974 8.95638 16.5954 8.95987 16.5934 8.96336C16.5913 8.96684 16.5893 8.97031 16.5873 8.97377C16.5853 8.97723 16.5834 8.98067 16.5814 8.9841C16.5794 8.98752 16.5774 8.99094 16.5755 8.99434C16.5735 8.99774 16.5716 9.00113 16.5696 9.0045C16.5677 9.00787 16.5657 9.01123 16.5638 9.01457C16.5619 9.01791 16.5599 9.02124 16.558 9.02456C16.5561 9.02788 16.5542 9.03118 16.5523 9.03446C16.5504 9.03775 16.5485 9.04102 16.5466 9.04428C16.5448 9.04754 16.5429 9.05078 16.541 9.05401C16.5392 9.05724 16.5373 9.06046 16.5354 9.06366C16.5336 9.06686 16.5318 9.07005 16.5299 9.07322C16.5281 9.07639 16.5263 9.07955 16.5245 9.08269C16.5226 9.08584 16.5208 9.08896 16.519 9.09208C16.5172 9.09519 16.5155 9.09829 16.5137 9.10138C16.5119 9.10446 16.5101 9.10753 16.5084 9.11059C16.5066 9.11364 16.5048 9.11668 16.5031 9.11971C16.5013 9.12273 16.4996 9.12575 16.4979 9.12874C16.4961 9.13174 16.4944 9.13472 16.4927 9.13769C16.491 9.14065 16.4893 9.14361 16.4876 9.14654C16.4859 9.14948 16.4842 9.1524 16.4825 9.15531C16.4809 9.15822 16.4792 9.16111 16.4775 9.16399C16.4759 9.16687 16.4742 9.16973 16.4726 9.17258C16.4709 9.17542 16.4693 9.17826 16.4677 9.18107C16.466 9.18389 16.4644 9.18669 16.4628 9.18948C16.4612 9.19227 16.4596 9.19504 16.458 9.1978C16.4564 9.20056 16.4548 9.2033 16.4533 9.20602C16.4517 9.20875 16.4501 9.21146 16.4486 9.21416C16.447 9.21685 16.4455 9.21953 16.4439 9.2222C16.4424 9.22486 16.4408 9.22751 16.4393 9.23015C16.4378 9.23278 16.4363 9.2354 16.4348 9.23801C16.4333 9.24061 16.4318 9.2432 16.4303 9.24577C16.4288 9.24834 16.4273 9.2509 16.4259 9.25344C16.4244 9.25599 16.4229 9.25851 16.4215 9.26102C16.42 9.26353 16.4186 9.26603 16.4172 9.26851C16.4157 9.27099 16.4143 9.27345 16.4129 9.2759C16.4115 9.27835 16.4101 9.28078 16.4087 9.2832C16.4073 9.28561 16.4059 9.28801 16.4045 9.2904C16.4032 9.29279 16.4018 9.29515 16.4004 9.29751C16.3991 9.29986 16.3977 9.3022 16.3964 9.30452C16.395 9.30684 16.3937 9.30915 16.3924 9.31144C16.3911 9.31373 16.3898 9.316 16.3885 9.31826C16.3871 9.32052 16.3859 9.32276 16.3846 9.32499C16.3833 9.32721 16.382 9.32942 16.3807 9.33161C16.3795 9.33381 16.3782 9.33599 16.377 9.33815C16.3757 9.34031 16.3745 9.34245 16.3733 9.34458C16.372 9.34671 16.3708 9.34883 16.3696 9.35092C16.3684 9.35302 16.3672 9.3551 16.366 9.35716C16.3648 9.35923 16.3636 9.36128 16.3624 9.36331C16.3613 9.36534 16.3601 9.36735 16.359 9.36935C16.3578 9.37135 16.3567 9.37333 16.3555 9.3753C16.3544 9.37726 16.3533 9.37921 16.3521 9.38115C16.351 9.38308 16.3499 9.385 16.3488 9.3869C16.3477 9.38879 16.3466 9.39068 16.3456 9.39254C16.3445 9.39441 16.3434 9.39626 16.3424 9.39809C16.3413 9.39993 16.3403 9.40174 16.3392 9.40354C16.3382 9.40534 16.3371 9.40713 16.3361 9.40889C16.3351 9.41066 16.3341 9.41241 16.3331 9.41414C16.3321 9.41587 16.3311 9.41759 16.3301 9.41929C16.3291 9.42099 16.3282 9.42267 16.3272 9.42434C16.3262 9.426 16.3253 9.42765 16.3244 9.42928C16.3234 9.43091 16.3225 9.43253 16.3216 9.43412C16.3206 9.43572 16.3197 9.4373 16.3188 9.43887C16.3179 9.44043 16.317 9.44198 16.3161 9.4435C16.3153 9.44503 16.3144 9.44655 16.3135 9.44804C16.3127 9.44953 16.3118 9.45101 16.311 9.45247C16.3101 9.45393 16.3093 9.45538 16.3085 9.4568C16.3076 9.45823 16.3068 9.45964 16.306 9.46103C16.3052 9.46242 16.3044 9.46379 16.3036 9.46515C16.3029 9.46651 16.3021 9.46784 16.3013 9.46917C16.3006 9.47049 16.2998 9.47179 16.2991 9.47308C16.2983 9.47437 16.2976 9.47564 16.2969 9.47689C16.2961 9.47814 16.2954 9.47937 16.2947 9.48059C16.294 9.48181 16.2933 9.48301 16.2927 9.48419C16.292 9.48537 16.2913 9.48653 16.2906 9.48768C16.29 9.48882 16.2893 9.48995 16.2887 9.49106C16.288 9.49217 16.2874 9.49327 16.2868 9.49434C16.2862 9.49542 16.2856 9.49647 16.285 9.49751C16.2844 9.49855 16.2838 9.49957 16.2832 9.50058C16.2826 9.50158 16.282 9.50257 16.2815 9.50354C16.2809 9.5045 16.2804 9.50545 16.2798 9.50638C16.2793 9.50732 16.2788 9.50823 16.2783 9.50913C16.2777 9.51002 16.2772 9.5109 16.2767 9.51176C16.2762 9.51262 16.2758 9.51346 16.2753 9.51428C16.2748 9.51511 16.2743 9.51591 16.2739 9.5167C16.2734 9.51749 16.273 9.51826 16.2726 9.51901C16.2721 9.51976 16.2717 9.52049 16.2713 9.52121C16.2709 9.52192 16.2705 9.52261 16.2701 9.52329C16.2697 9.52397 16.2693 9.52463 16.2689 9.52527C16.2686 9.52591 16.2682 9.52653 16.2679 9.52714C16.2675 9.52774 16.2672 9.52833 16.2668 9.52889C16.2665 9.52946 16.2662 9.53001 16.2659 9.53054C16.2656 9.53107 16.2653 9.53158 16.265 9.53207C16.2647 9.53256 16.2645 9.53304 16.2642 9.53349C16.2639 9.53395 16.2637 9.53438 16.2634 9.5348C16.2632 9.53522 16.263 9.53562 16.2627 9.536C16.2625 9.53638 16.2623 9.53674 16.2621 9.53708C16.2619 9.53743 16.2617 9.53775 16.2616 9.53806C16.2614 9.53836 16.2612 9.53865 16.2611 9.53892C16.2609 9.53918 16.2608 9.53943 16.2606 9.53966C16.2605 9.53989 16.2604 9.5401 16.2603 9.54029C16.2602 9.54048 16.2601 9.54066 16.26 9.54081C16.2599 9.54096 16.2598 9.5411 16.2597 9.54121C16.2597 9.54133 16.2596 9.54142 16.2596 9.5415C16.2595 9.54158 16.2595 9.54164 16.2595 9.54167C16.2594 9.54171 16.2594 9.54173 17.5585 10.2917C18.8575 11.0417 18.8575 11.0417 18.8575 11.0417C18.8576 11.0416 18.8576 11.0416 18.8576 11.0415C18.8577 11.0414 18.8577 11.0413 18.8578 11.0412C18.8579 11.0411 18.858 11.041 18.858 11.0408C18.8581 11.0407 18.8582 11.0405 18.8583 11.0403C18.8584 11.0401 18.8586 11.0399 18.8587 11.0397C18.8588 11.0394 18.859 11.0392 18.8591 11.0389C18.8593 11.0386 18.8595 11.0384 18.8596 11.0381C18.8598 11.0378 18.86 11.0374 18.8602 11.0371C18.8604 11.0367 18.8606 11.0364 18.8608 11.036C18.861 11.0356 18.8613 11.0352 18.8615 11.0348C18.8618 11.0344 18.862 11.0339 18.8623 11.0335C18.8625 11.033 18.8628 11.0326 18.8631 11.0321C18.8634 11.0316 18.8637 11.0311 18.864 11.0305C18.8643 11.03 18.8646 11.0295 18.8649 11.0289C18.8652 11.0283 18.8656 11.0277 18.8659 11.0271C18.8663 11.0265 18.8666 11.0259 18.867 11.0253C18.8674 11.0246 18.8678 11.024 18.8682 11.0233C18.8685 11.0226 18.8689 11.0219 18.8694 11.0212C18.8698 11.0205 18.8702 11.0198 18.8706 11.019C18.8711 11.0183 18.8715 11.0175 18.872 11.0167C18.8724 11.0159 18.8729 11.0151 18.8734 11.0143C18.8738 11.0135 18.8743 11.0126 18.8748 11.0118C18.8753 11.0109 18.8758 11.01 18.8763 11.0091C18.8768 11.0082 18.8774 11.0073 18.8779 11.0064C18.8785 11.0055 18.879 11.0045 18.8796 11.0035C18.8801 11.0026 18.8807 11.0016 18.8813 11.0006C18.8818 10.9996 18.8824 10.9986 18.883 10.9975C18.8836 10.9965 18.8842 10.9954 18.8849 10.9943C18.8855 10.9933 18.8861 10.9922 18.8868 10.9911C18.8874 10.99 18.8881 10.9888 18.8887 10.9877C18.8894 10.9865 18.89 10.9854 18.8907 10.9842C18.8914 10.983 18.8921 10.9818 18.8928 10.9806C18.8935 10.9794 18.8942 10.9781 18.8949 10.9769C18.8957 10.9756 18.8964 10.9744 18.8971 10.9731C18.8979 10.9718 18.8986 10.9705 18.8994 10.9692C18.9002 10.9678 18.9009 10.9665 18.9017 10.9651C18.9025 10.9638 18.9033 10.9624 18.9041 10.961C18.9049 10.9596 18.9057 10.9582 18.9065 10.9568C18.9074 10.9554 18.9082 10.9539 18.909 10.9525C18.9099 10.951 18.9107 10.9495 18.9116 10.948C18.9125 10.9465 18.9133 10.945 18.9142 10.9435C18.9151 10.942 18.916 10.9404 18.9169 10.9389C18.9178 10.9373 18.9187 10.9357 18.9196 10.9341C18.9206 10.9325 18.9215 10.9309 18.9224 10.9293C18.9234 10.9277 18.9243 10.926 18.9253 10.9243C18.9262 10.9227 18.9272 10.921 18.9282 10.9193C18.9292 10.9176 18.9302 10.9159 18.9312 10.9141C18.9322 10.9124 18.9332 10.9107 18.9342 10.9089C18.9352 10.9071 18.9363 10.9053 18.9373 10.9035C18.9383 10.9017 18.9394 10.8999 18.9404 10.8981C18.9415 10.8963 18.9426 10.8944 18.9436 10.8925C18.9447 10.8907 18.9458 10.8888 18.9469 10.8869C18.948 10.885 18.9491 10.8831 18.9502 10.8811C18.9513 10.8792 18.9525 10.8773 18.9536 10.8753C18.9547 10.8733 18.9559 10.8714 18.957 10.8694C18.9582 10.8674 18.9593 10.8653 18.9605 10.8633C18.9617 10.8613 18.9629 10.8592 18.9641 10.8572C18.9653 10.8551 18.9665 10.853 18.9677 10.8509C18.9689 10.8488 18.9701 10.8467 18.9713 10.8446C18.9726 10.8425 18.9738 10.8403 18.975 10.8381C18.9763 10.836 18.9776 10.8338 18.9788 10.8316C18.9801 10.8294 18.9814 10.8272 18.9826 10.825C18.9839 10.8228 18.9852 10.8205 18.9865 10.8183C18.9878 10.816 18.9891 10.8137 18.9905 10.8114C18.9918 10.8091 18.9931 10.8068 18.9945 10.8045C18.9958 10.8022 18.9972 10.7999 18.9985 10.7975C18.9999 10.7952 19.0012 10.7928 19.0026 10.7904C19.004 10.788 19.0054 10.7856 19.0068 10.7832C19.0082 10.7808 19.0096 10.7783 19.011 10.7759C19.0124 10.7735 19.0138 10.771 19.0153 10.7685C19.0167 10.766 19.0181 10.7635 19.0196 10.761C19.021 10.7585 19.0225 10.756 19.024 10.7534C19.0254 10.7509 19.0269 10.7483 19.0284 10.7458C19.0299 10.7432 19.0314 10.7406 19.0329 10.738C19.0344 10.7354 19.0359 10.7328 19.0374 10.7301C19.0389 10.7275 19.0405 10.7249 19.042 10.7222C19.0435 10.7195 19.0451 10.7169 19.0466 10.7142C19.0482 10.7115 19.0498 10.7087 19.0513 10.706C19.0529 10.7033 19.0545 10.7006 19.0561 10.6978C19.0577 10.695 19.0593 10.6923 19.0609 10.6895C19.0625 10.6867 19.0641 10.6839 19.0657 10.6811C19.0674 10.6783 19.069 10.6754 19.0706 10.6726C19.0723 10.6697 19.0739 10.6669 19.0756 10.664C19.0773 10.6611 19.0789 10.6582 19.0806 10.6553C19.0823 10.6524 19.084 10.6495 19.0857 10.6465C19.0874 10.6436 19.0891 10.6407 19.0908 10.6377C19.0925 10.6347 19.0942 10.6317 19.0959 10.6287C19.0977 10.6257 19.0994 10.6227 19.1012 10.6197C19.1029 10.6167 19.1047 10.6136 19.1064 10.6106C19.1082 10.6075 19.11 10.6045 19.1117 10.6014C19.1135 10.5983 19.1153 10.5952 19.1171 10.5921C19.1189 10.589 19.1207 10.5858 19.1225 10.5827C19.1243 10.5795 19.1262 10.5764 19.128 10.5732C19.1298 10.57 19.1317 10.5669 19.1335 10.5637C19.1354 10.5605 19.1372 10.5572 19.1391 10.554C19.141 10.5508 19.1428 10.5475 19.1447 10.5443C19.1466 10.541 19.1485 10.5378 19.1504 10.5345C19.1523 10.5312 19.1542 10.5279 19.1561 10.5246C19.158 10.5212 19.1599 10.5179 19.1619 10.5146C19.1638 10.5112 19.1657 10.5079 19.1677 10.5045C19.1696 10.5011 19.1716 10.4977 19.1735 10.4943C19.1755 10.4909 19.1775 10.4875 19.1795 10.4841C19.1814 10.4807 19.1834 10.4772 19.1854 10.4738C19.1874 10.4703 19.1894 10.4668 19.1914 10.4634C19.1934 10.4599 19.1955 10.4564 19.1975 10.4529C19.1995 10.4494 19.2016 10.4458 19.2036 10.4423C19.2056 10.4387 19.2077 10.4352 19.2098 10.4316C19.2118 10.4281 19.2139 10.4245 19.216 10.4209C19.218 10.4173 19.2201 10.4137 19.2222 10.4101C19.2243 10.4064 19.2264 10.4028 19.2285 10.3992C19.2306 10.3955 19.2327 10.3918 19.2348 10.3882C19.237 10.3845 19.2391 10.3808 19.2412 10.3771C19.2434 10.3734 19.2455 10.3697 19.2477 10.3659C19.2498 10.3622 19.252 10.3585 19.2542 10.3547C19.2563 10.351 19.2585 10.3472 19.2607 10.3434C19.2629 10.3396 19.2651 10.3358 19.2673 10.332C19.2695 10.3282 19.2717 10.3244 19.2739 10.3205C19.2761 10.3167 19.2783 10.3129 19.2806 10.309C19.2828 10.3051 19.285 10.3012 19.2873 10.2974C19.2895 10.2935 19.2918 10.2896 19.294 10.2857C19.2963 10.2817 19.2986 10.2778 19.3008 10.2739C19.3031 10.2699 19.3054 10.266 19.3077 10.262C19.31 10.258 19.3123 10.254 19.3146 10.2501C19.3169 10.2461 19.3192 10.2421 19.3215 10.238C19.3238 10.234 19.3262 10.23 19.3285 10.2259C19.3308 10.2219 19.3332 10.2178 19.3355 10.2138C19.3379 10.2097 19.3402 10.2056 19.3426 10.2015C19.345 10.1974 19.3473 10.1933 19.3497 10.1892C19.3521 10.1851 19.3545 10.1809 19.3569 10.1768C19.3593 10.1726 19.3617 10.1685 19.3641 10.1643C19.3665 10.1601 19.3689 10.1559 19.3713 10.1517C19.3738 10.1475 19.3762 10.1433 19.3786 10.1391C19.3811 10.1349 19.3835 10.1307 19.386 10.1264C19.3884 10.1222 19.3909 10.1179 19.3933 10.1136C19.3958 10.1094 19.3983 10.1051 19.4008 10.1008C19.4033 10.0965 19.4057 10.0922 19.4082 10.0878C19.4107 10.0835 19.4132 10.0792 19.4157 10.0748C19.4183 10.0705 19.4208 10.0661 19.4233 10.0618C19.4258 10.0574 19.4283 10.053 19.4309 10.0486C19.4334 10.0442 19.436 10.0398 19.4385 10.0354C19.4411 10.031 19.4436 10.0266 19.4462 10.0221C19.4488 10.0177 19.4513 10.0132 19.4539 10.0087C19.4565 10.0043 19.4591 9.9998 19.4617 9.99531C19.4643 9.99081 19.4669 9.98631 19.4695 9.9818C19.4721 9.97728 19.4747 9.97276 19.4773 9.96822C19.4799 9.96368 19.4825 9.95913 19.4852 9.95457C19.4878 9.95001 19.4905 9.94543 19.4931 9.94085C19.4958 9.93626 19.4984 9.93167 19.5011 9.92706C19.5037 9.92245 19.5064 9.91783 19.5091 9.9132C19.5117 9.90856 19.5144 9.90392 19.5171 9.89927C19.5198 9.89461 19.5225 9.88994 19.5252 9.88527C19.5279 9.88059 19.5306 9.8759 19.5333 9.8712C19.536 9.8665 19.5388 9.86178 19.5415 9.85706C19.5442 9.85234 19.5469 9.8476 19.5497 9.84285C19.5524 9.83811 19.5552 9.83335 19.5579 9.82858C19.5607 9.82381 19.5634 9.81903 19.5662 9.81424C19.569 9.80945 19.5717 9.80464 19.5745 9.79983C19.5773 9.79502 19.5801 9.79019 19.5829 9.78535C19.5857 9.78052 19.5885 9.77567 19.5913 9.77081C19.5941 9.76595 19.5969 9.76108 19.5997 9.7562C19.6025 9.75132 19.6054 9.74643 19.6082 9.74153C19.611 9.73662 19.6139 9.73171 19.6167 9.72678C19.6195 9.72186 19.6224 9.71692 19.6252 9.71198C19.6281 9.70703 19.631 9.70207 19.6338 9.6971C19.6367 9.69214 19.6396 9.68716 19.6425 9.68217C19.6453 9.67718 19.6482 9.67217 19.6511 9.66716C19.654 9.66215 19.6569 9.65713 19.6598 9.6521C19.6627 9.64706 19.6656 9.64202 19.6685 9.63697C19.6715 9.63191 19.6744 9.62685 19.6773 9.62177C19.6803 9.6167 19.6832 9.61161 19.6861 9.60651C19.6891 9.60142 19.692 9.59631 19.695 9.59119C19.6979 9.58607 19.7009 9.58095 19.7039 9.57581C19.7068 9.57067 19.7098 9.56552 19.7128 9.56036C19.7158 9.5552 19.7187 9.55003 19.7217 9.54485C19.7247 9.53967 19.7277 9.53448 19.7307 9.52928C19.7337 9.52408 19.7367 9.51887 19.7397 9.51365C19.7428 9.50843 19.7458 9.5032 19.7488 9.49796C19.7518 9.49271 19.7549 9.48746 19.7579 9.4822C19.7609 9.47694 19.764 9.47167 19.767 9.46639C19.7701 9.4611 19.7731 9.45581 19.7762 9.45051C19.7793 9.44521 19.7823 9.4399 19.7854 9.43457C19.7885 9.42925 19.7916 9.42392 19.7946 9.41858C19.7977 9.41324 19.8008 9.40788 19.8039 9.40252C19.807 9.39716 19.8101 9.39179 19.8132 9.38641C19.8163 9.38103 19.8194 9.37564 19.8225 9.37024C19.8257 9.36483 19.8288 9.35942 19.8319 9.354C19.835 9.34858 19.8382 9.34315 19.8413 9.33771C19.8445 9.33227 19.8476 9.32682 19.8508 9.32137C19.8539 9.31591 19.8571 9.31044 19.8602 9.30496C19.8634 9.29948 19.8666 9.29399 19.8697 9.2885C19.8729 9.283 19.8761 9.27749 19.8793 9.27198C19.8825 9.26646 19.8857 9.26094 19.8888 9.2554C19.892 9.24987 19.8952 9.24432 19.8984 9.23877C19.9017 9.23321 19.9049 9.22765 19.9081 9.22208C19.9113 9.21651 19.9145 9.21093 19.9178 9.20533C19.921 9.19974 19.9242 9.19414 19.9275 9.18853C19.9307 9.18292 19.9339 9.17731 19.9372 9.17168C19.9404 9.16605 19.9437 9.16041 19.9469 9.15477C19.9502 9.14912 19.9535 9.14347 19.9567 9.1378C19.96 9.13214 19.9633 9.12647 19.9666 9.12078C19.9698 9.1151 19.9731 9.10941 19.9764 9.10371C19.9797 9.09801 19.983 9.0923 19.9863 9.08658C19.9896 9.08087 19.9929 9.07514 19.9962 9.0694C19.9995 9.06367 20.0029 9.05792 20.0062 9.05217C20.0095 9.04642 20.0128 9.04066 20.0162 9.03488C20.0195 9.02911 20.0228 9.02333 20.0262 9.01755C20.0295 9.01176 20.0329 9.00596 20.0362 9.00016C20.0396 8.99435 20.0429 8.98854 20.0463 8.98271C20.0496 8.97689 20.053 8.97106 20.0564 8.96522C20.0598 8.95938 20.0631 8.95353 20.0665 8.94768C20.0699 8.94182 20.0733 8.93595 20.0767 8.93008C20.0801 8.92421 20.0835 8.91832 20.0869 8.91243C20.0903 8.90654 20.0937 8.90064 20.0971 8.89474C20.1005 8.88883 20.1039 8.88291 20.1073 8.87699C20.1107 8.87107 20.1142 8.86513 20.1176 8.85919C20.121 8.85325 20.1245 8.84731 20.1279 8.84135C20.1313 8.83539 20.1348 8.82943 20.1382 8.82345C20.1417 8.81748 20.1451 8.8115 20.1486 8.80551C20.152 8.79952 20.1555 8.79352 20.159 8.78752C20.1624 8.78151 20.1659 8.7755 20.1694 8.76948C20.1729 8.76346 20.1764 8.75743 20.1798 8.75139C20.1833 8.74535 20.1868 8.73931 20.1903 8.73326C20.1938 8.7272 20.1973 8.72114 20.2008 8.71507C20.2043 8.70901 20.2078 8.70293 20.2113 8.69685C20.2148 8.69076 20.2184 8.68467 20.2219 8.67857C20.2254 8.67247 20.2289 8.66636 20.2325 8.66025C20.236 8.65413 20.2395 8.64801 20.2431 8.64188C20.2466 8.63575 20.2501 8.62961 20.2537 8.62347C20.2572 8.61732 20.2608 8.61117 20.2644 8.60501C20.2679 8.59885 20.2715 8.59268 20.275 8.5865C20.2786 8.58033 20.2822 8.57414 20.2857 8.56795C20.2893 8.56176 20.2929 8.55557 20.2965 8.54936C20.3001 8.54316 20.3036 8.53694 20.3072 8.53072C20.3108 8.5245 20.3144 8.51828 20.318 8.51204C20.3216 8.50581 20.3252 8.49957 20.3288 8.49332C20.3324 8.48707 20.3361 8.48081 20.3397 8.47455C20.3433 8.46829 20.3469 8.46202 20.3505 8.45574C20.3542 8.44946 20.3578 8.44318 20.3614 8.43689C20.365 8.43059 20.3687 8.4243 20.3723 8.41799C20.376 8.41168 20.3796 8.40537 20.3833 8.39905C20.3869 8.39273 20.3906 8.38641 20.3942 8.38007C20.3979 8.37374 20.4015 8.3674 20.4052 8.36105C20.4089 8.35471 20.4125 8.34835 20.4162 8.34199C20.4199 8.33563 20.4236 8.32926 20.4272 8.32289C20.4309 8.31651 20.4346 8.31013 20.4383 8.30375C20.442 8.29736 20.4457 8.29096 20.4494 8.28456C20.4531 8.27816 20.4568 8.27175 20.4605 8.26534C20.4642 8.25893 20.4679 8.25251 20.4716 8.24608C20.4753 8.23965 20.479 8.23322 20.4827 8.22678C20.4864 8.22034 20.4902 8.21389 20.4939 8.20744C20.4976 8.20098 20.5013 8.19452 20.5051 8.18806C20.5088 8.18159 20.5125 8.17512 20.5163 8.16864C20.52 8.16216 20.5238 8.15568 20.5275 8.14918C20.5313 8.14269 20.535 8.1362 20.5388 8.12969C20.5425 8.12319 20.5463 8.11668 20.5501 8.11016C20.5538 8.10365 20.5576 8.09712 20.5613 8.09059C20.5651 8.08407 20.5689 8.07753 20.5727 8.07099C20.5764 8.06445 20.5802 8.0579 20.584 8.05135C20.5878 8.0448 20.5916 8.03824 20.5954 8.03167C20.5992 8.02511 20.6029 8.01854 20.6067 8.01196C20.6105 8.00538 20.6143 7.9988 20.6181 7.99221C20.622 7.98562 20.6258 7.97903 20.6296 7.97243C20.6334 7.96583 20.6372 7.95922 20.641 7.95261C20.6448 7.946 20.6487 7.93938 20.6525 7.93276C20.6563 7.92614 20.6601 7.91951 20.664 7.91287C20.6678 7.90624 20.6716 7.8996 20.6755 7.89295C20.6793 7.8863 20.6831 7.87965 20.687 7.873C20.6908 7.86634 20.6947 7.85968 20.6985 7.85301C20.7024 7.84634 20.7062 7.83967 20.7101 7.83299C20.7139 7.82631 20.7178 7.81962 20.7217 7.81293C20.7255 7.80624 20.7294 7.79955 20.7333 7.79285C20.7371 7.78615 20.741 7.77944 20.7449 7.77273C20.7487 7.76602 20.7526 7.7593 20.7565 7.75258C20.7604 7.74586 20.7643 7.73913 20.7682 7.7324C20.772 7.72566 20.7759 7.71893 20.7798 7.71218C20.7837 7.70544 20.7876 7.69869 20.7915 7.69194C20.7954 7.68519 20.7993 7.67843 20.8032 7.67166C20.8071 7.6649 20.811 7.65813 20.8149 7.65136C20.8189 7.64459 20.8228 7.63781 20.8267 7.63102C20.8306 7.62424 20.8345 7.61745 20.8384 7.61066C20.8424 7.60387 20.8463 7.59707 20.8502 7.59027C20.8541 7.58346 20.8581 7.57666 20.862 7.56984C20.8659 7.56303 20.8699 7.55621 20.8738 7.54939C20.8778 7.54257 20.8817 7.53574 20.8856 7.52891C20.8896 7.52208 20.8935 7.51524 20.8975 7.5084C20.9014 7.50156 20.9054 7.49472 20.9093 7.48787C20.9133 7.48102 20.9172 7.47416 20.9212 7.4673C20.9252 7.46044 20.9291 7.45358 20.9331 7.44671C20.9371 7.43984 20.941 7.43297 20.945 7.42609C20.949 7.41922 20.9529 7.41233 20.9569 7.40545C20.9609 7.39856 20.9649 7.39167 20.9689 7.38478C20.9728 7.37788 20.9768 7.37098 20.9808 7.36408C20.9848 7.35718 20.9888 7.35027 20.9928 7.34336C20.9968 7.33645 21.0007 7.32953 21.0047 7.32261C21.0087 7.31569 21.0127 7.30877 21.0167 7.30184C21.0207 7.29491 21.0247 7.28798 21.0287 7.28104C21.0327 7.2741 21.0368 7.26716 21.0408 7.26022C21.0448 7.25327 21.0488 7.24632 21.0528 7.23937C21.0568 7.23242 21.0608 7.22546 21.0649 7.2185C21.0689 7.21154 21.0729 7.20458 21.0769 7.19761C21.0809 7.19064 21.085 7.18367 21.089 7.17669C21.093 7.16971 21.097 7.16273 21.1011 7.15575C21.1051 7.14877 21.1091 7.14178 21.1132 7.13479C21.1172 7.1278 21.1213 7.1208 21.1253 7.1138C21.1293 7.1068 21.1334 7.0998 21.1374 7.0928C21.1415 7.08579 21.1455 7.07878 21.1496 7.07177C21.1536 7.06475 21.1577 7.05774 21.1617 7.05072C21.1658 7.0437 21.1698 7.03667 21.1739 7.02965C21.1779 7.02262 21.182 7.01559 21.1861 7.00855C21.1901 7.00152 21.1942 6.99448 21.1983 6.98744C21.2023 6.9804 21.2064 6.97336 21.2105 6.96631C21.2145 6.95926 21.2186 6.95221 21.2227 6.94516C21.2267 6.9381 21.2308 6.93104 21.2349 6.92398C21.239 6.91692 21.243 6.90986 21.2471 6.90279C21.2512 6.89573 21.2553 6.88866 21.2594 6.88158C21.2635 6.87451 21.2675 6.86743 21.2716 6.86035C21.2757 6.85327 21.2798 6.84619 21.2839 6.83911C21.288 6.83202 21.2921 6.82493 21.2962 6.81784C21.3003 6.81075 21.3044 6.80366 21.3085 6.79656C21.3126 6.78946 21.3167 6.78236 21.3208 6.77526C21.3249 6.76816 21.329 6.76105 21.3331 6.75394C21.3372 6.74683 21.3413 6.73972 21.3454 6.73261C21.3495 6.72549 21.3536 6.71838 21.3577 6.71126C21.3618 6.70414 21.3659 6.69701 21.37 6.68989C21.3742 6.68276 21.3783 6.67564 21.3824 6.66851C21.3865 6.66138 21.3906 6.65424 21.3947 6.64711C21.3989 6.63997 21.403 6.63284 21.4071 6.6257C21.4112 6.61855 21.4154 6.61141 21.4195 6.60427C21.4236 6.59712 21.4277 6.58997 21.4319 6.58282C21.436 6.57567 21.4401 6.56852 21.4442 6.56137C21.4484 6.55421 21.4525 6.54705 21.4566 6.53989C21.4608 6.53274 21.4649 6.52557 21.469 6.51841C21.4732 6.51125 21.4773 6.50408 21.4815 6.49691C21.4856 6.48974 21.4897 6.48257 21.4939 6.4754C21.498 6.46823 21.5022 6.46105 21.5063 6.45387C21.5105 6.4467 21.5146 6.43952 21.5187 6.43234C21.5229 6.42516 21.527 6.41797 21.5312 6.41079C21.5353 6.4036 21.5395 6.39642 21.5436 6.38923C21.5478 6.38204 21.5519 6.37485 21.5561 6.36765C21.5602 6.36046 21.5644 6.35327 21.5685 6.34607C21.5727 6.33887 21.5769 6.33168 21.581 6.32448C21.5852 6.31728 21.5893 6.31007 21.5935 6.30287C21.5976 6.29567 21.6018 6.28846 21.606 6.28125C21.6101 6.27405 21.6143 6.26684 21.6185 6.25963C21.6226 6.25242 21.6268 6.24521 21.6309 6.23799C21.6351 6.23078 21.6393 6.22356 21.6434 6.21635C21.6476 6.20913 21.6518 6.20191 21.6559 6.19469C21.6601 6.18747 21.6643 6.18025 21.6685 6.17303C21.6726 6.16581 21.6768 6.15858 21.681 6.15136C21.6851 6.14413 21.6893 6.13691 21.6935 6.12968C21.6977 6.12245 21.7018 6.11522 21.706 6.10799C21.7102 6.10076 21.7144 6.09353 21.7185 6.0863C21.7227 6.07906 21.7269 6.07183 21.7311 6.0646C21.7352 6.05736 21.7394 6.05012 21.7436 6.04289C21.7478 6.03565 21.752 6.02841 21.7561 6.02117C21.7603 6.01393 21.7645 6.00669 21.7687 5.99945C21.7729 5.99221 21.777 5.98496 21.7812 5.97772C21.7854 5.97048 21.7896 5.96323 21.7938 5.95598C21.7979 5.94874 21.8021 5.94149 21.8063 5.93425C21.8105 5.927 21.8147 5.91975 21.8189 5.9125C21.8231 5.90525 21.8272 5.898 21.8314 5.89075C21.8356 5.8835 21.8398 5.87625 21.844 5.869C21.8482 5.86175 21.8524 5.85449 21.8565 5.84724C21.8607 5.83999 21.8649 5.83273 21.8691 5.82548C21.8733 5.81822 21.8775 5.81097 21.8817 5.80371C21.8859 5.79646 21.8901 5.7892 21.8942 5.78194C21.8984 5.77469 21.9026 5.76743 21.9068 5.76017C21.911 5.75291 21.9152 5.74565 21.9194 5.7384C21.9236 5.73114 21.9278 5.72388 21.932 5.71662C21.9362 5.70936 21.9403 5.7021 21.9445 5.69484C21.9487 5.68758 21.9529 5.68032 21.9571 5.67306C21.9613 5.6658 21.9655 5.65854 21.9697 5.65128C21.9739 5.64402 21.9781 5.63675 21.9823 5.62949C21.9865 5.62223 21.9906 5.61497 21.9948 5.60771C21.999 5.60045 22.0032 5.59319 22.0074 5.58592C22.0116 5.57866 22.0158 5.5714 22.02 5.56414C22.0242 5.55688 22.0284 5.54962 22.0326 5.54236C22.0368 5.53509 22.041 5.52783 22.0452 5.52057C22.0493 5.51331 22.0535 5.50605 22.0577 5.49879C22.0619 5.49153 22.0661 5.48427 22.0703 5.477C22.0745 5.46974 22.0787 5.46248 22.0829 5.45522C22.0871 5.44796 22.0913 5.4407 22.0955 5.43344C22.0996 5.42618 22.1038 5.41892 22.108 5.41167C22.1122 5.40441 22.1164 5.39715 22.1206 5.38989C22.1248 5.38263 22.129 5.37537 22.1332 5.36812C22.1374 5.36086 22.1415 5.3536 22.1457 5.34635C22.1499 5.33909 22.1541 5.33184 22.1583 5.32458C22.1625 5.31733 22.1667 5.31007 22.1709 5.30282C22.1751 5.29556 22.1792 5.28831 22.1834 5.28106C22.1876 5.27381 22.1918 5.26655 22.196 5.2593C22.2002 5.25205 22.2044 5.2448 22.2086 5.23755C22.2127 5.2303 22.2169 5.22305 22.2211 5.2158C22.2253 5.20856 22.2295 5.20131 22.2337 5.19406C22.2378 5.18682 22.242 5.17957 22.2462 5.17233C22.2504 5.16508 22.2546 5.15784 22.2588 5.1506C22.2629 5.14335 22.2671 5.13611 22.2713 5.12887C22.2755 5.12163 22.2797 5.11439 22.2838 5.10715C22.288 5.09992 22.2922 5.09268 22.2964 5.08544C22.3006 5.07821 22.3047 5.07097 22.3089 5.06374C22.3131 5.0565 22.3173 5.04927 22.3214 5.04204C22.3256 5.03481 22.3298 5.02758 22.334 5.02035C22.3381 5.01312 22.3423 5.00589 22.3465 4.99867C22.3506 4.99144 22.3548 4.98422 22.359 4.97699C22.3632 4.96977 22.3673 4.96255 22.3715 4.95533C22.3757 4.94811 22.3798 4.94089 22.384 4.93367C22.3882 4.92645 22.3923 4.91924 22.3965 4.91202C22.4007 4.90481 22.4048 4.89759 22.409 4.89038C22.4132 4.88317 22.4173 4.87596 22.4215 4.86875C22.4256 4.86154 22.4298 4.85434 22.434 4.84713C22.4381 4.83993 22.4423 4.83272 22.4464 4.82552C22.4506 4.81832 22.4548 4.81112 22.4589 4.80392C22.4631 4.79673 22.4672 4.78953 22.4714 4.78234C22.4755 4.77514 22.4797 4.76795 22.4838 4.76076C22.488 4.75357 22.4921 4.74638 22.4963 4.73919C22.5004 4.73201 22.5046 4.72482 22.5087 4.71764C22.5129 4.71046 22.517 4.70328 22.5212 4.6961C22.5253 4.68892 22.5294 4.68175 22.5336 4.67457C22.5377 4.6674 22.5419 4.66022 22.546 4.65305C22.5502 4.64588 22.5543 4.63872 22.5584 4.63155C22.5626 4.62439 22.5667 4.61722 22.5708 4.61006C22.575 4.6029 22.5791 4.59574 22.5832 4.58858C22.5874 4.58143 22.5915 4.57427 22.5956 4.56712C22.5998 4.55997 22.6039 4.55282 22.608 4.54567C22.6121 4.53853 22.6163 4.53138 22.6204 4.52424C22.6245 4.5171 22.6286 4.50996 22.6327 4.50282C22.6369 4.49568 22.641 4.48855 22.6451 4.48142C22.6492 4.47429 22.6533 4.46716 22.6575 4.46003C22.6616 4.4529 22.6657 4.44578 22.6698 4.43866C22.6739 4.43154 22.678 4.42442 22.6821 4.4173C22.6862 4.41018 22.6903 4.40307 22.6944 4.39596C22.6986 4.38885 22.7027 4.38174 22.7068 4.37464C22.7109 4.36753 22.715 4.36043 22.7191 4.35333C22.7232 4.34623 22.7273 4.33913 22.7313 4.33204C22.7354 4.32495 22.7395 4.31786 22.7436 4.31077C22.7477 4.30368 22.7518 4.2966 22.7559 4.28952C22.76 4.28243 22.7641 4.27536 22.7682 4.26828C22.7722 4.2612 22.7763 4.25413 22.7804 4.24706C22.7845 4.23999 22.7886 4.23293 22.7926 4.22587C22.7967 4.2188 22.8008 4.21174 22.8049 4.20469C22.809 4.19763 22.813 4.19058 22.8171 4.18353C22.8212 4.17648 22.8252 4.16943 22.8293 4.16239C22.8334 4.15534 22.8374 4.1483 22.8415 4.14127C22.8456 4.13423 22.8496 4.1272 22.8537 4.12017C22.8577 4.11314 22.8618 4.10611 22.8658 4.09909C22.8699 4.09207 22.874 4.08505 22.878 4.07803C22.8821 4.07102 22.8861 4.064 22.8901 4.057C22.8942 4.04999 22.8982 4.04298 22.9023 4.03598C22.9063 4.02898 22.9104 4.02198 22.9144 4.01499C22.9184 4.00799 22.9225 4.001 22.9265 3.99402C22.9305 3.98703 22.9346 3.98005 22.9386 3.97307C22.9426 3.96609 22.9467 3.95911 22.9507 3.95214C22.9547 3.94517 22.9587 3.9382 22.9628 3.93124C22.9668 3.92428 22.9708 3.91732 22.9748 3.91036C22.9788 3.90341 22.9828 3.89646 22.9868 3.88951C22.9909 3.88256 22.9949 3.87562 22.9989 3.86868C23.0029 3.86174 23.0069 3.8548 23.0109 3.84787C23.0149 3.84094 23.0189 3.83401 23.0229 3.82709C23.0269 3.82016 23.0309 3.81325 23.0349 3.80633C23.0389 3.79942 23.0429 3.79251 23.0468 3.7856C23.0508 3.77869 23.0548 3.77179 23.0588 3.76489C23.0628 3.758 23.0668 3.7511 23.0707 3.74421C23.0747 3.73732 23.0787 3.73044 23.0827 3.72356C23.0866 3.71668 23.0906 3.7098 23.0946 3.70293C23.0985 3.69606 23.1025 3.68919 23.1065 3.68233C23.1104 3.67547 23.1144 3.66861 23.1183 3.66176C23.1223 3.6549 23.1262 3.64805 23.1302 3.64121C23.1342 3.63437 23.1381 3.62753 23.142 3.62069C23.146 3.61386 23.1499 3.60703 23.1539 3.6002C23.1578 3.59338 23.1618 3.58656 23.1657 3.57974C23.1696 3.57292 23.1736 3.56611 23.1775 3.55931C23.1814 3.5525 23.1853 3.5457 23.1893 3.5389C23.1932 3.53211 23.1971 3.52531 23.201 3.51853C23.205 3.51174 23.2089 3.50496 23.2128 3.49818C23.2167 3.4914 23.2206 3.48463 23.2245 3.47787C23.2284 3.4711 23.2323 3.46434 23.2362 3.45758C23.2401 3.45082 23.244 3.44407 23.2479 3.43733C23.2518 3.43058 23.2557 3.42384 23.2596 3.4171C23.2635 3.41036 23.2674 3.40363 23.2712 3.39691C23.2751 3.39018 23.279 3.38346 23.2829 3.37675C23.2868 3.37003 23.2906 3.36332 23.2945 3.35662C23.2984 3.34991 23.3022 3.34321 23.3061 3.33652C23.31 3.32982 23.3138 3.32314 23.3177 3.31645C23.3216 3.30977 23.3254 3.30309 23.3293 3.29642C23.3331 3.28975 23.337 3.28308 23.3408 3.27642C23.3447 3.26976 23.3485 3.2631 23.3523 3.25645C23.3562 3.2498 23.36 3.24316 23.3638 3.23652C23.3677 3.22988 23.3715 3.22325 23.3753 3.21662C23.3792 3.20999 23.383 3.20337 23.3868 3.19676C23.3906 3.19014 23.3944 3.18353 23.3983 3.17693C23.4021 3.17032 23.4059 3.16372 23.4097 3.15713C23.4135 3.15054 23.4173 3.14395 23.4211 3.13737C23.4249 3.13079 23.4287 3.12421 23.4325 3.11764C23.4363 3.11107 23.4401 3.10451 23.4438 3.09795C23.4476 3.0914 23.4514 3.08485 23.4552 3.0783C23.459 3.07176 23.4628 3.06522 23.4665 3.05868C23.4703 3.05215 23.4741 3.04562 23.4778 3.0391C23.4816 3.03258 23.4854 3.02607 23.4891 3.01956C23.4929 3.01305 23.4966 3.00655 23.5004 3.00005C23.5041 2.99356 23.5079 2.98707 23.5116 2.98058C23.5154 2.9741 23.5191 2.96762 23.5228 2.96115C23.5266 2.95468 23.5303 2.94822 23.534 2.94176C23.5378 2.9353 23.5415 2.92885 23.5452 2.92241C23.5489 2.91596 23.5526 2.90952 23.5564 2.90309C23.5601 2.89666 23.5638 2.89023 23.5675 2.88381C23.5712 2.8774 23.5749 2.87098 23.5786 2.86458C23.5823 2.85817 23.586 2.85177 23.5897 2.84538C23.5934 2.83899 23.5971 2.8326 23.6007 2.82622C23.6044 2.81984 23.6081 2.81347 23.6118 2.80711C23.6154 2.80074 23.6191 2.79438 23.6228 2.78803C23.6265 2.78168 23.6301 2.77533 23.6338 2.76899C23.6374 2.76266 23.6411 2.75632 23.6447 2.75L21.0467 1.25Z" fill="#3090FF"/>
<path d="M10.0206 9.25615L16.2788 12.8693L22.537 16.4825M8.56162 11.7832L1.02241 21.6997L4.77733 23.8676L7.68658 20.9447L6.74175 25.0521L16.7549 30.8332L21.078 19.0095L8.56162 11.7832Z" stroke="#3090FF" stroke-width="1.5" stroke-linecap="round" stroke-linejoin="round"/>
</svg>
