<svg width="30" height="18" viewBox="0 0 30 18" fill="none" xmlns="http://www.w3.org/2000/svg">
<path d="M28.0359 6.22544C25.7896 6.37723 22.5848 8.59758 20.9629 9.32613C19.7009 9.89423 18.6124 10.3843 17.6627 10.3843C16.6826 10.3843 16.5352 9.68174 16.739 8.13356C16.7867 7.78663 17.2464 4.69895 14.8873 4.83338C13.7988 4.89843 12.0988 5.90887 7.53668 10.2975L9.33639 5.80045C10.6547 2.50895 7.0293 -0.769541 3.71178 1.3424L1.33096 2.94261C1.01005 3.14644 0.914648 3.57576 1.11847 3.90101L1.86437 5.0719C2.06819 5.39715 2.49752 5.49255 2.82277 5.2844L5.33801 3.59745C6.13595 3.09006 7.10302 3.90968 6.75609 4.77267L2.49752 15.4234C2.20263 16.1563 2.61461 17.3272 3.7855 17.3272C4.14544 17.3272 4.50104 17.1884 4.76558 16.9196C6.59564 15.0895 11.4743 10.3843 13.9245 8.42845C13.8291 9.66439 13.8335 10.9827 14.8179 12.0625C15.4814 12.7911 16.4355 13.1597 17.6584 13.1597C19.2022 13.1597 20.6073 12.5266 22.0948 11.8587C23.5258 11.2169 26.388 9.144 28.0967 9.00522C28.4653 8.97487 28.7558 8.68865 28.7558 8.32004V6.92798C28.7645 6.53334 28.4306 6.19942 28.0359 6.22544Z" fill="#282828" stroke="#EBF0FF" stroke-width="1.15603"/>
</svg>
