<svg width="30" height="30" viewBox="0 0 30 30" fill="none" xmlns="http://www.w3.org/2000/svg">
<circle cx="15" cy="15" r="12" stroke="#0069DE" stroke-width="2"/>
<g clip-path="url(#clip0_4182_690)">
<path d="M12.5324 8.73327C12.3239 8.22952 11.7741 7.96139 11.2487 8.10493L8.86536 8.75493C8.39411 8.88493 8.06641 9.31285 8.06641 9.80035C8.06641 16.5008 13.4993 21.9337 20.1997 21.9337C20.6872 21.9337 21.1152 21.606 21.2452 21.1347L21.8952 18.7514C22.0387 18.226 21.7706 17.6762 21.2668 17.4676L18.6668 16.3843C18.2254 16.2001 17.7135 16.3274 17.4129 16.6985L16.3187 18.0337C14.412 17.1318 12.8683 15.5881 11.9664 13.6814L13.3016 12.5899C13.6727 12.2866 13.7999 11.7774 13.6158 11.336L12.5324 8.73598V8.73327Z" fill="#0069DE"/>
</g>
<defs>
<clipPath id="clip0_4182_690">
<rect width="13.8667" height="13.8667" fill="white" transform="translate(8.06641 8.06641)"/>
</clipPath>
</defs>
</svg>
