<svg width="31" height="33" viewBox="0 0 31 33" fill="none" xmlns="http://www.w3.org/2000/svg">
<path d="M28.1819 24.6364C28.1819 25.2874 27.9389 25.9117 27.5065 26.372C27.0741 26.8323 26.4876 27.0909 25.8761 27.0909H5.12402C4.51249 27.0909 3.926 26.8323 3.49359 26.372C3.06117 25.9117 2.81824 25.2874 2.81824 24.6364V11.1364C2.81824 10.4854 3.06117 9.86105 3.49359 9.40074C3.926 8.94042 4.51249 8.68182 5.12402 8.68182H9.73559L12.0414 5H18.9587L21.2645 8.68182H25.8761C26.4876 8.68182 27.0741 8.94042 27.5065 9.40074C27.9389 9.86105 28.1819 10.4854 28.1819 11.1364V24.6364Z" stroke="#0069DE" stroke-width="2" stroke-linecap="round" stroke-linejoin="round"/>
<path d="M15.5002 23.3148C18.0471 23.3148 20.1118 21.1169 20.1118 18.4057C20.1118 15.6945 18.0471 13.4966 15.5002 13.4966C12.9533 13.4966 10.8887 15.6945 10.8887 18.4057C10.8887 21.1169 12.9533 23.3148 15.5002 23.3148Z" stroke="#0069DE" stroke-width="2" stroke-linecap="round" stroke-linejoin="round"/>
<path fill-rule="evenodd" clip-rule="evenodd" d="M9.73547 8.68182L12.0413 5H18.9586L21.2644 8.68182H9.73547ZM15.9697 6.5C15.9697 6.77614 15.7594 7 15.5 7C15.2406 7 15.0303 6.77614 15.0303 6.5C15.0303 6.22386 15.2406 6 15.5 6C15.7594 6 15.9697 6.22386 15.9697 6.5Z" fill="#0069DE"/>
<path d="M12.0413 5V4C11.6968 4 11.3766 4.17729 11.1937 4.46923L12.0413 5ZM9.73547 8.68182L8.88796 8.15105C8.69492 8.45928 8.68445 8.84801 8.86061 9.16619C9.03677 9.48437 9.37179 9.68182 9.73547 9.68182V8.68182ZM18.9586 5L19.8061 4.46923C19.6233 4.17729 19.3031 4 18.9586 4V5ZM21.2644 8.68182V9.68182C21.6281 9.68182 21.9631 9.48437 22.1393 9.16619C22.3154 8.84801 22.305 8.45928 22.1119 8.15105L21.2644 8.68182ZM11.1937 4.46923L8.88796 8.15105L10.583 9.21259L12.8888 5.53077L11.1937 4.46923ZM18.9586 4H12.0413V6H18.9586V4ZM22.1119 8.15105L19.8061 4.46923L18.1111 5.53077L20.4169 9.21259L22.1119 8.15105ZM9.73547 9.68182H21.2644V7.68182H9.73547V9.68182ZM15.5 8C16.3697 8 16.9697 7.26861 16.9697 6.5H14.9697C14.9697 6.28367 15.1492 6 15.5 6V8ZM14.0303 6.5C14.0303 7.26861 14.6304 8 15.5 8V6C15.8509 6 16.0303 6.28367 16.0303 6.5H14.0303ZM15.5 5C14.6304 5 14.0303 5.73139 14.0303 6.5H16.0303C16.0303 6.71633 15.8509 7 15.5 7V5ZM16.9697 6.5C16.9697 5.73139 16.3697 5 15.5 5V7C15.1492 7 14.9697 6.71633 14.9697 6.5H16.9697Z" fill="#0069DE"/>
</svg>
