<svg width="27" height="26" viewBox="0 0 27 26" fill="none" xmlns="http://www.w3.org/2000/svg">
<g clip-path="url(#clip0_1077_8606)">
<path d="M25.1804 20.5833C25.1804 21.158 24.9521 21.7091 24.5458 22.1154C24.1394 22.5217 23.5883 22.75 23.0137 22.75H3.51371C2.93908 22.75 2.38798 22.5217 1.98165 22.1154C1.57532 21.7091 1.34705 21.158 1.34705 20.5833V8.66667C1.34705 8.09203 1.57532 7.54093 1.98165 7.1346C2.38798 6.72827 2.93908 6.5 3.51371 6.5H7.84705L10.0137 3.25H16.5137L18.6804 6.5H23.0137C23.5883 6.5 24.1394 6.72827 24.5458 7.1346C24.9521 7.54093 25.1804 8.09203 25.1804 8.66667V20.5833Z" stroke="black" stroke-width="1.2" stroke-linecap="round" stroke-linejoin="round"/>
<path d="M13.2636 18.4167C15.6569 18.4167 17.597 16.4766 17.597 14.0833C17.597 11.6901 15.6569 9.75 13.2636 9.75C10.8704 9.75 8.9303 11.6901 8.9303 14.0833C8.9303 16.4766 10.8704 18.4167 13.2636 18.4167Z" stroke="black" stroke-width="1.2" stroke-linecap="round" stroke-linejoin="round"/>
</g>
<defs>
<clipPath id="clip0_1077_8606">
<rect width="26" height="26" fill="white" transform="translate(0.263672)"/>
</clipPath>
</defs>
</svg>
