<svg width="28" height="28" viewBox="0 0 28 28" fill="none" xmlns="http://www.w3.org/2000/svg">
<path d="M23.4511 14.5314V13.2049L25.1158 11.7483C25.4226 11.4778 25.624 11.1075 25.6843 10.703C25.7446 10.2984 25.6599 9.88553 25.4452 9.53735L23.3991 6.06925C23.247 5.8059 23.0284 5.58717 22.7651 5.43499C22.5019 5.28281 22.2032 5.20254 21.8991 5.20223C21.7107 5.20078 21.5232 5.23007 21.3442 5.28893L19.2373 5.99989C18.8736 5.75817 18.4942 5.54093 18.1015 5.34962L17.6594 3.16472C17.5801 2.76555 17.3629 2.40698 17.0459 2.15178C16.7289 1.89658 16.3322 1.76101 15.9253 1.76881H11.8676C11.4607 1.76101 11.0641 1.89658 10.7471 2.15178C10.43 2.40698 10.2129 2.76555 10.1336 3.16472L9.69141 5.34962C9.29599 5.54089 8.91367 5.75812 8.54694 5.99989L6.48342 5.25425C6.30247 5.2071 6.11509 5.18954 5.92853 5.20223C5.62444 5.20254 5.32578 5.28281 5.06251 5.43499C4.79924 5.58717 4.58062 5.8059 4.42858 6.06925L2.3824 9.53735C2.18003 9.88501 2.10483 10.2922 2.16968 10.6892C2.23453 11.0863 2.4354 11.4484 2.73788 11.7136L4.37656 13.2135V14.5401L2.73788 15.9967C2.42685 16.2637 2.22049 16.6323 2.15542 17.0371C2.09034 17.4418 2.17076 17.8565 2.3824 18.2076L4.42858 21.6757C4.58062 21.939 4.79924 22.1578 5.06251 22.3099C5.32578 22.4621 5.62444 22.5424 5.92853 22.5427C6.11698 22.5441 6.3044 22.5149 6.48342 22.456L8.59029 21.745C8.95404 21.9868 9.33348 22.204 9.72609 22.3953L10.1683 24.5802C10.2476 24.9794 10.4647 25.338 10.7817 25.5932C11.0988 25.8484 11.4954 25.9839 11.9023 25.9761H15.9947C16.4016 25.9839 16.7982 25.8484 17.1153 25.5932C17.4323 25.338 17.6494 24.9794 17.7287 24.5802L18.1709 22.3953C18.5663 22.204 18.9486 21.9868 19.3154 21.745L21.4136 22.456C21.5926 22.5149 21.78 22.5441 21.9685 22.5427C22.2726 22.5424 22.5712 22.4621 22.8345 22.3099C23.0977 22.1578 23.3164 21.939 23.4684 21.6757L25.4452 18.2076C25.6476 17.8599 25.7228 17.4527 25.658 17.0557C25.5931 16.6587 25.3922 16.2966 25.0898 16.0314L23.4511 14.5314ZM21.8991 20.8087L18.9252 19.8029C18.229 20.3926 17.4334 20.8535 16.5756 21.1641L15.96 24.2768H11.8676L11.2521 21.1988C10.401 20.8794 9.60967 20.4192 8.91109 19.8376L5.92853 20.8087L3.88235 17.3406L6.24066 15.2597C6.08034 14.3622 6.08034 13.4434 6.24066 12.5459L3.88235 10.4044L5.92853 6.93628L8.90242 7.94202C9.59858 7.35235 10.3942 6.89141 11.2521 6.5808L11.8676 3.46818H15.96L16.5756 6.54611C17.4266 6.86555 18.218 7.32569 18.9165 7.90734L21.8991 6.93628L23.9453 10.4044L21.587 12.4852C21.7473 13.3827 21.7473 14.3015 21.587 15.199L23.9453 17.3406L21.8991 20.8087Z" fill="#005DC5"/>
<path d="M13.9152 19.0746C12.8863 19.0746 11.8805 18.7695 11.025 18.1979C10.1695 17.6262 9.50274 16.8138 9.109 15.8632C8.71527 14.9126 8.61225 13.8667 8.81297 12.8575C9.0137 11.8484 9.50915 10.9215 10.2367 10.194C10.9642 9.46643 11.8912 8.97097 12.9003 8.77025C13.9094 8.56952 14.9554 8.67254 15.9059 9.06628C16.8565 9.46002 17.669 10.1268 18.2406 10.9823C18.8122 11.8378 19.1173 12.8435 19.1173 13.8724C19.1243 14.5575 18.9944 15.2371 18.7355 15.8714C18.4765 16.5057 18.0936 17.0819 17.6091 17.5664C17.1247 18.0509 16.5484 18.4338 15.9141 18.6928C15.2798 18.9517 14.6002 19.0815 13.9152 19.0746ZM13.9152 10.4043C13.4568 10.3937 13.001 10.4761 12.5754 10.6466C12.1499 10.8171 11.7633 11.0721 11.4391 11.3963C11.1149 11.7205 10.8598 12.1071 10.6893 12.5327C10.5188 12.9583 10.4364 13.4141 10.4471 13.8724C10.4364 14.3308 10.5188 14.7865 10.6893 15.2121C10.8598 15.6377 11.1149 16.0243 11.4391 16.3485C11.7633 16.6727 12.1499 16.9278 12.5754 17.0983C13.001 17.2688 13.4568 17.3512 13.9152 17.3405C14.3735 17.3512 14.8293 17.2688 15.2549 17.0983C15.6805 16.9278 16.0671 16.6727 16.3912 16.3485C16.7154 16.0243 16.9705 15.6377 17.141 15.2121C17.3115 14.7865 17.3939 14.3308 17.3833 13.8724C17.3939 13.4141 17.3115 12.9583 17.141 12.5327C16.9705 12.1071 16.7154 11.7205 16.3912 11.3963C16.0671 11.0721 15.6805 10.8171 15.2549 10.6466C14.8293 10.4761 14.3735 10.3937 13.9152 10.4043Z" fill="#005DC5"/>
</svg>
