<svg width="22" height="22" viewBox="0 0 22 22" fill="none" xmlns="http://www.w3.org/2000/svg">
<path d="M13.6715 0.0345459C9.12231 0.0345459 5.43475 3.72211 5.43475 8.27127C5.43475 10.176 6.08231 11.929 7.16609 13.3244L6.0525 14.438L4.36452 12.75C4.32325 12.7096 4.26781 12.687 4.21008 12.687C4.15234 12.687 4.09691 12.7096 4.05564 12.75L2.97728 13.8284C2.9369 13.8696 2.91429 13.9251 2.91429 13.9828C2.91429 14.0405 2.9369 14.096 2.97728 14.1372L4.66527 15.8252L3.44872 17.0418L1.76074 15.3538C1.71947 15.3134 1.66403 15.2908 1.6063 15.2908C1.54856 15.2908 1.49313 15.3134 1.45186 15.3538L0.373499 16.4321C0.33312 16.4734 0.310509 16.5288 0.310509 16.5866C0.310509 16.6443 0.33312 16.6997 0.373499 16.741L2.06149 18.429L0.292216 20.1983C0.251877 20.239 0.229248 20.294 0.229248 20.3514C0.229248 20.4087 0.251877 20.4637 0.292216 20.5044L1.43831 21.6505C1.52231 21.7345 1.66049 21.7345 1.74448 21.6505L8.61564 14.7794C10.0621 15.9013 11.841 16.5095 13.6715 16.508C18.2206 16.508 21.9082 12.8204 21.9082 8.27127C21.9082 3.72211 18.2206 0.0345459 13.6715 0.0345459ZM18.0391 12.6389C16.874 13.8067 15.3215 14.4488 13.6715 14.4488C12.0214 14.4488 10.4689 13.8067 9.30384 12.6389C8.13607 11.4738 7.49393 9.92133 7.49393 8.27127C7.49393 6.62122 8.13607 5.0687 9.30384 3.90364C10.4689 2.73587 12.0214 2.09373 13.6715 2.09373C15.3215 2.09373 16.874 2.73587 18.0391 3.90364C19.2069 5.0687 19.849 6.62122 19.849 8.27127C19.849 9.92133 19.2069 11.4738 18.0391 12.6389Z" fill="#005DC5"/>
</svg>
