<svg width="14" height="14" viewBox="0 0 14 14" fill="none" xmlns="http://www.w3.org/2000/svg">
<path d="M7 0C10.8664 0 14 3.13359 14 7C14 10.8664 10.8664 14 7 14C5.51523 14 4.13438 13.5352 2.99961 12.7449C2.60312 12.4441 2.50578 11.9219 2.78359 11.5254C3.05977 11.1289 3.60391 11.0332 4.00039 11.3094C4.85078 11.9027 5.88438 12.25 7 12.25C9.89844 12.25 12.25 9.89844 12.25 7C12.25 4.07695 9.89844 1.75 7 1.75C5.52617 1.75 4.23828 2.3368 3.28672 3.28672L4.12891 4.12891C4.5418 4.5418 4.24922 5.25 3.6668 5.25H0.65625C0.293945 5.25 0 4.95742 0 4.59375V1.5843C0 0.999687 0.706836 0.706836 1.12027 1.12027L2.05023 2.05023C3.3168 0.784492 5.0668 0 6.97539 0H7ZM7 3.5C7.36367 3.5 7.65625 3.79258 7.65625 4.15625V6.7293L9.40898 8.50391C9.68789 8.76094 9.68789 9.17656 9.40898 9.40898C9.17656 9.68789 8.76094 9.68789 8.50391 9.40898L6.53516 7.44023C6.41211 7.3418 6.34375 7.175 6.34375 7V4.15625C6.34375 3.79258 6.63633 3.5 7 3.5Z" fill="black"/>
</svg>
