<svg width="404" height="99" viewBox="0 0 404 99" fill="none" xmlns="http://www.w3.org/2000/svg">
<g filter="url(#filter0_d_4807_750)">
<rect x="2" y="1" width="398" height="93" rx="10" fill="#7698FF"/>
</g>
<g clip-path="url(#clip0_4807_750)">
<path d="M276.675 47.1185C278.724 47.9814 279.691 50.3162 278.832 52.3328L275.724 59.6355C274.866 61.6514 272.508 62.5868 270.459 61.724L263.036 58.5981C260.987 57.7349 260.021 55.3997 260.879 53.3838L263.988 46.0811C264.846 44.0644 267.203 43.1294 269.253 43.9926L276.675 47.1185ZM273.366 51.466L268.418 49.3821L266.346 54.2506L271.294 56.3345L273.366 51.466ZM268.387 66.5925C270.435 67.4553 271.401 69.7909 270.543 71.8068L267.435 79.1095C266.577 81.1254 264.219 82.0608 262.17 81.198L254.748 78.0721C252.698 77.2089 251.733 74.8737 252.591 72.8578L255.699 65.555C256.557 63.5392 258.915 62.6034 260.964 63.4666L268.387 66.5925ZM265.077 70.94L260.129 68.8561L258.057 73.7246L263.005 75.8085L265.077 70.94ZM283.781 54.4167C284.639 52.4001 286.997 51.4654 289.046 52.3283L296.468 55.4541C298.517 56.317 299.483 58.6518 298.625 60.6684L295.517 67.9712C294.659 69.987 292.3 70.9225 290.251 70.0596L282.829 66.9337C280.78 66.0709 279.814 63.7353 280.672 61.7194L283.781 54.4167ZM286.138 62.5862L291.087 64.6701L293.159 59.8016L288.211 57.7177L286.138 62.5862ZM279.288 85.5364L281.762 86.5784L280.726 89.0126L278.251 87.9707L279.288 85.5364ZM285.674 91.0965L283.2 90.0546L284.236 87.6203L286.71 88.6623L285.674 91.0965ZM289.416 75.4491L291.89 76.491L287.746 86.228L280.324 83.1022L281.36 80.6679L278.886 79.626L275.777 86.9287L270.829 84.8448L277.046 70.2393L284.468 73.3652L283.432 75.7994L288.38 77.8833L289.416 75.4491Z" fill="#6689F3"/>
</g>
<g clip-path="url(#clip1_4807_750)">
<path d="M354.109 70.3057L339.873 76.8963C338.129 77.7037 336.134 77.7888 334.327 77.1331C332.52 76.4773 331.048 75.1343 330.237 73.3994C329.425 71.6646 329.339 69.6801 329.999 67.8825C330.658 66.0849 332.008 64.6214 333.752 63.814L347.988 57.2234C349.151 56.6852 350.481 56.6284 351.686 57.0656C352.89 57.5028 353.871 58.3981 354.412 59.5546C354.954 60.7112 355.011 62.0342 354.571 63.2326C354.132 64.431 353.232 65.4067 352.069 65.9449L337.821 72.5314C337.24 72.8005 336.575 72.8289 335.973 72.6103C335.37 72.3917 334.88 71.9441 334.609 71.3658C334.339 70.7875 334.31 70.126 334.53 69.5268C334.75 68.9276 335.2 68.4398 335.781 68.1707L348.929 62.0934" stroke="#6689F3" stroke-width="3" stroke-linecap="round" stroke-linejoin="round"/>
</g>
<path d="M366.806 81.1379L366.805 81.1376C365.661 80.8062 364.15 80.8994 362.78 81.0658C362.182 81.1385 361.592 81.228 361.053 81.3097C360.967 81.3229 360.882 81.3358 360.798 81.3484C360.185 81.4408 359.664 81.5153 359.264 81.5417L359.264 81.5418C358.599 81.5864 358.007 81.6258 357.475 81.6176C356.943 81.6094 356.508 81.5533 356.156 81.4254C355.986 81.3638 355.916 81.3038 355.888 81.269C355.867 81.2434 355.846 81.2054 355.846 81.116C355.845 80.8868 355.977 80.4986 356.323 79.8423C356.325 79.838 356.327 79.8333 356.33 79.8279C356.425 79.6519 356.836 78.8864 356.947 78.0532C357.005 77.6178 356.989 77.1139 356.757 76.6541C356.517 76.177 356.078 75.8143 355.426 75.618L355.425 75.6176C354.79 75.4284 353.965 75.4664 352.657 75.8179C351.702 76.0744 350.455 76.5081 348.784 77.182L350.342 75.471C352.939 72.62 350.363 68.0084 346.248 68.881L346.248 68.8809L346.236 68.8837L343.581 69.5152C342.958 69.6508 342.563 70.2645 342.701 70.8867L342.701 70.8867L342.702 70.8904L342.994 72.1644C343.134 72.79 343.758 73.1752 344.38 73.0418L344.38 73.0419L344.391 73.0394L347.193 72.3757C347.627 72.2881 347.854 72.7868 347.612 73.0512L347.612 73.0519L340.337 81.0473C340.337 81.0474 340.337 81.0475 340.337 81.0476C339.976 81.442 339.811 82.0272 339.901 82.5773C339.996 83.1552 340.374 83.6957 341.078 83.9512C341.519 84.1111 342.02 84.1049 342.472 83.8964C344.467 82.9916 349.351 80.8782 352.379 79.7806C352.101 80.6337 351.982 81.6018 352.42 82.6396C352.848 83.6572 353.715 84.3751 354.911 84.809C356.395 85.3476 357.951 85.2447 359.464 85.1445L359.528 85.1402C359.931 85.1137 360.438 85.0352 360.975 84.9449C361.132 84.9185 361.292 84.891 361.455 84.863C361.859 84.7937 362.277 84.7219 362.699 84.658C363.291 84.5686 363.871 84.4979 364.395 84.4751C364.926 84.4521 365.365 84.4801 365.686 84.5686L365.687 84.5687C366.245 84.7217 366.885 84.4709 367.105 83.869L367.554 82.6466C367.791 82.0327 367.452 81.3261 366.806 81.1379Z" fill="#6689F3" stroke="#7698FF"/>
<path d="M217.021 67.2671L218.801 58.685C218.916 58.1321 218.559 57.5896 218.003 57.4734L197.883 53.2651C197.328 53.1489 196.784 53.503 196.67 54.0559L192.515 74.0808C192.4 74.6338 192.757 75.1763 193.313 75.2925L204.235 77.577" stroke="#6689F3" stroke-width="3" stroke-linecap="round" stroke-linejoin="round"/>
<path d="M214.394 54.6328L213.563 58.6373" stroke="#6689F3" stroke-width="2" stroke-linecap="round" stroke-linejoin="round"/>
<path d="M202.324 52.1016L201.493 56.106" stroke="#6689F3" stroke-width="2" stroke-linecap="round" stroke-linejoin="round"/>
<path d="M195.631 59.0625L217.763 63.6916" stroke="#6689F3" stroke-width="2" stroke-linecap="round" stroke-linejoin="round"/>
<g clip-path="url(#clip2_4807_750)">
<path d="M215.383 73.538C215.469 73.1218 215.875 72.8574 216.293 72.9449C216.711 73.0323 216.978 73.4375 216.892 73.8536L216.092 77.7084L218.405 80.0465C218.703 80.3504 218.7 80.8363 218.371 81.1265C218.095 81.428 217.607 81.4239 217.315 81.095L214.712 78.4612C214.525 78.3045 214.448 78.0436 214.506 77.7651L215.383 73.538ZM216.917 69.9411C221.362 70.8709 224.22 75.2101 223.302 79.6344C222.384 84.0586 218.038 86.8908 213.592 85.961C209.147 85.0313 206.289 80.692 207.207 76.2678C208.125 71.8435 212.471 69.0114 216.917 69.9411ZM208.716 76.5834C207.97 80.1785 210.292 83.7036 213.904 84.4592C217.516 85.2147 221.047 82.9139 221.793 79.3188C222.539 75.7237 220.217 72.1985 216.605 71.443C212.993 70.6875 209.462 72.9883 208.716 76.5834Z" fill="#6689F3"/>
</g>
<path d="M130.204 25.1282L130.498 17.8007C130.55 16.5131 129.542 15.4276 128.248 15.3763L111.84 14.7258C110.546 14.6744 109.455 15.6767 109.403 16.9643L108.749 33.2847C108.698 34.5723 109.705 35.6578 111 35.7091L122.384 36.1605" stroke="#6689F3" stroke-width="2" stroke-linecap="round" stroke-linejoin="round"/>
<path d="M115.615 23.0513C116.586 23.0898 117.405 22.3381 117.443 21.3724C117.482 20.4067 116.726 19.5926 115.755 19.5541C114.785 19.5156 113.966 20.2673 113.927 21.233C113.889 22.1987 114.644 23.0128 115.615 23.0513Z" stroke="#6689F3" stroke-width="2" stroke-linecap="round" stroke-linejoin="round"/>
<path d="M130.191 25.4644L125.49 21.4416L111 35.7122" stroke="#6689F3" stroke-width="2" stroke-linecap="round" stroke-linejoin="round"/>
<path d="M136.287 36.5475L136.189 38.99C136.176 39.3139 136.034 39.6194 135.794 39.8393C135.555 40.0592 135.238 40.1755 134.912 40.1626L126.318 39.8218C125.992 39.8089 125.685 39.6679 125.464 39.4297C125.243 39.1915 125.126 38.8758 125.139 38.5519L125.237 36.1094" stroke="#6689F3" stroke-width="1.5" stroke-linecap="round" stroke-linejoin="round"/>
<path d="M134.003 32.1715L131.056 28.9967L127.864 31.9281" stroke="#6689F3" stroke-width="1.5" stroke-linecap="round" stroke-linejoin="round"/>
<path d="M131.056 29L130.762 36.3275" stroke="#6689F3" stroke-width="1.5" stroke-linecap="round" stroke-linejoin="round"/>
<g clip-path="url(#clip3_4807_750)">
<path d="M306.489 4.77591C298.299 4.34734 291.289 10.6127 290.83 18.7718C290.372 26.931 296.638 33.891 304.828 34.3196C313.019 34.7482 320.029 28.4828 320.487 20.3237C320.946 12.1645 314.68 5.20449 306.489 4.77591ZM305.192 27.8569C304.149 27.8024 303.383 26.9521 303.442 25.9134C303.5 24.8748 304.304 24.1067 305.399 24.1639C306.39 24.2158 307.207 25.0688 307.149 26.1074C307.091 27.1461 306.182 27.9087 305.192 27.8569ZM309.655 19.8726L306.952 21.3516L306.945 21.467C306.903 22.2171 306.23 22.8185 305.477 22.7791C304.724 22.7397 304.123 22.0716 304.165 21.3215L304.217 20.3982C304.243 19.9366 304.5 19.4871 304.98 19.2229L308.392 17.4337C308.81 17.2242 309.065 16.8324 309.091 16.3707C309.13 15.6783 308.531 15.0682 307.836 15.0319L304.876 14.877C304.128 14.8379 303.569 15.3873 303.53 16.0798C303.488 16.8299 302.815 17.4313 302.062 17.3919C301.309 17.3525 300.707 16.6844 300.75 15.9343C300.876 13.6839 302.772 11.9891 304.979 12.1045L307.939 12.2594C310.302 12.3831 311.997 14.2658 311.871 16.5162C311.793 17.9011 310.965 19.1888 309.655 19.8726Z" fill="#6689F3"/>
</g>
<path d="M70.6289 17.6582C67.1441 18.8904 63.1789 24.384 60.9736 26.4276C59.2584 28.02 57.779 29.3935 56.2734 29.7948C54.7198 30.2089 54.1332 28.9614 53.6788 25.9889C53.5802 25.3219 52.7582 19.3711 49.0859 20.6185C47.3931 21.1997 45.2057 23.8018 40.1776 33.9115L40.7721 24.7668C41.2089 18.0732 33.8152 13.4926 29.6167 18.8318L26.6462 22.8211C26.2399 23.3367 26.3042 24.1775 26.7907 24.6977L28.5612 26.5656C29.0476 27.0858 29.7761 27.0823 30.1872 26.5568L33.3273 22.3489C34.3374 21.0658 36.282 22.1853 36.1655 23.9409L34.7636 45.5973C34.6642 47.0883 35.9053 49.0972 37.7615 48.6025C38.3321 48.4504 38.8261 48.0414 39.1104 47.4284C41.0924 43.2432 46.4633 32.4095 49.3653 27.7278C49.8347 30.0724 50.5037 32.5285 52.6065 34.1257C54.0243 35.2037 55.7218 35.4878 57.6604 34.9711C60.1078 34.3188 62.0172 32.5447 64.0398 30.6711C65.9861 28.8699 69.4823 23.7958 72.1212 22.8152C72.6903 22.6028 73.0072 21.9464 72.8221 21.2592L72.123 18.6639C71.9385 17.9245 71.2415 17.443 70.6289 17.6582Z" fill="#6689F3"/>
<path d="M80.8233 71.487C81.8511 71.8469 82.9777 71.3099 83.3396 70.2875C83.7014 69.2651 83.1616 68.1445 82.1337 67.7846C81.1059 67.4246 79.9793 67.9616 79.6175 68.984C79.2556 70.0064 79.7955 71.127 80.8233 71.487Z" stroke="#6689F3" stroke-width="1.5" stroke-linecap="round" stroke-linejoin="round"/>
<path d="M70.909 74.6809L79.7033 70.4888" stroke="#6689F3" stroke-width="1.5" stroke-linecap="round" stroke-linejoin="round"/>
<path d="M70.9089 74.675L84.6498 77.0737C84.7856 77.0968 84.9251 77.0837 85.0542 77.0357C85.1833 76.9877 85.2972 76.9065 85.3845 76.8004L89.4247 72.0046L84.6014 61.9927L78.3124 62.1206C78.1735 62.1241 78.038 62.1635 77.9192 62.235C77.8003 62.3065 77.7023 62.4076 77.6347 62.5283L70.9089 74.675Z" stroke="#6689F3" stroke-width="1.5" stroke-linecap="round" stroke-linejoin="round"/>
<path d="M89.4257 72.003L92.7346 70.4257C92.8293 70.3815 92.9142 70.3189 92.9844 70.2417C93.0546 70.1644 93.1086 70.0741 93.1434 69.9759C93.1782 69.8777 93.1929 69.7736 93.1869 69.6697C93.1808 69.5658 93.154 69.4641 93.1081 69.3705L88.9721 60.7854C88.9276 60.6912 88.8647 60.6067 88.7871 60.5369C88.7094 60.4671 88.6186 60.4133 88.5199 60.3788C88.4212 60.3442 88.3165 60.3295 88.2121 60.3355C88.1076 60.3416 88.0053 60.3682 87.9113 60.4139L84.6024 61.9912" stroke="#6689F3" stroke-width="1.5" stroke-linecap="round" stroke-linejoin="round"/>
<path d="M56.8586 54.282L52.7746 65.8205L54.4423 67.2946L54.1302 67.7448L48.5807 65.8012L48.6209 65.2559L50.0509 65.1718C50.3601 65.1615 50.5814 65.1118 50.7147 65.0229C50.8631 64.9392 50.9773 64.7843 51.0574 64.558L55.1415 53.0195L53.4738 51.5454L53.7858 51.0953L59.3354 53.0388L59.2951 53.5841L57.8651 53.6682C57.5559 53.6786 57.3271 53.7256 57.1787 53.8092C57.0454 53.8982 56.9387 54.0557 56.8586 54.282ZM66.085 64.4808C66.3573 63.7115 66.3709 63.0975 66.126 62.6388C65.9014 62.1702 65.3966 61.7985 64.6113 61.5235C63.8261 61.2485 63.0061 61.0715 62.1515 60.9926L59.5729 68.2777L61.1061 69.6284L60.794 70.0785L55.7202 68.3016L55.7605 67.7563L56.9319 67.6834C57.2411 67.673 57.4624 67.6233 57.5957 67.5344C57.7441 67.4507 57.8583 67.2958 57.9384 67.0695L60.3328 60.3048L58.8353 59.5006L58.8756 58.9553L62.1739 58.9153L62.5629 59.2549L62.384 59.9043L62.4585 59.9812C63.7034 59.773 64.877 59.8619 65.9793 60.2479C68.1538 61.0095 68.8327 62.5441 68.0159 64.8518L66.0059 70.5306L67.539 71.8813L67.227 72.3314L62.1531 70.5545L62.1934 70.0091L63.3648 69.9363C63.674 69.9259 63.8953 69.8762 64.0286 69.7873C64.177 69.7036 64.2912 69.5487 64.3713 69.3224L66.085 64.4808Z" fill="#6689F3"/>
<line x1="1.25" y1="-1.25" x2="32.2022" y2="-1.25" transform="matrix(-0.943796 -0.330529 0.333664 -0.942692 75.1599 81.8594)" stroke="#6689F3" stroke-width="2.5" stroke-linecap="round"/>
<path d="M131.815 60.9993L115.856 66.1388C114.754 66.4936 113.993 67.1851 114.155 67.6832L120.026 85.7228C120.188 86.2209 121.213 86.3371 122.315 85.9823L138.274 80.8428M144.259 78.9154L162.213 73.1334C163.315 72.7786 164.076 72.0872 163.914 71.589L158.043 53.5495C157.881 53.0513 156.856 52.9351 155.754 53.2899L137.8 59.0719" stroke="#6689F3" stroke-width="3" stroke-linecap="round" stroke-linejoin="round"/>
<path d="M123.356 79.8579C123.29 79.6551 123.281 79.473 123.33 79.3117C123.375 79.1403 123.482 78.988 123.652 78.8549C123.818 78.7116 124.054 78.5909 124.359 78.4928C124.734 78.3719 125.106 78.3081 125.474 78.3017C125.852 78.2919 126.212 78.3443 126.552 78.4589L126.255 77.5461C126.114 77.457 125.905 77.3842 125.628 77.3275C125.352 77.2709 125.026 77.2525 124.651 77.2724C124.286 77.289 123.881 77.3693 123.434 77.5131C122.561 77.7943 121.95 78.2095 121.602 78.7588C121.253 79.308 121.189 79.9225 121.411 80.602C121.566 81.0788 121.81 81.4485 122.142 81.7113C122.481 81.9607 122.867 82.1111 123.298 82.1625C123.73 82.214 124.164 82.1694 124.601 82.0288C125.027 81.8915 125.409 81.6846 125.745 81.4082C126.091 81.1285 126.337 80.7973 126.482 80.4146C126.636 80.0285 126.641 79.6124 126.496 79.1661L125.955 78.3317C126.064 78.6664 126.082 78.98 126.009 79.2725C125.933 79.5548 125.794 79.8012 125.593 80.0115C125.389 80.2117 125.135 80.3608 124.83 80.4589C124.617 80.5276 124.407 80.5558 124.202 80.5437C124.003 80.5181 123.829 80.4507 123.681 80.3414C123.53 80.222 123.422 80.0608 123.356 79.8579ZM121.668 77.2581C121.747 77.1544 121.876 77.0175 122.056 76.8474C122.237 76.6773 122.462 76.5093 122.734 76.3435C123.005 76.1777 123.303 76.0425 123.628 75.9378C123.841 75.8692 124.041 75.8273 124.226 75.8123C124.412 75.7973 124.581 75.8158 124.733 75.8679C124.894 75.9166 125.029 76.0022 125.136 76.1246C125.24 76.2368 125.323 76.3893 125.386 76.582L126.866 81.1312L128.77 80.5181L127.156 75.5582C127 75.0815 126.738 74.7233 126.368 74.4838C125.996 74.2341 125.547 74.0982 125.024 74.0762C124.501 74.0541 123.94 74.1396 123.341 74.3325C122.691 74.5418 122.132 74.8227 121.664 75.1753C121.192 75.5178 120.804 75.8442 120.502 76.1546L121.668 77.2581ZM128.277 67.5658L126.297 68.2034L130.159 80.0706L132.139 79.433L128.277 67.5658ZM136.757 74.0797C136.503 73.2987 136.131 72.6901 135.641 72.2539C135.148 71.8076 134.597 71.5258 133.986 71.4085C133.386 71.288 132.792 71.3226 132.203 71.5122C131.624 71.6986 131.154 72.0124 130.793 72.4537C130.442 72.8917 130.224 73.4271 130.138 74.0598C130.049 74.6824 130.128 75.3741 130.376 76.1348C130.62 76.8854 130.964 77.492 131.406 77.9547C131.848 78.4174 132.34 78.7239 132.883 78.8742C133.435 79.0212 134.001 79.0015 134.58 78.8151C135.169 78.6255 135.671 78.3069 136.086 77.8594C136.511 77.4087 136.792 76.8587 136.929 76.2097C137.065 75.5606 137.008 74.8506 136.757 74.0797ZM134.716 74.737C134.852 75.1528 134.883 75.5407 134.809 75.9006C134.736 76.2604 134.578 76.5689 134.336 76.826C134.105 77.0799 133.817 77.2624 133.471 77.3736C133.177 77.4684 132.863 77.4855 132.529 77.4249C132.202 77.3509 131.898 77.1912 131.616 76.9457C131.344 76.697 131.139 76.3597 131 75.9337C130.862 75.5077 130.829 75.1147 130.903 74.7549C130.986 74.3917 131.141 74.0899 131.365 73.8495C131.597 73.5957 131.86 73.4213 132.154 73.3265C132.499 73.2154 132.84 73.1951 133.178 73.2659C133.525 73.3333 133.834 73.4914 134.106 73.7401C134.378 73.9888 134.581 74.3211 134.716 74.737Z" fill="#6689F3"/>
<line x1="0.75" y1="-0.75" x2="25.6829" y2="-0.75" transform="matrix(0.309496 0.950901 -0.951858 0.306538 132.948 57.7109)" stroke="#6689F3" stroke-width="1.5" stroke-linecap="round"/>
<path d="M156.362 59.6596L149.167 73.6691M157.653 63.6283L153.157 72.3843" stroke="#6689F3" stroke-width="2" stroke-linecap="round"/>
<path d="M158.945 67.6043L157.146 71.1067" stroke="#6689F3" stroke-width="2" stroke-linecap="round"/>
<path d="M345.277 40.283L348.525 41.0183L348.683 39.8639L345.637 39.1742L345.277 40.283ZM347.493 37.9425L347.912 40.1323L347.775 40.4979L348.17 42.1837L349.855 42.5653L348.088 35.2998L343.386 41.1005L345.062 41.4801L346.182 40.0727L346.185 39.732L347.493 37.9425ZM353.834 40.2551L354.984 40.5155C355.412 40.6122 355.799 40.6385 356.148 40.5943C356.503 40.5456 356.8 40.4283 357.039 40.2424C357.283 40.0579 357.442 39.8047 357.514 39.4827C357.594 39.1315 357.562 38.82 357.421 38.548C357.286 38.2714 357.068 38.0405 356.765 37.855C356.47 37.6651 356.108 37.5218 355.681 37.4251L353.425 36.9143L352.04 43.06L354.445 43.6046C354.931 43.7146 355.365 43.7515 355.748 43.7152C356.133 43.6732 356.45 43.5481 356.7 43.3402C356.956 43.1335 357.13 42.8254 357.222 42.4156C357.292 42.1054 357.281 41.8261 357.19 41.5778C357.105 41.3249 356.965 41.1023 356.768 40.9102C356.573 40.7122 356.342 40.5492 356.076 40.4212C355.809 40.2932 355.527 40.1954 355.229 40.1279L353.929 39.8337L353.747 40.6414L354.88 40.8978C355.026 40.931 355.154 40.9754 355.265 41.0312C355.382 41.0824 355.481 41.1479 355.562 41.2276C355.642 41.3074 355.698 41.4 355.73 41.5056C355.761 41.6112 355.763 41.7283 355.734 41.8571C355.689 42.0561 355.606 42.2035 355.486 42.2994C355.374 42.3907 355.235 42.4455 355.071 42.4638C354.908 42.4761 354.73 42.4605 354.537 42.4167L353.782 42.2458L354.649 38.4003L355.264 38.5394C355.521 38.5977 355.708 38.6954 355.825 38.8326C355.942 38.9698 355.976 39.1437 355.929 39.3544C355.897 39.4949 355.838 39.6076 355.751 39.6925C355.666 39.7716 355.556 39.8236 355.421 39.8484C355.292 39.8746 355.143 39.8685 354.973 39.83L353.981 39.6054L353.834 40.2551ZM361.366 41.9421C361.452 41.5617 361.61 41.256 361.841 41.0252C362.071 40.7944 362.34 40.6399 362.646 40.5617C362.959 40.4848 363.282 40.4841 363.616 40.5597C363.908 40.6259 364.157 40.7223 364.362 40.8487C364.569 40.9693 364.745 41.1138 364.892 41.2824C365.04 41.445 365.165 41.6118 365.268 41.7828L365.628 40.1849C365.426 39.9361 365.191 39.723 364.924 39.5455C364.656 39.368 364.297 39.2283 363.846 39.1263C363.355 39.015 362.884 38.9884 362.434 39.0465C361.985 39.1046 361.578 39.2432 361.215 39.4625C360.852 39.6817 360.544 39.9688 360.292 40.3239C360.04 40.679 359.86 41.0965 359.751 41.5764C359.643 42.0564 359.627 42.511 359.702 42.9402C359.778 43.3695 359.932 43.7613 360.166 44.1157C360.4 44.4701 360.707 44.7704 361.089 45.0167C361.47 45.2629 361.906 45.4417 362.398 45.553C362.848 45.655 363.232 45.6836 363.55 45.6386C363.868 45.5936 364.171 45.5024 364.461 45.3649L364.821 43.767C364.654 43.877 364.47 43.9736 364.266 44.0568C364.063 44.1399 363.842 44.1944 363.602 44.2201C363.363 44.2459 363.097 44.2256 362.804 44.1593C362.471 44.0838 362.179 43.944 361.93 43.7399C361.687 43.5372 361.51 43.282 361.401 42.9743C361.294 42.6608 361.282 42.3167 361.366 41.9421ZM368.491 40.3256L367.105 46.4713L368.633 46.8172L370.018 40.6714L368.491 40.3256ZM369.3 46.9682C369.973 47.1206 370.584 47.1266 371.132 46.9862C371.68 46.8458 372.14 46.5778 372.512 46.1823C372.886 45.7808 373.143 45.2669 373.284 44.6407C373.427 44.0085 373.415 43.4337 373.249 42.9162C373.082 42.3987 372.782 41.9585 372.347 41.5955C371.912 41.2325 371.358 40.9748 370.685 40.8224L369.474 40.5482L369.177 41.8651L370.336 42.1275C370.57 42.1805 370.789 42.2607 370.992 42.3683C371.201 42.4772 371.372 42.6175 371.506 42.7892C371.645 42.9623 371.739 43.1742 371.787 43.425C371.836 43.6699 371.823 43.9592 371.748 44.2928C371.673 44.6265 371.56 44.8962 371.409 45.1019C371.259 45.3018 371.085 45.4498 370.884 45.546C370.69 45.6436 370.475 45.6964 370.24 45.7046C370.01 45.7141 369.778 45.6923 369.544 45.6393L368.385 45.377L368.089 46.6939L369.3 46.9682Z" fill="#6689F3"/>
<path d="M364.45 25.7085L360.461 24.8054C356.423 23.891 352.421 26.3801 351.523 30.3647C351.36 31.0891 351.823 31.8113 352.557 31.9775L368.51 35.5899C369.244 35.7561 369.972 35.3034 370.135 34.5791C371.034 30.5944 368.488 26.6228 364.45 25.7085ZM353.706 30.1696C354.617 27.6572 357.309 26.1597 360.018 26.7731L364.006 27.6762C366.713 28.2891 368.502 30.8032 368.248 33.4622L353.706 30.1696ZM362.899 23.2892C365.836 23.9542 368.747 22.1439 369.4 19.2461C370.053 16.3482 368.202 13.4597 365.265 12.7947C362.328 12.1297 359.417 13.94 358.764 16.8378C358.111 19.7361 359.962 22.6241 362.899 23.2892ZM364.821 14.7624C366.654 15.1774 367.813 16.9863 367.406 18.7945C366.998 20.6028 365.175 21.7364 363.343 21.3215C361.51 20.9065 360.351 19.0972 360.758 17.2894C361.166 15.4811 362.989 14.3476 364.821 14.7624Z" fill="#6689F3"/>
<path d="M344.807 32.5391L375.264 39.4354C375.479 39.4839 375.661 39.5445 375.802 39.6039L373.757 48.6756C373.604 48.6684 373.414 48.6447 373.199 48.5961L342.742 41.6999C342.528 41.6513 342.346 41.5907 342.205 41.5314L344.25 32.4596C344.403 32.4668 344.593 32.4905 344.807 32.5391Z" stroke="#6689F3" stroke-width="2" stroke-linecap="round" stroke-linejoin="round"/>
<path d="M218.119 16.5118L205.866 13.6281M208.87 33.6406L201.518 31.9104M200.353 12.3305L185.649 8.87005C184.634 8.63116 183.723 8.80956 183.613 9.26851L179.66 25.8888C179.551 26.3477 180.285 26.9134 181.3 27.1523L196.004 30.6128" stroke="#6689F3" stroke-width="3" stroke-linecap="round" stroke-linejoin="round"/>
<path d="M185.106 21.3714C185.149 21.1898 185.226 21.0496 185.336 20.9508C185.448 20.843 185.598 20.7776 185.785 20.7546C185.975 20.7226 186.206 20.7387 186.479 20.8028C186.815 20.8819 187.122 21.0022 187.401 21.1635C187.688 21.327 187.933 21.5284 188.135 21.7678L188.329 20.9506C188.264 20.8202 188.141 20.6714 187.96 20.5042C187.779 20.337 187.544 20.1762 187.255 20.0218C186.974 19.8695 186.634 19.7463 186.235 19.6522C185.453 19.4684 184.807 19.5032 184.296 19.7569C183.785 20.0105 183.457 20.4415 183.312 21.0498C183.21 21.4766 183.224 21.8633 183.353 22.21C183.492 22.5497 183.712 22.8363 184.011 23.0698C184.311 23.3033 184.656 23.466 185.047 23.5579C185.428 23.6477 185.808 23.6652 186.185 23.6102C186.572 23.5574 186.907 23.4204 187.19 23.1994C187.482 22.9804 187.675 22.6712 187.77 22.2717L187.746 21.4031C187.675 21.7028 187.546 21.9455 187.357 22.1314C187.171 22.3081 186.955 22.4299 186.709 22.4966C186.465 22.5543 186.207 22.551 185.935 22.4869C185.744 22.442 185.574 22.3685 185.426 22.2664C185.289 22.1575 185.19 22.0287 185.129 21.8802C185.071 21.7226 185.063 21.553 185.106 21.3714ZM185.031 18.6641C185.137 18.622 185.296 18.5779 185.508 18.532C185.72 18.4861 185.966 18.4624 186.245 18.4608C186.523 18.4593 186.808 18.4927 187.099 18.5611C187.289 18.606 187.458 18.6648 187.603 18.7375C187.749 18.8102 187.867 18.9002 187.957 19.0076C188.055 19.1171 188.117 19.2418 188.141 19.3818C188.167 19.5126 188.16 19.6643 188.119 19.8368L187.15 23.9092L188.854 24.3101L189.91 19.87C190.011 19.4432 189.979 19.0568 189.812 18.7106C189.647 18.3554 189.374 18.0514 188.992 17.7987C188.611 17.546 188.153 17.3566 187.617 17.2304C187.035 17.0936 186.489 17.0513 185.977 17.1035C185.468 17.1467 185.03 17.2161 184.662 17.3116L185.031 18.6641ZM194.345 14.384L192.573 13.9671L190.046 24.5907L191.818 25.0076L194.345 14.384ZM197.714 23.0874C197.88 22.3882 197.88 21.7649 197.713 21.2173C197.548 20.6607 197.264 20.2008 196.861 19.8375C196.467 19.4764 196.007 19.2338 195.48 19.1098C194.962 18.9879 194.467 19.0105 193.996 19.1776C193.533 19.3469 193.126 19.6488 192.773 20.0836C192.422 20.5092 192.166 21.0625 192.004 21.7435C191.844 22.4155 191.824 23.0244 191.944 23.5703C192.063 24.1162 192.292 24.5679 192.629 24.9253C192.975 25.2848 193.407 25.5255 193.925 25.6474C194.452 25.7714 194.973 25.7597 195.487 25.6124C196.011 25.4672 196.472 25.1826 196.87 24.7585C197.269 24.3345 197.55 23.7774 197.714 23.0874ZM195.888 22.6576C195.799 23.0299 195.645 23.334 195.426 23.5701C195.207 23.8062 194.948 23.9658 194.65 24.0491C194.361 24.1345 194.062 24.1409 193.754 24.0682C193.49 24.0062 193.247 23.8771 193.025 23.6811C192.815 23.478 192.66 23.2211 192.561 22.9102C192.472 22.6015 192.472 22.2564 192.563 21.875C192.653 21.4937 192.808 21.185 193.028 20.9489C193.256 20.715 193.509 20.5588 193.787 20.4803C194.076 20.3949 194.352 20.3832 194.615 20.4452C194.924 20.5179 195.189 20.6569 195.408 20.862C195.637 21.0693 195.797 21.3273 195.886 21.6361C195.976 21.9448 195.976 22.2853 195.888 22.6576Z" fill="#6689F3"/>
<line x1="0.75" y1="-0.75" x2="23.0536" y2="-0.75" transform="matrix(-0.2314 0.972859 -0.973406 -0.229087 202.77 10.3281)" stroke="#6689F3" stroke-width="1.5" stroke-linecap="round"/>
<g clip-path="url(#clip4_4807_750)">
<g clip-path="url(#clip5_4807_750)">
<path d="M229.167 23.2974C228.487 26.1585 225.585 27.9241 222.684 27.2415C219.784 26.5588 217.984 23.6868 218.665 20.8256C219.345 17.9649 222.248 16.1989 225.148 16.8815C228.049 17.5641 229.848 20.4366 229.167 23.2974ZM221.079 31.274L220.253 28.7205L224.191 29.6474L222.302 31.5617L222.476 36.8973L225.648 30.7551C228.699 31.9861 230.481 35.26 229.705 38.5218C229.542 39.2057 228.844 39.6309 228.15 39.4678L212.29 35.7353C211.594 35.5714 211.163 34.8802 211.326 34.1963C212.101 30.9345 215.169 28.8017 218.452 29.0616L218.521 35.9665L221.079 31.274Z" fill="#6689F3"/>
</g>
</g>
<defs>
<filter id="filter0_d_4807_750" x="0" y="0" width="404" height="99" filterUnits="userSpaceOnUse" color-interpolation-filters="sRGB">
<feFlood flood-opacity="0" result="BackgroundImageFix"/>
<feColorMatrix in="SourceAlpha" type="matrix" values="0 0 0 0 0 0 0 0 0 0 0 0 0 0 0 0 0 0 127 0" result="hardAlpha"/>
<feOffset dx="1" dy="2"/>
<feGaussianBlur stdDeviation="1.5"/>
<feComposite in2="hardAlpha" operator="out"/>
<feColorMatrix type="matrix" values="0 0 0 0 0 0 0 0 0 0 0 0 0 0 0 0 0 0 0.33 0"/>
<feBlend mode="normal" in2="BackgroundImageFix" result="effect1_dropShadow_4807_750"/>
<feBlend mode="normal" in="SourceGraphic" in2="effect1_dropShadow_4807_750" result="shape"/>
</filter>
<clipPath id="clip0_4807_750">
<rect width="37.5836" height="42.3293" fill="white" transform="matrix(0.921604 0.388131 -0.391639 0.920119 266.578 40)"/>
</clipPath>
<clipPath id="clip1_4807_750">
<rect width="28.9788" height="28.8614" fill="white" transform="matrix(0.940023 0.341112 -0.344321 0.938852 334.35 49)"/>
</clipPath>
<clipPath id="clip2_4807_750">
<rect width="16.4441" height="16.3611" fill="white" transform="matrix(0.978818 0.204732 -0.203168 0.979144 208.869 68.2578)"/>
</clipPath>
<clipPath id="clip3_4807_750">
<rect width="29.6976" height="29.5903" fill="white" transform="matrix(0.998634 0.0522544 -0.0561275 0.998424 291.661 4)"/>
</clipPath>
<clipPath id="clip4_4807_750">
<rect width="18.8817" height="21.298" fill="white" transform="matrix(0.973406 0.229087 -0.2314 0.972859 215.958 14.7188)"/>
</clipPath>
<clipPath id="clip5_4807_750">
<rect width="18.8817" height="21.298" fill="white" transform="matrix(0.973406 0.229087 -0.2314 0.972859 215.958 14.7188)"/>
</clipPath>
</defs>
</svg>
