<svg width="20" height="19" viewBox="0 0 20 19" fill="none" xmlns="http://www.w3.org/2000/svg">
<g clip-path="url(#clip0_5030_2025)">
<path d="M18.5168 15.3684C19.2237 16.0642 19.2237 17.1914 18.5168 17.8872C18.1662 18.2351 17.7025 18.4076 17.2388 18.4076C16.7751 18.4076 16.3126 18.2337 15.9597 17.8858L10.0007 12.023L4.04232 17.8844C3.6889 18.2351 3.22577 18.4076 2.76265 18.4076C2.29952 18.4076 1.83696 18.2351 1.48326 17.8844C0.776414 17.1886 0.776414 16.0614 1.48326 15.3656L7.44338 9.49861L1.48326 3.6344C0.776414 2.9386 0.776414 1.8114 1.48326 1.1156C2.1901 0.4198 3.33519 0.4198 4.04204 1.1156L10.0007 6.98538L15.9609 1.11838C16.6677 0.422583 17.8128 0.422583 18.5196 1.11838C19.2265 1.81418 19.2265 2.94138 18.5196 3.63718L12.5595 9.50417L18.5168 15.3684Z" fill="#FA8686"/>
</g>
<defs>
<clipPath id="clip0_5030_2025">
<rect width="20" height="19" fill="white"/>
</clipPath>
</defs>
</svg>
