<svg width="31" height="33" viewBox="0 0 31 33" fill="none" xmlns="http://www.w3.org/2000/svg">
<g clip-path="url(#clip0_5675_2254)">
<path d="M17.5988 9.2668C17.6516 9.45664 17.8309 9.59375 18.0312 9.59375C18.2316 9.59375 18.4057 9.46191 18.4637 9.2668L19.0438 7.23125L21.0793 6.65117C21.2691 6.59844 21.4062 6.41914 21.4062 6.21875C21.4062 6.01836 21.2744 5.84434 21.0793 5.78633L19.0438 5.20625L18.4637 3.1707C18.4109 2.98086 18.2316 2.84375 18.0312 2.84375C17.8309 2.84375 17.6568 2.97559 17.5988 3.1707L17.0187 5.20625L14.9832 5.78633C14.7934 5.83906 14.6562 6.01836 14.6562 6.21875C14.6562 6.41914 14.7881 6.59316 14.9832 6.65117L17.0187 7.23125L17.5988 9.2668ZM23.2941 18.3898C23.3785 18.6799 23.6422 18.875 23.9375 18.875C24.2328 18.875 24.5018 18.6746 24.5809 18.3898L25.4562 15.3313L28.5148 14.4559C28.8049 14.3715 29 14.1078 29 13.8125C29 13.5172 28.7996 13.2482 28.5148 13.1691L25.4562 12.2937L24.5809 9.23516C24.4965 8.94512 24.2328 8.75 23.9375 8.75C23.6422 8.75 23.3732 8.95039 23.2941 9.23516L22.4188 12.2937L19.3602 13.1691C19.0701 13.2535 18.875 13.5172 18.875 13.8125C18.875 14.1078 19.0754 14.3768 19.3602 14.4559L22.4188 15.3313L23.2941 18.3898ZM4.53125 18.875C4.53125 15.1836 7.16797 12.1092 10.659 11.4236C9.46719 12.8791 8.75 14.7354 8.75 16.7656C8.75 21.1531 12.0986 24.7602 16.3807 25.1662C15.1678 25.9889 13.7018 26.4688 12.125 26.4688C7.93262 26.4688 4.53125 23.0674 4.53125 18.875ZM12.125 8.75C6.53516 8.75 2 13.2852 2 18.875C2 24.4648 6.53516 29 12.125 29C15.7848 29 18.991 27.0541 20.7682 24.1484C21.0477 23.6896 21.0107 23.099 20.6627 22.6824C20.3146 22.2658 19.7504 22.1129 19.2441 22.3027C18.6061 22.54 17.91 22.6719 17.1822 22.6719C13.918 22.6719 11.276 20.0299 11.276 16.7656C11.276 14.3926 12.6787 12.3412 14.7037 11.4025C15.1941 11.1758 15.4842 10.6643 15.4314 10.1264C15.3787 9.58848 14.9885 9.14551 14.4664 9.02422C13.7123 8.84492 12.9266 8.75 12.125 8.75Z" fill="#0069DE"/>
</g>
<defs>
<clipPath id="clip0_5675_2254">
<rect width="27" height="27" fill="white" transform="translate(2 2)"/>
</clipPath>
</defs>
</svg>
