<svg width="19" height="19" viewBox="0 0 19 19" fill="none" xmlns="http://www.w3.org/2000/svg">
<path d="M2.94531 5.18262H4.44531H16.4453" stroke="black" stroke-width="1.2" stroke-linecap="round" stroke-linejoin="round"/>
<path d="M6.69531 5.18262V3.68262C6.69531 3.28479 6.85335 2.90326 7.13465 2.62196C7.41596 2.34065 7.79749 2.18262 8.19531 2.18262H11.1953C11.5931 2.18262 11.9747 2.34065 12.256 2.62196C12.5373 2.90326 12.6953 3.28479 12.6953 3.68262V5.18262M14.9453 5.18262V15.6826C14.9453 16.0804 14.7873 16.462 14.506 16.7433C14.2247 17.0246 13.8431 17.1826 13.4453 17.1826H5.94531C5.54749 17.1826 5.16596 17.0246 4.88465 16.7433C4.60335 16.462 4.44531 16.0804 4.44531 15.6826V5.18262H14.9453Z" stroke="black" stroke-width="1.2" stroke-linecap="round" stroke-linejoin="round"/>
<path d="M8.19531 8.93262V13.4326" stroke="black" stroke-width="1.2" stroke-linecap="round" stroke-linejoin="round"/>
<path d="M11.1953 8.93262V13.4326" stroke="black" stroke-width="1.2" stroke-linecap="round" stroke-linejoin="round"/>
</svg>
