<svg width="29" height="29" viewBox="0 0 29 29" fill="none" xmlns="http://www.w3.org/2000/svg">
<path d="M19.0325 25.3743H6.34497C6.10462 25.3743 5.87411 25.2788 5.70416 25.1088C5.5342 24.9389 5.43872 24.7084 5.43872 24.468V8.15552C5.43872 7.91517 5.5342 7.68466 5.70416 7.5147C5.87411 7.34475 6.10462 7.24927 6.34497 7.24927H15.4075L19.9387 11.7805V24.468C19.9387 24.7084 19.8432 24.9389 19.6733 25.1088C19.5033 25.2788 19.2728 25.3743 19.0325 25.3743Z" stroke="#0069DE" stroke-width="1.5" stroke-linecap="round" stroke-linejoin="round"/>
<path d="M9.06323 7.25073V4.53198C9.06323 4.29163 9.15871 4.06112 9.32867 3.89117C9.49862 3.72121 9.72913 3.62573 9.96948 3.62573H19.032L23.5632 8.15698V20.8445C23.5632 21.0848 23.4678 21.3153 23.2978 21.4853C23.1278 21.6553 22.8973 21.7507 22.657 21.7507H19.9382" stroke="#0069DE" stroke-width="1.5" stroke-linecap="round" stroke-linejoin="round"/>
<path d="M9.96826 17.2179H15.4058" stroke="#0069DE" stroke-width="1.5" stroke-linecap="round" stroke-linejoin="round"/>
<path d="M9.96826 20.8436H15.4058" stroke="#0069DE" stroke-width="1.5" stroke-linecap="round" stroke-linejoin="round"/>
</svg>
