<svg width="27" height="27" viewBox="0 0 27 27" fill="none" xmlns="http://www.w3.org/2000/svg">
<g clip-path="url(#clip0_2489_736)">
<path d="M24.6185 21.3361L24.6185 18.0536C24.6185 17.1458 23.8851 16.4124 22.9773 16.4124C22.0695 16.4124 21.3361 17.1458 21.3361 18.0536L21.3361 21.3361C21.3361 22.2423 20.6011 22.9773 19.6948 22.9773L6.56494 22.9773C5.65867 22.9773 4.92371 22.2423 4.92371 21.3361L4.92371 18.0536C4.92371 17.1458 4.18874 16.4124 3.28247 16.4124C2.3762 16.4124 1.64123 17.1458 1.64123 18.0536L1.64124 21.3361C1.64124 24.0554 3.84562 26.2598 6.56494 26.2598L19.6948 26.2598C22.4131 26.2598 24.6185 24.0554 24.6185 21.3361ZM12.2323 17.6803L5.25708 10.2896C4.9197 9.93188 4.82754 9.40745 5.02146 8.95611C5.2162 8.50462 5.66103 8.21191 6.15237 8.21191L9.84515 8.20721L9.8451 1.64227C9.8451 0.73497 10.5801 5.02292e-06 11.4863 4.98331e-06L14.7688 4.83983e-06C15.6751 4.80022e-06 16.41 0.735483 16.41 1.64227L16.4101 8.2072L20.0567 8.21191C20.548 8.21191 20.9927 8.50462 21.1876 8.95611C21.3815 9.4076 21.2894 9.93213 20.952 10.2896L13.9768 17.6803C13.5607 18.1727 12.6991 18.1727 12.2323 17.6803Z" fill="#0069DE"/>
</g>
<defs>
<clipPath id="clip0_2489_736">
<rect width="26.2598" height="26.2598" fill="white" transform="translate(0 26.2598) rotate(-90)"/>
</clipPath>
</defs>
</svg>
