<svg width="27" height="27" viewBox="0 0 27 27" fill="none" xmlns="http://www.w3.org/2000/svg">
<path d="M7.875 23.9105L24.75 7.03553C25.0783 6.70723 25.3387 6.31747 25.5164 5.88852C25.6941 5.45957 25.7855 4.99983 25.7855 4.53553C25.7855 4.07124 25.6941 3.61149 25.5164 3.18254C25.3387 2.75359 25.0783 2.36384 24.75 2.03553C24.4217 1.70723 24.0319 1.4468 23.603 1.26913C23.174 1.09145 22.7143 1 22.25 1C21.7857 1 21.326 1.09145 20.897 1.26913C20.4681 1.4468 20.0783 1.70723 19.75 2.03553L2.875 18.9105M7.875 23.9105L1 25.7855L2.875 18.9105M7.875 23.9105L2.875 18.9105" stroke="black" stroke-width="2" stroke-linecap="round" stroke-linejoin="round"/>
</svg>
