<svg width="30" height="29" viewBox="0 0 30 29" fill="none" xmlns="http://www.w3.org/2000/svg">
<path d="M2 7.41163C2 5.45388 3.45488 3.86719 5.25 3.86719H24.75C26.5426 3.86719 28 5.45388 28 7.41163V21.5894C28 23.5444 26.5426 25.1339 24.75 25.1339H5.25C3.45488 25.1339 2 23.5444 2 21.5894V7.41163ZM4.4375 7.41163V8.63557L13.1973 16.4777C14.2434 17.4191 15.7566 17.4191 16.8027 16.4777L25.5625 8.63557V7.36179C25.5625 6.92427 25.1969 6.47568 24.75 6.47568H5.25C4.80109 6.47568 4.4375 6.92427 4.4375 7.36179V7.41163ZM4.4375 12.0748V21.5894C4.4375 22.0768 4.80109 22.4755 5.25 22.4755H24.75C25.1969 22.4755 25.5625 22.0768 25.5625 21.5894V12.0748L18.3516 18.5323C16.4016 20.2769 13.5984 20.2769 11.6027 18.5323L4.4375 12.0748Z" fill="#0069DE"/>
</svg>
