<svg width="182" height="173" viewBox="0 0 182 173" fill="none" xmlns="http://www.w3.org/2000/svg">
<g clip-path="url(#clip0_6098_1438)">
<path d="M93.1038 151.875H30.4286C19.2239 151.875 10.1429 142.81 10.1429 131.625V35.4375C10.1429 32.6531 7.87339 30.375 5.07143 30.375C2.26946 30.375 0 32.6531 0 35.4375V131.625C0 148.401 13.6231 162 30.4286 162H93.1038C95.9045 162 98.1752 159.733 98.1752 156.938C98.1752 154.142 95.8931 151.875 93.1038 151.875Z" fill="black"/>
<path d="M105.829 5.94527L135.785 35.8488C139.588 39.6457 141.712 44.7715 141.712 50.1504V82.2044C141.712 85.0053 139.441 87.2758 136.641 87.2758C133.84 87.2758 131.569 85.0053 131.569 82.2044V50.625H106.212C97.8125 50.625 90.9978 43.8223 90.9978 35.4375V10.125H50.4263C44.8351 10.125 40.2835 14.6686 40.2835 20.25V111.375C40.2835 116.956 44.8351 121.5 50.4263 121.5H92.2522C95.0475 121.5 97.3138 123.766 97.3147 126.561C97.3155 129.357 95.0487 131.625 92.2522 131.625H50.4294C39.2248 131.625 30.1437 122.56 30.1437 111.375L30.1406 20.25C30.1406 9.06504 39.2375 0 50.4263 0H91.4732C96.8616 0 101.996 2.13321 105.829 5.94527Z" fill="black"/>
</g>
<g clip-path="url(#clip1_6098_1438)">
<path d="M142 93C119.906 93 102 110.906 102 133C102 155.094 119.906 173 142 173C164.094 173 182 155.094 182 133C182 110.906 164.094 93 142 93ZM138.25 116.75C138.25 114.688 139.938 113 142 113C144.062 113 145.75 114.68 145.75 116.75V136.75C145.75 138.82 144.07 140.5 142 140.5C139.93 140.5 138.25 138.828 138.25 136.75V116.75ZM142 155.5C139.287 155.5 137.087 153.3 137.087 150.587C137.087 147.875 139.286 145.675 142 145.675C144.714 145.675 146.913 147.875 146.913 150.587C146.906 153.297 144.719 155.5 142 155.5Z" fill="black"/>
</g>
<defs>
<clipPath id="clip0_6098_1438">
<rect width="142" height="162" fill="white"/>
</clipPath>
<clipPath id="clip1_6098_1438">
<rect width="80" height="80" fill="white" transform="translate(102 93)"/>
</clipPath>
</defs>
</svg>
