<svg width="745" height="745" viewBox="0 0 745 745" fill="none" xmlns="http://www.w3.org/2000/svg">
<path d="M708.866 436.283C746.155 329.502 708.866 222.83 614.947 333.826C390.036 599.628 337.457 -71.7342 156.372 91.4552C32.2376 203.322 21.1789 425.745 156.373 560.94C290.497 713.774 614.947 705.235 708.866 436.283Z" fill="#DDEDFF"/>
<g filter="url(#filter0_d_3071_905)">
<path d="M357.122 200.1L28.6447 304.407C19.209 307.404 17.251 319.889 25.3165 325.629L403.482 594.767C407.173 597.394 412.028 597.72 416.037 595.609L676.765 458.323C714.99 438.733 714.22 429.731 692.569 409.818C646.017 367.005 605.098 342.192 591.405 329.599C571.913 311.672 550.787 326.223 528.936 337.444C524.577 339.683 519.323 338.791 515.771 335.416L378.549 205.03C372.839 199.605 364.629 197.716 357.122 200.1Z" fill="black"/>
<path d="M93.3181 315.299C90.2771 313.013 90.975 308.267 94.5452 306.953L357.06 210.359C358.624 209.784 360.373 210.06 361.683 211.089L658.914 444.442C661.713 446.639 661.233 451.012 658.024 452.55L427.338 563.141C425.723 563.916 423.81 563.726 422.378 562.65L93.3181 315.299Z" fill="white"/>
<path fill-rule="evenodd" clip-rule="evenodd" d="M357.475 211.486L94.9597 308.08C92.282 309.065 91.7586 312.625 94.0394 314.339L423.099 561.69C424.173 562.498 425.608 562.64 426.819 562.059L657.505 451.467C659.912 450.314 660.272 447.034 658.172 445.386L360.942 212.033C359.959 211.261 358.647 211.054 357.475 211.486ZM94.5452 306.953C90.975 308.267 90.2771 313.013 93.3181 315.299L422.378 562.65C423.81 563.726 425.723 563.916 427.338 563.141L658.024 452.55C661.233 451.012 661.713 446.639 658.914 444.442L361.683 211.089C360.373 210.06 358.624 209.784 357.06 210.359L94.5452 306.953Z" fill="#D6D6D6"/>
<path d="M321.03 200.902L27.4867 304.04C18.3246 307.259 16.5614 319.462 24.451 325.124L399.632 594.358C403.24 596.947 407.907 597.374 411.859 595.347C456.129 572.647 608.044 490.037 658.073 461.291C710.89 430.944 706.965 436.455 674.256 407.75C647.892 384.614 602.1 348.629 579.468 336.246C538.215 313.674 538.065 321.87 510.764 334.655C506.777 336.522 502.083 335.846 498.648 333.093L337.144 203.635C332.616 200.005 326.506 198.978 321.03 200.902Z" fill="#7C9CFF"/>
<path fill-rule="evenodd" clip-rule="evenodd" d="M321.826 203.167L28.2826 306.305C20.9474 308.882 19.5442 318.648 25.851 323.173L401.032 592.407C403.938 594.492 407.644 594.811 410.764 593.211C454.997 570.529 606.879 487.937 656.877 459.21C660.324 457.229 663.521 455.406 666.479 453.719C674.905 448.913 681.389 445.216 686.187 442.138C689.423 440.063 691.774 438.344 693.386 436.832C695.014 435.306 695.69 434.173 695.91 433.311C696.104 432.554 696.022 431.699 695.339 430.473C694.617 429.178 693.313 427.64 691.287 425.687C688.931 423.415 685.89 420.844 682.15 417.682C679.377 415.338 676.22 412.668 672.672 409.555C646.318 386.427 600.696 350.597 578.315 338.352C557.619 327.028 547.887 323.836 540.113 324.582C536.246 324.953 532.692 326.317 528.276 328.49C526.686 329.272 524.932 330.189 523.007 331.195C519.764 332.889 516.035 334.838 511.782 336.829C506.921 339.106 501.255 338.26 497.146 334.966L335.642 205.508C331.765 202.4 326.524 201.517 321.826 203.167ZM27.4867 304.04L321.03 200.902C326.506 198.978 332.616 200.005 337.144 203.635L498.648 333.093C502.083 335.846 506.777 336.522 510.764 334.655C515.005 332.669 518.59 330.794 521.776 329.128C539.103 320.066 544.622 317.18 579.468 336.246C602.1 348.629 647.892 384.614 674.256 407.75C689.58 421.199 698.587 427.137 698.4 432.771C698.188 439.162 686.145 445.162 658.073 461.291C608.044 490.037 456.129 572.647 411.859 595.347C407.907 597.374 403.24 596.947 399.632 594.358L24.451 325.124C16.5614 319.462 18.3246 307.259 27.4867 304.04Z" fill="#0069DE"/>
<path d="M23.444 325.86C15.4028 320.104 17.3794 307.64 26.8069 304.654L55.3028 295.627L437.075 582.181L414.709 596.585C410.57 599.251 405.223 599.119 401.22 596.254L23.444 325.86Z" fill="#0069DE"/>
</g>
<g filter="url(#filter1_d_3071_905)">
<path d="M127.163 328.469C124.064 326.099 124.935 321.219 128.662 320.067L401.644 235.686C403.04 235.255 404.556 235.483 405.764 236.305L695.295 433.493C698.306 435.544 698.026 440.07 694.786 441.735L446.488 569.274C444.839 570.121 442.85 569.943 441.377 568.816L127.163 328.469Z" fill="white"/>
</g>
<g filter="url(#filter2_d_3071_905)">
<path fill-rule="evenodd" clip-rule="evenodd" d="M401.998 236.834L129.017 321.214C126.221 322.078 125.568 325.738 127.892 327.516L442.107 567.863C443.211 568.707 444.703 568.841 445.94 568.206L694.237 440.667C696.668 439.418 696.877 436.024 694.619 434.486L405.088 237.298C404.183 236.681 403.045 236.51 401.998 236.834ZM128.662 320.067C124.935 321.219 124.064 326.099 127.163 328.469L441.377 568.816C442.85 569.943 444.839 570.121 446.488 569.274L694.786 441.735C698.026 440.07 698.306 435.544 695.295 433.493L405.764 236.305C404.556 235.483 403.04 235.255 401.644 235.686L128.662 320.067Z" fill="#D6D6D6"/>
</g>
<g filter="url(#filter3_d_3071_905)">
<path d="M159.137 302.08C156.269 299.436 157.583 294.655 161.4 293.849L440.96 234.819C442.39 234.517 443.879 234.883 445.007 235.812L715.266 458.682C718.077 461 717.384 465.482 714.005 466.842L455.073 571.111C453.353 571.803 451.388 571.444 450.025 570.187L159.137 302.08Z" fill="white"/>
</g>
<g filter="url(#filter4_d_3071_905)">
<path fill-rule="evenodd" clip-rule="evenodd" d="M441.208 235.993L161.648 295.024C158.785 295.629 157.799 299.214 159.951 301.197L450.839 569.304C451.861 570.247 453.334 570.516 454.624 569.997L713.556 465.729C716.091 464.708 716.611 461.347 714.503 459.609L444.243 236.739C443.398 236.041 442.281 235.767 441.208 235.993ZM161.4 293.849C157.583 294.655 156.269 299.436 159.137 302.08L450.025 570.187C451.388 571.444 453.353 571.803 455.073 571.111L714.005 466.842C717.384 465.482 718.077 461 715.266 458.682L445.007 235.812C443.879 234.883 442.39 234.517 440.96 234.819L161.4 293.849Z" fill="#D6D6D6"/>
</g>
<path d="M213.668 311.976C210.702 309.381 211.953 304.514 215.803 303.671L276.419 290.392C280.739 289.446 285.253 290.536 288.665 293.35L348.27 342.503C351.283 344.987 350.228 349.838 346.456 350.847L286.208 366.967C281.569 368.208 276.615 367.055 273.001 363.892L213.668 311.976Z" fill="#AED4FF"/>
<path fill-rule="evenodd" clip-rule="evenodd" d="M434.962 263.466C435.22 264.441 434.657 265.417 433.704 265.645L307.997 295.753C307.044 295.981 306.062 295.376 305.804 294.401C305.545 293.425 306.109 292.45 307.062 292.222L432.769 262.113C433.722 261.885 434.704 262.491 434.962 263.466Z" fill="#C6D2F8"/>
<path fill-rule="evenodd" clip-rule="evenodd" d="M463.469 282.869C463.727 283.844 463.164 284.82 462.211 285.048L336.504 315.156C335.551 315.385 334.569 314.779 334.311 313.804C334.052 312.829 334.616 311.853 335.569 311.625L461.276 281.517C462.229 281.288 463.211 281.894 463.469 282.869Z" fill="#C6D2F8"/>
<path fill-rule="evenodd" clip-rule="evenodd" d="M495.023 302.972C495.265 303.937 494.679 304.915 493.714 305.158L369.572 336.366C368.608 336.608 367.63 336.023 367.388 335.059C367.146 334.094 367.732 333.116 368.697 332.873L492.839 301.665C493.804 301.422 494.782 302.008 495.023 302.972Z" fill="#C6D2F8"/>
<path fill-rule="evenodd" clip-rule="evenodd" d="M519.442 324.384C519.698 325.345 519.127 326.332 518.167 326.59L300.709 384.846C299.749 385.104 298.762 384.534 298.505 383.573C298.248 382.612 298.819 381.625 299.78 381.367L517.237 323.111C518.198 322.854 519.185 323.424 519.442 324.384Z" fill="#C6D2F8"/>
<path fill-rule="evenodd" clip-rule="evenodd" d="M550.509 344.643C550.774 345.601 550.212 346.594 549.254 346.861L332.345 407.306C331.386 407.573 330.394 407.013 330.129 406.055C329.863 405.097 330.425 404.103 331.384 403.836L548.293 343.392C549.251 343.125 550.243 343.685 550.509 344.643Z" fill="#C6D2F8"/>
<path fill-rule="evenodd" clip-rule="evenodd" d="M578.307 369.186C578.577 370.143 578.019 371.139 577.061 371.41L360.388 432.769C359.431 433.04 358.436 432.484 358.167 431.527C357.898 430.57 358.456 429.575 359.413 429.304L576.087 367.945C577.044 367.674 578.038 368.23 578.307 369.186Z" fill="#C6D2F8"/>
<path fill-rule="evenodd" clip-rule="evenodd" d="M605.317 390.89C605.613 391.838 605.083 392.85 604.133 393.15L389.25 461.03C388.301 461.33 387.291 460.804 386.996 459.856C386.7 458.907 387.231 457.895 388.18 457.595L603.063 389.715C604.013 389.415 605.022 389.941 605.317 390.89Z" fill="#C6D2F8"/>
<path fill-rule="evenodd" clip-rule="evenodd" d="M632.579 417.203C632.892 418.145 632.382 419.168 631.439 419.488L417.917 491.902C416.974 492.222 415.955 491.718 415.641 490.776C415.327 489.834 415.837 488.811 416.781 488.491L630.303 416.076C631.246 415.756 632.265 416.261 632.579 417.203Z" fill="#C6D2F8"/>
<path fill-rule="evenodd" clip-rule="evenodd" d="M661.283 442.013C661.63 442.942 661.157 443.985 660.226 444.341L449.432 525.006C448.501 525.362 447.465 524.897 447.119 523.968C446.772 523.038 447.245 521.996 448.176 521.639L658.969 440.974C659.9 440.618 660.936 441.083 661.283 442.013Z" fill="#C6D2F8"/>
<g filter="url(#filter5_d_3071_905)">
<path d="M515.641 241.6C517.308 235.432 584.904 226.342 608.298 225.718C613.155 225.589 617.63 227.383 621.653 230.108C630.675 236.22 647.286 248.045 654.433 256.839C656.049 274.644 651.964 299.173 649.321 312.484C648.173 318.264 643.453 322.57 637.622 323.42L559.073 334.877C547.361 337.537 544.044 315.75 516.5 327.384C511.643 343.763 493.299 335.874 488.366 328.805C480.156 317.043 473.811 300.147 475.952 280.651C477.848 263.383 492.945 261.094 503.937 270.193C511.394 269.884 511.889 244.57 515.641 241.6Z" fill="black"/>
<path fill-rule="evenodd" clip-rule="evenodd" d="M505.922 269.525C506.39 269.056 507.15 269.055 507.62 269.523C518.256 280.131 524.753 298.018 520.229 325.21C520.12 325.864 519.502 326.306 518.848 326.198C518.194 326.089 517.752 325.47 517.86 324.816C522.292 298.177 515.874 281.147 505.924 271.223C505.455 270.755 505.454 269.995 505.922 269.525Z" fill="#C6D2F8"/>
<path d="M603.952 229.865C584.238 230.932 527.085 240.433 525.716 245.584C535.108 260.628 557.712 271.34 564.296 274.221C565.483 274.74 566.783 274.817 568.035 274.482C577.142 272.042 616.718 261.489 641.622 255.636C635.873 248.358 622.544 238.606 615.187 233.491C611.819 231.15 608.048 229.643 603.952 229.865Z" fill="#7C9CFF"/>
<path d="M642.201 309.843C644.423 298.635 647.874 277.911 646.528 262.877C621.609 268.559 582.935 276.963 572.297 279.269C570.615 279.634 569.381 281.027 569.193 282.738L564.146 328.708L632.412 318.97C637.29 318.274 641.243 314.677 642.201 309.843Z" fill="#7C9CFF"/>
<path d="M484.25 288.28C485.474 277.13 494.859 275.613 501.662 281.456C507.571 286.531 513.803 302.808 509.313 318.33C506.251 328.914 494.878 323.872 491.832 319.323C486.764 311.754 482.868 300.867 484.25 288.28Z" fill="#7C9CFF"/>
</g>
<g filter="url(#filter6_d_3071_905)">
<path d="M417.294 357.096C419.481 340.839 458.026 333.131 463.621 330.893C475.627 326.091 474.426 324.328 479.228 317.684C487.034 306.882 502.67 313.917 510.084 314.738C510.084 316.545 510.084 318.352 508.277 320.159C488.217 322.747 496.036 331.561 496.036 335.695C496.036 338.096 494.835 339.296 490.033 339.296C452.337 339.296 545.183 353.009 492.914 366.436C440.645 379.863 465.914 375.999 517.784 389.777C569.655 403.554 579.409 403.358 516.978 413.827C454.547 424.295 537.456 452.825 601.131 466.475C664.806 480.125 644.227 512.41 553.899 482.688C463.57 452.965 451.309 474.958 355.86 460.243C279.501 448.471 321.67 434.322 352.299 428.719C396.554 424.794 473.683 416.667 428.16 415.56C382.638 414.452 337.573 408.859 320.731 406.201C277.227 393.855 303.131 385.372 321.52 382.673C352.534 380.922 415.107 373.354 417.294 357.096Z" fill="#0052CC"/>
</g>
<g filter="url(#filter7_i_3071_905)">
<path d="M365.524 385.209C325.77 386.414 268.668 392.076 358.296 405.086C287.461 393.521 333.6 387.016 365.524 385.209Z" fill="#8DA9FF"/>
</g>
<g filter="url(#filter8_i_3071_905)">
<path d="M329.188 449.439C317.703 446.623 314.771 443.573 329.163 438.939C315.966 441.242 313.549 445.928 319.559 449.442C333.965 457.862 399.994 466.549 467.255 463.752C383.186 461.749 367.619 458.862 329.188 449.439Z" fill="#8DA9FF"/>
</g>
<g filter="url(#filter9_i_3071_905)">
<path d="M606.213 489.188C579.645 484.026 662.432 491.814 610.056 471.862C644.396 484.309 632.781 494.351 606.213 489.188Z" fill="#8DA9FF"/>
</g>
<defs>
<filter id="filter0_d_3071_905" x="16.4229" y="198.086" width="693.056" height="403.412" filterUnits="userSpaceOnUse" color-interpolation-filters="sRGB">
<feFlood flood-opacity="0" result="BackgroundImageFix"/>
<feColorMatrix in="SourceAlpha" type="matrix" values="0 0 0 0 0 0 0 0 0 0 0 0 0 0 0 0 0 0 127 0" result="hardAlpha"/>
<feOffset dy="1"/>
<feGaussianBlur stdDeviation="1"/>
<feComposite in2="hardAlpha" operator="out"/>
<feColorMatrix type="matrix" values="0 0 0 0 0 0 0 0 0 0 0 0 0 0 0 0 0 0 0.3 0"/>
<feBlend mode="normal" in2="BackgroundImageFix" result="effect1_dropShadow_3071_905"/>
<feBlend mode="normal" in="SourceGraphic" in2="effect1_dropShadow_3071_905" result="shape"/>
</filter>
<filter id="filter1_d_3071_905" x="123.277" y="234.472" width="576.117" height="338.332" filterUnits="userSpaceOnUse" color-interpolation-filters="sRGB">
<feFlood flood-opacity="0" result="BackgroundImageFix"/>
<feColorMatrix in="SourceAlpha" type="matrix" values="0 0 0 0 0 0 0 0 0 0 0 0 0 0 0 0 0 0 127 0" result="hardAlpha"/>
<feOffset dy="1"/>
<feGaussianBlur stdDeviation="1"/>
<feComposite in2="hardAlpha" operator="out"/>
<feColorMatrix type="matrix" values="0 0 0 0 0 0 0 0 0 0 0 0 0 0 0 0 0 0 0.27 0"/>
<feBlend mode="normal" in2="BackgroundImageFix" result="effect1_dropShadow_3071_905"/>
<feBlend mode="normal" in="SourceGraphic" in2="effect1_dropShadow_3071_905" result="shape"/>
</filter>
<filter id="filter2_d_3071_905" x="123.277" y="234.472" width="576.117" height="338.332" filterUnits="userSpaceOnUse" color-interpolation-filters="sRGB">
<feFlood flood-opacity="0" result="BackgroundImageFix"/>
<feColorMatrix in="SourceAlpha" type="matrix" values="0 0 0 0 0 0 0 0 0 0 0 0 0 0 0 0 0 0 127 0" result="hardAlpha"/>
<feOffset dy="1"/>
<feGaussianBlur stdDeviation="1"/>
<feComposite in2="hardAlpha" operator="out"/>
<feColorMatrix type="matrix" values="0 0 0 0 0 0 0 0 0 0 0 0 0 0 0 0 0 0 0.27 0"/>
<feBlend mode="normal" in2="BackgroundImageFix" result="effect1_dropShadow_3071_905"/>
<feBlend mode="normal" in="SourceGraphic" in2="effect1_dropShadow_3071_905" result="shape"/>
</filter>
<filter id="filter3_d_3071_905" x="155.586" y="233.715" width="563.428" height="340.743" filterUnits="userSpaceOnUse" color-interpolation-filters="sRGB">
<feFlood flood-opacity="0" result="BackgroundImageFix"/>
<feColorMatrix in="SourceAlpha" type="matrix" values="0 0 0 0 0 0 0 0 0 0 0 0 0 0 0 0 0 0 127 0" result="hardAlpha"/>
<feOffset dy="1"/>
<feGaussianBlur stdDeviation="1"/>
<feComposite in2="hardAlpha" operator="out"/>
<feColorMatrix type="matrix" values="0 0 0 0 0 0 0 0 0 0 0 0 0 0 0 0 0 0 0.25 0"/>
<feBlend mode="normal" in2="BackgroundImageFix" result="effect1_dropShadow_3071_905"/>
<feBlend mode="normal" in="SourceGraphic" in2="effect1_dropShadow_3071_905" result="shape"/>
</filter>
<filter id="filter4_d_3071_905" x="155.586" y="233.715" width="563.428" height="340.743" filterUnits="userSpaceOnUse" color-interpolation-filters="sRGB">
<feFlood flood-opacity="0" result="BackgroundImageFix"/>
<feColorMatrix in="SourceAlpha" type="matrix" values="0 0 0 0 0 0 0 0 0 0 0 0 0 0 0 0 0 0 127 0" result="hardAlpha"/>
<feOffset dy="1"/>
<feGaussianBlur stdDeviation="1"/>
<feComposite in2="hardAlpha" operator="out"/>
<feColorMatrix type="matrix" values="0 0 0 0 0 0 0 0 0 0 0 0 0 0 0 0 0 0 0.25 0"/>
<feBlend mode="normal" in2="BackgroundImageFix" result="effect1_dropShadow_3071_905"/>
<feBlend mode="normal" in="SourceGraphic" in2="effect1_dropShadow_3071_905" result="shape"/>
</filter>
<filter id="filter5_d_3071_905" x="473.532" y="224.712" width="183.268" height="115.335" filterUnits="userSpaceOnUse" color-interpolation-filters="sRGB">
<feFlood flood-opacity="0" result="BackgroundImageFix"/>
<feColorMatrix in="SourceAlpha" type="matrix" values="0 0 0 0 0 0 0 0 0 0 0 0 0 0 0 0 0 0 127 0" result="hardAlpha"/>
<feOffset dy="1"/>
<feGaussianBlur stdDeviation="1"/>
<feComposite in2="hardAlpha" operator="out"/>
<feColorMatrix type="matrix" values="0 0 0 0 0 0 0 0 0 0 0 0 0 0 0 0 0 0 0.18 0"/>
<feBlend mode="normal" in2="BackgroundImageFix" result="effect1_dropShadow_3071_905"/>
<feBlend mode="normal" in="SourceGraphic" in2="effect1_dropShadow_3071_905" result="shape"/>
</filter>
<filter id="filter6_d_3071_905" x="295.917" y="310.731" width="343.129" height="185.143" filterUnits="userSpaceOnUse" color-interpolation-filters="sRGB">
<feFlood flood-opacity="0" result="BackgroundImageFix"/>
<feColorMatrix in="SourceAlpha" type="matrix" values="0 0 0 0 0 0 0 0 0 0 0 0 0 0 0 0 0 0 127 0" result="hardAlpha"/>
<feOffset/>
<feGaussianBlur stdDeviation="0.5"/>
<feComposite in2="hardAlpha" operator="out"/>
<feColorMatrix type="matrix" values="0 0 0 0 0 0 0 0 0 0 0 0 0 0 0 0 0 0 0.31 0"/>
<feBlend mode="normal" in2="BackgroundImageFix" result="effect1_dropShadow_3071_905"/>
<feBlend mode="normal" in="SourceGraphic" in2="effect1_dropShadow_3071_905" result="shape"/>
</filter>
<filter id="filter7_i_3071_905" x="310.651" y="385.209" width="54.8728" height="19.8771" filterUnits="userSpaceOnUse" color-interpolation-filters="sRGB">
<feFlood flood-opacity="0" result="BackgroundImageFix"/>
<feBlend mode="normal" in="SourceGraphic" in2="BackgroundImageFix" result="shape"/>
<feColorMatrix in="SourceAlpha" type="matrix" values="0 0 0 0 0 0 0 0 0 0 0 0 0 0 0 0 0 0 127 0" result="hardAlpha"/>
<feOffset/>
<feGaussianBlur stdDeviation="0.5"/>
<feComposite in2="hardAlpha" operator="arithmetic" k2="-1" k3="1"/>
<feColorMatrix type="matrix" values="0 0 0 0 0 0 0 0 0 0 0 0 0 0 0 0 0 0 0.26 0"/>
<feBlend mode="normal" in2="shape" result="effect1_innerShadow_3071_905"/>
</filter>
<filter id="filter8_i_3071_905" x="316.444" y="438.939" width="150.811" height="25.3471" filterUnits="userSpaceOnUse" color-interpolation-filters="sRGB">
<feFlood flood-opacity="0" result="BackgroundImageFix"/>
<feBlend mode="normal" in="SourceGraphic" in2="BackgroundImageFix" result="shape"/>
<feColorMatrix in="SourceAlpha" type="matrix" values="0 0 0 0 0 0 0 0 0 0 0 0 0 0 0 0 0 0 127 0" result="hardAlpha"/>
<feOffset/>
<feGaussianBlur stdDeviation="0.5"/>
<feComposite in2="hardAlpha" operator="arithmetic" k2="-1" k3="1"/>
<feColorMatrix type="matrix" values="0 0 0 0 0 0 0 0 0 0 0 0 0 0 0 0 0 0 0.26 0"/>
<feBlend mode="normal" in2="shape" result="effect1_innerShadow_3071_905"/>
</filter>
<filter id="filter9_i_3071_905" x="600.808" y="471.862" width="30.5273" height="18.7112" filterUnits="userSpaceOnUse" color-interpolation-filters="sRGB">
<feFlood flood-opacity="0" result="BackgroundImageFix"/>
<feBlend mode="normal" in="SourceGraphic" in2="BackgroundImageFix" result="shape"/>
<feColorMatrix in="SourceAlpha" type="matrix" values="0 0 0 0 0 0 0 0 0 0 0 0 0 0 0 0 0 0 127 0" result="hardAlpha"/>
<feOffset/>
<feGaussianBlur stdDeviation="0.5"/>
<feComposite in2="hardAlpha" operator="arithmetic" k2="-1" k3="1"/>
<feColorMatrix type="matrix" values="0 0 0 0 0 0 0 0 0 0 0 0 0 0 0 0 0 0 0.26 0"/>
<feBlend mode="normal" in2="shape" result="effect1_innerShadow_3071_905"/>
</filter>
</defs>
</svg>
