<svg width="26" height="27" viewBox="0 0 26 27" fill="none" xmlns="http://www.w3.org/2000/svg">
<g clip-path="url(#clip0_5030_1772)">
<path d="M13.1955 9.96258C13.2966 9.95148 13.3978 9.94778 13.499 9.94778C15.4138 9.94778 16.9674 11.5058 16.9674 13.5004C16.9674 15.4618 15.4138 17.053 13.499 17.053C11.5516 17.053 10.0306 15.4618 10.0306 13.5004C10.0306 13.3968 10.0342 13.2932 10.045 13.1896C10.381 13.3561 10.7712 13.5004 11.1867 13.5004C12.4621 13.5004 13.499 12.4383 13.499 11.132C13.499 10.7064 13.3581 10.3067 13.1955 9.96258ZM20.4575 8.19367C22.1483 9.79975 23.2791 11.6908 23.8139 13.0452C23.9331 13.3376 23.9331 13.6632 23.8139 13.9556C23.2791 15.2767 22.1483 17.1678 20.4575 18.8072C18.7558 20.428 16.4182 21.7899 13.499 21.7899C10.5797 21.7899 8.24217 20.428 6.5412 18.8072C4.85036 17.1678 3.72023 15.2767 3.18267 13.9556C3.06411 13.6632 3.06411 13.3376 3.18267 13.0452C3.72023 11.6908 4.85036 9.79975 6.5412 8.19367C8.24217 6.57426 10.5797 5.21094 13.499 5.21094C16.4182 5.21094 18.7558 6.57426 20.4575 8.19367ZM13.499 8.17146C10.6267 8.17146 8.29636 10.5584 8.29636 13.5004C8.29636 16.4424 10.6267 18.8294 13.499 18.8294C16.3712 18.8294 18.7016 16.4424 18.7016 13.5004C18.7016 10.5584 16.3712 8.17146 13.499 8.17146Z" fill="#8A87FF"/>
</g>
<defs>
<clipPath id="clip0_5030_1772">
<rect width="23" height="21" fill="white" transform="translate(2 3)"/>
</clipPath>
</defs>
</svg>
