<svg width="34" height="33" viewBox="0 0 34 33" fill="none" xmlns="http://www.w3.org/2000/svg">
<path d="M26.042 28.8558H7.83453C7.56625 28.8558 7.30897 28.7492 7.11927 28.5595C6.92957 28.3698 6.823 28.1125 6.823 27.8442V5.59063C6.823 5.32236 6.92957 5.06507 7.11927 4.87537C7.30897 4.68567 7.56625 4.5791 7.83453 4.5791H19.9729L27.0535 11.6598V27.8442C27.0535 28.1125 26.947 28.3698 26.7573 28.5595C26.5676 28.7492 26.3103 28.8558 26.042 28.8558Z" stroke="#0052CC" stroke-width="1.15603" stroke-linecap="round" stroke-linejoin="round"/>
<path d="M19.9727 4.5791V11.6598H27.0534" stroke="#0052CC" stroke-width="1.15603" stroke-linecap="round" stroke-linejoin="round"/>
<path d="M18.9363 21.7498L20.9593 23.7728" stroke="#0052CC" stroke-width="1.15603" stroke-linecap="round" stroke-linejoin="round"/>
<path d="M16.4329 22.7867C18.3882 22.7867 19.9733 21.2017 19.9733 19.2464C19.9733 17.2911 18.3882 15.7061 16.4329 15.7061C14.4776 15.7061 12.8926 17.2911 12.8926 19.2464C12.8926 21.2017 14.4776 22.7867 16.4329 22.7867Z" stroke="#0052CC" stroke-width="1.15603" stroke-linecap="round" stroke-linejoin="round"/>
</svg>
