<svg width="22" height="29" viewBox="0 0 22 29" fill="none" xmlns="http://www.w3.org/2000/svg">
<path d="M19.076 6.60578L15.5982 2.98208C15.0357 2.39958 14.2761 2.07227 13.4886 2.07227H5.03519C3.38785 2.07227 2.05273 3.4632 2.05273 5.17941L2.05304 23.8223C2.05304 25.538 3.38815 26.9294 5.03549 26.9294H16.965C18.6054 26.9294 19.9475 25.5312 19.9475 23.8223V8.80117C19.9475 7.98069 19.6352 7.18934 19.076 6.60578ZM17.7106 23.8223C17.7106 24.2512 17.3768 24.5991 16.965 24.5991H5.03612C4.62426 24.5991 4.29051 24.2512 4.29051 23.8223L4.28958 5.18572C4.28958 4.75674 4.62343 4.40893 5.03519 4.40893H12.4913V8.28655C12.4913 9.14441 13.1591 9.84012 13.9826 9.84012H17.6687V23.8223H17.7106ZM6.52642 8.28655H10.2545C10.6646 8.28655 11.0001 7.937 11.0001 7.50977C11.0001 7.08253 10.6646 6.73298 10.2545 6.73298H6.52642C6.11447 6.73298 5.7808 7.08253 5.7808 7.50977C5.7808 7.937 6.11447 8.28655 6.52642 8.28655ZM6.52642 11.3937H10.2545C10.6646 11.3937 11.0001 11.0441 11.0001 10.6169C11.0001 10.1897 10.6646 9.84012 10.2545 9.84012H6.52642C6.11447 9.84012 5.7808 10.1897 5.7808 10.6169C5.7808 11.0441 6.11447 11.3937 6.52642 11.3937ZM11.2145 19.715L10.5676 17.6939C10.4176 17.2147 9.99352 16.8943 9.50887 16.8943C9.02423 16.8943 8.60016 17.2159 8.4487 17.6954L7.59824 20.3461C7.52834 20.5646 7.33261 20.7151 7.10427 20.7151H6.52642C6.11284 20.7151 5.7808 21.061 5.7808 21.4919C5.7808 21.9228 6.11307 22.2687 6.52642 22.2687H7.10334C7.97105 22.2687 8.74043 21.6919 9.01397 20.8365L9.50887 19.2878L10.2964 21.7347C10.3896 22.0381 10.6459 22.2444 10.9488 22.2687H11.0001C11.2378 22.2687 11.5416 22.1048 11.6642 21.8378L12.0253 21.0911C12.1558 20.8268 12.3935 20.7928 12.4913 20.7928C12.5892 20.7928 12.8292 20.8231 12.9629 21.1084C13.3068 21.8269 14.0012 22.2687 14.7655 22.2687H15.4738C15.8874 22.2687 16.2194 21.9228 16.2194 21.4919C16.2194 21.061 15.8885 20.7151 15.4738 20.7151H14.7631C14.5709 20.7151 14.3845 20.5938 14.2915 20.3996C13.7402 19.2392 12.1372 18.9237 11.2145 19.715Z" fill="#0069DE"/>
</svg>
