<svg width="32" height="32" viewBox="0 0 32 32" fill="none" xmlns="http://www.w3.org/2000/svg">
<path d="M27.9983 11V25.1125C27.9983 25.3479 27.9048 25.5736 27.7383 25.7401C27.5719 25.9065 27.3462 26 27.1108 26H4.99829C4.73307 26 4.47872 25.8946 4.29118 25.7071C4.10365 25.5196 3.99829 25.2652 3.99829 25V8C3.99829 7.73478 4.10365 7.48043 4.29118 7.29289C4.47872 7.10536 4.73307 7 4.99829 7H11.6608C11.877 7.00089 12.0873 7.07098 12.2608 7.2L15.7358 9.8C15.9093 9.92902 16.1196 9.99911 16.3358 10H26.9983C27.2635 10 27.5179 10.1054 27.7054 10.2929C27.8929 10.4804 27.9983 10.7348 27.9983 11Z" stroke="#0069DE" stroke-width="1.5" stroke-linecap="round" stroke-linejoin="round"/>
</svg>
