<svg width="146" height="115" viewBox="0 0 146 115" fill="none" xmlns="http://www.w3.org/2000/svg">
<g filter="url(#filter0_d_5295_1411)">
<path d="M78.1289 97.8204C88.1484 85.6259 111 56.0705 111 39.4694C111 19.3276 94.2031 3 73.5 3C52.7891 3 36 19.3276 36 39.4694C36 56.0705 58.6758 85.6259 68.8711 97.8204C71.2734 100.727 75.7266 100.727 78.1289 97.8204Z" fill="white"/>
</g>
<path d="M111 39.4694C111 56.0705 88.1484 85.6259 78.1289 97.8204C75.7266 100.727 71.2734 100.727 68.8711 97.8204C58.6758 85.6259 36 56.0705 36 39.4694C36 19.3276 52.7891 3 73.5 3C94.2031 3 111 19.3276 111 39.4694ZM73.5 9.07823C56.2344 9.07823 42.25 22.6783 42.25 39.4694C42.25 42.4325 43.3105 46.4973 45.4844 51.5119C47.6152 56.4314 50.6094 61.7689 53.9961 67.1063C60.6484 77.6103 68.5391 87.6583 73.5 93.7176C78.4609 87.6583 86.3516 77.6103 93.0117 67.1063C96.3906 61.7689 99.3789 56.4314 101.508 51.5119C103.695 46.4973 104.75 42.4325 104.75 39.4694C104.75 22.6783 90.7656 9.07823 73.5 9.07823Z" fill="#0069DE"/>
<g filter="url(#filter1_d_5295_1411)">
<rect x="84" y="68.3789" width="39" height="39" rx="4" transform="rotate(-9.41375 84 68.3789)" fill="#DDEDFF"/>
</g>
<path d="M92.7039 84.6645L114.374 72.1688C115.182 71.7027 116.132 72.4997 115.813 73.3766L107.271 96.8875C106.938 97.8019 105.628 97.7515 105.367 96.8142L102.948 88.127C102.837 87.7289 102.493 87.44 102.082 87.4L93.1065 86.5261C92.1382 86.4318 91.861 85.1505 92.7039 84.6645Z" stroke="#7C9CFF" stroke-width="3"/>
<circle cx="73.5" cy="39.5" r="7.5" stroke="#0069DE" stroke-width="10"/>
<defs>
<filter id="filter0_d_5295_1411" x="32" y="3" width="83" height="105" filterUnits="userSpaceOnUse" color-interpolation-filters="sRGB">
<feFlood flood-opacity="0" result="BackgroundImageFix"/>
<feColorMatrix in="SourceAlpha" type="matrix" values="0 0 0 0 0 0 0 0 0 0 0 0 0 0 0 0 0 0 127 0" result="hardAlpha"/>
<feOffset dy="4"/>
<feGaussianBlur stdDeviation="2"/>
<feComposite in2="hardAlpha" operator="out"/>
<feColorMatrix type="matrix" values="0 0 0 0 0 0 0 0 0 0 0 0 0 0 0 0 0 0 0.25 0"/>
<feBlend mode="normal" in2="BackgroundImageFix" result="effect1_dropShadow_5295_1411"/>
<feBlend mode="normal" in="SourceGraphic" in2="effect1_dropShadow_5295_1411" result="shape"/>
</filter>
<filter id="filter1_d_5295_1411" x="80.5998" y="62.6016" width="51.6542" height="51.6523" filterUnits="userSpaceOnUse" color-interpolation-filters="sRGB">
<feFlood flood-opacity="0" result="BackgroundImageFix"/>
<feColorMatrix in="SourceAlpha" type="matrix" values="0 0 0 0 0 0 0 0 0 0 0 0 0 0 0 0 0 0 127 0" result="hardAlpha"/>
<feOffset dy="4"/>
<feGaussianBlur stdDeviation="2"/>
<feComposite in2="hardAlpha" operator="out"/>
<feColorMatrix type="matrix" values="0 0 0 0 0 0 0 0 0 0 0 0 0 0 0 0 0 0 0.25 0"/>
<feBlend mode="normal" in2="BackgroundImageFix" result="effect1_dropShadow_5295_1411"/>
<feBlend mode="normal" in="SourceGraphic" in2="effect1_dropShadow_5295_1411" result="shape"/>
</filter>
</defs>
</svg>
