<svg width="28" height="23" viewBox="0 0 28 23" fill="none" xmlns="http://www.w3.org/2000/svg">
<path d="M8.78254 10.1289C9.93229 10.1289 11.0349 9.67221 11.8479 8.85922C12.6609 8.04623 13.1177 6.94357 13.1177 5.79383C13.1177 4.64408 12.6609 3.54143 11.8479 2.72844C11.0349 1.91545 9.93229 1.45871 8.78254 1.45871C7.6328 1.45871 6.53014 1.91545 5.71715 2.72844C4.90416 3.54143 4.44742 4.64408 4.44742 5.79383C4.44742 6.94357 4.90416 8.04623 5.71715 8.85922C6.53014 9.67221 7.6328 10.1289 8.78254 10.1289V10.1289ZM8.78254 11.574C7.24955 11.574 5.77934 10.965 4.69535 9.88102C3.61136 8.79703 3.00238 7.32682 3.00238 5.79383C3.00238 4.26084 3.61136 2.79063 4.69535 1.70664C5.77934 0.622651 7.24955 0.0136719 8.78254 0.0136719C10.3155 0.0136719 11.7857 0.622651 12.8697 1.70664C13.9537 2.79063 14.5627 4.26084 14.5627 5.79383C14.5627 7.32682 13.9537 8.79703 12.8697 9.88102C11.7857 10.965 10.3155 11.574 8.78254 11.574ZM16.0077 18.7992V16.6316C16.0077 16.0568 15.7794 15.5054 15.3729 15.0989C14.9664 14.6924 14.4151 14.4641 13.8402 14.4641H3.7249C3.15003 14.4641 2.5987 14.6924 2.19221 15.0989C1.78571 15.5054 1.55734 16.0568 1.55734 16.6316V18.7992C1.55734 18.9908 1.48122 19.1746 1.34572 19.3101C1.21022 19.4456 1.02645 19.5217 0.834824 19.5217C0.6432 19.5217 0.459425 19.4456 0.323926 19.3101C0.188427 19.1746 0.112305 18.9908 0.112305 18.7992V16.6316C0.112305 15.6735 0.492917 14.7546 1.17041 14.0771C1.8479 13.3996 2.76678 13.019 3.7249 13.019H13.8402C14.7983 13.019 15.7172 13.3996 16.3947 14.0771C17.0722 14.7546 17.4528 15.6735 17.4528 16.6316V18.7992C17.4528 18.9908 17.3767 19.1746 17.2412 19.3101C17.1057 19.4456 16.9219 19.5217 16.7303 19.5217C16.5386 19.5217 16.3549 19.4456 16.2194 19.3101C16.0839 19.1746 16.0077 18.9908 16.0077 18.7992Z" fill="#0052CC"/>
<path d="M26.9196 16.5697C25.7964 16.651 24.1941 17.84 23.3831 18.2302C22.7521 18.5344 22.2079 18.7968 21.733 18.7968C21.243 18.7968 21.1693 18.4206 21.2712 17.5916C21.295 17.4058 21.5249 15.7523 20.3453 15.8243C19.8011 15.8591 19.7343 15.8709 17.4533 18.2211V16.487C17.4533 13.5969 14.5634 12.4409 13.8338 13.5969L12.8297 13.0189C12.6693 13.128 13.3538 12.4469 13.4071 14.1749L13.8338 14.175C13.8338 12.3979 14.4007 14.2864 14.5634 14.175L15.7192 14.753C16.1182 14.4813 16.4532 15.3296 16.2797 15.7918L15.7192 18.7991L14.1504 21.4953C14.003 21.8878 14.209 22.5148 14.7944 22.5148C14.9744 22.5148 15.1522 22.4405 15.2844 22.2965C16.1995 21.3165 18.6388 18.7968 19.8639 17.7495C19.8162 18.4113 19.8184 19.1173 20.3106 19.6956C20.6424 20.0857 21.1194 20.2831 21.7309 20.2831C22.5028 20.2831 23.2053 19.944 23.949 19.5864C24.6646 19.2427 26.0957 18.1327 26.95 18.0583C27.1343 18.0421 27.2796 17.8888 27.2796 17.6914V16.946C27.2839 16.7346 27.1169 16.5558 26.9196 16.5697Z" fill="#0052CC"/>
</svg>
