<svg width="27" height="24" viewBox="0 0 27 24" fill="none" xmlns="http://www.w3.org/2000/svg">
<path d="M26.6016 10.7672C27.075 11.1703 27.1359 11.8781 26.7328 12.3516C26.3297 12.825 25.6219 12.8859 25.1484 12.4828L24 11.5078V20.25C24 22.3219 22.3219 24 20.25 24H6.75C4.67906 24 3 22.3219 3 20.25V11.5078L1.85297 12.4828C1.37906 12.8859 0.669373 12.825 0.267186 12.3516C-0.134768 11.8781 -0.0765958 11.1703 0.39717 10.7672L12.7734 0.267187C13.1906 -0.0890625 13.8094 -0.0890625 14.2266 0.267187L26.6016 10.7672ZM6.75 21.75H9V14.625C9 13.5891 9.83906 12.75 10.875 12.75H16.125C17.1609 12.75 18 13.5891 18 14.625V21.75H20.25C21.0797 21.75 21.75 21.0797 21.75 20.25V9.6L13.5 2.60016L5.25 9.6V20.25C5.25 21.0797 5.92031 21.75 6.75 21.75ZM11.25 21.75H15.75V15H11.25V21.75Z" fill="black"/>
</svg>
