<svg width="31" height="33" viewBox="0 0 31 33" fill="none" xmlns="http://www.w3.org/2000/svg">
<path d="M10.0156 9.32812C8.61763 9.32812 7.48437 10.4614 7.48437 11.8594C7.48437 13.2574 8.61763 14.3906 10.0156 14.3906C11.4136 14.3906 12.5469 13.2574 12.5469 11.8594C12.5469 10.4614 11.4131 9.32812 10.0156 9.32812ZM25.5775 4.6875H5.32753C3.51083 4.6875 1.99951 6.19834 1.99951 8.0625V24.9375C1.99951 26.8017 3.51035 28.3125 5.32705 28.3125H25.5771C27.4412 28.3125 28.9521 26.8017 28.9521 24.9375V8.0625C28.9525 6.19834 27.4865 4.6875 25.5775 4.6875ZM26.4213 24.5842L19.2072 14.7809C19.0754 14.5383 18.7748 14.3906 18.4531 14.3906C18.1308 14.3906 17.8298 14.5366 17.651 14.7798L12.0295 22.3788L10.0736 19.9477C9.89217 19.7221 9.6025 19.5887 9.29474 19.5887C8.98666 19.5887 8.69726 19.722 8.51532 19.9477L4.53282 24.8947C4.53282 24.8932 4.53282 24.8963 4.53282 24.8947L4.53071 8.0625C4.53071 7.59728 4.90924 7.21875 5.37446 7.21875H25.6245C26.0897 7.21875 26.4682 7.59728 26.4682 8.0625V24.5842H26.4213Z" fill="#0069DE"/>
</svg>
