<svg width="147" height="112" viewBox="0 0 147 112" fill="none" xmlns="http://www.w3.org/2000/svg">
<g filter="url(#filter0_d_2686_684)">
<path d="M74.8892 9C75.6674 8.99995 76.4126 9.17158 77.108 9.49337L108.287 22.9858C111.93 24.5617 114.662 28.2238 114.629 32.4973C114.547 49.4057 107.791 80.0637 79.2606 93.9992C76.4953 95.3336 73.283 95.3336 70.5178 93.9992C41.9794 80.0637 35.2302 49.4057 35 32.4973C35.1275 28.2238 37.8514 24.5617 41.4909 22.9858L72.6869 9.49337C73.3658 9.17158 74.1275 8.99995 74.8892 9Z" fill="white" stroke="#0069DE" stroke-width="8"/>
<path d="M105.074 33.6877C104.927 47.8876 98.7379 71.5648 76.4072 82.2588V21.7402L105.074 33.6877Z" fill="#0069DE"/>
</g>
<g filter="url(#filter1_d_2686_684)">
<circle cx="117.5" cy="82.5" r="21.5" fill="#DDEDFF"/>
</g>
<path d="M130.891 76.7544C130.787 76.6944 130.699 76.6075 130.639 76.5013C128.911 73.7321 127.08 71.9231 124.494 70.4303C121.922 68.9449 119.115 68.1656 116.165 68.1446C115.752 68.1391 115.432 67.7932 115.436 67.366C115.453 66.9463 115.81 66.5977 116.223 66.6033C119.422 66.6428 122.476 67.4751 125.269 69.0879C128.037 70.6857 130.089 72.7119 131.926 75.6517C132.15 76.0137 132.035 76.484 131.68 76.7086C131.423 76.8827 131.125 76.8894 130.891 76.7544ZM108.229 73.067C108.099 72.992 107.993 72.8767 107.922 72.7286C107.747 72.3413 107.923 71.8877 108.309 71.699C110.68 70.5623 113.17 70.031 115.716 70.1226C121.051 70.3035 126.282 73.3057 129.119 77.8432C130.471 80.0021 131.264 82.4104 131.473 85.0189C131.51 85.4343 131.197 85.8263 130.774 85.8685C130.351 85.9108 129.987 85.6111 129.958 85.1823C129.765 82.8159 129.051 80.6318 127.832 78.6929C125.242 74.5667 120.473 71.8136 115.61 71.6548C113.301 71.5743 111.045 72.0614 108.899 73.0776C108.686 73.2056 108.437 73.187 108.229 73.067ZM106.996 93.9575C106.827 93.8599 106.697 93.6953 106.657 93.4936C106.201 91.6731 106.024 90.5688 106.092 88.442C106.148 86.2733 106.843 83.9897 108.091 81.8286C110.393 77.8418 115.568 76.4987 119.622 78.8392C123.676 81.1797 125.101 86.3335 122.799 90.3203C122.582 90.6962 122.126 90.8264 121.762 90.6164C121.398 90.4063 121.283 89.946 121.5 89.5701C123.375 86.3217 122.186 82.1095 118.847 80.1816C115.508 78.2537 111.266 79.3303 109.39 82.5787C108.274 84.5117 107.659 86.537 107.615 88.4444C107.555 90.4681 107.747 91.456 108.143 93.0806C108.235 93.4916 107.995 93.9077 107.593 94.0337C107.372 94.0854 107.165 94.055 106.996 93.9575ZM117.746 96.8527C116.199 95.9601 115.068 94.7697 114.407 93.3326C113.254 90.8591 113.369 87.99 114.717 85.6543C114.934 85.2785 115.391 85.1482 115.754 85.3582C116.118 85.5683 116.234 86.0286 116.017 86.4045C114.924 88.2972 114.829 90.6226 115.778 92.6385C116.329 93.8155 117.229 94.7468 118.528 95.497C118.84 95.677 119.383 95.9368 119.957 96.1429C120.347 96.2783 120.545 96.715 120.393 97.1283C120.249 97.5283 119.813 97.7423 119.411 97.5993C118.585 97.3194 117.927 96.9578 117.746 96.8527ZM113.537 98.1101C113.485 98.0801 113.428 98.0292 113.384 97.9858C111.659 96.2024 110.765 94.6303 110.178 92.3763C109.436 89.4602 109.87 86.3993 111.404 83.7415C112.66 81.5669 115.476 80.8302 117.684 82.1054C119.893 83.3807 120.663 86.1878 119.408 88.3624C118.579 89.7987 119.113 91.6642 120.607 92.5269C122.101 93.3895 123.984 92.9193 124.813 91.483C127.735 86.4224 125.883 79.8769 120.686 76.8762C116.996 74.7458 112.393 74.9163 108.975 77.3274C107.84 78.1221 106.844 79.2473 106.038 80.6433C105.433 81.6903 104.571 83.3939 104.111 85.9918C104.039 86.4158 103.646 86.7075 103.238 86.6333C102.823 86.5725 102.554 86.167 102.631 85.7639C103.01 83.6379 103.705 81.7128 104.752 79.9007C105.682 78.2899 106.825 76.9992 108.146 76.0616C112.037 73.3142 117.272 73.0975 121.469 75.5205C127.381 78.9337 129.468 86.4209 126.12 92.2198C124.864 94.3944 122.048 95.131 119.84 93.8558C117.631 92.5805 116.861 89.7734 118.116 87.5988C118.946 86.1625 118.411 84.297 116.917 83.4344C115.423 82.5717 113.54 83.0419 112.711 84.4782C111.386 86.7736 111.003 89.4164 111.646 91.9349C112.151 93.9094 112.931 95.29 114.461 96.8712C114.757 97.1678 114.735 97.6561 114.443 97.9526C114.199 98.2239 113.81 98.2677 113.537 98.1101Z" fill="#7C9CFF" stroke="#7C9CFF" stroke-width="0.75"/>
<g filter="url(#filter2_d_2686_684)">
<rect x="7" y="49.3789" width="39" height="39" rx="4" transform="rotate(-9.41375 7 49.3789)" fill="#DDEDFF"/>
</g>
<path fill-rule="evenodd" clip-rule="evenodd" d="M46.4313 73.2251L45.8619 69.7905C45.7908 69.3617 45.3854 69.0717 44.9566 69.1428C44.5278 69.2139 44.2377 69.6192 44.3088 70.048L44.8783 73.4826C45.1895 75.3599 43.9154 77.1405 42.0381 77.4518L38.6035 78.0212C38.1747 78.0923 37.8846 78.4976 37.9557 78.9265C38.0268 79.3553 38.4321 79.6453 38.861 79.5742L42.2955 79.0048C45.0292 78.5516 46.8845 75.9588 46.4313 73.2251Z" fill="#7C9CFF"/>
<path d="M46.4313 73.2251L45.8619 69.7905C45.7908 69.3617 45.3854 69.0717 44.9566 69.1428C44.5278 69.2139 44.2377 69.6192 44.3088 70.048L44.8783 73.4826C45.1895 75.3599 43.9154 77.1405 42.0381 77.4518L38.6035 78.0212C38.1747 78.0923 37.8846 78.4976 37.9557 78.9265C38.0268 79.3553 38.4321 79.6453 38.861 79.5742L42.2955 79.0048C45.0292 78.5516 46.8845 75.9588 46.4313 73.2251" stroke="#7C9CFF"/>
<path fill-rule="evenodd" clip-rule="evenodd" d="M25.7108 80.9566C25.6397 80.5278 25.2344 80.2377 24.8056 80.3088L21.371 80.8783C19.4937 81.1895 17.7131 79.9154 17.4018 78.0381L16.8324 74.6035C16.7613 74.1747 16.356 73.8846 15.9271 73.9557C15.4983 74.0268 15.2083 74.4321 15.2794 74.861L15.8488 78.2955C16.302 81.0292 18.8948 82.8845 21.6285 82.4313L25.0631 81.8619C25.4919 81.7908 25.7819 81.3854 25.7108 80.9566Z" fill="#7C9CFF"/>
<path d="M25.7108 80.9566C25.6397 80.5278 25.2344 80.2377 24.8056 80.3088L21.371 80.8783C19.4937 81.1895 17.7131 79.9154 17.4018 78.0381L16.8324 74.6035C16.7613 74.1747 16.356 73.8846 15.9271 73.9557C15.4983 74.0268 15.2083 74.4321 15.2794 74.861L15.8488 78.2955C16.302 81.0292 18.8948 82.8845 21.6285 82.4313L25.0631 81.8619C25.4919 81.7908 25.7819 81.3854 25.7108 80.9566" stroke="#7C9CFF"/>
<path fill-rule="evenodd" clip-rule="evenodd" d="M14.5448 60.8057L13.9753 57.3711C13.6641 55.4938 14.9382 53.7132 16.8155 53.402L20.2501 52.8325C20.6789 52.7614 20.969 52.3561 20.8979 51.9273C20.8268 51.4984 20.4215 51.2084 19.9926 51.2795L16.5581 51.8489C13.8244 52.3022 11.9691 54.8949 12.4223 57.6286L12.9917 61.0632C13.0628 61.492 13.4682 61.782 13.897 61.7109C14.3258 61.6398 14.6159 61.2345 14.5448 60.8057Z" fill="#7C9CFF"/>
<path d="M14.5448 60.8057L13.9753 57.3711C13.6641 55.4938 14.9382 53.7132 16.8155 53.402L20.2501 52.8325C20.6789 52.7614 20.969 52.3561 20.8979 51.9273C20.8268 51.4984 20.4215 51.2084 19.9926 51.2795L16.5581 51.8489C13.8244 52.3022 11.9691 54.8949 12.4223 57.6286L12.9917 61.0632C13.0628 61.492 13.4682 61.782 13.897 61.7109C14.3258 61.6398 14.6159 61.2345 14.5448 60.8057" stroke="#7C9CFF"/>
<path fill-rule="evenodd" clip-rule="evenodd" d="M43.5742 55.9927L43.0048 52.5582C42.5516 49.8245 39.9588 47.9692 37.2251 48.4224L33.7905 48.9919C33.3617 49.063 33.0717 49.4683 33.1428 49.8971C33.2139 50.326 33.6192 50.616 34.048 50.5449L37.4826 49.9754C39.3599 49.6642 41.1405 50.9383 41.4518 52.8157L42.0212 56.2502C42.0923 56.6791 42.4976 56.9691 42.9265 56.898C43.3553 56.8269 43.6453 56.4216 43.5742 55.9927Z" fill="#7C9CFF"/>
<path d="M43.5742 55.9927L43.0048 52.5582C42.5516 49.8245 39.9588 47.9692 37.2251 48.4224L33.7905 48.9919C33.3617 49.063 33.0717 49.4683 33.1428 49.8971C33.2139 50.326 33.6192 50.616 34.048 50.5449L37.4826 49.9754C39.3599 49.6642 41.1405 50.9383 41.4518 52.8157L42.0212 56.2502C42.0923 56.6791 42.4976 56.9691 42.9265 56.898C43.3553 56.8269 43.6453 56.4216 43.5742 55.9927" stroke="#7C9CFF"/>
<path fill-rule="evenodd" clip-rule="evenodd" d="M35.9978 71.8508C36.2748 71.4944 36.2104 70.9809 35.854 70.7038C35.4976 70.4268 34.9841 70.4911 34.707 70.8475C33.7212 72.1158 32.3049 72.9591 30.719 73.222C29.1331 73.4849 27.5204 73.1439 26.1781 72.2616C25.8008 72.0137 25.2941 72.1185 25.0461 72.4957C24.7981 72.873 24.9029 73.3798 25.2802 73.6277C26.9672 74.7365 28.9937 75.1651 30.9864 74.8348C32.9791 74.5044 34.7588 73.4447 35.9978 71.8508Z" fill="#7C9CFF"/>
<path d="M35.9978 71.8508C36.2748 71.4944 36.2104 70.9809 35.854 70.7038C35.4976 70.4268 34.9841 70.4911 34.707 70.8475C33.7212 72.1158 32.3049 72.9591 30.719 73.222C29.1331 73.4849 27.5204 73.1439 26.1781 72.2616C25.8008 72.0137 25.2941 72.1185 25.0461 72.4957C24.7981 72.873 24.9029 73.3798 25.2802 73.6277C26.9672 74.7365 28.9937 75.1651 30.9864 74.8348C32.9791 74.5044 34.7588 73.4447 35.9978 71.8508" stroke="#7C9CFF"/>
<path fill-rule="evenodd" clip-rule="evenodd" d="M31.3664 67.1306L30.4157 61.3964C30.3418 60.951 29.921 60.6499 29.4756 60.7237C29.0302 60.7976 28.7291 61.2184 28.8029 61.6638L29.7536 67.398C29.7946 67.645 29.6269 67.8793 29.3799 67.9203L28.7229 68.0292C28.2775 68.103 27.9763 68.5239 28.0502 68.9693C28.124 69.4146 28.5449 69.7158 28.9903 69.642L29.6473 69.533C30.7836 69.3446 31.5548 68.2669 31.3664 67.1306Z" fill="#7C9CFF"/>
<path d="M31.3664 67.1306L30.4157 61.3964C30.3418 60.951 29.921 60.6499 29.4756 60.7237C29.0302 60.7976 28.7291 61.2184 28.8029 61.6638L29.7536 67.398C29.7946 67.645 29.6269 67.8793 29.3799 67.9203L28.7229 68.0292C28.2775 68.103 27.9763 68.5239 28.0502 68.9693C28.124 69.4146 28.5449 69.7158 28.9903 69.642L29.6473 69.533C30.7836 69.3446 31.5548 68.2669 31.3664 67.1306" stroke="#7C9CFF"/>
<path fill-rule="evenodd" clip-rule="evenodd" d="M36.3445 62.7301L35.9633 60.4304C35.8935 60.0098 35.496 59.7254 35.0754 59.7951C34.6548 59.8649 34.3704 60.2624 34.4401 60.683L34.8214 62.9826C34.8911 63.4032 35.2886 63.6877 35.7092 63.6179C36.1298 63.5482 36.4143 63.1507 36.3445 62.7301Z" fill="#7C9CFF"/>
<path d="M36.3445 62.7301L35.9633 60.4304C35.8935 60.0098 35.496 59.7254 35.0754 59.7951C34.6548 59.8649 34.3704 60.2624 34.4401 60.683L34.8214 62.9826C34.8911 63.4032 35.2886 63.6877 35.7092 63.6179C36.1298 63.5482 36.4143 63.1507 36.3445 62.7301" stroke="#7C9CFF"/>
<path fill-rule="evenodd" clip-rule="evenodd" d="M23.076 65.7127C22.6554 65.7824 22.2579 65.498 22.1882 65.0774L21.8069 62.7777C21.7372 62.3571 22.0216 61.9596 22.4422 61.8898C22.8628 61.8201 23.2603 62.1046 23.3301 62.5252L23.7114 64.8248C23.7811 65.2454 23.4966 65.6429 23.076 65.7127Z" fill="#7C9CFF"/>
<path d="M23.076 65.7127V65.7127C22.6554 65.7824 22.2579 65.498 22.1882 65.0774L21.8069 62.7777C21.7372 62.3571 22.0216 61.9596 22.4422 61.8898C22.8628 61.8201 23.2603 62.1046 23.3301 62.5252L23.7114 64.8248C23.7811 65.2454 23.4966 65.6429 23.076 65.7127" stroke="#7C9CFF"/>
<defs>
<filter id="filter0_d_2686_684" x="26.9991" y="5" width="95.6305" height="102" filterUnits="userSpaceOnUse" color-interpolation-filters="sRGB">
<feFlood flood-opacity="0" result="BackgroundImageFix"/>
<feColorMatrix in="SourceAlpha" type="matrix" values="0 0 0 0 0 0 0 0 0 0 0 0 0 0 0 0 0 0 127 0" result="hardAlpha"/>
<feOffset dy="4"/>
<feGaussianBlur stdDeviation="2"/>
<feComposite in2="hardAlpha" operator="out"/>
<feColorMatrix type="matrix" values="0 0 0 0 0 0 0 0 0 0 0 0 0 0 0 0 0 0 0.25 0"/>
<feBlend mode="normal" in2="BackgroundImageFix" result="effect1_dropShadow_2686_684"/>
<feBlend mode="normal" in="SourceGraphic" in2="effect1_dropShadow_2686_684" result="shape"/>
</filter>
<filter id="filter1_d_2686_684" x="92" y="61" width="51" height="51" filterUnits="userSpaceOnUse" color-interpolation-filters="sRGB">
<feFlood flood-opacity="0" result="BackgroundImageFix"/>
<feColorMatrix in="SourceAlpha" type="matrix" values="0 0 0 0 0 0 0 0 0 0 0 0 0 0 0 0 0 0 127 0" result="hardAlpha"/>
<feOffset dy="4"/>
<feGaussianBlur stdDeviation="2"/>
<feComposite in2="hardAlpha" operator="out"/>
<feColorMatrix type="matrix" values="0 0 0 0 0 0 0 0 0 0 0 0 0 0 0 0 0 0 0.25 0"/>
<feBlend mode="normal" in2="BackgroundImageFix" result="effect1_dropShadow_2686_684"/>
<feBlend mode="normal" in="SourceGraphic" in2="effect1_dropShadow_2686_684" result="shape"/>
</filter>
<filter id="filter2_d_2686_684" x="3.59973" y="43.5996" width="51.6543" height="51.6543" filterUnits="userSpaceOnUse" color-interpolation-filters="sRGB">
<feFlood flood-opacity="0" result="BackgroundImageFix"/>
<feColorMatrix in="SourceAlpha" type="matrix" values="0 0 0 0 0 0 0 0 0 0 0 0 0 0 0 0 0 0 127 0" result="hardAlpha"/>
<feOffset dy="4"/>
<feGaussianBlur stdDeviation="2"/>
<feComposite in2="hardAlpha" operator="out"/>
<feColorMatrix type="matrix" values="0 0 0 0 0 0 0 0 0 0 0 0 0 0 0 0 0 0 0.25 0"/>
<feBlend mode="normal" in2="BackgroundImageFix" result="effect1_dropShadow_2686_684"/>
<feBlend mode="normal" in="SourceGraphic" in2="effect1_dropShadow_2686_684" result="shape"/>
</filter>
</defs>
</svg>
