<svg width="32" height="32" viewBox="0 0 32 32" fill="none" xmlns="http://www.w3.org/2000/svg">
    <path d="M18.2705 1.0845C17.5729 0.728782 16.7528 0.87044 16.1814 1.44468L7.99485 9.66556H2.91163C1.30356 9.66556 0 11.139 0 12.895V19.4157C0 21.2334 1.30356 22.6451 2.91163 22.6451H7.99728L16.1802 30.8662C16.5432 31.2304 17.0039 31.4212 17.4698 31.4212C17.739 31.4212 18.014 31.3569 18.2687 31.2262C18.9662 30.8727 19.4103 30.0907 19.4103 29.2268V3.08321C19.3563 2.21996 18.9681 1.43762 18.2705 1.0845Z" fill="#0069DE"/>
    <path d="M17.3005 3.27366C16.7242 3.00717 15.2407 4.74985 14.7687 5.18005L8.86122 11.3737H3.37571C2.10983 11.3737 1.68787 11.8502 1.68787 13.2798V18.9979C1.68787 20.4274 2.10983 20.9039 3.37571 20.9039H8.86122L15.1907 27.5759C15.4905 27.8488 16.9156 29.481 17.3005 29.481C17.8767 29.2162 17.7224 26.5783 17.7224 25.9311V6.34526C17.6778 5.69854 17.8767 3.5382 17.3005 3.27366Z" fill="white"/>
    <path d="M29.2471 16.1104L31.6402 13.4081C32.1172 12.8694 32.1172 11.9968 31.6402 11.4578C31.1632 10.9189 30.3905 10.9191 29.9132 11.4578L27.5222 14.2142L25.0849 11.5078C24.6078 10.9691 23.8352 10.9691 23.3579 11.5078C22.8806 12.0465 22.8808 12.9191 23.3579 13.458L25.7509 16.1604L23.3579 18.8628C22.8808 19.4015 22.8808 20.274 23.3579 20.813C23.8348 21.3516 24.6076 21.3521 25.0849 20.813L27.5222 18.1101L29.9152 20.8124C30.3922 21.351 31.1649 21.3515 31.6422 20.8124C32.1193 20.2738 32.1193 19.4012 31.6422 18.8622L29.2471 16.1104Z" fill="#0069DE"/>
</svg>
