<svg width="60" height="60" viewBox="0 0 60 60" fill="none" xmlns="http://www.w3.org/2000/svg">
<g clip-path="url(#clip0_3776_1169)">
<path d="M17.8594 24.375C17.8594 22.8164 19.1133 21.5625 20.6719 21.5625C22.2188 21.5625 23.4844 22.8164 23.4844 24.375C23.4844 25.9336 22.2188 27.1875 20.6719 27.1875C19.1133 27.1875 17.8594 25.9336 17.8594 24.375ZM42.2344 24.375C42.2344 25.9336 40.9688 27.1875 39.4219 27.1875C37.8633 27.1875 36.6094 25.9336 36.6094 24.375C36.6094 22.8164 37.8633 21.5625 39.4219 21.5625C40.9688 21.5625 42.2344 22.8164 42.2344 24.375ZM39.375 39.375C40.4062 39.375 41.25 40.2188 41.25 41.25C41.25 42.2812 40.4062 43.125 39.375 43.125H20.625C19.5938 43.125 18.75 42.2812 18.75 41.25C18.75 40.2188 19.5938 39.375 20.625 39.375H39.375ZM60 30C60 46.5703 46.5703 60 30 60C13.4297 60 0 46.5703 0 30C0 13.4297 13.4297 0 30 0C46.5703 0 60 13.4297 60 30ZM30 56.25C44.4961 56.25 56.25 44.4961 56.25 30C56.25 15.5039 44.4961 3.75 30 3.75C15.5039 3.75 3.75 15.5039 3.75 30C3.75 44.4961 15.5039 56.25 30 56.25Z" fill="#CBCFDC"/>
</g>
<defs>
<clipPath id="clip0_3776_1169">
<rect width="60" height="60" fill="white"/>
</clipPath>
</defs>
</svg>
