<svg width="189" height="133" viewBox="0 0 189 133" fill="none" xmlns="http://www.w3.org/2000/svg">
<path d="M111.639 9.5956C111.453 9.79997 111.468 10.1162 111.673 10.3019L115.003 13.328C115.208 13.5137 115.524 13.4986 115.71 13.2942C115.895 13.0898 115.88 12.7736 115.676 12.5879L112.715 9.89801L115.405 6.93754C115.591 6.73317 115.576 6.41695 115.371 6.23125C115.167 6.04555 114.851 6.06069 114.665 6.26507L111.639 9.5956ZM187.691 26.052L187.252 25.8118L187.691 26.052ZM50.1208 76.6623L50.2722 76.1858L50.1208 76.6623ZM177.998 79.2866L178.484 79.4024L178.512 79.2866L178.484 79.1707L177.998 79.2866ZM112.033 10.4313C112.376 10.4148 112.718 10.3991 113.059 10.3839L113.014 9.38488C112.672 9.40009 112.329 9.41593 111.985 9.43241L112.033 10.4313ZM115.09 10.3004C115.766 10.275 116.437 10.252 117.104 10.2315L117.073 9.23197C116.404 9.25256 115.73 9.2756 115.053 9.30113L115.09 10.3004ZM119.146 10.1759C119.822 10.1599 120.493 10.1464 121.16 10.1354L121.143 9.13557C120.474 9.1466 119.801 9.16011 119.122 9.17616L119.146 10.1759ZM123.2 10.1093C123.879 10.1032 124.553 10.0996 125.221 10.0986L125.22 9.09859C124.549 9.09963 123.872 9.10321 123.191 9.10938L123.2 10.1093ZM127.253 10.1033C127.934 10.1075 128.61 10.1143 129.28 10.1238L129.294 9.12387C128.621 9.11439 127.943 9.10751 127.259 9.10328L127.253 10.1033ZM131.306 10.1605C131.988 10.1756 132.665 10.1935 133.336 10.214L133.366 9.21444C132.693 9.19387 132.013 9.17594 131.328 9.16073L131.306 10.1605ZM135.357 10.2843C136.04 10.311 136.717 10.3405 137.388 10.3726L137.435 9.37375C136.762 9.34147 136.082 9.31189 135.396 9.28507L135.357 10.2843ZM139.407 10.4785C140.09 10.5175 140.766 10.5592 141.434 10.6036L141.501 9.6058C140.829 9.56116 140.15 9.51925 139.464 9.48016L139.407 10.4785ZM143.454 10.7476C144.135 10.7994 144.808 10.8541 145.474 10.9115L145.56 9.91522C144.891 9.8575 144.214 9.80254 143.53 9.75044L143.454 10.7476ZM147.495 11.0965C148.172 11.162 148.841 11.2304 149.502 11.3016L149.609 10.3073C148.945 10.2358 148.272 10.167 147.591 10.1011L147.495 11.0965ZM151.526 11.5311C152.2 11.6115 152.865 11.6948 153.522 11.7808L153.652 10.7893C152.992 10.7028 152.322 10.619 151.644 10.5382L151.526 11.5311ZM155.541 12.0584C156.218 12.1558 156.885 12.2563 157.542 12.3596L157.697 11.3717C157.036 11.2677 156.365 11.1666 155.683 11.0686L155.541 12.0584ZM159.53 12.686C160.21 12.8026 160.879 12.9223 161.535 13.0448L161.719 12.0618C161.057 11.9383 160.384 11.8178 159.699 11.7003L159.53 12.686ZM163.519 13.431C164.188 13.5667 164.843 13.7053 165.484 13.8468L165.699 12.8702C165.052 12.7276 164.392 12.5877 163.718 12.451L163.519 13.431ZM167.469 14.3032C168.14 14.4643 168.795 14.6284 169.434 14.7952L169.687 13.8277C169.041 13.6591 168.38 13.4934 167.702 13.3308L167.469 14.3032ZM171.381 15.3264C172.044 15.5154 172.688 15.7073 173.311 15.9017L173.609 14.947C172.977 14.7501 172.326 14.5558 171.655 14.3647L171.381 15.3264ZM175.223 16.5271C175.88 16.7523 176.511 16.9803 177.116 17.2104L177.471 16.2757C176.855 16.0415 176.214 15.8098 175.548 15.5812L175.223 16.5271ZM178.985 17.9618C179.633 18.2376 180.244 18.5154 180.819 18.7942L181.256 17.8944C180.665 17.608 180.038 17.3235 179.377 17.0418L178.985 17.9618ZM182.597 19.7235C183.214 20.0731 183.774 20.422 184.275 20.7683L184.843 19.9455C184.315 19.5803 183.73 19.2157 183.09 18.8533L182.597 19.7235ZM185.817 21.9892C186.357 22.4898 186.76 22.9714 187.036 23.4261L187.891 22.9074C187.555 22.3545 187.087 21.8027 186.498 21.2562L185.817 21.9892ZM187.492 25.0421C187.468 25.3037 187.39 25.56 187.252 25.8118L188.129 26.2923C188.33 25.9253 188.451 25.5367 188.488 25.1318L187.492 25.0421ZM187.252 25.8118C187.274 25.7726 187.28 25.7917 187.184 25.8475C187.098 25.8979 186.964 25.9572 186.773 26.0214L187.091 26.9694C187.317 26.8935 187.52 26.809 187.687 26.7118C187.845 26.6198 188.023 26.4873 188.129 26.2923L187.252 25.8118ZM184.934 26.4345C184.352 26.5314 183.676 26.6251 182.91 26.7159L183.028 27.7089C183.804 27.6169 184.496 27.5211 185.098 27.421L184.934 26.4345ZM180.953 26.9234C180.306 26.9853 179.616 27.0458 178.885 27.105L178.966 28.1017C179.701 28.0422 180.396 27.9813 181.048 27.9189L180.953 26.9234ZM176.973 27.2502C176.308 27.2978 175.615 27.3446 174.896 27.3908L174.96 28.3887C175.681 28.3425 176.376 28.2955 177.044 28.2477L176.973 27.2502ZM172.9 27.5132C172.268 27.5504 171.619 27.5871 170.954 27.6235L171.008 28.622C171.675 28.5855 172.325 28.5487 172.959 28.5115L172.9 27.5132ZM168.908 27.7316C168.233 27.7661 167.544 27.8004 166.841 27.8344L166.889 28.8333C167.593 28.7992 168.283 28.7649 168.959 28.7303L168.908 27.7316ZM164.912 27.9256C164.259 27.9558 163.593 27.9859 162.918 28.016L162.962 29.015C163.638 28.9849 164.304 28.9548 164.959 28.9245L164.912 27.9256ZM160.858 28.1058C160.191 28.1344 159.514 28.163 158.828 28.1915L158.869 29.1907C159.556 29.1621 160.233 29.1335 160.901 29.1049L160.858 28.1058ZM156.878 28.2717C156.22 28.2984 155.555 28.3252 154.882 28.352L154.922 29.3512C155.595 29.3244 156.261 29.2976 156.919 29.2709L156.878 28.2717ZM152.842 28.4325C152.161 28.4592 151.473 28.4859 150.778 28.5127L150.817 29.512C151.512 29.4852 152.2 29.4584 152.881 29.4317L152.842 28.4325ZM148.828 28.5877C148.172 28.6128 147.51 28.638 146.844 28.6634L146.882 29.6627C147.548 29.6373 148.21 29.6121 148.866 29.587L148.828 28.5877ZM144.828 28.7398C144.151 28.7654 143.469 28.7912 142.782 28.8172L142.82 29.8164C143.507 29.7905 144.189 29.7647 144.866 29.7391L144.828 28.7398ZM140.763 28.8934C140.11 28.9181 139.453 28.943 138.792 28.968L138.83 29.9673C139.491 29.9423 140.148 29.9174 140.801 29.8927L140.763 28.8934ZM136.797 29.0438C136.128 29.0692 135.456 29.0949 134.78 29.1208L134.818 30.1201C135.494 30.0942 136.167 30.0685 136.835 30.0431L136.797 29.0438ZM132.742 29.1992C132.074 29.225 131.402 29.2511 130.728 29.2774L130.767 30.2766C131.441 30.2503 132.112 30.2243 132.781 30.1985L132.742 29.1992ZM128.747 29.3551C128.084 29.3812 127.418 29.4076 126.75 29.4343L126.789 30.4335C127.458 30.4068 128.123 30.3804 128.786 30.3543L128.747 29.3551ZM124.737 29.5151C124.064 29.5424 123.388 29.5699 122.711 29.5977L122.752 30.5969C123.429 30.5691 124.105 30.5415 124.778 30.5143L124.737 29.5151ZM120.686 29.6815C120.026 29.7091 119.364 29.7369 118.699 29.7651L118.742 30.7642C119.406 30.736 120.068 30.7082 120.728 30.6806L120.686 29.6815ZM116.702 29.8506C116.034 29.8794 115.365 29.9085 114.694 29.938L114.738 30.9371C115.409 30.9076 116.078 30.8784 116.745 30.8496L116.702 29.8506ZM112.678 30.0276C112.005 30.0578 111.33 30.0883 110.654 30.1192L110.7 31.1182C111.375 31.0873 112.05 31.0567 112.723 31.0266L112.678 30.0276ZM108.655 30.2117C107.989 30.2428 107.323 30.2742 106.655 30.3061L106.703 31.305C107.37 31.2731 108.036 31.2417 108.701 31.2106L108.655 30.2117ZM104.65 30.4028C103.981 30.4355 103.312 30.4685 102.641 30.502L102.691 31.5008C103.361 31.4673 104.031 31.4343 104.699 31.4017L104.65 30.4028ZM100.629 30.6037C99.9589 30.6379 99.2885 30.6725 98.6179 30.7076L98.6702 31.7063C99.3404 31.6712 100.01 31.6366 100.68 31.6023L100.629 30.6037ZM96.6131 30.8139C95.9446 30.8497 95.2759 30.886 94.6072 30.9228L94.6621 31.9213C95.3304 31.8845 95.9986 31.8483 96.6666 31.8124L96.6131 30.8139ZM92.6012 31.0345C91.9326 31.0722 91.2641 31.1104 90.5959 31.1491L90.6537 32.1474C91.3214 32.1088 91.9894 32.0706 92.6575 32.0329L92.6012 31.0345ZM88.592 31.2666C87.9209 31.3065 87.2501 31.3469 86.5799 31.3878L86.6409 32.3859C87.3105 32.3451 87.9808 32.3047 88.6514 32.2648L88.592 31.2666ZM84.5689 31.5123C83.8992 31.5543 83.2301 31.5969 82.5619 31.64L82.6263 32.6379C83.2939 32.5948 83.9624 32.5523 84.6315 32.5103L84.5689 31.5123ZM80.5596 31.771C79.8932 31.8153 79.2276 31.8601 78.5631 31.9054L78.6313 32.9031C79.2951 32.8578 79.96 32.813 80.6259 32.7688L80.5596 31.771ZM76.56 32.0443C75.8853 32.0917 75.2118 32.1398 74.5397 32.1885L74.612 33.1859C75.2834 33.1372 75.9561 33.0892 76.6302 33.0418L76.56 32.0443ZM72.5279 32.3365C71.8589 32.3865 71.1914 32.4371 70.5256 32.4884L70.6024 33.4854C71.2674 33.4342 71.9341 33.3836 72.6024 33.3337L72.5279 32.3365ZM68.5335 32.6442C67.8712 32.6969 67.2109 32.7502 66.5525 32.8042L66.6342 33.8008C67.2917 33.7469 67.9513 33.6937 68.6127 33.6411L68.5335 32.6442ZM64.5224 32.9734C63.847 33.0306 63.1739 33.0886 62.5033 33.1474L62.5906 34.1435C63.2602 34.0849 63.9323 34.027 64.6068 33.9698L64.5224 32.9734ZM60.4991 33.3259C59.8335 33.3862 59.1707 33.4473 58.5106 33.5092L58.6039 34.5049C59.2629 34.4431 59.9248 34.3821 60.5893 34.3219L60.4991 33.3259ZM56.5388 33.6973C55.8614 33.763 55.1872 33.8297 54.5163 33.8972L54.6164 34.8921C55.2861 34.8248 55.9591 34.7583 56.6354 34.6926L56.5388 33.6973ZM52.49 34.1049C51.8182 34.175 51.1499 34.2461 50.4855 34.3182L50.5933 35.3124C51.2564 35.2405 51.9233 35.1695 52.5939 35.0995L52.49 34.1049ZM48.5037 34.5372C47.847 34.6112 47.1942 34.6861 46.5457 34.762L46.662 35.7553C47.309 35.6795 47.9603 35.6047 48.6156 35.5309L48.5037 34.5372ZM44.5184 35.0043C43.8374 35.0874 43.1613 35.1716 42.4905 35.257L42.6167 36.249C43.2858 36.1638 43.9601 36.0798 44.6395 35.997L44.5184 35.0043ZM40.4935 35.5167C39.8332 35.6044 39.1783 35.6933 38.5289 35.7835L38.6665 36.774C39.3138 36.6841 39.9668 36.5955 40.6253 36.508L40.4935 35.5167ZM36.5847 36.0595C35.8926 36.16 35.2074 36.262 34.5293 36.3654L34.6801 37.354C35.3557 37.2509 36.0386 37.1493 36.7284 37.0491L36.5847 36.0595ZM32.5169 36.6802C31.8534 36.7866 31.1974 36.8946 30.5491 37.0041L30.7156 37.9901C31.3611 37.8811 32.0144 37.7736 32.6753 37.6676L32.5169 36.6802ZM28.6276 37.3372C27.9412 37.4594 27.2642 37.5835 26.597 37.7094L26.7825 38.6921C27.4462 38.5668 28.1198 38.4434 28.8029 38.3217L28.6276 37.3372ZM24.5799 38.1021C23.918 38.235 23.2668 38.37 22.6266 38.507L22.8358 39.4848C23.4717 39.3487 24.1188 39.2147 24.7768 39.0825L24.5799 38.1021ZM20.7394 38.9243C20.0431 39.0834 19.3612 39.2453 18.6945 39.4099L18.9341 40.3807C19.595 40.2176 20.2712 40.0571 20.9622 39.8991L20.7394 38.9243ZM16.7127 39.9193C16.068 40.0919 15.4392 40.2676 14.8271 40.4462L15.1072 41.4061C15.7118 41.2297 16.3334 41.0561 16.9714 40.8852L16.7127 39.9193ZM12.8821 41.042C12.1996 41.2618 11.5412 41.486 10.9079 41.7147L11.2476 42.6552C11.869 42.4308 12.5163 42.2104 13.1886 41.9938L12.8821 41.042ZM9.08408 42.4146C8.41263 42.6891 7.77549 42.97 7.17441 43.2575L7.60593 44.1596C8.18769 43.8813 8.80695 43.6082 9.46244 43.3403L9.08408 42.4146ZM5.35643 44.212C4.73773 44.5707 4.17064 44.9401 3.65881 45.3211L4.25585 46.1233C4.73274 45.7684 5.26724 45.4196 5.85798 45.0771L5.35643 44.212ZM2.07334 46.7296C1.56078 47.2882 1.15432 47.8747 0.869546 48.491L1.77732 48.9105C2.01142 48.4039 2.35467 47.9021 2.81014 47.4057L2.07334 46.7296ZM0.394532 50.6002C0.39423 51.2991 0.542845 52.0094 0.837891 52.7287L1.76309 52.3492C1.51157 51.736 1.39429 51.1544 1.39453 50.6006L0.394532 50.6002ZM1.85081 54.5071C2.23768 55.0407 2.70206 55.581 3.24457 56.1285L3.95488 55.4246C3.44258 54.9076 3.01273 54.4061 2.66043 53.9202L1.85081 54.5071ZM4.72942 57.4837C5.20746 57.8827 5.72663 58.2866 6.28762 58.6954L6.87659 57.8872C6.33147 57.49 5.82976 57.0996 5.3702 56.716L4.72942 57.4837ZM8.09786 59.9378C8.61531 60.2737 9.16044 60.6132 9.7337 60.9562L10.2472 60.0981C9.68363 59.7609 9.14889 59.4278 8.64238 59.099L8.09786 59.9378ZM11.4053 61.9221C11.9871 62.2473 12.5938 62.5757 13.2256 62.9074L13.6904 62.022C13.0658 61.6941 12.4669 61.3698 11.8932 61.0492L11.4053 61.9221ZM15.1971 63.9124C15.7388 64.181 16.2968 64.4517 16.871 64.7245L17.3001 63.8212C16.7307 63.5507 16.1778 63.2824 15.6412 63.0165L15.1971 63.9124ZM18.6094 65.534C19.2048 65.806 19.8161 66.08 20.4435 66.3562L20.8464 65.441C20.223 65.1666 19.6159 64.8944 19.0249 64.6244L18.6094 65.534ZM22.3746 67.1912C23.0346 67.4717 23.711 67.7543 24.4039 68.0392L24.7841 67.1143C24.0947 66.8309 23.422 66.5498 22.7657 66.2709L22.3746 67.1912ZM26.1151 68.7335C26.696 68.9662 27.2877 69.2004 27.8904 69.4359L28.2545 68.5046C27.6543 68.27 27.0652 68.0369 26.487 67.8052L26.1151 68.7335ZM29.7317 70.147C30.3565 70.3855 30.9923 70.6255 31.6394 70.8669L31.989 69.93C31.3442 69.6894 30.7106 69.4503 30.0883 69.2128L29.7317 70.147ZM33.6144 71.5955C34.284 71.8399 34.9648 72.0857 35.6571 72.3331L35.9936 71.3914C35.3034 71.1448 34.6246 70.8997 33.9572 70.6561L33.6144 71.5955ZM37.4465 72.9668C38.0366 73.1739 38.6345 73.3821 39.2404 73.5913L39.5668 72.6461C38.9625 72.4374 38.3662 72.2298 37.7778 72.0232L37.4465 72.9668ZM41.082 74.2221C41.7038 74.4334 42.3337 74.6458 42.9716 74.8592L43.2889 73.9108C42.6524 73.6979 42.024 73.4861 41.4037 73.2753L41.082 74.2221ZM44.9097 75.5025C45.5638 75.718 46.2261 75.9346 46.8966 76.1522L47.2053 75.2011C46.5362 74.9839 45.8753 74.7678 45.2226 74.5527L44.9097 75.5025ZM48.9326 76.8083C49.2761 76.9182 49.6217 77.0284 49.9694 77.1389L50.2722 76.1858C49.9251 76.0755 49.5802 75.9656 49.2373 75.8559L48.9326 76.8083ZM49.9694 77.1389C50.2973 77.243 50.6243 77.3456 50.9506 77.4467L51.2464 76.4914C50.9225 76.3911 50.5977 76.2892 50.2722 76.1858L49.9694 77.1389ZM52.8984 78.0346C53.5445 78.2245 54.1875 78.4084 54.8272 78.5863L55.0951 77.6229C54.4601 77.4463 53.8219 77.2638 53.1804 77.0752L52.8984 78.0346ZM56.7369 79.1023C57.3865 79.2727 58.0327 79.4369 58.6757 79.5951L58.9146 78.6241C58.2766 78.4671 57.6353 78.3041 56.9906 78.135L56.7369 79.1023ZM60.6547 80.0655C61.3108 80.216 61.9635 80.3602 62.6126 80.4983L62.8206 79.5201C62.1767 79.3832 61.5292 79.2402 60.8782 79.0909L60.6547 80.0655ZM64.5497 80.8941C65.2133 81.0241 65.8732 81.1477 66.5295 81.265L66.7055 80.2806C66.0547 80.1643 65.4002 80.0417 64.7421 79.9127L64.5497 80.8941ZM68.5278 81.6048C69.1901 81.7115 69.8486 81.8119 70.5034 81.906L70.6456 80.9162C69.9966 80.8229 69.3437 80.7234 68.687 80.6175L68.5278 81.6048ZM72.4562 82.1696C73.1358 82.2555 73.8112 82.3345 74.4826 82.407L74.5899 81.4128C73.9246 81.3409 73.2551 81.2626 72.5814 81.1775L72.4562 82.1696ZM76.4872 82.6052C77.1513 82.6648 77.8113 82.7179 78.4671 82.7649L78.5385 81.7674C77.8886 81.7209 77.2346 81.6682 76.5766 81.6092L76.4872 82.6052ZM80.4708 82.8896C81.1497 82.9256 81.8242 82.9549 82.4942 82.9777L82.5283 81.9783C81.8645 81.9557 81.1963 81.9266 80.5237 81.891L80.4708 82.8896ZM84.491 83.0269C85.1587 83.0371 85.8218 83.0409 86.4804 83.0385L86.4768 82.0385C85.8244 82.0409 85.1676 82.0371 84.5063 82.027L84.491 83.0269ZM88.5119 83.0113C89.1842 82.9958 89.8519 82.9739 90.5148 82.9458L90.4724 81.9467C89.8159 81.9745 89.1547 81.9962 88.4888 82.0116L88.5119 83.0113ZM92.4943 82.8429C93.1756 82.801 93.8518 82.7525 94.5229 82.6979L94.4418 81.7012C93.7772 81.7553 93.1076 81.8033 92.4329 81.8448L92.4943 82.8429ZM96.5212 82.5158C97.1832 82.449 97.8401 82.3762 98.4921 82.2977L98.3725 81.3049C97.7269 81.3826 97.0763 81.4547 96.4208 81.5208L96.5212 82.5158ZM100.508 82.035C101.174 81.9415 101.835 81.8422 102.491 81.7373L102.333 80.7498C101.683 80.8537 101.029 80.9521 100.369 81.0447L100.508 82.035ZM104.452 81.4045C105.122 81.2843 105.786 81.1584 106.445 81.0272L106.249 80.0465C105.597 80.1765 104.939 80.3011 104.275 80.4202L104.452 81.4045ZM108.404 80.6178C109.059 80.4746 109.709 80.3262 110.353 80.173L110.121 79.2001C109.483 79.3519 108.84 79.499 108.19 79.6409L108.404 80.6178ZM112.315 79.6871C112.963 79.5204 113.606 79.349 114.242 79.1734L113.976 78.2094C113.345 78.3836 112.709 78.5534 112.066 78.7187L112.315 79.6871ZM116.177 78.621C116.825 78.4301 117.467 78.235 118.102 78.036L117.803 77.0817C117.173 77.279 116.537 77.4725 115.895 77.6618L116.177 78.621ZM119.991 77.4277C120.638 77.2138 121.278 76.9962 121.912 76.7754L121.583 75.8311C120.954 76.0502 120.319 76.2661 119.677 76.4783L119.991 77.4277ZM123.793 76.1039C124.426 75.8726 125.053 75.6385 125.673 75.402L125.316 74.4677C124.701 74.7025 124.079 74.935 123.45 75.1646L123.793 76.1039ZM127.547 74.6722C128.168 74.4258 128.782 74.1775 129.388 73.9278L129.008 73.003C128.405 73.2513 127.795 73.498 127.178 73.7428L127.547 74.6722ZM131.256 73.1462C131.872 72.8845 132.48 72.6218 133.081 72.3588L132.68 71.4427C132.082 71.7044 131.477 71.9657 130.865 72.2259L131.256 73.1462ZM134.926 71.541C135.539 71.2658 136.144 70.9909 136.742 70.7169L136.326 69.8078C135.73 70.0808 135.127 70.3547 134.516 70.6287L134.926 71.541ZM138.563 69.875C139.175 69.5899 139.779 69.3065 140.374 69.0257L139.948 68.1213C139.353 68.4016 138.751 68.6842 138.141 68.9686L138.563 69.875ZM142.181 68.1706C142.791 67.8806 143.395 67.5936 143.988 67.312L143.559 66.4087C142.965 66.6909 142.363 66.977 141.752 67.2672L142.181 68.1706ZM145.792 66.4576C146.404 66.1692 147.006 65.8871 147.598 65.6123L147.177 64.7052C146.582 64.9811 145.979 65.2641 145.366 65.5532L145.792 66.4576ZM149.416 64.7793C150.028 64.5028 150.63 64.2361 151.221 63.9805L150.823 63.0627C150.227 63.3208 149.621 63.5896 149.004 63.8678L149.416 64.7793ZM153.072 63.2029C153.695 62.9499 154.306 62.712 154.904 62.4909L154.557 61.553C153.948 61.7782 153.328 62.0199 152.696 62.2763L153.072 63.2029ZM156.776 61.842C157.426 61.6334 158.059 61.449 158.677 61.2912L158.429 60.3224C157.79 60.4858 157.137 60.6759 156.471 60.8898L156.776 61.842ZM160.582 60.8826C161.24 60.771 161.878 60.6964 162.496 60.6619L162.44 59.6634C161.78 59.7003 161.105 59.7796 160.414 59.8967L160.582 60.8826ZM164.417 60.6925C165.064 60.7539 165.687 60.8696 166.289 61.0439L166.567 60.0834C165.902 59.8905 165.217 59.7638 164.512 59.697L164.417 60.6925ZM168.037 61.7508C168.576 62.0363 169.1 62.3816 169.609 62.7924L170.237 62.0143C169.68 61.5647 169.103 61.1836 168.505 60.8671L168.037 61.7508ZM170.985 64.1072C171.396 64.565 171.797 65.0747 172.189 65.6397L173.011 65.0704C172.598 64.4738 172.171 63.9308 171.729 63.4391L170.985 64.1072ZM173.216 67.2922C173.516 67.8275 173.81 68.4001 174.097 69.0117L175.002 68.5865C174.706 67.955 174.401 67.3609 174.088 66.8031L173.216 67.2922ZM174.904 70.8729C175.131 71.4403 175.354 72.0351 175.572 72.6582L176.516 72.3271C176.293 71.6912 176.065 71.0828 175.832 70.5011L174.904 70.8729ZM176.211 74.5974C176.394 75.1891 176.574 75.8029 176.75 76.4392L177.714 76.1716C177.535 75.5266 177.352 74.9035 177.166 74.302L176.211 74.5974ZM177.262 78.3814C177.346 78.7161 177.429 79.0564 177.512 79.4024L178.484 79.1707C178.401 78.8211 178.317 78.477 178.232 78.1384L177.262 78.3814ZM177.512 79.1707C177.427 79.5265 177.342 79.8756 177.257 80.2182L178.228 80.4583C178.313 80.1129 178.399 79.761 178.484 79.4024L177.512 79.1707ZM176.749 82.195C176.568 82.8722 176.387 83.52 176.205 84.1394L177.165 84.4202C177.349 83.7929 177.532 83.1377 177.715 82.4536L176.749 82.195ZM175.609 86.0766C175.386 86.7602 175.164 87.4024 174.941 88.0049L175.88 88.3514C176.107 87.7354 176.334 87.0807 176.56 86.3857L175.609 86.0766ZM174.213 89.8361C173.926 90.5027 173.639 91.1058 173.352 91.6494L174.236 92.1163C174.537 91.5463 174.836 90.919 175.132 90.2315L174.213 89.8361ZM172.326 93.3459C171.905 93.942 171.488 94.4164 171.075 94.7858L171.742 95.5313C172.222 95.102 172.688 94.5675 173.143 93.922L172.326 93.3459ZM169.501 95.7278C168.932 95.9096 168.348 95.9357 167.735 95.8261L167.559 96.8105C168.313 96.9454 169.064 96.9172 169.805 96.6803L169.501 95.7278ZM165.96 95.1883C165.42 94.9102 164.863 94.5567 164.286 94.1402L163.701 94.9512C164.306 95.3882 164.907 95.7703 165.502 96.0771L165.96 95.1883ZM162.714 92.9037C162.218 92.486 161.711 92.0377 161.191 91.5669L160.52 92.3079C161.044 92.7837 161.561 93.2406 162.07 93.6687L162.714 92.9037ZM159.691 90.1847C159.201 89.729 158.7 89.2612 158.19 88.7902L157.511 89.525C158.02 89.9942 158.518 90.4596 159.01 90.9169L159.691 90.1847ZM156.668 87.4077C156.159 86.9541 155.639 86.5024 155.109 86.0586L154.467 86.8255C154.988 87.2614 155.5 87.7062 156.003 88.1544L156.668 87.4077ZM153.496 84.765C152.948 84.3452 152.387 83.9387 151.815 83.5516L151.255 84.3798C151.809 84.7547 152.353 85.1497 152.889 85.5593L153.496 84.765ZM150.051 82.4479C149.446 82.1007 148.827 81.7793 148.194 81.4902L147.779 82.3997C148.381 82.6748 148.972 82.9819 149.554 83.3154L150.051 82.4479ZM146.241 80.7214C145.576 80.5024 144.897 80.3226 144.203 80.1886L144.013 81.1705C144.663 81.2959 145.301 81.4646 145.928 81.6712L146.241 80.7214ZM142.107 79.9323C141.417 79.8968 140.715 79.9088 139.999 79.9738L140.089 80.9697C140.757 80.9091 141.413 80.8979 142.056 80.931L142.107 79.9323ZM137.924 80.3064C137.264 80.4579 136.595 80.6551 135.915 80.9015L136.256 81.8416C136.899 81.6087 137.529 81.4231 138.148 81.281L137.924 80.3064ZM133.983 81.7246C133.374 82.0221 132.758 82.3592 132.134 82.7383L132.653 83.593C133.252 83.229 133.842 82.9065 134.422 82.623L133.983 81.7246ZM130.429 83.8654C129.882 84.2566 129.329 84.68 128.769 85.1373L129.402 85.9115C129.946 85.4673 130.482 85.057 131.011 84.679L130.429 83.8654ZM127.211 86.485C126.719 86.9337 126.222 87.4084 125.72 87.9102L126.427 88.6172C126.919 88.1258 127.404 87.6618 127.884 87.224L127.211 86.485ZM124.29 89.4005C124.05 89.6611 123.808 89.928 123.565 90.2011L124.313 90.8654C124.552 90.5968 124.789 90.3346 125.025 90.0787L124.29 89.4005Z" fill="#D9E0ED"/>
<g filter="url(#filter0_d_764_392)">
<path d="M99.1466 44.0469H74.3541C72.4754 44.0469 70.6737 44.7973 69.3452 46.1331C68.0168 47.4689 67.2705 49.2807 67.2705 51.1698V108.153C67.2705 110.042 68.0168 111.854 69.3452 113.19C70.6737 114.526 72.4754 115.276 74.3541 115.276H116.855C118.734 115.276 120.536 114.526 121.864 113.19C123.193 111.854 123.939 110.042 123.939 108.153V68.9771L99.1466 44.0469Z" fill="#0052CC"/>
<path d="M99.1466 44.0469H74.3541C72.4754 44.0469 70.6737 44.7973 69.3452 46.1331C68.0168 47.4689 67.2705 49.2807 67.2705 51.1698V108.153C67.2705 110.042 68.0168 111.854 69.3452 113.19C70.6737 114.526 72.4754 115.276 74.3541 115.276H116.855C118.734 115.276 120.536 114.526 121.864 113.19C123.193 111.854 123.939 110.042 123.939 108.153V68.9771L99.1466 44.0469Z" stroke="black"/>
</g>
<path d="M99.1465 44.0469V68.9771H123.939" fill="#90C5FF"/>
<path d="M95.7658 108.028L87.0841 94.8881C87.0159 94.7787 86.9211 94.6886 86.8087 94.6261C86.6962 94.5636 86.5697 94.5309 86.4409 94.5309C86.3122 94.5309 86.1854 94.5636 86.0725 94.6261C85.9595 94.6886 85.8641 94.7787 85.7951 94.8881L81.6902 101.046C81.6172 101.154 81.5185 101.243 81.4031 101.303C81.2877 101.364 81.1592 101.394 81.0293 101.392C80.8994 101.39 80.7721 101.356 80.659 101.292C80.5459 101.228 80.4506 101.137 80.3816 101.027L78.4981 98.0652C78.4252 97.956 78.3267 97.8665 78.2111 97.8047C78.0955 97.7428 77.9665 97.7105 77.8354 97.7105C77.7042 97.7105 77.5749 97.7428 77.4589 97.8047C77.3429 97.8665 77.2437 97.956 77.17 98.0652L70.7658 108.028H95.7658Z" stroke="white" stroke-linecap="round" stroke-linejoin="round"/>
<path d="M109.281 106.654V88.9868" stroke="white" stroke-width="2" stroke-linecap="round" stroke-linejoin="round"/>
<path d="M101.172 97.1407L109.281 88.9868L117.39 97.1407" stroke="white" stroke-width="2" stroke-linecap="round" stroke-linejoin="round"/>
<path d="M153.917 57.1398L155.62 55.4482C156.072 54.9996 156.327 54.3899 156.329 53.7533C156.331 53.1167 156.08 52.5053 155.631 52.0536C155.183 51.6019 154.573 51.3469 153.936 51.3448C153.3 51.3426 152.688 51.5935 152.237 52.0421L150.534 53.7336L155.608 58.8428" stroke="#7EDF99" stroke-linecap="round" stroke-linejoin="round"/>
<path d="M147.128 57.1166L150.511 60.5228C150.96 60.9744 151.21 61.5858 151.208 62.2224C151.206 62.8591 150.951 63.4687 150.499 63.9174C150.048 64.366 149.436 64.6168 148.8 64.6147C148.163 64.6125 147.553 64.3575 147.105 63.9059" stroke="#7EDF99" stroke-linecap="round" stroke-linejoin="round"/>
<path d="M162.224 47.6205L163.501 46.3518L164.749 47.6078C164.872 48.1362 164.859 48.6871 164.713 49.2095C164.567 49.7319 164.291 50.209 163.911 50.5965C162.612 51.8863 160.438 51.7835 159.032 50.3678C157.626 48.9522 157.538 46.7772 158.836 45.4873C159.295 45.0306 159.886 44.7316 160.526 44.6338" stroke="#7EDF99" stroke-linecap="round" stroke-linejoin="round"/>
<path d="M140.344 55.3964L131.041 46.0296C130.816 45.8038 130.691 45.4981 130.692 45.1798C130.693 44.8615 130.821 44.5566 131.046 44.3323L141.265 34.183L153.146 34.2232L157.375 38.4809" stroke="#7EDF99" stroke-linecap="round" stroke-linejoin="round"/>
<path d="M141.264 34.183L147.184 40.1437L153.145 34.2232" stroke="#7EDF99" stroke-linecap="round" stroke-linejoin="round"/>
<path d="M68.9607 21.944L70.6611 22.3577C71.1121 22.4674 71.5882 22.3935 71.9847 22.1522C72.3811 21.9109 72.6655 21.5219 72.7752 21.071C72.8849 20.62 72.811 20.1439 72.5697 19.7474C72.3284 19.351 71.9395 19.0666 71.4885 18.9569L69.7881 18.5432L68.5471 23.6444" stroke="#F9C729" stroke-linecap="round" stroke-linejoin="round"/>
<path d="M66.3871 17.716L65.5598 21.1168C65.4501 21.5678 65.1657 21.9567 64.7692 22.198C64.3728 22.4393 63.8967 22.5133 63.4457 22.4036C62.9947 22.2938 62.6058 22.0095 62.3645 21.613C62.1232 21.2165 62.0493 20.7405 62.159 20.2895" stroke="#F9C729" stroke-linecap="round" stroke-linejoin="round"/>
<path d="M83.0427 25.4783L84.3181 25.7886L84.013 27.0426C83.7315 27.3205 83.3844 27.5228 83.0039 27.6309C82.6235 27.7391 82.2219 27.7495 81.8363 27.6612C80.5397 27.3458 79.7749 25.9553 80.1187 24.5418C80.4626 23.1284 81.7808 22.2446 83.0773 22.56C83.5358 22.6707 83.9472 22.9245 84.2518 23.2847" stroke="#F9C729" stroke-linecap="round" stroke-linejoin="round"/>
<path d="M67.8705 14.8445L70.1457 5.49229C70.2006 5.2668 70.3427 5.07234 70.541 4.95169C70.7392 4.83103 70.9773 4.79407 71.2027 4.84893L81.4052 7.33096L85.9087 14.7302L84.8746 18.9812" stroke="#F9C729" stroke-linecap="round" stroke-linejoin="round"/>
<path d="M81.4048 7.33032L79.9569 13.2817L85.9083 14.7296" stroke="#F9C729" stroke-linecap="round" stroke-linejoin="round"/>
<path d="M77.4067 23.2947L74.8193 22.5874" stroke="#F9C729" stroke-linecap="round" stroke-linejoin="round"/>
<path d="M77.1309 26L74.1123 25.1748L75.5269 20.0001L78.5454 20.8253" stroke="#F9C729" stroke-linecap="round" stroke-linejoin="round"/>
<path d="M30.6354 82.1015L32.3472 81.0672C32.8012 80.7929 33.1277 80.3495 33.2547 79.8345C33.3818 79.3196 33.2991 78.7752 33.0248 78.3212C32.7505 77.8672 32.3071 77.5407 31.7921 77.4137C31.2771 77.2866 30.7327 77.3693 30.2787 77.6436L28.5669 78.6779L31.6696 83.8133" stroke="#0052CC" stroke-linecap="round" stroke-linejoin="round"/>
<path d="M38.5173 79.6764L35.4146 74.5409L42.3689 77.3493L39.2661 72.2138" stroke="#0052CC" stroke-linecap="round" stroke-linejoin="round"/>
<path d="M47.3658 71.1172L48.6497 70.3415L49.4124 71.6039C49.408 72.056 49.2896 72.4996 49.0682 72.8937C48.8469 73.2878 48.5297 73.6198 48.146 73.8588C46.8407 74.6474 45.1005 74.1361 44.2408 72.7131C43.3811 71.2902 43.7379 69.5119 45.0432 68.7233C45.5041 68.4437 46.0421 68.3182 46.5792 68.3649" stroke="#0052CC" stroke-linecap="round" stroke-linejoin="round"/>
<path d="M26.4096 74.1398L20.7212 64.7248C20.5841 64.4978 20.5427 64.2256 20.6063 63.9681C20.6698 63.7106 20.833 63.4889 21.06 63.3518L31.3309 57.1463L40.9422 59.5178L43.5278 63.7973" stroke="#0052CC" stroke-linecap="round" stroke-linejoin="round"/>
<path d="M31.3306 57.1462L34.9504 63.1376L40.9418 59.5177" stroke="#0052CC" stroke-linecap="round" stroke-linejoin="round"/>
<defs>
<filter id="filter0_d_764_392" x="60.2705" y="41.0469" width="70.6685" height="85.2292" filterUnits="userSpaceOnUse" color-interpolation-filters="sRGB">
<feFlood flood-opacity="0" result="BackgroundImageFix"/>
<feColorMatrix in="SourceAlpha" type="matrix" values="0 0 0 0 0 0 0 0 0 0 0 0 0 0 0 0 0 0 127 0" result="hardAlpha"/>
<feOffset dy="4"/>
<feGaussianBlur stdDeviation="3.5"/>
<feComposite in2="hardAlpha" operator="out"/>
<feColorMatrix type="matrix" values="0 0 0 0 0 0 0 0 0 0 0 0 0 0 0 0 0 0 0.15 0"/>
<feBlend mode="normal" in2="BackgroundImageFix" result="effect1_dropShadow_764_392"/>
<feBlend mode="normal" in="SourceGraphic" in2="effect1_dropShadow_764_392" result="shape"/>
</filter>
</defs>
</svg>
