<svg width="183" height="173" viewBox="0 0 183 173" fill="none" xmlns="http://www.w3.org/2000/svg">
<g clip-path="url(#clip0_6098_1426)">
<path d="M93.1038 151.875H30.4286C19.2239 151.875 10.1429 142.81 10.1429 131.625V35.4375C10.1429 32.6531 7.87339 30.375 5.07143 30.375C2.26946 30.375 0 32.6531 0 35.4375V131.625C0 148.401 13.6231 162 30.4286 162H93.1038C95.9045 162 98.1752 159.733 98.1752 156.938C98.1752 154.142 95.8931 151.875 93.1038 151.875Z" fill="black"/>
<path d="M105.829 5.94527L135.785 35.8488C139.588 39.6457 141.712 44.7715 141.712 50.1504V82.2044C141.712 85.0053 139.441 87.2758 136.641 87.2758C133.84 87.2758 131.569 85.0053 131.569 82.2044V50.625H106.212C97.8125 50.625 90.9978 43.8223 90.9978 35.4375V10.125H50.4263C44.8351 10.125 40.2835 14.6686 40.2835 20.25V111.375C40.2835 116.956 44.8351 121.5 50.4263 121.5H92.2522C95.0475 121.5 97.3138 123.766 97.3147 126.561C97.3155 129.357 95.0487 131.625 92.2522 131.625H50.4294C39.2248 131.625 30.1437 122.56 30.1437 111.375L30.1406 20.25C30.1406 9.06504 39.2375 0 50.4263 0H91.4732C96.8616 0 101.996 2.13321 105.829 5.94527Z" fill="black"/>
</g>
<g clip-path="url(#clip1_6098_1426)">
<path d="M143 93C120.906 93 103 110.906 103 133C103 155.094 120.906 173 143 173C165.094 173 183 155.094 183 133C183 110.906 165.094 93 143 93ZM143 155.5C140.188 155.5 138 153.312 138 150.5C138 147.688 140.047 145.5 143 145.5C145.672 145.5 148 147.688 148 150.5C148 153.312 145.672 155.5 143 155.5ZM153.797 133.312L146.75 137.688V138C146.75 140.031 145.031 141.75 143 141.75C140.969 141.75 139.25 140.031 139.25 138V135.5C139.25 134.25 139.875 133 141.125 132.219L150.031 126.906C151.125 126.281 151.75 125.188 151.75 123.938C151.75 122.062 150.047 120.5 148.172 120.5H140.188C138.172 120.5 136.75 122.062 136.75 123.938C136.75 125.969 135.031 127.688 133 127.688C130.969 127.688 129.25 125.969 129.25 123.938C129.25 117.844 134.094 113 140.047 113H148.031C154.406 113 159.25 117.844 159.25 123.938C159.25 127.688 157.219 131.281 153.797 133.312Z" fill="black"/>
</g>
<defs>
<clipPath id="clip0_6098_1426">
<rect width="142" height="162" fill="white"/>
</clipPath>
<clipPath id="clip1_6098_1426">
<rect width="80" height="80" fill="white" transform="translate(103 93)"/>
</clipPath>
</defs>
</svg>
