<svg width="242" height="260" viewBox="0 0 242 260" fill="none" xmlns="http://www.w3.org/2000/svg">
<path d="M27.4074 153.153C16.4771 121.853 27.4074 90.5848 54.9374 123.12C120.864 201.034 136.277 4.24083 189.357 52.0756C225.744 84.8666 228.985 150.064 189.356 189.693C150.041 234.492 54.9374 231.989 27.4074 153.153Z" fill="#DDEDFF"/>
<path d="M111.239 38.858L44.9296 59.6724C42.2948 60.4995 40.8294 63.3057 41.6565 65.9402L76.9876 178.48C77.8147 181.115 80.621 182.58 83.2558 181.753L174.062 153.249C174.138 153.225 174.204 153.206 174.281 153.184C175.704 152.777 191.135 147.978 186.341 132.71C181.784 118.194 177.911 104.547 175.571 100.932C170.951 93.7968 164.872 91.4953 159.898 91.2797C157.323 91.168 154.776 89.7859 153.984 87.333L143.771 55.6801C139.386 42.0914 124.863 34.5814 111.239 38.858Z" fill="black"/>
<rect width="85.4469" height="120.999" rx="4" transform="matrix(0.952942 -0.303256 0.303272 0.952871 52.5903 65.1172)" fill="#FBFBFB"/>
<path d="M93.2719 44.4958L44.9296 59.6705C42.2948 60.4975 40.8294 63.3037 41.6565 65.9383L76.9877 178.479C77.8148 181.113 80.6212 182.579 83.2559 181.752L164.874 156.132C164.953 156.107 165.022 156.087 165.102 156.064C166.531 155.655 181.439 150.989 176.618 135.632C172.026 121.005 167.904 108.238 165.587 104.583C161.059 97.4391 155.188 95.0386 150.37 94.7297C147.788 94.5642 145.236 93.1642 144.462 90.6967L137.15 67.4052C131.36 48.9633 111.715 38.7064 93.2719 44.4958Z" fill="#7C9CFF"/>
<path d="M41.6591 65.9383C40.8321 63.3037 42.2975 60.4975 44.9322 59.6704L51.9207 57.4765L90.2486 179.571L83.2601 181.764C80.6254 182.592 77.819 181.126 76.992 178.492L41.6591 65.9383Z" fill="#0069DE"/>
<rect width="85.5694" height="121.182" rx="2" transform="matrix(0.999953 -0.00970412 0.00956014 0.999954 85.4307 67.8574)" fill="white"/>
<path d="M160.315 123.824C160.315 125.091 159.931 126.324 159.165 127.524C158.398 128.691 157.298 129.658 155.865 130.424C154.431 131.191 152.715 131.574 150.715 131.574H149.415L150.415 140.324H153.415L153.765 134.324C155.631 134.224 157.365 133.708 158.965 132.774C160.565 131.808 161.865 130.558 162.865 129.024C163.865 127.458 164.365 125.724 164.365 123.824C164.365 122.324 164.081 120.941 163.515 119.674C162.981 118.408 162.215 117.308 161.215 116.374C160.248 115.408 159.098 114.658 157.765 114.124C156.465 113.591 155.031 113.324 153.465 113.324C151.498 113.324 149.831 113.574 148.465 114.074C147.131 114.541 145.998 115.224 145.065 116.124C144.131 116.991 143.281 118.008 142.515 119.174L145.765 121.224C146.531 119.958 147.498 118.958 148.665 118.224C149.865 117.458 151.298 117.074 152.965 117.074C154.465 117.074 155.765 117.341 156.865 117.874C157.965 118.408 158.815 119.174 159.415 120.174C160.015 121.174 160.315 122.391 160.315 123.824ZM149.265 146.824C149.265 147.558 149.531 148.208 150.065 148.774C150.631 149.308 151.281 149.574 152.015 149.574C152.781 149.574 153.431 149.308 153.965 148.774C154.498 148.208 154.765 147.558 154.765 146.824C154.765 146.058 154.498 145.408 153.965 144.874C153.431 144.341 152.781 144.074 152.015 144.074C151.281 144.074 150.631 144.341 150.065 144.874C149.531 145.408 149.265 146.058 149.265 146.824Z" fill="#C6D2F8"/>
<rect width="69.4915" height="2.43747" rx="1.21874" transform="matrix(0.999989 0.00470627 -0.00485018 0.999988 94.0996 83.123)" fill="#C6D2F8"/>
<rect width="45.7181" height="2.43747" rx="1.21874" transform="matrix(0.999989 0.00470618 -0.00485028 0.999988 94.132 76.4199)" fill="#C6D2F8"/>
<rect width="69.4915" height="2.43747" rx="1.21874" transform="matrix(0.999989 0.00470627 -0.00485018 0.999988 94.067 89.8262)" fill="#C6D2F8"/>
<rect width="69.4915" height="2.43747" rx="1.21874" transform="matrix(0.999989 0.00470627 -0.00485018 0.999988 94.0342 96.5293)" fill="#C6D2F8"/>
<rect width="69.4915" height="2.43747" rx="1.21874" transform="matrix(0.999989 0.0047064 -0.00485005 0.999988 94.0018 103.23)" fill="#C6D2F8"/>
<rect width="69.4915" height="2.43747" rx="1.21874" transform="matrix(0.999989 0.00470627 -0.00485018 0.999988 93.9695 157.053)" fill="#C6D2F8"/>
<rect width="69.4915" height="2.43747" rx="1.21874" transform="matrix(0.999989 0.0047064 -0.00485005 0.999988 93.8894 170.617)" fill="#C6D2F8"/>
<rect width="45.7181" height="2.43747" rx="1.21873" transform="matrix(0.999989 0.00470592 -0.00485053 0.999988 93.9221 163.914)" fill="#C6D2F8"/>
<rect width="33.3087" height="2.43746" rx="1.21873" transform="matrix(0.99998 0.00634342 -0.00359839 0.999994 93.9189 143.631)" fill="#C6D2F8"/>
<rect width="45.7181" height="2.43747" rx="1.21873" transform="matrix(0.999989 0.00470592 -0.00485053 0.999988 93.9221 150.191)" fill="#C6D2F8"/>
<rect width="33.3087" height="2.43746" rx="1.21873" transform="matrix(0.99998 0.00634342 -0.00359839 0.999994 93.9191 137.166)" fill="#C6D2F8"/>
<rect width="33.3087" height="2.43746" rx="1.21873" transform="matrix(0.99998 0.00634342 -0.00359839 0.999994 93.9191 130.703)" fill="#C6D2F8"/>
<rect width="33.3087" height="2.43746" rx="1.21873" transform="matrix(0.99998 0.00634342 -0.00359839 0.999994 93.9191 124.236)" fill="#C6D2F8"/>
<rect width="41.7818" height="2.43746" rx="1.21873" transform="matrix(0.999987 0.00514926 -0.00443291 0.99999 93.921 117.773)" fill="#C6D2F8"/>
<rect width="45.7181" height="2.43747" rx="1.21873" transform="matrix(0.999989 0.00470592 -0.00485053 0.999988 93.9222 111.309)" fill="#C6D2F8"/>
<rect width="69.4915" height="2.43747" rx="1.21874" transform="matrix(0.999989 0.00470627 -0.00485018 0.999988 93.8571 177.318)" fill="#C6D2F8"/>
</svg>
