<svg width="162" height="162" viewBox="0 0 162 162" fill="none" xmlns="http://www.w3.org/2000/svg">
<g clip-path="url(#clip0_6098_1437)">
<path d="M121.5 65.8125C121.5 58.4995 120.06 51.2581 117.261 44.5018C114.462 37.7455 110.361 31.6066 105.19 26.4355C100.018 21.2644 93.8795 17.1625 87.1232 14.364C80.3669 11.5654 73.1255 10.125 65.8125 10.125C58.4995 10.125 51.2581 11.5654 44.5018 14.364C37.7455 17.1625 31.6066 21.2644 26.4355 26.4355C21.2644 31.6066 17.1625 37.7455 14.364 44.5018C11.5654 51.2581 10.125 58.4995 10.125 65.8125C10.125 73.1255 11.5654 80.3669 14.364 87.1232C17.1625 93.8795 21.2644 100.018 26.4355 105.19C31.6066 110.361 37.7455 114.462 44.5018 117.261C51.2581 120.06 58.4995 121.5 65.8125 121.5C73.1255 121.5 80.3669 120.06 87.1232 117.261C93.8795 114.462 100.018 110.361 105.19 105.19C110.361 100.018 114.462 93.8795 117.261 87.1232C120.06 80.3669 121.5 73.1255 121.5 65.8125ZM108.622 115.805C97.1367 125.677 82.1707 131.625 65.8125 131.625C29.4574 131.625 0 102.168 0 65.8125C0 29.4574 29.4574 0 65.8125 0C102.168 0 131.625 29.4574 131.625 65.8125C131.625 82.1707 125.677 97.1367 115.805 108.622L160.513 153.362C162.475 155.324 162.475 158.551 160.513 160.513C158.551 162.475 155.324 162.475 153.362 160.513L108.622 115.805Z" fill="black"/>
<g clip-path="url(#clip1_6098_1437)">
<path d="M66 106C88.0937 106 106 88.0937 106 66C106 43.9063 88.0937 26 66 26C43.9063 26 26 43.9063 26 66C26 88.0937 43.9063 106 66 106ZM53.3438 53.3438C54.8125 51.875 57.1875 51.875 58.6406 53.3438L65.9844 60.6875L73.3281 53.3438C74.7969 51.875 77.1719 51.875 78.625 53.3438C80.0781 54.8125 80.0937 57.1875 78.625 58.6406L71.2812 65.9844L78.625 73.3281C80.0937 74.7969 80.0937 77.1719 78.625 78.625C77.1562 80.0781 74.7812 80.0937 73.3281 78.625L65.9844 71.2812L58.6406 78.625C57.1719 80.0937 54.7969 80.0937 53.3438 78.625C51.8906 77.1562 51.875 74.7812 53.3438 73.3281L60.6875 65.9844L53.3438 58.6406C51.875 57.1719 51.875 54.7969 53.3438 53.3438Z" fill="black"/>
</g>
</g>
<defs>
<clipPath id="clip0_6098_1437">
<rect width="162" height="162" fill="white"/>
</clipPath>
<clipPath id="clip1_6098_1437">
<rect width="80" height="80" fill="white" transform="translate(26 26)"/>
</clipPath>
</defs>
</svg>
