<svg width="168" height="168" viewBox="0 0 168 168" fill="none" xmlns="http://www.w3.org/2000/svg">
<path d="M100.523 95H67.4772C36.2925 95 11 120.373 11 151.664C11 157.922 16.0579 163 22.2954 163H145.711C151.949 163.01 157 157.942 157 151.664C157 120.373 131.711 95 100.523 95ZM145.692 152.547H22.2954C21.8196 152.547 21.4286 152.154 21.4286 151.664C21.4286 126.193 42.0902 105.463 67.4772 105.463H100.49C125.91 105.463 146.571 126.193 146.571 151.664C146.571 152.154 146.18 152.547 145.692 152.547Z" fill="black"/>
<g clip-path="url(#clip0_6102_1461)">
<path d="M84 5C61.9063 5 44 22.9063 44 45C44 67.0937 61.9063 85 84 85C106.094 85 124 67.0937 124 45C124 22.9063 106.094 5 84 5ZM84 67.5C81.1875 67.5 79 65.3125 79 62.5C79 59.6875 81.0469 57.5 84 57.5C86.6719 57.5 89 59.6875 89 62.5C89 65.3125 86.6719 67.5 84 67.5ZM94.7969 45.3125L87.75 49.6875V50C87.75 52.0312 86.0312 53.75 84 53.75C81.9688 53.75 80.25 52.0312 80.25 50V47.5C80.25 46.25 80.875 45 82.125 44.2188L91.0312 38.9062C92.125 38.2812 92.75 37.1875 92.75 35.9375C92.75 34.0625 91.0469 32.5 89.1719 32.5H81.1875C79.1719 32.5 77.75 34.0625 77.75 35.9375C77.75 37.9688 76.0312 39.6875 74 39.6875C71.9688 39.6875 70.25 37.9688 70.25 35.9375C70.25 29.8438 75.0938 25 81.0469 25H89.0313C95.4063 25 100.25 29.8438 100.25 35.9375C100.25 39.6875 98.2188 43.2812 94.7969 45.3125Z" fill="black"/>
</g>
<defs>
<clipPath id="clip0_6102_1461">
<rect width="80" height="80" fill="white" transform="translate(44 5)"/>
</clipPath>
</defs>
</svg>
