<svg width="46" height="35" viewBox="0 0 46 35" fill="none" xmlns="http://www.w3.org/2000/svg">
<path d="M9.67024 25.1153C10.82 25.1153 11.9226 24.6585 12.7356 23.8455C13.5486 23.0326 14.0054 21.9299 14.0054 20.7802C14.0054 19.6304 13.5486 18.5278 12.7356 17.7148C11.9226 16.9018 10.82 16.445 9.67024 16.445C8.52049 16.445 7.41784 16.9018 6.60485 17.7148C5.79185 18.5278 5.33512 19.6304 5.33512 20.7802C5.33512 21.9299 5.79185 23.0326 6.60485 23.8455C7.41784 24.6585 8.52049 25.1153 9.67024 25.1153V25.1153ZM9.67024 26.5603C8.13724 26.5603 6.66704 25.9513 5.58305 24.8673C4.49906 23.7834 3.89008 22.3132 3.89008 20.7802C3.89008 19.2472 4.49906 17.777 5.58305 16.693C6.66704 15.609 8.13724 15 9.67024 15C11.2032 15 12.6734 15.609 13.7574 16.693C14.8414 17.777 15.4504 19.2472 15.4504 20.7802C15.4504 22.3132 14.8414 23.7834 13.7574 24.8673C12.6734 25.9513 11.2032 26.5603 9.67024 26.5603ZM16.8954 33.7855V31.618C16.8954 31.0431 16.6671 30.4918 16.2606 30.0853C15.8541 29.6788 15.3027 29.4504 14.7279 29.4504H4.6126C4.03773 29.4504 3.4864 29.6788 3.0799 30.0853C2.67341 30.4918 2.44504 31.0431 2.44504 31.618V33.7855C2.44504 33.9771 2.36892 34.1609 2.23342 34.2964C2.09792 34.4319 1.91414 34.508 1.72252 34.508C1.5309 34.508 1.34712 34.4319 1.21162 34.2964C1.07612 34.1609 1 33.9771 1 33.7855V31.618C1 30.6598 1.38061 29.741 2.05811 29.0635C2.7356 28.386 3.65448 28.0054 4.6126 28.0054H14.7279C15.686 28.0054 16.6049 28.386 17.2824 29.0635C17.9599 29.741 18.3405 30.6598 18.3405 31.618V33.7855C18.3405 33.9771 18.2644 34.1609 18.1289 34.2964C17.9934 34.4319 17.8096 34.508 17.618 34.508C17.4263 34.508 17.2426 34.4319 17.1071 34.2964C16.9716 34.1609 16.8954 33.9771 16.8954 33.7855Z" fill="#0069DE"/>
<path d="M35.6702 25.1153C36.82 25.1153 37.9226 24.6585 38.7356 23.8455C39.5486 23.0326 40.0054 21.9299 40.0054 20.7802C40.0054 19.6304 39.5486 18.5278 38.7356 17.7148C37.9226 16.9018 36.82 16.445 35.6702 16.445C34.5205 16.445 33.4178 16.9018 32.6048 17.7148C31.7919 18.5278 31.3351 19.6304 31.3351 20.7802C31.3351 21.9299 31.7919 23.0326 32.6048 23.8455C33.4178 24.6585 34.5205 25.1153 35.6702 25.1153V25.1153ZM35.6702 26.5603C34.1372 26.5603 32.667 25.9513 31.583 24.8673C30.4991 23.7834 29.8901 22.3132 29.8901 20.7802C29.8901 19.2472 30.4991 17.777 31.583 16.693C32.667 15.609 34.1372 15 35.6702 15C37.2032 15 38.6734 15.609 39.7574 16.693C40.8414 17.777 41.4504 19.2472 41.4504 20.7802C41.4504 22.3132 40.8414 23.7834 39.7574 24.8673C38.6734 25.9513 37.2032 26.5603 35.6702 26.5603ZM42.8954 33.7855V31.618C42.8954 31.0431 42.6671 30.4918 42.2606 30.0853C41.8541 29.6788 41.3027 29.4504 40.7279 29.4504H30.6126C30.0377 29.4504 29.4864 29.6788 29.0799 30.0853C28.6734 30.4918 28.445 31.0431 28.445 31.618V33.7855C28.445 33.9771 28.3689 34.1609 28.2334 34.2964C28.0979 34.4319 27.9141 34.508 27.7225 34.508C27.5309 34.508 27.3471 34.4319 27.2116 34.2964C27.0761 34.1609 27 33.9771 27 33.7855V31.618C27 30.6598 27.3806 29.741 28.0581 29.0635C28.7356 28.386 29.6545 28.0054 30.6126 28.0054H40.7279C41.686 28.0054 42.6049 28.386 43.2824 29.0635C43.9599 29.741 44.3405 30.6598 44.3405 31.618V33.7855C44.3405 33.9771 44.2644 34.1609 44.1289 34.2964C43.9934 34.4319 43.8096 34.508 43.618 34.508C43.4263 34.508 43.2426 34.4319 43.1071 34.2964C42.9716 34.1609 42.8954 33.9771 42.8954 33.7855Z" fill="#0069DE"/>
<path d="M22.6702 19.1153C23.82 19.1153 24.9226 18.6585 25.7356 17.8455C26.5486 17.0326 27.0054 15.9299 27.0054 14.7802C27.0054 13.6304 26.5486 12.5278 25.7356 11.7148C24.9226 10.9018 23.82 10.445 22.6702 10.445C21.5205 10.445 20.4178 10.9018 19.6048 11.7148C18.7919 12.5278 18.3351 13.6304 18.3351 14.7802C18.3351 15.9299 18.7919 17.0326 19.6048 17.8455C20.4178 18.6585 21.5205 19.1153 22.6702 19.1153V19.1153ZM22.6702 20.5603C21.1372 20.5603 19.667 19.9513 18.583 18.8673C17.4991 17.7834 16.8901 16.3132 16.8901 14.7802C16.8901 13.2472 17.4991 11.777 18.583 10.693C19.667 9.60898 21.1372 9 22.6702 9C24.2032 9 25.6734 9.60898 26.7574 10.693C27.8414 11.777 28.4504 13.2472 28.4504 14.7802C28.4504 16.3132 27.8414 17.7834 26.7574 18.8673C25.6734 19.9513 24.2032 20.5603 22.6702 20.5603ZM29.8954 27.7855V25.618C29.8954 25.0431 29.6671 24.4918 29.2606 24.0853C28.8541 23.6788 28.3027 23.4504 27.7279 23.4504H17.6126C17.0377 23.4504 16.4864 23.6788 16.0799 24.0853C15.6734 24.4918 15.445 25.0431 15.445 25.618V27.7855C15.445 27.9771 15.3689 28.1609 15.2334 28.2964C15.0979 28.4319 14.9141 28.508 14.7225 28.508C14.5309 28.508 14.3471 28.4319 14.2116 28.2964C14.0761 28.1609 14 27.9771 14 27.7855V25.618C14 24.6598 14.3806 23.741 15.0581 23.0635C15.7356 22.386 16.6545 22.0054 17.6126 22.0054H27.7279C28.686 22.0054 29.6049 22.386 30.2824 23.0635C30.9599 23.741 31.3405 24.6598 31.3405 25.618V27.7855C31.3405 27.9771 31.2644 28.1609 31.1289 28.2964C30.9934 28.4319 30.8096 28.508 30.618 28.508C30.4263 28.508 30.2426 28.4319 30.1071 28.2964C29.9716 28.1609 29.8954 27.9771 29.8954 27.7855Z" fill="#0069DE"/>
<path d="M1 12L23 1L45 12" stroke="#0069DE" stroke-width="2" stroke-linecap="round" stroke-linejoin="round"/>
</svg>
