<svg width="22" height="19" viewBox="0 0 22 19" fill="none" xmlns="http://www.w3.org/2000/svg">
<path d="M9.75 16H21" stroke="#005DC5" stroke-width="2" stroke-linecap="round" stroke-linejoin="round"/>
<path d="M6.76822 14.1402C7.12179 13.7159 7.06446 13.0853 6.64018 12.7318C6.21591 12.3782 5.58534 12.4355 5.23178 12.8598L6.76822 14.1402ZM2.875 17.25L2.3203 18.0821C2.74552 18.3655 3.31606 18.2828 3.64322 17.8902L2.875 17.25ZM1.5547 15.1679C1.09517 14.8616 0.474302 14.9858 0.16795 15.4453C-0.138403 15.9048 -0.0142289 16.5257 0.4453 16.8321L1.5547 15.1679ZM5.23178 12.8598L2.10678 16.6098L3.64322 17.8902L6.76822 14.1402L5.23178 12.8598ZM3.4297 16.4179L1.5547 15.1679L0.4453 16.8321L2.3203 18.0821L3.4297 16.4179Z" fill="#005DC5"/>
<path d="M9.75 9.75H21" stroke="#005DC5" stroke-width="2" stroke-linecap="round" stroke-linejoin="round"/>
<path d="M6.76822 7.89018C7.12179 7.46591 7.06446 6.83534 6.64018 6.48178C6.21591 6.12821 5.58534 6.18554 5.23178 6.60982L6.76822 7.89018ZM2.875 11L2.32033 11.8321C2.74554 12.1155 3.31606 12.0328 3.64322 11.6402L2.875 11ZM1.55467 8.91802C1.09513 8.61168 0.474269 8.73588 0.167932 9.19542C-0.138406 9.65495 -0.0142118 10.2758 0.445327 10.5822L1.55467 8.91802ZM5.23178 6.60982L2.10678 10.3598L3.64322 11.6402L6.76822 7.89018L5.23178 6.60982ZM3.42967 10.1679L1.55467 8.91802L0.445327 10.5822L2.32033 11.8321L3.42967 10.1679Z" fill="#005DC5"/>
<path d="M9.75 3.5H21" stroke="#005DC5" stroke-width="2" stroke-linecap="round" stroke-linejoin="round"/>
<path d="M6.76822 1.64018C7.12179 1.21591 7.06446 0.585343 6.64018 0.231779C6.21591 -0.121785 5.58534 -0.0644614 5.23178 0.359816L6.76822 1.64018ZM2.875 4.75L2.3203 5.58205C2.74552 5.86553 3.31606 5.78278 3.64322 5.39018L2.875 4.75ZM1.5547 2.66795C1.09517 2.3616 0.474302 2.48577 0.16795 2.9453C-0.138403 3.40483 -0.0142289 4.0257 0.4453 4.33205L1.5547 2.66795ZM5.23178 0.359816L2.10678 4.10982L3.64322 5.39018L6.76822 1.64018L5.23178 0.359816ZM3.4297 3.91795L1.5547 2.66795L0.4453 4.33205L2.3203 5.58205L3.4297 3.91795Z" fill="#005DC5"/>
</svg>
