<svg width="31" height="33" viewBox="0 0 31 33" fill="none" xmlns="http://www.w3.org/2000/svg">
<path d="M7.75 6.34375C7.75 5.04932 8.79141 4 10.075 4C11.3586 4 12.4 5.04932 12.4 6.34375C12.4 7.63818 11.3586 8.6875 10.075 8.6875C8.79141 8.6875 7.75 7.63818 7.75 6.34375ZM4.65194 13.5947C3.76941 14 3.09322 14.7568 2.78661 15.6846L2.65292 16.0898C2.44997 16.7051 1.7917 16.9932 1.18236 16.832C0.5735 16.627 0.244173 15.9189 0.447175 15.3477L0.580766 14.9424C1.09227 13.3994 2.21844 12.1348 3.68997 11.4609L4.71684 10.9922C5.78344 10.5039 6.94109 10.25 8.11328 10.25C10.4819 10.25 12.5695 11.8076 13.267 14.0879L13.8144 15.875L15.1173 17.2324C15.6114 17.6914 15.6114 18.4336 15.1173 18.8486C14.7056 19.3467 13.9694 19.3467 13.5141 18.8486L12.0997 17.4668C11.8769 17.2422 11.7122 16.9639 11.6202 16.6611L11.1455 15.1035L9.72625 19.6836L12.153 21.6709C12.4872 21.9443 12.7197 22.3252 12.8166 22.7061L13.9209 27.5645C14.0662 28.1943 13.6739 28.8242 13.0491 28.9707C12.4242 29.1172 11.7994 28.7217 11.6541 28.0918L10.5836 23.4043L5.52187 19.2637C4.64806 18.5459 4.30416 17.3545 4.66114 16.2754L5.70594 13.1113L5.67687 13.126L4.65194 13.5947ZM6.98953 17.4424L7.78391 18.0918L9.35328 13.0234C9.36781 12.9746 9.38719 12.9258 9.40656 12.8818C9.07234 12.7256 8.70906 12.6279 8.32641 12.6035L6.86844 17.0176C6.81516 17.1738 6.86359 17.3398 6.98953 17.4424ZM6.71828 22.2568L5.78828 24.6006C5.69141 24.8447 5.54609 25.0693 5.35719 25.2549L1.98448 28.6143C1.53062 29.1123 0.794375 29.1123 0.340467 28.6143C-0.113489 28.1992 -0.113489 27.457 0.340467 26.998L3.65945 23.6533L4.82873 20.709L6.71828 22.2568ZM30.6173 15.6699C31.1114 16.1289 31.1114 16.8711 30.6173 17.2861L26.7423 21.1924C26.3306 21.6904 25.5944 21.6904 25.1391 21.1924C24.6886 20.7773 24.6886 20.0352 25.1391 19.5762L27.033 17.6719H18.9875C18.3433 17.6719 17.825 17.1494 17.825 16.5C17.825 15.8506 18.3433 15.3281 18.9875 15.3281H27.033L25.1391 13.3799C24.6886 12.9648 24.6886 12.2227 25.1391 11.7637C25.5944 11.3096 26.3306 11.3096 26.7423 11.7637L30.6173 15.6699Z" fill="#0069DE"/>
</svg>
