<svg width="31" height="33" viewBox="0 0 31 33" fill="none" xmlns="http://www.w3.org/2000/svg">
<path d="M10.9861 14.0235H7.51389C6.9388 14.0235 6.47222 14.4435 6.47222 14.9655C6.47222 15.4855 6.9388 15.9074 7.51389 15.9074H10.9861C11.5612 15.9074 12.0278 15.4855 12.0278 14.9655C12.0278 14.4435 11.5634 14.0235 10.9861 14.0235ZM21.75 9H9.25C5.79948 9 3 11.5314 3 14.6515V22.7794C3 23.471 3.62413 24 4.38889 24H26.6111C27.3759 24 28 23.436 28 22.7794V14.6515C28 11.5314 25.2005 9 21.75 9ZM13.4167 22.1868H5.08333V14.6515C5.08333 12.5714 6.94965 10.8838 9.25 10.8838C11.5503 10.8838 13.4167 12.5714 13.4167 14.6515V22.1868ZM25.9167 22.1868H15.5V14.6515C15.5 13.1994 14.875 11.8846 13.8767 10.8838H21.75C24.0503 10.8838 25.9167 12.5714 25.9167 14.6515V22.1868ZM23.1389 14.0235H18.625C18.0521 14.0235 17.5833 14.4474 17.5833 14.9655C17.5833 15.4835 18.0521 15.9074 18.625 15.9074H21.0556V17.1633C21.0556 17.5086 21.3681 17.7912 21.75 17.7912L23.1389 17.7912C23.5224 17.7912 23.8333 17.51 23.8333 17.1986V14.6868C23.8333 14.3061 23.5208 14.0235 23.1389 14.0235Z" fill="#6A6A6A"/>
</svg>
