<svg width="31" height="33" viewBox="0 0 31 33" fill="none" xmlns="http://www.w3.org/2000/svg">
<path d="M4.625 9.25H7.04167H26.375" stroke="#0069DE" stroke-width="2" stroke-linecap="round" stroke-linejoin="round"/>
<path d="M10.6667 9.24984V6.83317C10.6667 6.19223 10.9214 5.57754 11.3746 5.12433C11.8278 4.67112 12.4425 4.4165 13.0834 4.4165H17.9167C18.5577 4.4165 19.1724 4.67112 19.6256 5.12433C20.0788 5.57754 20.3334 6.19223 20.3334 6.83317V9.24984M23.9584 9.24984V26.1665C23.9584 26.8074 23.7038 27.4221 23.2506 27.8753C22.7974 28.3286 22.1827 28.5832 21.5417 28.5832H9.45841C8.81747 28.5832 8.20279 28.3286 7.74957 27.8753C7.29636 27.4221 7.04175 26.8074 7.04175 26.1665V9.24984H23.9584Z" stroke="#0069DE" stroke-width="2" stroke-linecap="round" stroke-linejoin="round"/>
<path d="M10.6667 6.83317V9.24984H20.3334V6.83317C20.3334 6.19223 20.0788 5.57754 19.6256 5.12433C19.1724 4.67112 18.5577 4.4165 17.9167 4.4165H13.0834C12.4425 4.4165 11.8278 4.67112 11.3746 5.12433C10.9214 5.57754 10.6667 6.19223 10.6667 6.83317Z" stroke="#0069DE" stroke-width="2" stroke-linecap="round" stroke-linejoin="round"/>
<path d="M13.0833 15.2915V22.5415" stroke="#0069DE" stroke-width="2" stroke-linecap="round" stroke-linejoin="round"/>
<path d="M17.9167 15.2915V22.5415" stroke="#0069DE" stroke-width="2" stroke-linecap="round" stroke-linejoin="round"/>
</svg>
