<svg width="25" height="25" viewBox="0 0 25 25" fill="none" xmlns="http://www.w3.org/2000/svg">
<path d="M16.6042 8.58003H8.46643C7.94999 8.58003 7.52746 9.0145 7.52746 9.54552C7.52746 10.0765 7.94999 10.511 8.46643 10.511H16.6042C17.1246 10.511 17.5432 10.0806 17.5432 9.54552C17.5432 9.01048 17.1246 8.58003 16.6042 8.58003ZM12.8483 12.442H8.46643C7.94999 12.442 7.52746 12.8764 7.52746 13.4075C7.52746 13.9385 7.94999 14.3729 8.46643 14.3729H12.8483C13.3687 14.3729 13.7873 13.9425 13.7873 13.4075C13.7873 12.8724 13.3687 12.442 12.8483 12.442ZM20.0119 2.78711H4.98831C3.60919 2.78711 2.48438 3.94368 2.48438 5.32553V16.8752C2.48438 18.2932 3.60919 19.4136 4.98831 19.4136H8.74421V22.7566C8.74421 23.1523 9.17536 23.3821 9.49226 23.1468L14.3788 19.3774H20.0127C21.3918 19.3774 22.5166 18.2208 22.5166 16.839V5.32553C22.5159 3.94368 21.4243 2.78711 20.0119 2.78711ZM20.6731 16.9476C20.6731 17.2996 20.3895 17.5912 20.0471 17.5912H13.7873L10.6574 20.005V17.5912H5.02352C4.68119 17.5912 4.39754 17.2996 4.39754 16.9476V5.36174C4.39754 5.00974 4.68119 4.71808 5.02352 4.71808H20.0471C20.3895 4.71808 20.6731 5.00974 20.6731 5.36174V16.9476Z" fill="#0069DE"/>
</svg>
