<svg width="31" height="33" viewBox="0 0 31 33" fill="none" xmlns="http://www.w3.org/2000/svg">
<path d="M26.1281 15.1453L6.00348 6.16326C5.8211 6.08186 5.62884 6 5.43837 6C5.05102 6 4.67022 6.16368 4.39171 6.47013C3.97762 6.96879 3.88217 7.64662 4.1517 8.20843L8.31242 16.5206L4.15183 24.8332C3.88231 25.3955 3.97777 26.0728 4.39189 26.5299C4.66986 26.8361 5.05043 27 5.43765 27C5.62857 27 5.82087 26.9605 6.00321 26.8787L26.1281 17.8959C26.6573 17.6605 27 17.1189 27 16.5201C26.9591 15.9218 26.6582 15.3792 26.1281 15.1453ZM7.00611 9.05373L21.2227 15.3979H10.1811L7.00611 9.05373ZM10.1811 17.6433H21.2182L7.00522 23.9865L10.1811 17.6433Z" fill="#6A6A6A"/>
</svg>
