<svg width="30" height="30" viewBox="0 0 30 30" fill="none" xmlns="http://www.w3.org/2000/svg">
<path d="M24 18.75C23.8336 19.127 23.784 19.5452 23.8575 19.9507C23.931 20.3562 24.1243 20.7304 24.4125 21.025L24.4875 21.1C24.7199 21.3322 24.9043 21.6079 25.0301 21.9114C25.156 22.2149 25.2207 22.5402 25.2207 22.8687C25.2207 23.1973 25.156 23.5226 25.0301 23.8261C24.9043 24.1296 24.7199 24.4053 24.4875 24.6375C24.2553 24.8699 23.9796 25.0543 23.6761 25.1801C23.3726 25.306 23.0473 25.3707 22.7187 25.3707C22.3902 25.3707 22.0649 25.306 21.7614 25.1801C21.4579 25.0543 21.1822 24.8699 20.95 24.6375L20.875 24.5625C20.5804 24.2743 20.2062 24.081 19.8007 24.0075C19.3952 23.934 18.977 23.9836 18.6 24.15C18.2303 24.3084 17.915 24.5716 17.6929 24.9069C17.4708 25.2423 17.3516 25.6353 17.35 26.0375V26.25C17.35 26.913 17.0866 27.5489 16.6178 28.0178C16.1489 28.4866 15.513 28.75 14.85 28.75C14.187 28.75 13.5511 28.4866 13.0822 28.0178C12.6134 27.5489 12.35 26.913 12.35 26.25V26.1375C12.3403 25.7238 12.2064 25.3225 11.9656 24.9859C11.7249 24.6493 11.3884 24.3928 11 24.25C10.623 24.0836 10.2048 24.034 9.79926 24.1075C9.39377 24.181 9.0196 24.3743 8.725 24.6625L8.65 24.7375C8.41782 24.9699 8.14209 25.1543 7.8386 25.2801C7.5351 25.406 7.20979 25.4707 6.88125 25.4707C6.55271 25.4707 6.22739 25.406 5.9239 25.2801C5.6204 25.1543 5.34468 24.9699 5.1125 24.7375C4.88006 24.5053 4.69566 24.2296 4.56985 23.9261C4.44404 23.6226 4.37928 23.2973 4.37928 22.9687C4.37928 22.6402 4.44404 22.3149 4.56985 22.0114C4.69566 21.7079 4.88006 21.4322 5.1125 21.2L5.1875 21.125C5.47567 20.8304 5.66898 20.4562 5.7425 20.0507C5.81603 19.6452 5.76639 19.227 5.6 18.85C5.44155 18.4803 5.17844 18.165 4.84308 17.9429C4.50772 17.7208 4.11473 17.6016 3.7125 17.6H3.5C2.83696 17.6 2.20107 17.3366 1.73223 16.8678C1.26339 16.3989 1 15.763 1 15.1C1 14.437 1.26339 13.8011 1.73223 13.3322C2.20107 12.8634 2.83696 12.6 3.5 12.6H3.6125C4.02624 12.5903 4.42751 12.4564 4.76412 12.2156C5.10074 11.9749 5.35714 11.6384 5.5 11.25C5.66639 10.873 5.71603 10.4548 5.6425 10.0493C5.56898 9.64377 5.37567 9.2696 5.0875 8.975L5.0125 8.9C4.78006 8.66782 4.59566 8.39209 4.46985 8.0886C4.34404 7.7851 4.27928 7.45979 4.27928 7.13125C4.27928 6.80271 4.34404 6.47739 4.46985 6.1739C4.59566 5.8704 4.78006 5.59468 5.0125 5.3625C5.24468 5.13006 5.5204 4.94566 5.8239 4.81985C6.12739 4.69404 6.45271 4.62928 6.78125 4.62928C7.10979 4.62928 7.4351 4.69404 7.7386 4.81985C8.04209 4.94566 8.31782 5.13006 8.55 5.3625L8.625 5.4375C8.9196 5.72567 9.29377 5.91898 9.69926 5.9925C10.1048 6.06603 10.523 6.01639 10.9 5.85H11C11.3697 5.69155 11.685 5.42844 11.9071 5.09308C12.1292 4.75772 12.2484 4.36473 12.25 3.9625V3.75C12.25 3.08696 12.5134 2.45107 12.9822 1.98223C13.4511 1.51339 14.087 1.25 14.75 1.25C15.413 1.25 16.0489 1.51339 16.5178 1.98223C16.9866 2.45107 17.25 3.08696 17.25 3.75V3.8625C17.2516 4.26473 17.3708 4.65772 17.5929 4.99308C17.815 5.32844 18.1303 5.59155 18.5 5.75C18.877 5.91639 19.2952 5.96603 19.7007 5.8925C20.1062 5.81898 20.4804 5.62567 20.775 5.3375L20.85 5.2625C21.0822 5.03006 21.3579 4.84566 21.6614 4.71985C21.9649 4.59404 22.2902 4.52928 22.6187 4.52928C22.9473 4.52928 23.2726 4.59404 23.5761 4.71985C23.8796 4.84566 24.1553 5.03006 24.3875 5.2625C24.6199 5.49468 24.8043 5.7704 24.9301 6.0739C25.056 6.37739 25.1207 6.70271 25.1207 7.03125C25.1207 7.35979 25.056 7.6851 24.9301 7.9886C24.8043 8.29209 24.6199 8.56782 24.3875 8.8L24.3125 8.875C24.0243 9.1696 23.831 9.54377 23.7575 9.94926C23.684 10.3548 23.7336 10.773 23.9 11.15V11.25C24.0584 11.6197 24.3216 11.935 24.6569 12.1571C24.9923 12.3792 25.3853 12.4984 25.7875 12.5H26C26.663 12.5 27.2989 12.7634 27.7678 13.2322C28.2366 13.7011 28.5 14.337 28.5 15C28.5 15.663 28.2366 16.2989 27.7678 16.7678C27.2989 17.2366 26.663 17.5 26 17.5H25.8875C25.4853 17.5016 25.0923 17.6208 24.7569 17.8429C24.4215 18.065 24.1584 18.3803 24 18.75Z" fill="#005DC5" stroke="#005DC5" stroke-width="1.15603" stroke-linecap="round" stroke-linejoin="round"/>
<path d="M15.0005 18.7499C17.0716 18.7499 18.7505 17.0709 18.7505 14.9999C18.7505 12.9288 17.0716 11.2499 15.0005 11.2499C12.9294 11.2499 11.2505 12.9288 11.2505 14.9999C11.2505 17.0709 12.9294 18.7499 15.0005 18.7499Z" fill="white" stroke="#005DC5" stroke-width="1.15603" stroke-linecap="round" stroke-linejoin="round"/>
</svg>
