<svg width="16" height="16" viewBox="0 0 16 16" fill="none" xmlns="http://www.w3.org/2000/svg">
<path d="M12.75 6.66667C13.9236 6.66667 14.875 5.71528 14.875 4.54167C14.875 3.36807 13.9236 2.41667 12.75 2.41667C11.5764 2.41667 10.625 3.36807 10.625 4.54167C10.625 5.71528 11.5764 6.66667 12.75 6.66667Z" stroke="#3090FF" stroke-linecap="round" stroke-linejoin="round"/>
<path d="M4.25 10.625C5.4236 10.625 6.375 9.6736 6.375 8.5C6.375 7.32639 5.4236 6.375 4.25 6.375C3.07639 6.375 2.125 7.32639 2.125 8.5C2.125 9.6736 3.07639 10.625 4.25 10.625Z" stroke="#3090FF" stroke-linecap="round" stroke-linejoin="round"/>
<path d="M12.75 15.5833C13.9236 15.5833 14.875 14.6319 14.875 13.4583C14.875 12.2847 13.9236 11.3333 12.75 11.3333C11.5764 11.3333 10.625 12.2847 10.625 13.4583C10.625 14.6319 11.5764 15.5833 12.75 15.5833Z" stroke="#3090FF" stroke-linecap="round" stroke-linejoin="round"/>
<path d="M6.08447 9.56958L10.9224 12.3887" stroke="#3090FF" stroke-linecap="round" stroke-linejoin="round"/>
<path d="M10.9153 4.61125L6.08447 7.43042" stroke="#3090FF" stroke-linecap="round" stroke-linejoin="round"/>
</svg>
