<svg width="19" height="19" viewBox="0 0 19 19" fill="none" xmlns="http://www.w3.org/2000/svg">
<path d="M14.1953 6.68262C15.438 6.68262 16.4453 5.67526 16.4453 4.43262C16.4453 3.18998 15.438 2.18262 14.1953 2.18262C12.9527 2.18262 11.9453 3.18998 11.9453 4.43262C11.9453 5.67526 12.9527 6.68262 14.1953 6.68262Z" stroke="black" stroke-width="1.2" stroke-linecap="round" stroke-linejoin="round"/>
<path d="M5.19531 11.9326C6.43795 11.9326 7.44531 10.9253 7.44531 9.68262C7.44531 8.43998 6.43795 7.43262 5.19531 7.43262C3.95267 7.43262 2.94531 8.43998 2.94531 9.68262C2.94531 10.9253 3.95267 11.9326 5.19531 11.9326Z" stroke="black" stroke-width="1.2" stroke-linecap="round" stroke-linejoin="round"/>
<path d="M14.1953 17.1826C15.438 17.1826 16.4453 16.1753 16.4453 14.9326C16.4453 13.69 15.438 12.6826 14.1953 12.6826C12.9527 12.6826 11.9453 13.69 11.9453 14.9326C11.9453 16.1753 12.9527 17.1826 14.1953 17.1826Z" stroke="black" stroke-width="1.2" stroke-linecap="round" stroke-linejoin="round"/>
<path d="M7.13782 10.8149L12.2603 13.7999" stroke="black" stroke-width="1.2" stroke-linecap="round" stroke-linejoin="round"/>
<path d="M12.2528 5.56494L7.13782 8.54994" stroke="black" stroke-width="1.2" stroke-linecap="round" stroke-linejoin="round"/>
</svg>
