<svg width="21" height="13" viewBox="0 0 21 13" fill="none" xmlns="http://www.w3.org/2000/svg">
<path d="M20.455 4.33365C18.7547 4.45213 16.329 6.1854 15.1014 6.75413C14.1462 7.19761 13.3224 7.58015 12.6035 7.58015C11.8617 7.58015 11.7501 7.03173 11.9044 5.82318C11.9405 5.55235 12.2884 3.14203 10.5028 3.24697C9.67889 3.29775 8.39219 4.08652 4.93911 7.51244L6.30131 4.00189C7.29916 1.43245 4.55507 -1.12683 2.04404 0.521809L0.242007 1.77098C-0.000890643 1.93009 -0.0731033 2.26523 0.0811692 2.51913L0.645741 3.43316C0.800014 3.68706 1.12497 3.76153 1.37115 3.59904L3.27494 2.28216C3.8789 1.88608 4.61088 2.5259 4.34828 3.19958L1.12497 11.5139C0.901768 12.086 1.2136 13 2.09984 13C2.37228 13 2.64144 12.8917 2.84166 12.6818C4.22683 11.2532 7.91953 7.58015 9.77408 6.05338C9.70187 7.01819 9.70515 8.04732 10.4503 8.89025C10.9525 9.45898 11.6746 9.74673 12.6002 9.74673C13.7688 9.74673 14.8323 9.25248 15.9581 8.73114C17.0413 8.23012 19.2077 6.61195 20.5009 6.50362C20.78 6.47993 20.9999 6.2565 20.9999 5.96875V4.88207C21.0064 4.57401 20.7537 4.31334 20.455 4.33365Z" fill="black"/>
</svg>
