<svg width="60" height="60" viewBox="0 0 60 60" fill="none" xmlns="http://www.w3.org/2000/svg">
<g clip-path="url(#clip0_3776_1173)">
<path d="M30 43.125C35.0859 43.125 38.5664 40.5703 40.7695 38.1445C41.4492 37.3594 42.6328 37.2773 43.418 37.957C44.2031 38.6367 44.2852 39.8203 43.6055 40.6055C40.9922 43.6055 36.457 46.875 30 46.875C23.543 46.875 19.0078 43.6055 16.3945 40.6055C15.7148 39.8203 15.7969 38.6367 16.582 37.957C17.3672 37.2773 18.5508 37.3594 19.2305 38.1445C21.3281 40.5703 24.9141 43.125 30 43.125ZM18.3398 22.793C17.6016 23.6367 17.0742 24.7617 16.8164 25.7695C16.5703 26.7773 15.5508 27.3867 14.543 27.1289C13.5352 26.8828 12.9258 25.8633 13.1836 24.8555C13.5586 23.3672 14.332 21.6797 15.5039 20.332C16.6875 18.9727 18.4219 17.8125 20.625 17.8125C22.8281 17.8125 24.5625 18.9727 25.7461 20.332C26.918 21.6797 27.6914 23.3672 28.0664 24.8555C28.3242 25.8633 27.7148 26.8828 26.707 27.1289C25.6992 27.3867 24.6797 26.7773 24.4336 25.7695C24.1758 24.7617 23.6484 23.6367 22.9102 22.793C22.1953 21.9609 21.4219 21.5625 20.625 21.5625C19.8281 21.5625 19.0547 21.9609 18.3398 22.793ZM33.293 27.1289C32.2852 26.8828 31.6758 25.8633 31.9336 24.8555C32.3086 23.3672 33.082 21.6797 34.2539 20.332C35.4375 18.9727 37.1719 17.8125 39.375 17.8125C41.5781 17.8125 43.3125 18.9727 44.4961 20.332C45.668 21.6797 46.4414 23.3672 46.8164 24.8555C47.0742 25.8633 46.4648 26.8828 45.457 27.1289C44.4492 27.3867 43.4297 26.7773 43.1836 25.7695C42.9258 24.7617 42.3984 23.6367 41.6602 22.793C40.9453 21.9609 40.1719 21.5625 39.375 21.5625C38.5781 21.5625 37.8047 21.9609 37.0898 22.793C36.3516 23.6367 35.8242 24.7617 35.5664 25.7695C35.3203 26.7773 34.3008 27.3867 33.293 27.1289ZM60 30C60 46.5703 46.5703 60 30 60C13.4297 60 0 46.5703 0 30C0 13.4297 13.4297 0 30 0C46.5703 0 60 13.4297 60 30ZM30 3.75C15.5039 3.75 3.75 15.5039 3.75 30C3.75 44.4961 15.5039 56.25 30 56.25C44.4961 56.25 56.25 44.4961 56.25 30C56.25 15.5039 44.4961 3.75 30 3.75Z" fill="#CBCFDC"/>
</g>
<defs>
<clipPath id="clip0_3776_1173">
<rect width="60" height="60" fill="white"/>
</clipPath>
</defs>
</svg>
