<svg width="304" height="260" viewBox="0 0 304 260" fill="none" xmlns="http://www.w3.org/2000/svg">
<path d="M201.664 51C201.664 51 221.371 46.6869 230.07 47.3131C238.77 47.9394 243.712 52.5 243.712 57.4013C243.408 61.4999 247.164 73 201.664 79.0006" stroke="#004C7F" stroke-width="0.54422" stroke-miterlimit="10"/>
<path d="M118.567 253.434C128.297 247.591 138.01 241.457 143.081 236.642C154.156 226.13 170.345 202.923 170.345 202.923M108.664 118C107.383 118.194 104.784 118.184 103.729 117.431C102.673 116.678 101.95 115.543 101.712 114.266C100.554 107.998 99.7305 96.3486 105.892 84.7786C106.019 84.5476 106.141 84.3044 106.262 84.0673C112.684 71.2996 110.927 54.1726 108.879 45.4115C108.207 42.5296 107.498 40.5476 107.062 39.9396C104.535 36.4497 96.1559 35.331 93.799 39.2039C92.9568 40.6023 92.6539 43.0586 92.4661 45.8918C92.1389 50.8834 92.1692 57.0301 90.1698 60.5443C88.9096 62.7573 86.3225 66.4113 83.3235 71.6947C79.1371 79.0541 75.7588 86.8475 73.2478 94.9381C67.3829 113.786 62.0391 108.679 59.5672 120.954C58.3978 126.639 53.6781 156.91 45.8623 183.388" stroke="#004C7F" stroke-width="0.624521" stroke-miterlimit="10"/>
<path d="M201.793 189.312V190.23C201.793 197.561 196.808 203.536 190.653 203.536H119.899C113.744 203.536 108.759 197.579 108.759 190.23V18.5589C108.759 11.2095 113.744 5.25293 119.899 5.25293H190.653C196.808 5.25293 201.793 11.2095 201.793 18.5589V96" stroke="#004C7F" stroke-width="0.624521" stroke-miterlimit="10"/>
<path d="M163.352 15.7578H145.866C144.91 15.7578 144.138 16.0083 144.138 16.3271V16.4941C144.138 16.8129 144.91 17.0709 145.866 17.0709H163.381C164.331 17.0709 165.103 16.8129 165.103 16.4941V16.3271C165.074 16.0083 164.302 15.7578 163.352 15.7578Z" fill="#004C7F"/>
<path d="M195.241 183.838H112.689V22.3232H195.241V149.669" stroke="#004C7F" stroke-width="0.624521" stroke-miterlimit="10"/>
<path d="M213.164 166.5C213.164 166.5 215.664 167 217.353 172.56C218.44 177.565 214.027 187.641 207.119 188.71C200.211 189.778 198.742 188.618 195.954 185.025C193.166 181.433 192.664 173.5 197.664 170" stroke="#004C7F" stroke-width="0.624521" stroke-miterlimit="10"/>
<path d="M203 137.5C203 137.5 194.409 149.84 193.112 153.82C191.816 157.801 193.112 165.706 196.656 168.938C200.199 172.171 208.339 174.631 213.057 166.812C217.775 158.994 222.384 146.916 222.737 144.271C223.09 141.626 222.496 133.558 216 132" stroke="#004C7F" stroke-width="0.624521" stroke-miterlimit="10"/>
<path d="M202.164 107C199.948 110.602 196.53 114.967 195.637 119.071C195.074 121.701 195.112 124.419 195.75 127.033C196.388 129.647 197.609 132.093 199.328 134.2C201.891 137.307 204.87 138.686 209.023 139.171C215.52 139.972 220.653 117.685 221.358 114.691C222.197 111.174 217.007 104.482 213.598 101.575C210.189 98.6668 201.664 96 201.664 96" stroke="#004C7F" stroke-width="0.624521" stroke-miterlimit="10"/>
<path d="M205.724 122.219C205.724 122.219 212.397 131.232 213.253 131.313C214.108 131.394 217.014 124.234 215.992 121.739C214.97 119.244 210.772 111.898 205.724 122.219" stroke="#004C7F" stroke-width="0.624521" stroke-miterlimit="10"/>
<path d="M209.144 165.454C209.144 165.454 200.229 155.004 199.172 155.004C199.172 155.004 203.595 146.051 210.136 148.968C216.677 151.886 212.51 161.318 209.144 165.454Z" stroke="#004C7F" stroke-width="0.624521" stroke-miterlimit="10"/>
<path d="M206.198 186.464C206.198 186.464 205.056 178.566 200.483 174.984C200.483 174.984 203.299 171.737 209.724 174.35C216.149 176.963 208.718 185.908 206.198 186.464Z" stroke="#004C7F" stroke-width="0.624521" stroke-miterlimit="10"/>
<path d="M201.793 91.9189V107.677" stroke="#004C7F" stroke-width="0.624521" stroke-miterlimit="10"/>
<path d="M153.966 199.596C157.946 199.596 161.173 196.657 161.173 193.031C161.173 189.404 157.946 186.465 153.966 186.465C149.985 186.465 146.759 189.404 146.759 193.031C146.759 196.657 149.985 199.596 153.966 199.596Z" stroke="#004C7F" stroke-width="0.624521" stroke-miterlimit="10"/>
<path fill-rule="evenodd" clip-rule="evenodd" d="M112.404 40.7073H178.164C181.924 40.7086 185.532 42.1831 188.207 44.8114C190.882 47.4398 192.409 51.0106 192.457 54.7506V103.691C192.457 107.462 190.951 111.078 188.271 113.745C185.59 116.411 181.955 117.909 178.164 117.909H112.404C110.641 117.909 108.893 117.584 107.248 116.951C104.261 118.928 100.735 120.808 98.1118 120.808C99.5972 118.462 100.911 116.013 102.044 113.479C99.5156 110.841 98.1072 107.336 98.1118 103.691V54.7506C98.1229 52.8948 98.5015 51.0594 99.2258 49.3491C99.9502 47.6389 101.006 46.0874 102.333 44.7833C103.661 43.4792 105.233 42.448 106.961 41.7486C108.689 41.0493 110.539 40.6954 112.404 40.7073ZM140.928 53.7889C142.818 54.886 144.255 56.609 144.985 58.6533H161.008V64.7813H157.912V70.9092H151.72V64.7813H144.985C144.255 66.8256 142.818 68.5486 140.928 69.6457C139.038 70.7429 136.817 71.1435 134.657 70.7768C132.498 70.4102 130.539 69.2998 129.126 67.642C127.714 65.9842 126.939 63.8856 126.939 61.7173C126.939 59.549 127.714 57.4505 129.126 55.7926C130.539 54.1348 132.498 53.0245 134.657 52.6578C136.817 52.2911 139.038 52.6918 140.928 53.7889ZM134.519 64.2649C135.028 64.6016 135.627 64.7813 136.239 64.7813C137.06 64.7797 137.846 64.4564 138.427 63.8821C139.007 63.3079 139.334 62.5294 139.335 61.7173C139.335 61.1113 139.154 60.5189 138.813 60.0151C138.473 59.5112 137.99 59.1185 137.424 58.8866C136.858 58.6547 136.235 58.594 135.635 58.7122C135.034 58.8304 134.483 59.1223 134.05 59.5508C133.617 59.9793 133.322 60.5252 133.202 61.1196C133.083 61.7139 133.144 62.33 133.378 62.8898C133.613 63.4497 134.01 63.9282 134.519 64.2649ZM158.388 99.382V99.7975H155.286H147.905V98.4844H158.388V99.382ZM172.801 99.7975V99.382V98.4844H163.629V99.7975H170.087H172.801ZM143.974 99.382V99.7975H140.872H133.491V98.4844H143.974V99.382ZM128.25 99.7975V99.382V98.4844H119.077V99.7975H125.536H128.25Z" fill="#0052CC"/>
</svg>
