<svg width="61" height="90" viewBox="0 0 61 90" fill="none" xmlns="http://www.w3.org/2000/svg">
<path d="M30.5 73.8449V72.3449C29.6716 72.3449 29 73.0165 29 73.8449H30.5ZM29 88.9236V90.4236H32V88.9236H29ZM39.4994 16.7193C38.709 16.4711 37.8671 16.9106 37.6188 17.7009C37.3706 18.4913 37.8101 19.3332 38.6004 19.5815L39.4994 16.7193ZM57.4996 45.3453C57.4996 60.2568 45.4115 72.3449 30.5 72.3449V75.3449C47.0683 75.3449 60.4996 61.9136 60.4996 45.3453H57.4996ZM29 73.8449V88.9236H32V73.8449H29ZM38.6004 19.5815C49.5558 23.0224 57.4996 33.2581 57.4996 45.3453H60.4996C60.4996 31.9103 51.6692 20.5416 39.4994 16.7193L38.6004 19.5815Z" fill="white"/>
<path d="M30.4996 17.1815V18.6815C31.3281 18.6815 31.9996 18.01 31.9996 17.1815H30.4996ZM31.9996 2V0.5H28.9996V2H31.9996ZM21.5003 74.3072C22.2906 74.5554 23.1326 74.1159 23.3808 73.3256C23.6291 72.5352 23.1896 71.6933 22.3992 71.445L21.5003 74.3072ZM3.5 45.6812C3.5 30.7697 15.5881 18.6815 30.4996 18.6815V15.6815C13.9313 15.6815 0.5 29.1128 0.5 45.6812H3.5ZM31.9996 17.1815V2H28.9996V17.1815H31.9996ZM22.3992 71.445C11.4438 68.0041 3.5 57.7684 3.5 45.6812H0.5C0.5 59.1162 9.33045 70.4848 21.5003 74.3072L22.3992 71.445Z" fill="white"/>
</svg>
