<svg width="25" height="25" viewBox="0 0 25 25" fill="none" xmlns="http://www.w3.org/2000/svg">
<path d="M12.5 2C7.18965 2 3.17007 6.88496 3.00077 12.5L3 14.682C3 16.376 4.21533 17.75 5.71418 17.75H6.39291C7.14141 17.75 7.75 17.065 7.75 16.216V10.7527C7.75 9.90371 7.14141 9.21875 6.39291 9.21875H5.71418C5.59257 9.21875 5.47876 9.24807 5.36171 9.26584C6.51797 6.16309 9.28262 3.97695 12.5 3.97654C15.7189 3.97702 18.482 6.16514 19.6398 9.23064C19.5211 9.24746 19.4061 9.21875 19.2873 9.21875H18.6086C17.8586 9.21875 17.25 9.90371 17.25 10.7527V16.216C17.25 17.065 17.8586 17.75 18.6082 17.75H19.2869C19.6163 17.75 19.9278 17.6737 20.2199 17.5523V18.4062C20.2199 19.3111 19.5541 20.0469 18.7355 20.0469H14.6275C14.3184 19.4604 13.7506 19.0625 13.0938 19.0625H11.9062C10.9229 19.0625 10.125 19.9443 10.125 21.0312C10.125 22.1182 10.9229 23 11.8729 23H13.0938C13.7513 23 14.3195 22.6017 14.6279 22.0156H18.7344C20.5353 22.0156 22 20.3967 22 18.4062V12.5C21.8293 6.88496 17.8104 2 12.5 2ZM5.71418 11.1875H5.96875V15.7812H5.71418C5.19984 15.7812 4.78125 15.2521 4.78125 14.682V12.5C4.78125 12.4012 4.79161 12.3052 4.79466 12.2071C4.83061 11.6387 5.22322 11.1875 5.71418 11.1875ZM19.2873 15.7812H19.0312V11.1875H19.2857C19.7767 11.1875 20.1693 11.6403 20.2053 12.2071C20.2076 12.3072 20.2188 12.4016 20.2188 12.5V14.6837C20.2188 15.2521 19.7994 15.7812 19.2873 15.7812Z" fill="#0069DE"/>
</svg>
