<svg width="16" height="16" viewBox="0 0 16 16" fill="none" xmlns="http://www.w3.org/2000/svg">
<g clip-path="url(#clip0_102_128)">
<path d="M2.09375 4.0625H3.40625H13.9062" stroke="#3090FF" stroke-linecap="round" stroke-linejoin="round"/>
<path d="M5.375 4.0625V2.75C5.375 2.4019 5.51328 2.06806 5.75942 1.82192C6.00556 1.57578 6.3394 1.4375 6.6875 1.4375H9.3125C9.6606 1.4375 9.99444 1.57578 10.2406 1.82192C10.4867 2.06806 10.625 2.4019 10.625 2.75V4.0625M12.5938 4.0625V13.25C12.5938 13.5981 12.4555 13.9319 12.2093 14.1781C11.9632 14.4242 11.6293 14.5625 11.2813 14.5625H4.71875C4.37065 14.5625 4.03681 14.4242 3.79067 14.1781C3.54453 13.9319 3.40625 13.5981 3.40625 13.25V4.0625H12.5938Z" stroke="#3090FF" stroke-linecap="round" stroke-linejoin="round"/>
<path d="M6.6875 7.34375V11.2812" stroke="#3090FF" stroke-linecap="round" stroke-linejoin="round"/>
<path d="M9.3125 7.34375V11.2812" stroke="#3090FF" stroke-linecap="round" stroke-linejoin="round"/>
</g>
<defs>
<clipPath id="clip0_102_128">
<rect width="15.75" height="15.75" fill="white" transform="translate(0.125 0.125)"/>
</clipPath>
</defs>
</svg>
