<svg width="27" height="32" viewBox="0 0 27 32" fill="none" xmlns="http://www.w3.org/2000/svg">
    <g clip-path="url(#clip0_1015_124)">
        <path d="M15.1427 2.34351V3.38012C18.8648 4.04742 21.7142 7.68888 21.7142 12.0834V14.0198C21.7142 16.6519 22.5099 19.2087 23.9628 21.2668L24.7278 22.3452C25.0256 22.7626 25.082 23.3366 24.8767 23.8178C24.6713 24.299 24.2401 24.6062 23.7677 24.6062H3.23203C2.75817 24.6062 2.32666 24.299 2.12151 23.8178C1.91631 23.3366 1.97401 22.7626 2.26993 22.3452L3.0354 21.2668C4.4919 19.2087 5.2856 16.6519 5.2856 14.0198V12.0834C5.2856 7.68888 8.13493 4.04742 11.857 3.38012V2.34351C11.857 1.31907 12.5912 0.488281 13.4999 0.488281C14.4086 0.488281 15.1427 1.31907 15.1427 2.34351ZM13.0892 6.05396C10.1423 6.05396 7.74989 8.75563 7.74989 12.0834V14.0198C7.74989 16.7969 7.0373 19.5044 5.71223 21.8234H21.2881C19.9635 19.5044 19.2499 16.7969 19.2499 14.0198V12.0834C19.2499 8.75563 16.8575 6.05396 13.9106 6.05396H13.0892ZM16.7856 26.4615C16.7856 27.3949 16.4416 28.392 15.8256 29.0878C15.2095 29.7835 14.3264 30.1719 13.4999 30.1719C12.6271 30.1719 11.7903 29.7835 11.1742 29.0878C10.5581 28.392 10.2142 27.3949 10.2142 26.4615H16.7856Z" fill="#0069DE"/>
    </g>
    <path d="M3.77364 3.49052C3.20614 2.84966 2.28604 2.84966 1.71855 3.49052C1.15105 4.13138 1.15105 5.17041 1.71855 5.81127L23.2853 30.1659C23.8528 30.8068 24.7729 30.8068 25.3404 30.1659C25.9079 29.5251 25.9079 28.486 25.3404 27.8452L3.77364 3.49052Z" fill="#0069DE" stroke="white" stroke-width="1.5" stroke-linecap="round"/>
    <defs>
        <clipPath id="clip0_1015_124">
            <rect width="23" height="29.6836" fill="white" transform="translate(2 0.488281)"/>
        </clipPath>
    </defs>
</svg>
