<svg width="31" height="33" viewBox="0 0 31 33" fill="none" xmlns="http://www.w3.org/2000/svg">
<path d="M11.15 16.5C14.3536 16.5 16.95 14.1494 16.95 11.25C16.95 8.35061 14.3536 6 11.15 6C7.94641 6 5.35 8.35061 5.35 11.25C5.35 14.1494 7.94641 16.5 11.15 16.5ZM11.15 7.96875C13.1487 7.96875 14.775 9.4408 14.775 11.25C14.775 13.0592 13.1487 14.5312 11.15 14.5312C9.15127 14.5312 7.525 13.0588 7.525 11.25C7.525 9.4408 9.15172 7.96875 11.15 7.96875ZM13.4473 18.4688H8.85266C4.51489 18.4688 1 21.6516 1 25.5768C1 26.3643 1.70325 27 2.57053 27H19.7277C20.5977 27 21.3 26.3643 21.3 25.5768C21.3 21.6516 17.7838 18.4688 13.4473 18.4688ZM3.20717 25.0312C3.50941 22.4514 5.92547 20.4375 8.85266 20.4375H13.4473C16.375 20.4375 18.7534 22.4526 19.0933 25.0312H3.20717ZM22.7092 19.125H19.3629C21.445 20.6713 22.75 22.9846 22.75 25.5768C22.75 26.1018 22.5778 26.5857 22.2969 27H28.55C29.352 27 30 26.4094 30 25.6506C30 22.0617 26.7556 19.125 22.7092 19.125ZM20.575 16.5C23.3798 16.5 25.65 14.4451 25.65 11.9062C25.65 9.36738 23.3798 7.3125 20.575 7.3125C19.4372 7.3125 18.3982 7.66339 17.5518 8.23576C18.0738 9.14303 18.4 10.159 18.4 11.25C18.4 12.7069 17.8594 14.0448 16.9686 15.1346C17.888 15.975 19.1613 16.5 20.575 16.5Z" fill="black"/>
</svg>
