<svg width="22" height="23" viewBox="0 0 22 23" fill="none" xmlns="http://www.w3.org/2000/svg">
<path d="M21.8334 11.4579C21.8334 17.377 17.0362 22.1742 11.1171 22.1742C5.19807 22.1742 0.400879 17.377 0.400879 11.4579C0.400879 8.46075 1.63408 5.7482 3.61743 3.80336C4.1457 3.28597 4.99296 3.29434 5.51203 3.82262C6.03109 4.35132 6.02272 5.19983 5.4911 5.71889C4.00212 7.17563 3.07994 9.21004 3.07994 11.4579C3.07994 15.8951 6.64225 19.4951 11.1171 19.4951C15.5543 19.4951 19.1543 15.8951 19.1543 11.4579C19.1543 7.47703 16.2576 4.16964 12.4567 3.53169V6.81957C12.4567 7.5605 11.8581 8.1591 11.1171 8.1591C10.3762 8.1591 9.77759 7.5605 9.77759 6.81957V2.08123C9.77759 1.34156 10.3762 0.741699 11.1171 0.741699C17.0362 0.741699 21.8334 5.53889 21.8334 11.4579ZM11.7911 10.7463C12.2181 11.1398 12.2181 11.7761 11.7911 12.1319C11.4353 12.5589 10.799 12.5589 10.4055 12.1319L5.99892 7.72532C5.60962 7.3695 5.60962 6.73323 5.99892 6.33974C6.39241 5.95044 7.02868 5.95044 7.3845 6.33974L11.7911 10.7463Z" fill="#8A87FF"/>
</svg>
