<svg width="19" height="20" viewBox="0 0 19 20" fill="none" xmlns="http://www.w3.org/2000/svg">
<path d="M9.5 0.639648C4.25273 0.639648 0 4.89238 0 10.1396C0 15.3869 4.25273 19.6396 9.5 19.6396C14.7473 19.6396 19 15.3869 19 10.1396C19 4.89238 14.7473 0.639648 9.5 0.639648ZM8.60938 6.28027C8.60938 5.79043 9.01016 5.38965 9.5 5.38965C9.98984 5.38965 10.3906 5.78857 10.3906 6.28027V11.0303C10.3906 11.522 9.9917 11.9209 9.5 11.9209C9.0083 11.9209 8.60938 11.5238 8.60938 11.0303V6.28027ZM9.5 15.4834C8.85578 15.4834 8.33328 14.9609 8.33328 14.3167C8.33328 13.6725 8.85541 13.15 9.5 13.15C10.1446 13.15 10.6667 13.6725 10.6667 14.3167C10.6652 14.9602 10.1457 15.4834 9.5 15.4834Z" fill="#FA8686"/>
</svg>
