<svg width="22" height="30" viewBox="0 0 22 30" fill="none" xmlns="http://www.w3.org/2000/svg">
<path d="M8.36606 11H1.54912C1.37799 11 1.23926 11.1492 1.23926 11.3333V17.3336C1.23926 17.5177 1.37799 17.667 1.54912 17.667H8.36606C8.53719 17.667 8.67592 17.5177 8.67592 17.3336V11.3333C8.67592 11.1492 8.53719 11 8.36606 11Z" stroke="#0069DE" stroke-linecap="round" stroke-linejoin="round"/>
<path d="M2.94434 13H6.97253" stroke="#0069DE" stroke-linecap="round" stroke-linejoin="round"/>
<path d="M2.94434 14.3359H6.97253" stroke="#0069DE" stroke-linecap="round" stroke-linejoin="round"/>
<path d="M2.94434 15.668H6.97253" stroke="#0069DE" stroke-linecap="round" stroke-linejoin="round"/>
<path d="M20.451 2H13.6341C13.4629 2 13.3242 2.14925 13.3242 2.33335V8.33364C13.3242 8.51775 13.4629 8.66699 13.6341 8.66699H20.451C20.6222 8.66699 20.7609 8.51775 20.7609 8.33364V2.33335C20.7609 2.14925 20.6222 2 20.451 2Z" stroke="#0069DE" stroke-linecap="round" stroke-linejoin="round"/>
<path d="M15.0293 4H19.0575" stroke="#0069DE" stroke-linecap="round" stroke-linejoin="round"/>
<path d="M15.0293 5.33594H19.0575" stroke="#0069DE" stroke-linecap="round" stroke-linejoin="round"/>
<path d="M15.0293 6.66797H19.0575" stroke="#0069DE" stroke-linecap="round" stroke-linejoin="round"/>
<path d="M20.451 20.3359H13.6341C13.4629 20.3359 13.3242 20.4852 13.3242 20.6693V26.6696C13.3242 26.8537 13.4629 27.0029 13.6341 27.0029H20.451C20.6222 27.0029 20.7609 26.8537 20.7609 26.6696V20.6693C20.7609 20.4852 20.6222 20.3359 20.451 20.3359Z" stroke="#0069DE" stroke-linecap="round" stroke-linejoin="round"/>
<path d="M15.0293 22.3359H19.0575" stroke="#0069DE" stroke-linecap="round" stroke-linejoin="round"/>
<path d="M15.0293 23.6719H19.0575" stroke="#0069DE" stroke-linecap="round" stroke-linejoin="round"/>
<path d="M15.0293 25.0039H19.0575" stroke="#0069DE" stroke-linecap="round" stroke-linejoin="round"/>
<path d="M8.98654 7L10.8457 4.9999L8.98654 2.9998" stroke="#0069DE" stroke-linecap="round" stroke-linejoin="round"/>
<path d="M5.2682 11.0039L5.2682 5.00361L10.8457 5.00361" stroke="#0069DE" stroke-linecap="round" stroke-linejoin="round"/>
<path d="M8.98654 22L10.8457 24.0001L8.98654 26.0002" stroke="#0069DE" stroke-linecap="round" stroke-linejoin="round"/>
<path d="M5.2682 17.9961L5.2682 23.9964L10.8457 23.9964" stroke="#0069DE" stroke-linecap="round" stroke-linejoin="round"/>
<path d="M17.0439 8.8355L17.0439 17.8359" stroke="#0069DE" stroke-linecap="round" stroke-linejoin="round"/>
<path d="M15.4941 16.1679L17.0434 18.168L18.5928 16.1679" stroke="#0069DE" stroke-linecap="round" stroke-linejoin="round"/>
</svg>
