<svg width="21" height="23" viewBox="0 0 21 23" fill="none" xmlns="http://www.w3.org/2000/svg">
<g clip-path="url(#clip0_2645_755)">
<path d="M5.75 1.4375H1.4375C0.642832 1.4375 0 2.08033 0 2.875V7.1875C0 7.98217 0.642832 8.625 1.4375 8.625C2.23217 8.625 2.875 7.98217 2.875 7.1875V4.3125H5.75C6.54467 4.3125 7.1875 3.66967 7.1875 2.875C7.1875 2.08033 6.54512 1.4375 5.75 1.4375ZM18.6875 1.4375H14.375C13.5803 1.4375 12.9375 2.08033 12.9375 2.875C12.9375 3.66967 13.5803 4.3125 14.375 4.3125H17.25V7.1875C17.25 7.98217 17.8928 8.625 18.6875 8.625C19.4822 8.625 20.125 7.98217 20.125 7.1875V2.875C20.125 2.08033 19.4826 1.4375 18.6875 1.4375ZM5.75 18.6875H2.875V15.8125C2.875 15.0178 2.23217 14.375 1.4375 14.375C0.642832 14.375 0 15.0178 0 15.8125V20.125C0 20.9197 0.642832 21.5625 1.4375 21.5625H5.75C6.54467 21.5625 7.1875 20.9197 7.1875 20.125C7.1875 19.3303 6.54512 18.6875 5.75 18.6875ZM18.6875 14.375C17.8928 14.375 17.25 15.0178 17.25 15.8125V18.6875H14.375C13.5803 18.6875 12.9375 19.3303 12.9375 20.125C12.9375 20.9197 13.5803 21.5625 14.375 21.5625H18.6875C19.4822 21.5625 20.125 20.9197 20.125 20.125V15.8125C20.125 15.0174 19.4826 14.375 18.6875 14.375Z" fill="black"/>
</g>
<defs>
<clipPath id="clip0_2645_755">
<rect width="20.125" height="23" fill="white"/>
</clipPath>
</defs>
</svg>
