<svg width="21" height="23" viewBox="0 0 21 23" fill="none" xmlns="http://www.w3.org/2000/svg">
<g clip-path="url(#clip0_2645_760)">
<g clip-path="url(#clip1_2645_760)">
<path d="M5.75 14.375H1.4375C0.642832 14.375 0 15.0178 0 15.8125C0 16.6072 0.642832 17.25 1.4375 17.25H4.3125V20.125C4.3125 20.9197 4.95533 21.5625 5.75 21.5625C6.54467 21.5625 7.1875 20.9197 7.1875 20.125V15.8125C7.1875 15.0174 6.54512 14.375 5.75 14.375ZM18.6875 14.375H14.375C13.5803 14.375 12.9375 15.0178 12.9375 15.8125V20.125C12.9375 20.9197 13.5803 21.5625 14.375 21.5625C15.1697 21.5625 15.8125 20.9197 15.8125 20.125V17.25H18.6875C19.4822 17.25 20.125 16.6072 20.125 15.8125C20.125 15.0178 19.4826 14.375 18.6875 14.375ZM14.375 8.625H18.6875C19.4822 8.625 20.125 7.98217 20.125 7.1875C20.125 6.39283 19.4822 5.75 18.6875 5.75H15.8125V2.875C15.8125 2.08033 15.1697 1.4375 14.375 1.4375C13.5803 1.4375 12.9375 2.08033 12.9375 2.875V7.1875C12.9375 7.98262 13.5799 8.625 14.375 8.625ZM5.75 1.4375C4.95488 1.4375 4.3125 2.08033 4.3125 2.875V5.75H1.4375C0.642832 5.75 0 6.39238 0 7.1875C0 7.98262 0.642832 8.625 1.4375 8.625H5.75C6.54467 8.625 7.1875 7.98217 7.1875 7.1875V2.875C7.1875 2.08033 6.54512 1.4375 5.75 1.4375Z" fill="black"/>
</g>
</g>
<defs>
<clipPath id="clip0_2645_760">
<rect width="20.125" height="23" fill="white"/>
</clipPath>
<clipPath id="clip1_2645_760">
<rect width="20.125" height="23" fill="white"/>
</clipPath>
</defs>
</svg>
