<svg width="31" height="33" viewBox="0 0 31 33" fill="none" xmlns="http://www.w3.org/2000/svg">
<path d="M19.1146 4C14.5654 4 10.8779 7.68756 10.8779 12.2367C10.8779 14.1415 11.5254 15.8945 12.6092 17.2898L10.1414 19.7577L6.85132 16.4676C6.81005 16.4272 6.75461 16.4046 6.69688 16.4046C6.63914 16.4046 6.58371 16.4272 6.54244 16.4676L5.46408 17.546C5.4237 17.5872 5.40109 17.6427 5.40109 17.7004C5.40109 17.7581 5.4237 17.8136 5.46408 17.8548L8.75417 21.1449L6.78634 23.1128L4.45033 20.7767C4.40907 20.7363 4.35363 20.7137 4.29589 20.7137C4.23816 20.7137 4.18272 20.7363 4.14146 20.7767L3.0631 21.8551C3.02272 21.8963 3.0001 21.9518 3.0001 22.0095C3.0001 22.0672 3.02272 22.1227 3.0631 22.1639L5.3991 24.5L3.62983 26.2693C3.58949 26.31 3.56686 26.365 3.56686 26.4224C3.56686 26.4797 3.58949 26.5347 3.62983 26.5754L4.77593 27.7215C4.85992 27.8055 4.9981 27.8055 5.08209 27.7215L14.0588 18.7448C15.5052 19.8667 17.2841 20.4749 19.1146 20.4735C23.6638 20.4735 27.3513 16.7859 27.3513 12.2367C27.3513 7.68756 23.6638 4 19.1146 4ZM23.4822 16.6044C22.3172 17.7721 20.7646 18.4143 19.1146 18.4143C17.4645 18.4143 15.912 17.7721 14.747 16.6044C13.5792 15.4393 12.937 13.8868 12.937 12.2367C12.937 10.5867 13.5792 9.03416 14.747 7.86909C15.912 6.70132 17.4645 6.05918 19.1146 6.05918C20.7646 6.05918 22.3172 6.70132 23.4822 7.86909C24.65 9.03416 25.2921 10.5867 25.2921 12.2367C25.2921 13.8868 24.65 15.4393 23.4822 16.6044Z" fill="#0069DE" stroke="#0069DE"/>
</svg>
