<svg width="31" height="33" viewBox="0 0 31 33" fill="none" xmlns="http://www.w3.org/2000/svg">
<path d="M23.0103 16.2691C23.7196 16.2691 24.2945 15.6942 24.2945 14.9849C24.2945 14.2757 23.7196 13.7007 23.0103 13.7007C22.301 13.7007 21.7261 14.2757 21.7261 14.9849C21.7261 15.6942 22.301 16.2691 23.0103 16.2691Z" stroke="#0069DE" stroke-width="1.5" stroke-linecap="round" stroke-linejoin="round"/>
<path d="M17.6167 20.379L22.1051 15.8906" stroke="#0069DE" stroke-width="1.5" stroke-linecap="round" stroke-linejoin="round"/>
<path d="M17.6167 20.3788L26.5742 18.8891C26.6626 18.874 26.7454 18.8358 26.8143 18.7783C26.8831 18.7207 26.9354 18.646 26.9659 18.5617L28.4042 14.7282L23.2673 9.59131L19.4339 11.0296C19.3494 11.0618 19.2748 11.1155 19.2174 11.1853C19.1599 11.2551 19.1217 11.3387 19.1064 11.4278L17.6167 20.3788Z" stroke="#0069DE" stroke-width="1.5" stroke-linecap="round" stroke-linejoin="round"/>
<path d="M28.404 14.7284L30.0928 13.0397C30.1413 12.9919 30.1799 12.9349 30.2062 12.8721C30.2325 12.8092 30.246 12.7418 30.246 12.6737C30.246 12.6056 30.2325 12.5381 30.2062 12.4753C30.1799 12.4124 30.1413 12.3555 30.0928 12.3077L25.6879 7.90276C25.6401 7.85422 25.5831 7.81568 25.5203 7.78937C25.4574 7.76306 25.39 7.74951 25.3219 7.74951C25.2537 7.74951 25.1863 7.76306 25.1235 7.78937C25.0606 7.81568 25.0037 7.85422 24.9559 7.90276L23.2671 9.59152" stroke="#0069DE" stroke-width="1.5" stroke-linecap="round" stroke-linejoin="round"/>
<path d="M3.84137 11.794V20.974L5.38937 21.604L5.28137 22H0.871367L0.763367 21.604L1.75337 21.19C1.96937 21.106 2.11337 21.016 2.18537 20.92C2.26937 20.824 2.31137 20.686 2.31137 20.506V11.326L0.763367 10.696L0.871367 10.3H5.28137L5.38937 10.696L4.39937 11.11C4.18337 11.194 4.03337 11.284 3.94937 11.38C3.87737 11.476 3.84137 11.614 3.84137 11.794ZM12.9169 16.726C12.9169 16.114 12.7729 15.676 12.4849 15.412C12.2089 15.136 11.7589 14.998 11.1349 14.998C10.5109 14.998 9.88688 15.076 9.26288 15.232V21.028L10.6849 21.604L10.5769 22H6.54488L6.43688 21.604L7.24688 21.262C7.46288 21.178 7.60688 21.088 7.67888 20.992C7.76288 20.896 7.80488 20.758 7.80488 20.578V15.196L6.54488 14.998L6.43688 14.602L8.75888 13.756L9.11888 13.9L9.15488 14.404L9.22688 14.44C10.0549 13.984 10.9069 13.756 11.7829 13.756C13.5109 13.756 14.3749 14.674 14.3749 16.51V21.028L15.7969 21.604L15.6889 22H11.6569L11.5489 21.604L12.3589 21.262C12.5749 21.178 12.7189 21.088 12.7909 20.992C12.8749 20.896 12.9169 20.758 12.9169 20.578V16.726Z" fill="#0069DE"/>
<path d="M3.84137 20.974H3.49137V21.2094L3.70943 21.2982L3.84137 20.974ZM5.38937 21.604L5.72703 21.6961L5.80867 21.3968L5.5213 21.2798L5.38937 21.604ZM5.28137 22V22.35H5.5487L5.61904 22.0921L5.28137 22ZM0.871367 22L0.5337 22.0921L0.604039 22.35H0.871367V22ZM0.763367 21.604L0.628335 21.2811L0.344851 21.3996L0.4257 21.6961L0.763367 21.604ZM1.75337 21.19L1.62647 20.8637L1.61834 20.8671L1.75337 21.19ZM2.18537 20.92L1.92197 20.6895L1.91328 20.6994L1.90537 20.71L2.18537 20.92ZM2.31137 11.326H2.66137V11.0906L2.4433 11.0018L2.31137 11.326ZM0.763367 10.696L0.4257 10.6039L0.344067 10.9032L0.631433 11.0202L0.763367 10.696ZM0.871367 10.3V9.95H0.604039L0.5337 10.2079L0.871367 10.3ZM5.28137 10.3L5.61904 10.2079L5.5487 9.95H5.28137V10.3ZM5.38937 10.696L5.5244 11.0189L5.80788 10.9004L5.72703 10.6039L5.38937 10.696ZM4.39937 11.11L4.52626 11.4363L4.5344 11.4329L4.39937 11.11ZM3.94937 11.38L3.68597 11.1495L3.67728 11.1594L3.66937 11.17L3.94937 11.38ZM3.49137 11.794V20.974H4.19137V11.794H3.49137ZM3.70943 21.2982L5.25743 21.9282L5.5213 21.2798L3.9733 20.6498L3.70943 21.2982ZM5.0517 21.5119L4.9437 21.9079L5.61904 22.0921L5.72703 21.6961L5.0517 21.5119ZM5.28137 21.65H0.871367V22.35H5.28137V21.65ZM1.20903 21.9079L1.10103 21.5119L0.4257 21.6961L0.5337 22.0921L1.20903 21.9079ZM0.898399 21.9269L1.8884 21.5129L1.61834 20.8671L0.628335 21.2811L0.898399 21.9269ZM1.88022 21.5162C2.10976 21.4269 2.33202 21.3078 2.46537 21.13L1.90537 20.71C1.89471 20.7242 1.82898 20.7851 1.62651 20.8638L1.88022 21.5162ZM2.44877 21.1505C2.6078 20.9687 2.66137 20.7362 2.66137 20.506H1.96137C1.96137 20.6358 1.93094 20.6793 1.92197 20.6895L2.44877 21.1505ZM2.66137 20.506V11.326H1.96137V20.506H2.66137ZM2.4433 11.0018L0.895301 10.3718L0.631433 11.0202L2.17943 11.6502L2.4433 11.0018ZM1.10103 10.7881L1.20903 10.3921L0.5337 10.2079L0.4257 10.6039L1.10103 10.7881ZM0.871367 10.65H5.28137V9.95H0.871367V10.65ZM4.9437 10.3921L5.0517 10.7881L5.72703 10.6039L5.61904 10.2079L4.9437 10.3921ZM5.25434 10.3731L4.26434 10.7871L4.5344 11.4329L5.5244 11.0189L5.25434 10.3731ZM4.27251 10.7838C4.04032 10.8741 3.8263 10.9891 3.68597 11.1495L4.21277 11.6105C4.24043 11.5789 4.32641 11.5139 4.52622 11.4362L4.27251 10.7838ZM3.66937 11.17C3.53426 11.3501 3.49137 11.5743 3.49137 11.794H4.19137C4.19137 11.6537 4.22048 11.6019 4.22937 11.59L3.66937 11.17ZM12.4849 15.412L12.2374 15.6595L12.2428 15.6649L12.2484 15.67L12.4849 15.412ZM9.26288 15.232L9.178 14.8924L8.91288 14.9587V15.232H9.26288ZM9.26288 21.028H8.91288V21.2639L9.13148 21.3524L9.26288 21.028ZM10.6849 21.604L11.0226 21.6961L11.1043 21.3963L10.8163 21.2796L10.6849 21.604ZM10.5769 22V22.35H10.8442L10.9145 22.0921L10.5769 22ZM6.54488 22L6.20722 22.0921L6.27755 22.35H6.54488V22ZM6.43688 21.604L6.30074 21.2816L6.01865 21.4007L6.09922 21.6961L6.43688 21.604ZM7.24688 21.262L7.11997 20.9357L7.11074 20.9396L7.24688 21.262ZM7.67888 20.992L7.41548 20.7615L7.4068 20.7714L7.39888 20.782L7.67888 20.992ZM7.80488 15.196H8.15488V14.8967L7.85922 14.8502L7.80488 15.196ZM6.54488 14.998L6.20722 15.0901L6.26681 15.3086L6.49055 15.3438L6.54488 14.998ZM6.43688 14.602L6.31707 14.2731L6.01448 14.3834L6.09922 14.6941L6.43688 14.602ZM8.75888 13.756L8.88887 13.431L8.76471 13.3814L8.63907 13.4271L8.75888 13.756ZM9.11888 13.9L9.46799 13.8751L9.45238 13.6564L9.24887 13.575L9.11888 13.9ZM9.15488 14.404L8.80577 14.4289L8.81998 14.6279L8.99836 14.717L9.15488 14.404ZM9.22688 14.44L9.07036 14.753L9.23474 14.8352L9.39573 14.7466L9.22688 14.44ZM14.3749 21.028H14.0249V21.2639L14.2435 21.3524L14.3749 21.028ZM15.7969 21.604L16.1346 21.6961L16.2163 21.3963L15.9283 21.2796L15.7969 21.604ZM15.6889 22V22.35H15.9562L16.0266 22.0921L15.6889 22ZM11.6569 22L11.3192 22.0921L11.3896 22.35H11.6569V22ZM11.5489 21.604L11.4127 21.2816L11.1306 21.4007L11.2112 21.6961L11.5489 21.604ZM12.3589 21.262L12.232 20.9357L12.2227 20.9396L12.3589 21.262ZM12.7909 20.992L12.5275 20.7615L12.5188 20.7714L12.5109 20.782L12.7909 20.992ZM13.2669 16.726C13.2669 16.0706 13.114 15.5139 12.7214 15.154L12.2484 15.67C12.4317 15.8381 12.5669 16.1574 12.5669 16.726H13.2669ZM12.7324 15.1645C12.3607 14.7928 11.7982 14.648 11.1349 14.648V15.348C11.7196 15.348 12.0571 15.4792 12.2374 15.6595L12.7324 15.1645ZM11.1349 14.648C10.4814 14.648 9.8289 14.7297 9.178 14.8924L9.34777 15.5715C9.94487 15.4223 10.5404 15.348 11.1349 15.348V14.648ZM8.91288 15.232V21.028H9.61288V15.232H8.91288ZM9.13148 21.3524L10.5535 21.9284L10.8163 21.2796L9.39428 20.7036L9.13148 21.3524ZM10.3472 21.5119L10.2392 21.9079L10.9145 22.0921L11.0226 21.6961L10.3472 21.5119ZM10.5769 21.65H6.54488V22.35H10.5769V21.65ZM6.88255 21.9079L6.77455 21.5119L6.09922 21.6961L6.20722 22.0921L6.88255 21.9079ZM6.57302 21.9264L7.38302 21.5844L7.11074 20.9396L6.30074 21.2816L6.57302 21.9264ZM7.37374 21.5882C7.60327 21.4989 7.82554 21.3798 7.95888 21.202L7.39888 20.782C7.38823 20.7962 7.32249 20.8571 7.12003 20.9358L7.37374 21.5882ZM7.94228 21.2225C8.10131 21.0407 8.15488 20.8082 8.15488 20.578H7.45488C7.45488 20.7078 7.42445 20.7513 7.41548 20.7615L7.94228 21.2225ZM8.15488 20.578V15.196H7.45488V20.578H8.15488ZM7.85922 14.8502L6.59922 14.6522L6.49055 15.3438L7.75055 15.5418L7.85922 14.8502ZM6.88255 14.9059L6.77455 14.5099L6.09922 14.6941L6.20722 15.0901L6.88255 14.9059ZM6.5567 14.9309L8.8787 14.0849L8.63907 13.4271L6.31707 14.2731L6.5567 14.9309ZM8.6289 14.081L8.9889 14.225L9.24887 13.575L8.88887 13.431L8.6289 14.081ZM8.76977 13.9249L8.80577 14.4289L9.50399 14.3791L9.46799 13.8751L8.76977 13.9249ZM8.99836 14.717L9.07036 14.753L9.38341 14.127L9.31141 14.091L8.99836 14.717ZM9.39573 14.7466C10.1762 14.3167 10.9705 14.106 11.7829 14.106V13.406C10.8432 13.406 9.93355 13.6513 9.05804 14.1334L9.39573 14.7466ZM11.7829 14.106C12.5873 14.106 13.1278 14.3187 13.472 14.6844C13.82 15.0541 14.0249 15.6408 14.0249 16.51H14.7249C14.7249 15.5432 14.4978 14.7529 13.9818 14.2046C13.462 13.6523 12.7064 13.406 11.7829 13.406V14.106ZM14.0249 16.51V21.028H14.7249V16.51H14.0249ZM14.2435 21.3524L15.6655 21.9284L15.9283 21.2796L14.5063 20.7036L14.2435 21.3524ZM15.4592 21.5119L15.3512 21.9079L16.0266 22.0921L16.1346 21.6961L15.4592 21.5119ZM15.6889 21.65H11.6569V22.35H15.6889V21.65ZM11.9946 21.9079L11.8866 21.5119L11.2112 21.6961L11.3192 22.0921L11.9946 21.9079ZM11.685 21.9264L12.495 21.5844L12.2227 20.9396L11.4127 21.2816L11.685 21.9264ZM12.4857 21.5882C12.7153 21.4989 12.9375 21.3798 13.0709 21.202L12.5109 20.782C12.5002 20.7962 12.4345 20.8571 12.232 20.9358L12.4857 21.5882ZM13.0543 21.2225C13.2133 21.0407 13.2669 20.8082 13.2669 20.578H12.5669C12.5669 20.7078 12.5365 20.7513 12.5275 20.7615L13.0543 21.2225ZM13.2669 20.578V16.726H12.5669V20.578H13.2669Z" fill="#0069DE"/>
<line x1="20.75" y1="25.25" x2="1.25" y2="25.25" stroke="#0069DE" stroke-width="2.5" stroke-linecap="round"/>
</svg>
