<svg width="31" height="33" viewBox="0 0 31 33" fill="none" xmlns="http://www.w3.org/2000/svg">
<g clip-path="url(#clip0_2616_1352)">
<path d="M8.28999 25.4903H10.99C11.7367 25.4903 12.34 24.887 12.34 24.1403C12.34 23.3936 11.7367 22.7903 10.99 22.7903H8.28999C7.54454 22.7903 6.93999 22.1858 6.93999 21.4403V10.6403C6.93999 9.89488 7.54454 9.29033 8.28999 9.29033H10.99C11.7367 9.29033 12.34 8.68578 12.34 7.94033C12.34 7.19488 11.7367 6.59033 10.99 6.59033H8.28999C6.05321 6.59033 4.23999 8.40355 4.23999 10.6403V21.4403C4.23999 23.6763 6.05321 25.4903 8.28999 25.4903Z" fill="#0069DE"/>
<path d="M19.4571 9.56435L25.5364 15.3018C25.9414 15.6858 25.9414 16.3945 25.5364 16.7367L19.4571 22.4742C19.1631 22.7517 18.7316 22.8275 18.3603 22.668C17.9889 22.5077 17.7481 22.1419 17.7481 21.7378L17.7443 18.7383L12.3443 18.7382C11.5984 18.7382 10.9934 18.1337 10.9934 17.3882V14.6882C10.9934 13.9428 11.598 13.3382 12.3443 13.3382L17.7443 13.3383L17.7481 10.3008C17.7481 9.89662 17.9889 9.53072 18.3603 9.37054C18.7315 9.21103 19.1629 9.28684 19.4571 9.56435Z" fill="#0069DE"/>
</g>
<defs>
<clipPath id="clip0_2616_1352">
<rect width="21.6" height="21.6" fill="white" transform="translate(4.23999 5.24023)"/>
</clipPath>
</defs>
</svg>
