<svg width="31" height="33" viewBox="0 0 31 33" fill="none" xmlns="http://www.w3.org/2000/svg">
<g clip-path="url(#clip0_2424_691)">
<path d="M16.3389 28.1615L16.3388 28.1615C15.936 27.7556 15.9275 27.1012 16.3137 26.6873L18.7302 24.2445C18.7304 24.2443 18.7306 24.2442 18.7308 24.244C19.0723 23.9001 19.3478 23.489 19.5257 23.0243L20.2057 21.3222C20.389 21.5261 20.6745 21.8403 21.1278 22.3393C21.315 22.5454 21.5309 22.7831 21.7801 23.0575L21.2421 24.4137C21.2419 24.4141 21.2418 24.4145 21.2416 24.415C21.1074 24.7475 20.913 25.0497 20.6667 25.2981C20.6666 25.2981 20.6665 25.2982 20.6665 25.2983L17.7895 28.1931C17.3841 28.5773 16.7422 28.568 16.3389 28.1615ZM23.7495 6.36058L23.7498 6.35217V6.34375C23.7498 5.3216 24.5712 4.49951 25.5748 4.49951C26.5784 4.49951 27.3998 5.3216 27.3998 6.34375C27.3998 7.3659 26.5784 8.18799 25.5748 8.18799C24.5554 8.18799 23.7161 7.35422 23.7495 6.36058ZM19.3252 11.9216C19.3444 11.9132 19.371 11.9018 19.4043 11.8876C19.4808 11.855 19.5929 11.8082 19.7332 11.7518C20.014 11.6389 20.4061 11.4884 20.8506 11.3384C21.7573 11.0325 22.8188 10.7507 23.6016 10.7534L23.602 10.7534C25.6235 10.7587 27.4277 12.1264 28.0732 14.1135L28.0739 14.1154L28.5462 15.5499L28.6106 15.7456L28.7942 15.8391L29.9183 16.4117C30.4356 16.6819 30.6457 17.3197 30.3933 17.8463C30.2701 18.0979 30.0541 18.2854 29.7961 18.3707L29.7961 18.3707L29.7871 18.3738C29.5374 18.4617 29.2552 18.4431 29.0106 18.3203C29.0102 18.32 29.0097 18.3198 29.0093 18.3196L27.88 17.7411C27.8799 17.7411 27.8799 17.7411 27.8799 17.7411C27.8798 17.7411 27.8798 17.741 27.8798 17.741C27.2717 17.4292 26.8094 16.8873 26.5955 16.2252L26.5955 16.2252L26.5945 16.2219L26.328 15.4163L25.7854 13.7754L25.3681 15.4525L24.5326 18.8104L24.4681 19.0697L24.6478 19.2675L26.854 21.6947L26.855 21.6958C27.1501 22.0185 27.3574 22.4065 27.4584 22.8296L27.4584 22.8296L27.4595 22.8337L28.537 27.1796C28.537 27.1796 28.537 27.1796 28.537 27.1797C28.6781 27.753 28.3327 28.3275 27.7695 28.4674L27.7695 28.4674L27.7654 28.4684C27.2113 28.611 26.6394 28.2694 26.4986 27.6974L26.4985 27.697L25.6154 24.123C25.6152 24.1223 25.6151 24.1217 25.6149 24.1211C25.4737 23.5319 25.1846 22.9932 24.7781 22.5477C24.7779 22.5475 24.7778 22.5473 24.7776 22.5471L21.8784 19.3557C21.8784 19.3556 21.8783 19.3555 21.8782 19.3555C21.2873 18.7032 21.0585 17.8002 21.2723 16.9433L21.2726 16.9422L22.0054 13.9754L22.2416 13.0192L21.3303 13.3928L20.0366 13.9233C19.569 14.1106 19.1919 14.4679 18.9752 14.9194L18.6502 15.581C18.6501 15.5813 18.65 15.5815 18.6498 15.5818C18.526 15.831 18.3137 16.0198 18.0538 16.1109C17.7932 16.1961 17.5093 16.1751 17.2668 16.0537C16.7542 15.7872 16.5424 15.1497 16.7984 14.6247C16.7985 14.6245 16.7985 14.6243 16.7986 14.6241L17.125 13.9597L17.1253 13.9591C17.3226 13.5562 17.842 13.0522 18.3839 12.6139C18.643 12.4044 18.8879 12.2249 19.0683 12.0978C19.1582 12.0344 19.2316 11.9843 19.282 11.9504C19.2992 11.9389 19.3137 11.9292 19.3252 11.9216Z" fill="#0069DE" stroke="#0069DE"/>
<path d="M16.6941 21.8896L16.694 21.8896L16.689 21.9026C16.6654 21.9643 16.6376 22.0104 16.5876 22.0637L15.2505 23.2702L5.29362 23.2683H5.29343C4.63032 23.2683 4.01207 22.6813 4.01202 21.9246C4.01202 21.9246 4.01202 21.9245 4.01202 21.9245L4.0125 16.4558L4.01258 15.4558H3.0125H1.50609C1.29673 15.4558 1.11182 15.3325 1.03831 15.1441C0.953197 14.9237 1.01161 14.6771 1.17913 14.5213L1.17932 14.5211L11.2543 5.14614L11.2544 5.14605C11.4643 4.95067 11.7845 4.95067 11.9944 5.14603C11.9944 5.14604 11.9945 5.14604 11.9945 5.14605L16.9252 9.73576C15.8398 10.4425 14.9618 11.4312 14.3847 12.6085C14.3846 12.6086 14.3846 12.6087 14.3846 12.6088L14.0584 13.2723L14.0572 13.2748C13.0731 15.2911 13.8853 17.7557 15.8738 18.7822L15.8737 18.7822L15.8825 18.7866C16.4636 19.0795 17.0942 19.2253 17.727 19.2253C17.7368 19.2253 17.7466 19.2253 17.7564 19.2252L16.6941 21.8896Z" stroke="#0069DE" stroke-width="2"/>
<path d="M10.306 17.2808C10.306 17.4418 10.181 17.562 10.031 17.562H6.93101C6.78104 17.562 6.65601 17.4418 6.65601 17.2808V14.1558C6.65601 13.9948 6.78107 13.8745 6.93101 13.8745H10.031C10.181 13.8745 10.306 13.9947 10.306 14.1558V15.7183V17.2808Z" fill="#0069DE" stroke="#0069DE"/>
</g>
<defs>
<clipPath id="clip0_2424_691">
<rect width="31" height="33" fill="white"/>
</clipPath>
</defs>
</svg>
