<svg width="31" height="33" viewBox="0 0 31 33" fill="none" xmlns="http://www.w3.org/2000/svg">
<path d="M15.5217 4C15.748 3.99999 15.9646 4.04988 16.1667 4.14342L25.2305 8.06563C26.2895 8.52376 27.0837 9.58832 27.0741 10.8306C27.05 15.7458 25.0861 24.6581 16.7925 28.7091C15.9886 29.097 15.0548 29.097 14.251 28.7091C5.95491 24.6581 3.99293 15.7458 3.92603 10.8306C3.96309 9.58832 4.75491 8.52376 5.81291 8.06563L14.8815 4.14342C15.0789 4.04988 15.3003 3.99999 15.5217 4Z" stroke="#0069DE" stroke-width="3"/>
<path d="M24.2965 11.1767C24.2539 15.3046 22.4546 22.1875 15.9631 25.2962V7.70361L24.2965 11.1767Z" fill="#0069DE"/>
</svg>
