<svg width="31" height="33" viewBox="0 0 31 33" fill="none" xmlns="http://www.w3.org/2000/svg">
<path d="M28.2993 13.6671C26.1132 13.822 22.9945 16.0886 21.4161 16.8323C20.188 17.4123 19.1287 17.9125 18.2045 17.9125C17.2507 17.9125 17.1073 17.1953 17.3056 15.6149C17.352 15.2608 17.7994 12.1088 15.5036 12.246C14.4443 12.3124 12.79 13.3439 8.35029 17.824L10.1017 13.2332C11.3846 9.87321 7.85652 6.52645 4.62805 8.68237L2.31115 10.3159C1.99885 10.524 1.90601 10.9622 2.10436 11.2942L2.83024 12.4895C3.02859 12.8215 3.44639 12.9189 3.76291 12.7064L6.21064 10.9844C6.98716 10.4664 7.92827 11.3031 7.59065 12.1841L3.44639 23.0566C3.15942 23.8047 3.56034 25 4.6998 25C5.05008 25 5.39613 24.8583 5.65357 24.5839C7.4345 22.7157 12.1823 17.9125 14.5667 15.916C14.4738 17.1776 14.4781 18.5234 15.436 19.6257C16.0817 20.3694 17.0102 20.7457 18.2003 20.7457C19.7027 20.7457 21.07 20.0994 22.5176 19.4177C23.9103 18.7625 26.6956 16.6464 28.3584 16.5047C28.7171 16.4737 28.9998 16.1816 28.9998 15.8053V14.3842C29.0083 13.9814 28.6833 13.6405 28.2993 13.6671Z" fill="#0069DE"/>
</svg>
