<svg width="31" height="33" viewBox="0 0 31 33" fill="none" xmlns="http://www.w3.org/2000/svg">
<path d="M4.57354 25.3075L4.22442 24.9639L4.57354 25.3075C4.71673 25.1621 4.79579 24.9665 4.79579 24.7641V23.9466C4.79579 23.8598 4.82978 23.7782 4.88782 23.7192C4.94561 23.6605 5.02229 23.629 5.10055 23.629H8.85613C8.93439 23.629 9.01108 23.6605 9.06886 23.7192C9.1269 23.7782 9.16089 23.8598 9.16089 23.9466V24.7641C9.16089 24.9665 9.23995 25.1621 9.38314 25.3075C9.52659 25.4533 9.72283 25.5366 9.92915 25.5366C10.1355 25.5366 10.3317 25.4533 10.4752 25.3075C10.6183 25.1621 10.6974 24.9665 10.6974 24.7641V23.9466C10.6974 23.4551 10.5053 22.9822 10.1609 22.6323C9.8162 22.2822 9.34703 22.084 8.85613 22.084H5.10055C4.60965 22.084 4.14048 22.2822 3.7958 22.6323C3.45139 22.9822 3.25928 23.4551 3.25928 23.9466V24.7641C3.25928 24.9665 3.33834 25.1621 3.48152 25.3075C3.62497 25.4533 3.82122 25.5366 4.02753 25.5366C4.23385 25.5366 4.4301 25.4533 4.57354 25.3075Z" fill="#0069DE" stroke="#0069DE"/>
<path d="M5.28267 19.5758C5.7317 20.0319 6.34157 20.2889 6.97832 20.2889C7.61507 20.2889 8.22493 20.0319 8.67396 19.5758C9.12286 19.1197 9.37436 18.5021 9.37436 17.8588C9.37436 17.2156 9.12286 16.5979 8.67396 16.1419C8.22493 15.6857 7.61507 15.4287 6.97832 15.4287C6.34157 15.4287 5.7317 15.6857 5.28267 16.1419C4.83377 16.5979 4.58228 17.2156 4.58228 17.8588C4.58228 18.5021 4.83377 19.1197 5.28267 19.5758Z" fill="#0069DE" stroke="#0069DE" stroke-width="0.5"/>
<path d="M21.45 25.3075L21.1009 24.9639L21.45 25.3075C21.5932 25.1621 21.6723 24.9665 21.6723 24.7641V23.9466C21.6723 23.8598 21.7062 23.7782 21.7643 23.7192C21.8221 23.6605 21.8988 23.629 21.977 23.629H25.7326C25.8109 23.629 25.8875 23.6605 25.9453 23.7192C26.0034 23.7782 26.0374 23.8598 26.0374 23.9466V24.7641C26.0374 24.9665 26.1164 25.1621 26.2596 25.3075C26.4031 25.4533 26.5993 25.5366 26.8056 25.5366C27.0119 25.5366 27.2082 25.4533 27.3516 25.3075C27.4948 25.1621 27.5739 24.9665 27.5739 24.7641V23.9466C27.5739 23.4551 27.3818 22.9822 27.0373 22.6323C26.6927 22.2822 26.2235 22.084 25.7326 22.084H21.977C21.4861 22.084 21.0169 22.2822 20.6723 22.6323C20.3279 22.9822 20.1357 23.4551 20.1357 23.9466V24.7641C20.1357 24.9665 20.2148 25.1621 20.358 25.3075C20.5014 25.4533 20.6977 25.5366 20.904 25.5366C21.1103 25.5366 21.3066 25.4533 21.45 25.3075Z" fill="#0069DE" stroke="#0069DE"/>
<path d="M22.1591 19.5758C22.6082 20.0319 23.218 20.2889 23.8548 20.2889C24.4915 20.2889 25.1014 20.0319 25.5504 19.5758C25.9993 19.1197 26.2508 18.5021 26.2508 17.8588C26.2508 17.2156 25.9993 16.5979 25.5504 16.1419C25.1014 15.6857 24.4915 15.4287 23.8548 15.4287C23.218 15.4287 22.6082 15.6857 22.1591 16.1419C21.7102 16.5979 21.4587 17.2156 21.4587 17.8588C21.4587 18.5021 21.7102 19.1197 22.1591 19.5758Z" fill="#0069DE" stroke="#0069DE" stroke-width="0.5"/>
<path d="M13.0118 21.6288L12.6626 21.2852L13.0118 21.6288C13.155 21.4834 13.234 21.2877 13.234 21.0854V20.2678C13.234 20.1811 13.268 20.0995 13.3261 20.0405C13.3838 19.9818 13.4605 19.9503 13.5388 19.9503H17.2944C17.3726 19.9503 17.4493 19.9818 17.5071 20.0405C17.5651 20.0995 17.5991 20.1811 17.5991 20.2678V21.0854C17.5991 21.2877 17.6782 21.4834 17.8214 21.6288C17.9648 21.7746 18.1611 21.8579 18.3674 21.8579C18.5737 21.8579 18.7699 21.7746 18.9134 21.6288C19.0566 21.4834 19.1356 21.2877 19.1356 21.0854V20.2678C19.1356 19.7764 18.9435 19.3035 18.5991 18.9536C18.2544 18.6035 17.7853 18.4053 17.2944 18.4053H13.5388C13.0479 18.4053 12.5787 18.6035 12.234 18.9536C11.8896 19.3035 11.6975 19.7764 11.6975 20.2678V21.0854C11.6975 21.2877 11.7766 21.4834 11.9198 21.6288C12.0632 21.7746 12.2594 21.8579 12.4658 21.8579C12.6721 21.8579 12.8683 21.7746 13.0118 21.6288Z" fill="#0069DE" stroke="#0069DE"/>
<path d="M13.7209 15.8971C14.1699 16.3532 14.7798 16.6102 15.4166 16.6102C16.0533 16.6102 16.6632 16.3532 17.1122 15.8971C17.5611 15.441 17.8126 14.8234 17.8126 14.1801C17.8126 13.5369 17.5611 12.9192 17.1122 12.4632C16.6632 12.007 16.0533 11.75 15.4166 11.75C14.7798 11.75 14.1699 12.007 13.7209 12.4632C13.272 12.9192 13.0205 13.5369 13.0205 14.1801C13.0205 14.8234 13.272 15.441 13.7209 15.8971Z" fill="#0069DE" stroke="#0069DE" stroke-width="0.5"/>
<path d="M4 13L15.5 7L27 13" stroke="#0069DE" stroke-width="2" stroke-linecap="round" stroke-linejoin="round"/>
</svg>
