<svg width="31" height="33" viewBox="0 0 31 33" fill="none" xmlns="http://www.w3.org/2000/svg">
<path d="M18.6 11.3438H21.7C22.3785 11.3438 23.0503 11.4771 23.6772 11.7362C24.304 11.9954 24.8736 12.3752 25.3534 12.854C25.8331 13.3328 26.2137 13.9012 26.4733 14.5268C26.733 15.1524 26.8666 15.8229 26.8666 16.5C26.8666 17.1771 26.733 17.8476 26.4733 18.4732C26.2137 19.0988 25.8331 19.6672 25.3534 20.146C24.8736 20.6248 24.304 21.0046 23.6772 21.2638C23.0503 21.5229 22.3785 21.6563 21.7 21.6562H18.6M12.4 21.6562H9.29997C8.62147 21.6563 7.94962 21.5229 7.32277 21.2638C6.69592 21.0046 6.12635 20.6248 5.64658 20.146C4.67764 19.179 4.1333 17.8675 4.1333 16.5C4.1333 15.1325 4.67764 13.821 5.64658 12.854C6.61552 11.887 7.92968 11.3438 9.29997 11.3438H12.4" stroke="#0069DE" stroke-width="3" stroke-linecap="round" stroke-linejoin="round"/>
<path d="M11.3667 16.5H19.6334" stroke="#0069DE" stroke-width="3" stroke-linecap="round" stroke-linejoin="round"/>
</svg>
