<svg width="31" height="33" viewBox="0 0 31 33" fill="none" xmlns="http://www.w3.org/2000/svg">
<path d="M18.4001 8.3L19.5001 5L20.6001 8.3L23.9001 9.4L20.6001 10.5L19.5001 13.8L18.4001 10.5L15.1001 9.4L18.4001 8.3Z" fill="#0069DE"/>
<path d="M19.5001 5L19.9744 4.84189C19.9064 4.63772 19.7153 4.5 19.5001 4.5C19.2849 4.5 19.0938 4.63772 19.0258 4.84189L19.5001 5ZM18.4001 8.3L18.5582 8.77434C18.7075 8.72457 18.8247 8.60742 18.8744 8.45811L18.4001 8.3ZM15.1001 9.4L14.942 8.92566C14.7378 8.99372 14.6001 9.18478 14.6001 9.4C14.6001 9.61522 14.7378 9.80628 14.942 9.87434L15.1001 9.4ZM18.4001 10.5L18.8744 10.3419C18.8247 10.1926 18.7075 10.0754 18.5582 10.0257L18.4001 10.5ZM19.5001 13.8L19.0258 13.9581C19.0938 14.1623 19.2849 14.3 19.5001 14.3C19.7153 14.3 19.9064 14.1623 19.9744 13.9581L19.5001 13.8ZM20.6001 10.5L20.442 10.0257C20.2927 10.0754 20.1755 10.1926 20.1258 10.3419L20.6001 10.5ZM23.9001 9.4L24.0582 9.87434C24.2624 9.80628 24.4001 9.61522 24.4001 9.4C24.4001 9.18478 24.2624 8.99372 24.0582 8.92566L23.9001 9.4ZM20.6001 8.3L20.1258 8.45811C20.1755 8.60742 20.2927 8.72457 20.442 8.77434L20.6001 8.3ZM19.0258 4.84189L17.9258 8.14189L18.8744 8.45811L19.9744 5.15811L19.0258 4.84189ZM18.242 7.82566L14.942 8.92566L15.2582 9.87434L18.5582 8.77434L18.242 7.82566ZM14.942 9.87434L18.242 10.9743L18.5582 10.0257L15.2582 8.92566L14.942 9.87434ZM17.9258 10.6581L19.0258 13.9581L19.9744 13.6419L18.8744 10.3419L17.9258 10.6581ZM19.9744 13.9581L21.0744 10.6581L20.1258 10.3419L19.0258 13.6419L19.9744 13.9581ZM20.7582 10.9743L24.0582 9.87434L23.742 8.92566L20.442 10.0257L20.7582 10.9743ZM24.0582 8.92566L20.7582 7.82566L20.442 8.77434L23.742 9.87434L24.0582 8.92566ZM21.0744 8.14189L19.9744 4.84189L19.0258 5.15811L20.1258 8.45811L21.0744 8.14189Z" fill="#0069DE"/>
<path d="M9.1875 16.6875L11.25 10.5L13.3125 16.6875L19.5 18.75L13.3125 20.8125L11.25 27L9.1875 20.8125L3 18.75L9.1875 16.6875Z" fill="#0069DE"/>
<path d="M11.25 10.5L11.7243 10.3419C11.6563 10.1377 11.4652 10 11.25 10C11.0348 10 10.8437 10.1377 10.7757 10.3419L11.25 10.5ZM9.1875 16.6875L9.34561 17.1618C9.49492 17.1121 9.61207 16.9949 9.66184 16.8456L9.1875 16.6875ZM3 18.75L2.84189 18.2757C2.63772 18.3437 2.5 18.5348 2.5 18.75C2.5 18.9652 2.63772 19.1563 2.84189 19.2243L3 18.75ZM9.1875 20.8125L9.66184 20.6544C9.61207 20.5051 9.49492 20.3879 9.34561 20.3382L9.1875 20.8125ZM11.25 27L10.7757 27.1581C10.8437 27.3623 11.0348 27.5 11.25 27.5C11.4652 27.5 11.6563 27.3623 11.7243 27.1581L11.25 27ZM13.3125 20.8125L13.1544 20.3382C13.0051 20.3879 12.8879 20.5051 12.8382 20.6544L13.3125 20.8125ZM19.5 18.75L19.6581 19.2243C19.8623 19.1563 20 18.9652 20 18.75C20 18.5348 19.8623 18.3437 19.6581 18.2757L19.5 18.75ZM13.3125 16.6875L12.8382 16.8456C12.8879 16.9949 13.0051 17.1121 13.1544 17.1618L13.3125 16.6875ZM10.7757 10.3419L8.71316 16.5294L9.66184 16.8456L11.7243 10.6581L10.7757 10.3419ZM9.02939 16.2132L2.84189 18.2757L3.15811 19.2243L9.34561 17.1618L9.02939 16.2132ZM2.84189 19.2243L9.02939 21.2868L9.34561 20.3382L3.15811 18.2757L2.84189 19.2243ZM8.71316 20.9706L10.7757 27.1581L11.7243 26.8419L9.66184 20.6544L8.71316 20.9706ZM11.7243 27.1581L13.7868 20.9706L12.8382 20.6544L10.7757 26.8419L11.7243 27.1581ZM13.4706 21.2868L19.6581 19.2243L19.3419 18.2757L13.1544 20.3382L13.4706 21.2868ZM19.6581 18.2757L13.4706 16.2132L13.1544 17.1618L19.3419 19.2243L19.6581 18.2757ZM13.7868 16.5294L11.7243 10.3419L10.7757 10.6581L12.8382 16.8456L13.7868 16.5294Z" fill="#0069DE"/>
<path d="M23.7625 21.3623L24.45 19.2998L25.1375 21.3623L27.2 22.0498L25.1375 22.7373L24.45 24.7998L23.7625 22.7373L21.7 22.0498L23.7625 21.3623Z" fill="#0069DE"/>
<path d="M24.45 19.2998L24.9243 19.1417C24.8562 18.9375 24.6652 18.7998 24.45 18.7998C24.2347 18.7998 24.0437 18.9375 23.9756 19.1417L24.45 19.2998ZM23.7625 21.3623L23.9206 21.8366C24.0699 21.7869 24.187 21.6697 24.2368 21.5204L23.7625 21.3623ZM21.7 22.0498L21.5418 21.5755C21.3377 21.6435 21.2 21.8346 21.2 22.0498C21.2 22.265 21.3377 22.4561 21.5418 22.5241L21.7 22.0498ZM23.7625 22.7373L24.2368 22.5792C24.187 22.4299 24.0699 22.3127 23.9206 22.263L23.7625 22.7373ZM24.45 24.7998L23.9756 24.9579C24.0437 25.1621 24.2347 25.2998 24.45 25.2998C24.6652 25.2998 24.8562 25.1621 24.9243 24.9579L24.45 24.7998ZM25.1375 22.7373L24.9793 22.263C24.83 22.3127 24.7129 22.4299 24.6631 22.5792L25.1375 22.7373ZM27.2 22.0498L27.3581 22.5241C27.5622 22.4561 27.7 22.265 27.7 22.0498C27.7 21.8346 27.5622 21.6435 27.3581 21.5755L27.2 22.0498ZM25.1375 21.3623L24.6631 21.5204C24.7129 21.6697 24.83 21.7869 24.9793 21.8366L25.1375 21.3623ZM23.9756 19.1417L23.2881 21.2042L24.2368 21.5204L24.9243 19.4579L23.9756 19.1417ZM23.6043 20.888L21.5418 21.5755L21.8581 22.5241L23.9206 21.8366L23.6043 20.888ZM21.5418 22.5241L23.6043 23.2116L23.9206 22.263L21.8581 21.5755L21.5418 22.5241ZM23.2881 22.8954L23.9756 24.9579L24.9243 24.6417L24.2368 22.5792L23.2881 22.8954ZM24.9243 24.9579L25.6118 22.8954L24.6631 22.5792L23.9756 24.6417L24.9243 24.9579ZM25.2956 23.2116L27.3581 22.5241L27.0418 21.5755L24.9793 22.263L25.2956 23.2116ZM27.3581 21.5755L25.2956 20.888L24.9793 21.8366L27.0418 22.5241L27.3581 21.5755ZM25.6118 21.2042L24.9243 19.1417L23.9756 19.4579L24.6631 21.5204L25.6118 21.2042Z" fill="#0069DE"/>
</svg>
